<?xml version="1.0" encoding="UTF-8"?>
<!DOCTYPE svg PUBLIC "-//W3C//DTD SVG 1.1//EN" "http://www.w3.org/Graphics/SVG/1.1/DTD/svg11.dtd">
<svg xmlns="http://www.w3.org/2000/svg" xml:space="preserve" width="590px" height="590px" version="1.1" style="shape-rendering:geometricPrecision; text-rendering:geometricPrecision; image-rendering:optimizeQuality; fill-rule:evenodd; clip-rule:evenodd"
viewBox="0 0 44.11 44.11"
 xmlns:xlink="http://www.w3.org/1999/xlink">
 <defs>
  <style type="text/css">
   <![CDATA[
    .fil0 {fill:#0E4F95}
    .fil1 {fill:#FFFFFF;fill-rule:nonzero}
   ]]>
  </style>
 </defs>
 <g id="Layer_x0020_1">
  <circle class="fil0" cx="22.05" cy="22.05" r="22.05"/>
  <polygon class="fil1" points="16.59,33.11 12.99,33.11 12.99,17.34 8.36,20.02 8.36,15.94 16.94,10.99 16.94,33.11 "/>
  <path class="fil1" d="M28.56 10.56c2.56,0 4.59,1.04 6.09,3.12 1.5,2.09 2.25,4.88 2.25,8.36 0,3.5 -0.75,6.29 -2.25,8.36 -1.5,2.07 -3.53,3.11 -6.09,3.11 -2.79,0 -4.87,-1.12 -6.25,-3.35 -1.39,-2.24 -2.08,-4.94 -2.08,-8.12 0,-3.48 0.75,-6.27 2.25,-8.36 1.49,-2.08 3.51,-3.12 6.08,-3.12zm3.11 5.69c-0.76,-1.32 -1.81,-1.98 -3.11,-1.98 -1.31,0 -2.34,0.66 -3.1,1.98 -0.8,1.4 -1.2,3.33 -1.2,5.79 0,2.48 0.4,4.41 1.2,5.8 0.77,1.32 1.8,1.98 3.1,1.98 1.29,0 2.34,-0.66 3.11,-1.98 0.81,-1.41 1.22,-3.34 1.22,-5.8 0,-2.44 -0.41,-4.38 -1.22,-5.79z"/>
 </g>
</svg>
