<?xml version="1.0" encoding="UTF-8"?>
<!DOCTYPE svg PUBLIC "-//W3C//DTD SVG 1.1//EN" "http://www.w3.org/Graphics/SVG/1.1/DTD/svg11.dtd">
<!-- Creator: CorelDRAW 2019 (64-Bit) -->
<svg xmlns="http://www.w3.org/2000/svg" xml:space="preserve" width="591px" height="591px" version="1.1" style="shape-rendering:geometricPrecision; text-rendering:geometricPrecision; image-rendering:optimizeQuality; fill-rule:evenodd; clip-rule:evenodd"
viewBox="0 0 103.92 103.92"
 xmlns:xlink="http://www.w3.org/1999/xlink">
 <defs>
  <style type="text/css">
   <![CDATA[
    .fil0 {fill:#0E4F95}
    .fil1 {fill:#FEFEFE;fill-rule:nonzero}
   ]]>
  </style>
 </defs>
 <g id="Layer_x0020_1">
  <metadata id="CorelCorpID_0Corel-Layer"/>
  <g id="_2527393668560">
   <circle class="fil0" cx="51.96" cy="51.96" r="51.96"/>
  </g>
  <polygon class="fil1" points="39.11,77.54 31.28,77.54 31.28,38.87 20.11,45.33 20.11,37.4 39.11,26.45 "/>
  <path id="1" class="fil1" d="M64.8 78.48c-6.36,0 -11.11,-2.58 -14.28,-7.73 -3.15,-5.15 -4.73,-11.4 -4.73,-18.75 0,-7.31 1.58,-13.56 4.73,-18.76 3.17,-5.2 7.92,-7.8 14.28,-7.8 6.31,0 11.05,2.6 14.24,7.8 3.17,5.2 4.77,11.45 4.77,18.76 0,7.35 -1.6,13.6 -4.77,18.75 -3.19,5.15 -7.93,7.73 -14.24,7.73zm0 -7.12c3.8,0 6.6,-1.88 8.39,-5.65 1.81,-3.76 2.71,-8.34 2.71,-13.71 0,-5.33 -0.9,-9.9 -2.71,-13.68 -1.79,-3.8 -4.59,-5.69 -8.39,-5.69 -3.85,0 -6.67,1.89 -8.47,5.69 -1.81,3.78 -2.7,8.35 -2.7,13.68 0,5.37 0.89,9.95 2.7,13.71 1.8,3.77 4.62,5.65 8.47,5.65z"/>
 </g>
</svg>
