<?xml version="1.0" encoding="UTF-8"?>
<!DOCTYPE svg PUBLIC "-//W3C//DTD SVG 1.1//EN" "http://www.w3.org/Graphics/SVG/1.1/DTD/svg11.dtd">
<!-- Creator: CorelDRAW -->
<svg xmlns="http://www.w3.org/2000/svg" xml:space="preserve" width="236px" height="236px" version="1.1" style="shape-rendering:geometricPrecision; text-rendering:geometricPrecision; image-rendering:optimizeQuality; fill-rule:evenodd; clip-rule:evenodd"
viewBox="0 0 26.34 26.34"
 xmlns:xlink="http://www.w3.org/1999/xlink"
 xmlns:xodm="http://www.corel.com/coreldraw/odm/2003">
 <defs>
  <style type="text/css">
   <![CDATA[
    .fil0 {fill:#0E4F95}
    .fil1 {fill:#FEFEFE;fill-rule:nonzero}
   ]]>
  </style>
 </defs>
 <g id="Layer_x0020_1">
  <metadata id="CorelCorpID_0Corel-Layer"/>
  <path class="fil0" d="M13.17 0c7.27,0 13.17,5.9 13.17,13.17 0,7.27 -5.9,13.17 -13.17,13.17 -7.27,0 -13.17,-5.9 -13.17,-13.17 0,-7.27 5.9,-13.17 13.17,-13.17z"/>
  <polygon class="fil1" points="9.28,19.77 7.13,19.77 7.13,10.35 4.36,11.95 4.36,9.52 9.49,6.56 9.49,19.77 "/>
  <path class="fil1" d="M12.73 9.94c-0.23,-0.84 -0.42,-1.56 -0.58,-2.17 0.65,-0.44 1.34,-0.79 2.07,-1.06 0.72,-0.27 1.49,-0.4 2.29,-0.4 1.21,0 2.24,0.4 3.12,1.21 0.84,0.8 1.27,1.77 1.27,2.91 0,1.23 -0.44,2.38 -1.31,3.46 -0.42,0.51 -0.95,1.06 -1.6,1.65 -0.65,0.58 -1.42,1.25 -2.34,2.01l5.54 0 0 2.22c-1.56,0 -3.12,0 -4.68,0 -1.55,0 -3.11,0 -4.66,0l0 -2.1c0.83,-0.7 1.68,-1.42 2.57,-2.16 0.89,-0.74 1.7,-1.5 2.45,-2.29 1.03,-1.08 1.55,-2.01 1.55,-2.79 0,-0.51 -0.19,-0.95 -0.57,-1.34 -0.38,-0.38 -0.83,-0.57 -1.34,-0.57 -0.73,0 -1.4,0.14 -2,0.42 -0.61,0.28 -1.2,0.62 -1.78,1z"/>
 </g>
</svg>
