<?xml version="1.0" encoding="UTF-8"?>
<!DOCTYPE svg PUBLIC "-//W3C//DTD SVG 1.1//EN" "http://www.w3.org/Graphics/SVG/1.1/DTD/svg11.dtd">
<svg xmlns="http://www.w3.org/2000/svg" xml:space="preserve" width="590px" height="590px" version="1.1" style="shape-rendering:geometricPrecision; text-rendering:geometricPrecision; image-rendering:optimizeQuality; fill-rule:evenodd; clip-rule:evenodd"
viewBox="0 0 65.73 65.73"
 xmlns:xlink="http://www.w3.org/1999/xlink">
 <defs>
  <style type="text/css">
   <![CDATA[
    .fil0 {fill:#0E4F95}
    .fil1 {fill:#FFFFFF;fill-rule:nonzero}
   ]]>
  </style>
 </defs>
 <g id="Layer_x0020_1">
  <circle class="fil0" cx="32.86" cy="32.86" r="32.86"/>
  <polygon class="fil1" points="23.16,49.35 17.79,49.35 17.79,25.84 10.88,29.83 10.88,23.75 23.68,16.37 23.68,49.35 "/>
  <path class="fil1" d="M31.76 24.8c-0.55,-2.08 -1.04,-3.89 -1.44,-5.41 1.63,-1.09 3.35,-1.97 5.16,-2.64 1.81,-0.67 3.72,-1.01 5.73,-1.01 3.01,0 5.59,1.01 7.77,3.04 2.11,1.99 3.17,4.4 3.17,7.24 0,3.08 -1.09,5.96 -3.27,8.63 -1.04,1.29 -2.37,2.65 -3.98,4.12 -1.62,1.46 -3.56,3.14 -5.84,5.03l13.81 0 0 5.55c-3.89,0 -7.78,0 -11.66,0 -3.88,0 -7.76,0 -11.64,0l0 -5.26c2.07,-1.73 4.2,-3.52 6.42,-5.38 2.21,-1.85 4.25,-3.75 6.1,-5.71 2.58,-2.71 3.87,-5.03 3.87,-6.98 0,-1.27 -0.47,-2.37 -1.42,-3.32 -0.95,-0.96 -2.06,-1.43 -3.33,-1.43 -1.83,0 -3.49,0.35 -5.01,1.05 -1.51,0.7 -2.98,1.53 -4.44,2.48z"/>
 </g>
</svg>
