<?xml version="1.0" encoding="UTF-8"?>
<!DOCTYPE svg PUBLIC "-//W3C//DTD SVG 1.1//EN" "http://www.w3.org/Graphics/SVG/1.1/DTD/svg11.dtd">
<!-- Creator: CorelDRAW 2019 (64-Bit) -->
<svg xmlns="http://www.w3.org/2000/svg" xml:space="preserve" width="591px" height="591px" version="1.1" style="shape-rendering:geometricPrecision; text-rendering:geometricPrecision; image-rendering:optimizeQuality; fill-rule:evenodd; clip-rule:evenodd"
viewBox="0 0 189.82 189.83"
 xmlns:xlink="http://www.w3.org/1999/xlink">
 <defs>
  <style type="text/css">
   <![CDATA[
    .fil0 {fill:#0E4F95}
    .fil1 {fill:#FEFEFE;fill-rule:nonzero}
   ]]>
  </style>
 </defs>
 <g id="Layer_x0020_1">
  <metadata id="CorelCorpID_0Corel-Layer"/>
  <g id="_2527460219312">
   <circle class="fil0" cx="94.91" cy="94.91" r="94.91"/>
  </g>
  <polygon class="fil1" points="73.1,140.72 58.8,140.72 58.8,70.08 38.41,81.87 38.41,67.39 73.1,47.4 "/>
  <path id="1" class="fil1" d="M101.8 84.96l21.4 -25.62 -34.35 0 0 -11.94 60.12 0 -28.2 33.47c11.11,0.94 19.53,5.29 25.24,13.08 3.85,5.47 5.41,12.01 4.69,19.62 -0.73,7.62 -3.4,13.68 -8.01,18.2 -1.88,1.73 -3.28,2.91 -4.22,3.61 -6.68,4.71 -14.7,7.05 -24.11,7.05 -5.97,0 -11.24,-0.59 -15.77,-1.8 -1.88,-0.52 -3.79,-1.13 -5.69,-1.88 -1.93,-0.72 -3.65,-1.6 -5.21,-2.62 -0.76,-0.18 -1.13,-0.48 -1.13,-0.9 0,-1.03 0,-3.46 0,-7.26 0,-3.81 0,-6.06 0,-6.74 3.82,2.56 7.61,4.51 11.33,5.84 3.72,1.31 8.09,2.1 13.14,2.36 4.45,0.26 8.82,-0.37 13.13,-1.86 4.33,-1.48 7.63,-4.15 9.93,-8 2.5,-3.94 3.13,-8.43 1.93,-13.46 -0.68,-2.29 -1.67,-4.24 -2.96,-5.84 -1.27,-1.57 -2.64,-2.91 -4.09,-4.02 -2.56,-1.88 -5.68,-3.07 -9.36,-3.52 -3.68,-0.49 -7.18,-0.46 -10.5,0.06 -2.82,0.33 -5.25,0.99 -7.31,1.93l0 -9.76z"/>
 </g>
</svg>
