<?xml version="1.0" encoding="UTF-8"?>
<!DOCTYPE svg PUBLIC "-//W3C//DTD SVG 1.1//EN" "http://www.w3.org/Graphics/SVG/1.1/DTD/svg11.dtd">
<!-- Creator: CorelDRAW 2019 (64-Bit) -->
<svg xmlns="http://www.w3.org/2000/svg" xml:space="preserve" width="591px" height="591px" version="1.1" style="shape-rendering:geometricPrecision; text-rendering:geometricPrecision; image-rendering:optimizeQuality; fill-rule:evenodd; clip-rule:evenodd"
viewBox="0 0 74.93 74.93"
 xmlns:xlink="http://www.w3.org/1999/xlink">
 <defs>
  <style type="text/css">
   <![CDATA[
    .fil0 {fill:#0E4F95}
    .fil1 {fill:#FEFEFE;fill-rule:nonzero}
   ]]>
  </style>
 </defs>
 <g id="Layer_x0020_1">
  <metadata id="CorelCorpID_0Corel-Layer"/>
  <g id="_2527258150848">
   <circle class="fil0" cx="37.47" cy="37.47" r="37.47"/>
  </g>
  <polygon class="fil1" points="27.79,55.98 22.14,55.98 22.14,28.09 14.09,32.75 14.09,27.03 27.79,19.14 "/>
  <path id="1" class="fil1" d="M57.87 26.03c-0.24,-0.11 -0.46,-0.24 -0.67,-0.41 -1.54,-0.97 -3.38,-1.59 -5.51,-1.82 -1.75,-0.2 -3.45,-0.03 -5.08,0.51 -1.64,0.53 -3,1.47 -4.08,2.78 -2.09,2.56 -3.19,5.64 -3.29,9.21 0.07,-0.03 0.16,-0.12 0.26,-0.25 0.09,-0.13 0.2,-0.26 0.3,-0.36 0.27,-0.27 0.53,-0.53 0.79,-0.78 0.25,-0.26 0.58,-0.5 0.98,-0.73 1.05,-0.68 2.06,-1.15 3.03,-1.42 2.44,-0.64 4.86,-0.7 7.27,-0.15 2.41,0.53 4.43,1.73 6.04,3.59 1.49,1.79 2.36,3.86 2.63,6.23 0.3,3.04 -0.12,5.56 -1.29,7.56 -1.16,2.01 -2.55,3.56 -4.15,4.64 -1.9,1.21 -4.18,1.88 -6.84,2.02 -1.21,0 -2.49,-0.11 -3.85,-0.33 -1.34,-0.22 -2.53,-0.59 -3.54,-1.14 -0.27,-0.14 -0.52,-0.27 -0.76,-0.4 -0.23,-0.13 -0.45,-0.29 -0.65,-0.46 -0.11,-0.06 -0.2,-0.13 -0.31,-0.2 -0.1,-0.07 -0.2,-0.16 -0.3,-0.25 -0.98,-0.74 -1.85,-1.73 -2.63,-2.94 -1.19,-1.78 -2.01,-3.93 -2.48,-6.43 -0.44,-2.43 -0.54,-5.09 -0.3,-7.97 0.23,-2.89 0.81,-5.39 1.72,-7.51 0.37,-0.92 0.72,-1.67 1.06,-2.26 0.33,-0.59 0.78,-1.28 1.31,-2.04 0.48,-0.72 0.99,-1.34 1.52,-1.88 0.54,-0.61 1.11,-1.13 1.72,-1.57 2.03,-1.49 4.28,-2.38 6.79,-2.68 2.49,-0.31 4.95,-0.07 7.38,0.71 0.41,0.13 0.92,0.35 1.56,0.66l1.37 0.81 0 5.26zm-18.55 18.46c0.37,2.13 1.27,3.86 2.68,5.21 1.42,1.35 3.26,1.98 5.51,1.87 2.27,-0.03 4.04,-0.79 5.32,-2.27 0.17,-0.1 0.32,-0.26 0.45,-0.46 0.24,-0.33 0.37,-0.52 0.41,-0.56 0.27,-0.39 0.49,-0.82 0.65,-1.26 0.89,-2.16 0.82,-4.26 -0.19,-6.32 -0.24,-0.41 -0.64,-0.94 -1.22,-1.61 -1.75,-1.72 -3.88,-2.45 -6.37,-2.18 -1.83,0.23 -3.41,0.89 -4.76,1.97 -0.91,0.67 -1.64,1.52 -2.18,2.53 -0.34,0.71 -0.5,1.21 -0.5,1.49 0,0.29 0.07,0.81 0.2,1.59z"/>
 </g>
</svg>
