<?xml version="1.0" encoding="UTF-8"?>
<!DOCTYPE svg PUBLIC "-//W3C//DTD SVG 1.1//EN" "http://www.w3.org/Graphics/SVG/1.1/DTD/svg11.dtd">
<!-- Creator: CorelDRAW 2019 (64-Bit) -->
<svg xmlns="http://www.w3.org/2000/svg" xml:space="preserve" width="591px" height="591px" version="1.1" style="shape-rendering:geometricPrecision; text-rendering:geometricPrecision; image-rendering:optimizeQuality; fill-rule:evenodd; clip-rule:evenodd"
viewBox="0 0 60.84 60.84"
 xmlns:xlink="http://www.w3.org/1999/xlink">
 <defs>
  <style type="text/css">
   <![CDATA[
    .fil0 {fill:#0E4F95}
    .fil1 {fill:#FEFEFE;fill-rule:nonzero}
   ]]>
  </style>
 </defs>
 <g id="Layer_x0020_1">
  <metadata id="CorelCorpID_0Corel-Layer"/>
  <g id="_2527445512656">
   <circle class="fil0" cx="30.42" cy="30.42" r="30.42"/>
  </g>
  <polygon class="fil1" points="23.11,45.4 18.52,45.4 18.52,22.76 11.99,26.54 11.99,21.89 23.11,15.49 "/>
  <path id="1" class="fil1" d="M28.03 36.9c0,-1.98 0.49,-3.57 1.48,-4.78 0.99,-1.2 2.11,-2.13 3.37,-2.79 -0.99,-0.58 -1.83,-1.35 -2.52,-2.32 -0.68,-0.98 -1.03,-2.21 -1.03,-3.69 0,-2.3 0.76,-4.28 2.27,-5.93 1.51,-1.67 3.78,-2.49 6.82,-2.49 3.04,0 5.32,0.83 6.82,2.51 1.51,1.67 2.27,3.64 2.27,5.91 0,1.81 -0.48,3.2 -1.43,4.16 -0.94,0.96 -1.72,1.61 -2.32,1.97 3.4,1.45 5.09,3.94 5.09,7.45 0,2.03 -0.84,4.04 -2.52,6.04 -1.68,2 -4.32,3 -7.91,3 -3.59,0 -6.21,-1 -7.89,-3 -1.67,-2 -2.5,-4.01 -2.5,-6.04zm4.58 0.01c0,1.59 0.57,2.93 1.72,4.03 1.13,1.09 2.5,1.64 4.09,1.64 1.59,0 2.97,-0.53 4.12,-1.61 1.15,-1.06 1.73,-2.42 1.73,-4.06 0,-1.59 -0.58,-2.77 -1.75,-3.55 -1.17,-0.79 -2.56,-1.41 -4.18,-1.87 -0.36,-0.12 -0.95,-0.28 -1.77,-0.49 -1.19,0.51 -2.14,1.28 -2.86,2.29 -0.73,1.01 -1.1,2.22 -1.1,3.62zm5.77 -8.99c0.05,0.03 0.29,0.09 0.72,0.19 0.42,0.09 0.65,0.14 0.67,0.14 0.61,-0.36 1.34,-0.91 2.22,-1.67 0.88,-0.75 1.31,-1.84 1.31,-3.26 0,-1.34 -0.48,-2.5 -1.44,-3.47 -0.95,-0.98 -2.1,-1.46 -3.44,-1.46 -1.34,0 -2.48,0.47 -3.42,1.44 -0.95,0.96 -1.42,2.12 -1.42,3.49 0,1.39 0.44,2.42 1.33,3.08 0.9,0.65 2.05,1.17 3.47,1.52z"/>
 </g>
</svg>
