<?xml version="1.0" encoding="UTF-8"?>
<!DOCTYPE svg PUBLIC "-//W3C//DTD SVG 1.1//EN" "http://www.w3.org/Graphics/SVG/1.1/DTD/svg11.dtd">
<!-- Creator: CorelDRAW 2019 (64-Bit) -->
<svg xmlns="http://www.w3.org/2000/svg" xml:space="preserve" width="591px" height="591px" version="1.1" style="shape-rendering:geometricPrecision; text-rendering:geometricPrecision; image-rendering:optimizeQuality; fill-rule:evenodd; clip-rule:evenodd"
viewBox="0 0 103.93 103.93"
 xmlns:xlink="http://www.w3.org/1999/xlink">
 <defs>
  <style type="text/css">
   <![CDATA[
    .fil0 {fill:#0E4F95}
    .fil1 {fill:#FEFEFE;fill-rule:nonzero}
   ]]>
  </style>
 </defs>
 <g id="Layer_x0020_1">
  <metadata id="CorelCorpID_0Corel-Layer"/>
  <g id="_2527465292224">
   <circle class="fil0" cx="51.96" cy="51.96" r="51.96"/>
  </g>
  <polygon class="fil1" points="39.12,77.45 31.29,77.45 31.29,38.78 20.13,45.23 20.13,37.3 39.12,26.36 "/>
  <path id="1" class="fil1" d="M49.47 75.26l0.06 -7.37c0.57,0.37 0.85,0.57 0.85,0.57 2.02,1.35 4.57,2.22 7.64,2.6 2.45,0.27 4.8,0.04 7.06,-0.71 2.27,-0.74 4.18,-2.04 5.72,-3.86 2.85,-3.51 4.38,-7.79 4.57,-12.85 -0.15,0.1 -0.29,0.24 -0.42,0.42 -0.15,0.19 -0.27,0.34 -0.36,0.43 -0.98,0.98 -1.8,1.7 -2.46,2.17 -1.3,0.85 -2.73,1.5 -4.27,1.96 -3.38,0.95 -6.75,1.03 -10.11,0.29 -3.37,-0.75 -6.13,-2.43 -8.28,-5.05 -2.11,-2.43 -3.31,-5.35 -3.64,-8.71 -0.37,-4.17 0.22,-7.64 1.79,-10.42 1.55,-2.79 3.48,-4.96 5.76,-6.5 2.67,-1.78 5.83,-2.73 9.47,-2.88 1.69,0 3.46,0.16 5.31,0.46 1.84,0.31 3.49,0.85 4.94,1.65 0.99,0.61 1.62,1.01 1.9,1.2 0.14,0.13 0.28,0.25 0.41,0.34 0.15,0.1 0.32,0.21 0.5,0.35 1.27,1.03 2.47,2.36 3.65,4 1.59,2.53 2.74,5.5 3.44,8.92 0.65,3.37 0.8,7.08 0.42,11.13 -0.38,4.05 -1.17,7.5 -2.39,10.35 -0.56,1.27 -1.08,2.32 -1.54,3.16 -0.47,0.84 -1.06,1.81 -1.75,2.88 -0.66,0.93 -1.37,1.8 -2.11,2.59 -0.89,0.89 -1.71,1.62 -2.46,2.18 -2.81,2.02 -5.94,3.21 -9.4,3.62 -3.46,0.4 -6.86,0.07 -10.18,-0.96 -0.79,-0.18 -1.52,-0.49 -2.16,-0.91l-1.96 -1.05zm6.91 -25.48c2.3,2.44 5.25,3.44 8.85,3.02 2.29,-0.24 4.47,-1.12 6.53,-2.66 1.35,-1.03 2.36,-2.22 3.01,-3.58 0.46,-0.88 0.69,-1.54 0.67,-1.96 -0.03,-0.42 -0.11,-1.2 -0.24,-2.31 -0.52,-2.85 -1.77,-5.23 -3.76,-7.13 -1.99,-1.89 -4.53,-2.79 -7.62,-2.69 -3.17,0.19 -5.63,1.23 -7.36,3.15 -0.15,0.14 -0.26,0.26 -0.35,0.36 -0.1,0.09 -0.19,0.2 -0.29,0.34 -0.32,0.47 -0.51,0.73 -0.55,0.77 -0.34,0.51 -0.64,1.08 -0.92,1.69 -1.21,3.09 -1.09,6.01 0.36,8.76 0.42,0.89 0.98,1.63 1.67,2.24z"/>
 </g>
</svg>
