<?xml version="1.0" encoding="UTF-8"?>
<!DOCTYPE svg PUBLIC "-//W3C//DTD SVG 1.1//EN" "http://www.w3.org/Graphics/SVG/1.1/DTD/svg11.dtd">
<!-- Creator: CorelDRAW 2019 (64-Bit) -->
<svg xmlns="http://www.w3.org/2000/svg" xml:space="preserve" width="591px" height="591px" version="1.1" style="shape-rendering:geometricPrecision; text-rendering:geometricPrecision; image-rendering:optimizeQuality; fill-rule:evenodd; clip-rule:evenodd"
viewBox="0 0 74.93 74.93"
 xmlns:xlink="http://www.w3.org/1999/xlink">
 <defs>
  <style type="text/css">
   <![CDATA[
    .fil0 {fill:#0E4F95}
    .fil1 {fill:#FEFEFE;fill-rule:nonzero}
   ]]>
  </style>
 </defs>
 <g id="Layer_x0020_1">
  <metadata id="CorelCorpID_0Corel-Layer"/>
  <g id="_2527465342368">
   <circle class="fil0" cx="37.47" cy="37.47" r="37.47"/>
  </g>
  <path class="fil1" d="M11.14 55.91l0 -5.16c6.37,-5.37 11.12,-9.57 14.24,-12.63 3.11,-3.05 4.68,-5.87 4.68,-8.47 0,-1.62 -0.62,-3.05 -1.85,-4.27 -1.23,-1.24 -2.66,-1.85 -4.27,-1.85 -2.64,0 -4.96,0.55 -6.99,1.66 -2.02,1.12 -3.19,1.79 -3.49,2.03 -0.23,-0.84 -0.48,-1.67 -0.71,-2.47 -0.23,-0.82 -0.46,-1.66 -0.65,-2.54 0.23,-0.14 1.47,-0.82 3.72,-2.03 2.23,-1.22 4.95,-1.83 8.12,-1.83 3.1,0 5.88,1.04 8.34,3.13 2.46,2.09 3.68,4.81 3.68,8.15 0,3.58 -1.2,6.76 -3.63,9.54 -2.43,2.78 -6.61,6.64 -12.54,11.56l16.99 0 0 5.18 -25.64 0z"/>
  <path id="1" class="fil1" d="M53.26 56.59c-4.58,0 -8.01,-1.86 -10.29,-5.57 -2.27,-3.72 -3.41,-8.23 -3.41,-13.53 0,-5.27 1.14,-9.77 3.41,-13.52 2.28,-3.75 5.71,-5.62 10.29,-5.62 4.55,0 7.97,1.87 10.27,5.62 2.29,3.75 3.44,8.25 3.44,13.52 0,5.3 -1.15,9.81 -3.44,13.53 -2.3,3.71 -5.72,5.57 -10.27,5.57zm0 -5.13c2.74,0 4.76,-1.36 6.06,-4.08 1.3,-2.71 1.95,-6.01 1.95,-9.89 0,-3.84 -0.65,-7.13 -1.95,-9.86 -1.3,-2.74 -3.32,-4.1 -6.06,-4.1 -2.77,0 -4.81,1.36 -6.1,4.1 -1.31,2.73 -1.95,6.02 -1.95,9.86 0,3.88 0.64,7.18 1.95,9.89 1.29,2.72 3.33,4.08 6.1,4.08z"/>
 </g>
</svg>
