<?xml version="1.0" encoding="UTF-8"?>
<!DOCTYPE svg PUBLIC "-//W3C//DTD SVG 1.1//EN" "http://www.w3.org/Graphics/SVG/1.1/DTD/svg11.dtd">
<svg xmlns="http://www.w3.org/2000/svg" xml:space="preserve" width="590px" height="590px" version="1.1" style="shape-rendering:geometricPrecision; text-rendering:geometricPrecision; image-rendering:optimizeQuality; fill-rule:evenodd; clip-rule:evenodd"
viewBox="0 0 44.11 44.11"
 xmlns:xlink="http://www.w3.org/1999/xlink">
 <defs>
  <style type="text/css">
   <![CDATA[
    .fil0 {fill:#0E4F95}
    .fil1 {fill:#FFFFFF;fill-rule:nonzero}
   ]]>
  </style>
 </defs>
 <g id="Layer_x0020_1">
  <circle class="fil0" cx="22.05" cy="22.05" r="22.05"/>
  <path class="fil1" d="M7.77 16.64c-0.38,-1.39 -0.7,-2.61 -0.97,-3.63 1.09,-0.73 2.24,-1.32 3.46,-1.77 1.21,-0.45 2.49,-0.68 3.84,-0.68 2.02,0 3.75,0.68 5.22,2.04 1.41,1.34 2.12,2.96 2.12,4.86 0,2.07 -0.73,4 -2.19,5.79 -0.7,0.86 -1.59,1.78 -2.67,2.77 -1.09,0.98 -2.39,2.1 -3.92,3.37l9.27 0 0 3.72c-2.61,0 -5.22,0 -7.83,0 -2.6,0 -5.2,0 -7.81,0l0 -3.52c1.39,-1.16 2.82,-2.37 4.31,-3.61 1.49,-1.24 2.85,-2.52 4.09,-3.84 1.74,-1.81 2.6,-3.37 2.6,-4.68 0,-0.85 -0.31,-1.59 -0.95,-2.23 -0.64,-0.64 -1.39,-0.96 -2.24,-0.96 -1.22,0 -2.34,0.24 -3.36,0.71 -1.01,0.47 -2,1.02 -2.97,1.66z"/>
  <path class="fil1" d="M31.47 10.56c2.57,0 4.59,1.04 6.09,3.12 1.5,2.09 2.25,4.88 2.25,8.36 0,3.5 -0.75,6.29 -2.25,8.36 -1.5,2.07 -3.52,3.11 -6.09,3.11 -2.79,0 -4.87,-1.12 -6.25,-3.35 -1.39,-2.24 -2.08,-4.94 -2.08,-8.12 0,-3.48 0.76,-6.27 2.26,-8.36 1.48,-2.08 3.51,-3.12 6.07,-3.12zm3.12 5.69c-0.77,-1.32 -1.81,-1.98 -3.12,-1.98 -1.3,0 -2.34,0.66 -3.1,1.98 -0.8,1.4 -1.2,3.33 -1.2,5.79 0,2.48 0.4,4.41 1.2,5.8 0.77,1.32 1.8,1.98 3.1,1.98 1.3,0 2.34,-0.66 3.12,-1.98 0.81,-1.41 1.21,-3.34 1.21,-5.8 0,-2.44 -0.4,-4.38 -1.21,-5.79z"/>
 </g>
</svg>
