<?xml version="1.0" encoding="UTF-8"?>
<!DOCTYPE svg PUBLIC "-//W3C//DTD SVG 1.1//EN" "http://www.w3.org/Graphics/SVG/1.1/DTD/svg11.dtd">
<svg xmlns="http://www.w3.org/2000/svg" xml:space="preserve" width="590px" height="590px" version="1.1" style="shape-rendering:geometricPrecision; text-rendering:geometricPrecision; image-rendering:optimizeQuality; fill-rule:evenodd; clip-rule:evenodd"
viewBox="0 0 52.79 52.79"
 xmlns:xlink="http://www.w3.org/1999/xlink">
 <defs>
  <style type="text/css">
   <![CDATA[
    .fil0 {fill:#0E4F95}
    .fil1 {fill:#FFFFFF;fill-rule:nonzero}
   ]]>
  </style>
 </defs>
 <g id="Layer_x0020_1">
  <circle class="fil0" cx="26.4" cy="26.4" r="26.4"/>
  <path class="fil1" d="M12.14 19.92c-0.44,-1.67 -0.83,-3.13 -1.16,-4.35 1.31,-0.87 2.69,-1.58 4.15,-2.12 1.45,-0.54 2.99,-0.81 4.6,-0.81 2.42,0 4.49,0.81 6.24,2.44 1.69,1.6 2.54,3.54 2.54,5.82 0,2.47 -0.87,4.78 -2.62,6.93 -0.83,1.03 -1.9,2.13 -3.2,3.31 -1.3,1.17 -2.85,2.52 -4.69,4.04l11.1 0 0 4.45c-3.13,0 -6.25,0 -9.37,0 -3.12,0 -6.23,0 -9.35,0l0 -4.22c1.67,-1.39 3.38,-2.83 5.16,-4.32 1.78,-1.48 3.41,-3.01 4.9,-4.59 2.07,-2.17 3.11,-4.04 3.11,-5.6 0,-1.02 -0.38,-1.91 -1.14,-2.67 -0.77,-0.77 -1.66,-1.15 -2.68,-1.15 -1.46,0 -2.81,0.29 -4.02,0.84 -1.21,0.57 -2.4,1.23 -3.57,2z"/>
  <polygon class="fil1" points="41.79,39.63 37.48,39.63 37.48,20.75 31.93,23.96 31.93,19.08 42.2,13.15 42.2,39.63 "/>
 </g>
</svg>
