<?xml version="1.0" encoding="UTF-8"?>
<!DOCTYPE svg PUBLIC "-//W3C//DTD SVG 1.1//EN" "http://www.w3.org/Graphics/SVG/1.1/DTD/svg11.dtd">
<!-- Creator: CorelDRAW 2019 (64-Bit) -->
<svg xmlns="http://www.w3.org/2000/svg" xml:space="preserve" width="591px" height="591px" version="1.1" style="shape-rendering:geometricPrecision; text-rendering:geometricPrecision; image-rendering:optimizeQuality; fill-rule:evenodd; clip-rule:evenodd"
viewBox="0 0 60.84 60.84"
 xmlns:xlink="http://www.w3.org/1999/xlink">
 <defs>
  <style type="text/css">
   <![CDATA[
    .fil0 {fill:#0E4F95}
    .fil1 {fill:#FEFEFE;fill-rule:nonzero}
   ]]>
  </style>
 </defs>
 <g id="Layer_x0020_1">
  <metadata id="CorelCorpID_0Corel-Layer"/>
  <g id="_2527465295968">
   <circle class="fil0" cx="30.42" cy="30.42" r="30.42"/>
  </g>
  <path class="fil1" d="M12.23 45.67l0 -4.19c5.18,-4.36 9.03,-7.77 11.56,-10.25 2.54,-2.48 3.8,-4.77 3.8,-6.88 0,-1.32 -0.49,-2.48 -1.5,-3.47 -0.99,-1.01 -2.16,-1.5 -3.47,-1.5 -2.14,0 -4.02,0.45 -5.67,1.35 -1.64,0.9 -2.59,1.45 -2.83,1.65 -0.19,-0.69 -0.39,-1.36 -0.58,-2.01 -0.19,-0.66 -0.37,-1.35 -0.53,-2.07 0.19,-0.11 1.2,-0.66 3.02,-1.64 1.82,-0.99 4.02,-1.49 6.59,-1.49 2.52,0 4.78,0.85 6.78,2.54 1.99,1.7 2.99,3.91 2.99,6.62 0,2.91 -0.98,5.49 -2.95,7.74 -1.97,2.26 -5.37,5.4 -10.18,9.39l13.79 0 0 4.21 -20.82 0z"/>
  <polygon id="1" class="fil1" points="48.61,45.67 44.02,45.67 44.02,23.03 37.49,26.81 37.49,22.17 48.61,15.76 "/>
 </g>
</svg>
