<?xml version="1.0" encoding="UTF-8"?>
<!DOCTYPE svg PUBLIC "-//W3C//DTD SVG 1.1//EN" "http://www.w3.org/Graphics/SVG/1.1/DTD/svg11.dtd">
<!-- Creator: CorelDRAW 2019 (64-Bit) -->
<svg xmlns="http://www.w3.org/2000/svg" xml:space="preserve" width="591px" height="591px" version="1.1" style="shape-rendering:geometricPrecision; text-rendering:geometricPrecision; image-rendering:optimizeQuality; fill-rule:evenodd; clip-rule:evenodd"
viewBox="0 0 78.66 78.66"
 xmlns:xlink="http://www.w3.org/1999/xlink">
 <defs>
  <style type="text/css">
   <![CDATA[
    .fil0 {fill:#0E4F95}
    .fil1 {fill:#FEFEFE;fill-rule:nonzero}
   ]]>
  </style>
 </defs>
 <g id="Layer_x0020_1">
  <metadata id="CorelCorpID_0Corel-Layer"/>
  <g id="_2527258143584">
   <circle class="fil0" cx="39.33" cy="39.33" r="39.33"/>
  </g>
  <path class="fil1" d="M10.42 59.04l0 -5.42c6.68,-5.63 11.67,-10.04 14.94,-13.25 3.28,-3.2 4.92,-6.16 4.92,-8.89 0,-1.71 -0.65,-3.2 -1.94,-4.49 -1.29,-1.3 -2.8,-1.94 -4.49,-1.94 -2.77,0 -5.2,0.58 -7.33,1.75 -2.13,1.17 -3.35,1.88 -3.67,2.13 -0.24,-0.89 -0.49,-1.76 -0.74,-2.6 -0.24,-0.85 -0.48,-1.74 -0.69,-2.67 0.25,-0.14 1.55,-0.85 3.91,-2.13 2.35,-1.27 5.19,-1.92 8.52,-1.92 3.25,0 6.17,1.1 8.76,3.29 2.58,2.2 3.87,5.05 3.87,8.56 0,3.75 -1.27,7.09 -3.82,10.01 -2.55,2.92 -6.93,6.97 -13.16,12.13l17.83 0 0 5.44 -26.91 0z"/>
  <path id="1" class="fil1" d="M41.33 59.04l0 -5.42c6.69,-5.63 11.67,-10.04 14.94,-13.25 3.28,-3.2 4.92,-6.16 4.92,-8.89 0,-1.71 -0.65,-3.2 -1.94,-4.49 -1.29,-1.3 -2.79,-1.94 -4.49,-1.94 -2.76,0 -5.2,0.58 -7.33,1.75 -2.12,1.17 -3.35,1.88 -3.67,2.13 -0.24,-0.89 -0.49,-1.76 -0.74,-2.6 -0.24,-0.85 -0.48,-1.74 -0.69,-2.67 0.25,-0.14 1.55,-0.85 3.91,-2.13 2.35,-1.27 5.19,-1.92 8.52,-1.92 3.25,0 6.17,1.1 8.76,3.29 2.58,2.2 3.87,5.05 3.87,8.56 0,3.75 -1.27,7.09 -3.82,10.01 -2.55,2.92 -6.93,6.97 -13.16,12.13l17.83 0 0 5.44 -26.91 0z"/>
 </g>
</svg>
