<?xml version="1.0" encoding="UTF-8"?>
<!DOCTYPE svg PUBLIC "-//W3C//DTD SVG 1.1//EN" "http://www.w3.org/Graphics/SVG/1.1/DTD/svg11.dtd">
<!-- Creator: CorelDRAW 2019 (64-Bit) -->
<svg xmlns="http://www.w3.org/2000/svg" xml:space="preserve" width="591px" height="591px" version="1.1" style="shape-rendering:geometricPrecision; text-rendering:geometricPrecision; image-rendering:optimizeQuality; fill-rule:evenodd; clip-rule:evenodd"
viewBox="0 0 111.22 111.22"
 xmlns:xlink="http://www.w3.org/1999/xlink">
 <defs>
  <style type="text/css">
   <![CDATA[
    .fil0 {fill:#0E4F95}
    .fil1 {fill:#FEFEFE;fill-rule:nonzero}
   ]]>
  </style>
 </defs>
 <g id="Layer_x0020_1">
  <metadata id="CorelCorpID_0Corel-Layer"/>
  <g id="_2527461601184">
   <circle class="fil0" cx="55.61" cy="55.61" r="55.61"/>
  </g>
  <path class="fil1" d="M17.51 82.99l0 -7.66c9.45,-7.96 16.51,-14.21 21.13,-18.74 4.63,-4.53 6.95,-8.72 6.95,-12.58 0,-2.41 -0.91,-4.52 -2.74,-6.34 -1.82,-1.84 -3.95,-2.75 -6.35,-2.75 -3.91,0 -7.36,0.82 -10.37,2.48 -3,1.65 -4.73,2.65 -5.18,3.01 -0.34,-1.26 -0.7,-2.49 -1.05,-3.68 -0.34,-1.2 -0.68,-2.46 -0.97,-3.77 0.34,-0.2 2.19,-1.2 5.52,-3.01 3.32,-1.81 7.35,-2.72 12.05,-2.72 4.6,0 8.73,1.55 12.38,4.65 3.66,3.11 5.48,7.14 5.48,12.11 0,5.3 -1.8,10.02 -5.4,14.15 -3.6,4.12 -9.8,9.85 -18.61,17.16l25.21 0 0 7.69 -38.05 0z"/>
  <path id="1" class="fil1" d="M69.35 50.32l12.54 -15.01 -20.12 0 0 -7 35.22 0 -16.52 19.61c6.51,0.55 11.44,3.1 14.79,7.67 2.26,3.2 3.17,7.03 2.74,11.49 -0.42,4.46 -1.98,8.02 -4.69,10.67 -1.1,1.01 -1.92,1.7 -2.47,2.11 -3.91,2.76 -8.62,4.13 -14.13,4.13 -3.5,0 -6.59,-0.35 -9.24,-1.05 -1.1,-0.31 -2.22,-0.67 -3.33,-1.1 -1.13,-0.43 -2.14,-0.94 -3.05,-1.54 -0.45,-0.1 -0.67,-0.28 -0.67,-0.53 0,-0.6 0,-2.02 0,-4.25 0,-2.23 0,-3.55 0,-3.95 2.24,1.5 4.46,2.64 6.64,3.42 2.18,0.77 4.74,1.23 7.7,1.39 2.61,0.15 5.17,-0.22 7.7,-1.09 2.53,-0.87 4.47,-2.44 5.81,-4.69 1.47,-2.31 1.84,-4.94 1.13,-7.89 -0.39,-1.34 -0.97,-2.48 -1.73,-3.42 -0.74,-0.92 -1.55,-1.7 -2.4,-2.36 -1.49,-1.1 -3.33,-1.79 -5.48,-2.06 -2.15,-0.28 -4.21,-0.27 -6.15,0.04 -1.66,0.19 -3.08,0.57 -4.29,1.12l0 -5.71z"/>
 </g>
</svg>
