<?xml version="1.0" encoding="UTF-8"?>
<!DOCTYPE svg PUBLIC "-//W3C//DTD SVG 1.1//EN" "http://www.w3.org/Graphics/SVG/1.1/DTD/svg11.dtd">
<svg xmlns="http://www.w3.org/2000/svg" xml:space="preserve" width="590px" height="590px" version="1.1" style="shape-rendering:geometricPrecision; text-rendering:geometricPrecision; image-rendering:optimizeQuality; fill-rule:evenodd; clip-rule:evenodd"
viewBox="0 0 128.92 128.93"
 xmlns:xlink="http://www.w3.org/1999/xlink">
 <defs>
  <style type="text/css">
   <![CDATA[
    .fil0 {fill:#0E4F95}
    .fil1 {fill:#FFFFFF;fill-rule:nonzero}
   ]]>
  </style>
 </defs>
 <g id="Layer_x0020_1">
  <circle class="fil0" cx="64.46" cy="64.46" r="64.46"/>
  <path class="fil1" d="M23.11 48.66c-1.09,-4.08 -2.04,-7.63 -2.83,-10.61 3.2,-2.14 6.56,-3.85 10.12,-5.17 3.55,-1.32 7.3,-1.99 11.24,-1.99 5.9,0 10.96,1.99 15.23,5.96 4.14,3.91 6.22,8.64 6.22,14.21 0,6.04 -2.14,11.68 -6.4,16.93 -2.04,2.52 -4.65,5.2 -7.82,8.08 -3.17,2.87 -6.97,6.16 -11.45,9.85l27.1 0 0 10.89c-7.65,0 -15.27,0 -22.88,0 -7.61,0 -15.22,0 -22.83,0l0 -10.31c4.06,-3.4 8.24,-6.91 12.59,-10.55 4.34,-3.62 8.33,-7.35 11.97,-11.2 5.06,-5.31 7.59,-9.87 7.59,-13.69 0,-2.49 -0.92,-4.66 -2.79,-6.52 -1.86,-1.87 -4.05,-2.81 -6.53,-2.81 -3.58,0 -6.85,0.7 -9.83,2.06 -2.95,1.38 -5.85,3 -8.7,4.87z"/>
  <path class="fil1" d="M95.37 96.81l0 -16.39 -29.1 0 0 -9.82 29.63 -38.47 11.18 0 0 37.77 6.4 0 0 10.52 -6.4 0 0 16.39 -11.71 0zm0 -26.91l0 -20.53 -16.26 20.53 16.26 0z"/>
 </g>
</svg>
