<?xml version="1.0" encoding="UTF-8"?>
<!DOCTYPE svg PUBLIC "-//W3C//DTD SVG 1.1//EN" "http://www.w3.org/Graphics/SVG/1.1/DTD/svg11.dtd">
<!-- Creator: CorelDRAW 2019 (64-Bit) -->
<svg xmlns="http://www.w3.org/2000/svg" xml:space="preserve" width="591px" height="591px" version="1.1" style="shape-rendering:geometricPrecision; text-rendering:geometricPrecision; image-rendering:optimizeQuality; fill-rule:evenodd; clip-rule:evenodd"
viewBox="0 0 189.82 189.83"
 xmlns:xlink="http://www.w3.org/1999/xlink">
 <defs>
  <style type="text/css">
   <![CDATA[
    .fil0 {fill:#0E4F95}
    .fil1 {fill:#FEFEFE;fill-rule:nonzero}
   ]]>
  </style>
 </defs>
 <g id="Layer_x0020_1">
  <metadata id="CorelCorpID_0Corel-Layer"/>
  <g id="_2527393654512">
   <circle class="fil0" cx="94.91" cy="94.91" r="94.91"/>
  </g>
  <path class="fil1" d="M27.15 142.49l0 -13.08c16.14,-13.58 28.18,-24.24 36.07,-31.98 7.9,-7.72 11.86,-14.88 11.86,-21.46 0,-4.11 -1.55,-7.72 -4.68,-10.83 -3.11,-3.13 -6.74,-4.68 -10.83,-4.68 -6.67,0 -12.56,1.4 -17.7,4.22 -5.12,2.82 -8.07,4.53 -8.84,5.14 -0.59,-2.14 -1.2,-4.24 -1.79,-6.28 -0.59,-2.05 -1.16,-4.2 -1.66,-6.43 0.59,-0.35 3.74,-2.05 9.43,-5.14 5.66,-3.08 12.53,-4.64 20.56,-4.64 7.85,0 14.9,2.65 21.13,7.94 6.24,5.3 9.34,12.19 9.34,20.65 0,9.06 -3.06,17.11 -9.21,24.16 -6.14,7.04 -16.73,16.82 -31.76,29.29l43.03 0 0 13.12 -64.95 0z"/>
  <path id="1" class="fil1" d="M98.44 118.08l0 -12.6 43.32 -56.31 14.43 0 0 56.31 9.5 0 0 12.6 -9.5 0 0 24.41 -14.43 0 0 -24.41 -43.32 0zm14.35 -12.6l28.97 0 0 -36.58 -28.97 36.58z"/>
 </g>
</svg>
