<?xml version="1.0" encoding="UTF-8"?>
<!DOCTYPE svg PUBLIC "-//W3C//DTD SVG 1.1//EN" "http://www.w3.org/Graphics/SVG/1.1/DTD/svg11.dtd">
<!-- Creator: CorelDRAW 2019 (64-Bit) -->
<svg xmlns="http://www.w3.org/2000/svg" xml:space="preserve" width="591px" height="591px" version="1.1" style="shape-rendering:geometricPrecision; text-rendering:geometricPrecision; image-rendering:optimizeQuality; fill-rule:evenodd; clip-rule:evenodd"
viewBox="0 0 647.05 647.05"
 xmlns:xlink="http://www.w3.org/1999/xlink">
 <defs>
  <style type="text/css">
   <![CDATA[
    .fil0 {fill:#0E4F95}
    .fil1 {fill:#FEFEFE;fill-rule:nonzero}
   ]]>
  </style>
 </defs>
 <g id="Layer_x0020_1">
  <metadata id="CorelCorpID_0Corel-Layer"/>
  <g id="_2527469633808">
   <circle class="fil0" cx="323.52" cy="323.52" r="323.52"/>
  </g>
  <path class="fil1" d="M94.4 482.66l0 -44.6c55.03,-46.3 96.04,-82.62 122.96,-109.02 26.92,-26.32 40.42,-50.71 40.42,-73.15 0,-14.02 -5.29,-26.33 -15.96,-36.92 -10.59,-10.66 -22.97,-15.95 -36.91,-15.95 -22.74,0 -42.8,4.77 -60.33,14.39 -17.45,9.62 -27.52,15.44 -30.12,17.52 -2.02,-7.31 -4.11,-14.46 -6.12,-21.4 -2.01,-7.01 -3.95,-14.32 -5.67,-21.92 2.02,-1.2 12.75,-7.01 32.14,-17.53 19.32,-10.51 42.73,-15.81 70.1,-15.81 26.77,0 50.78,9.03 72.03,27.07 21.26,18.05 31.85,41.54 31.85,70.4 0,30.87 -10.44,58.31 -31.4,82.32 -20.95,24.02 -57.05,57.35 -108.28,99.85l146.69 0 0 44.75 -221.4 0z"/>
  <path id="1" class="fil1" d="M344.06 420.17c12.45,7.83 27.37,14.17 44.52,18.94 17.22,4.84 34.97,6.34 53.31,4.62 15.44,-1.49 30.21,-6.41 44.37,-14.84 14.1,-8.42 22.6,-21.1 25.58,-38.03 3.13,-19.24 -0.59,-34.82 -11.41,-46.76 -10.74,-11.93 -23.56,-19.91 -38.4,-24.01 -12.53,-2.91 -26.25,-3.88 -41.09,-2.83 -14.84,0.97 -28.41,2.98 -40.64,5.89 -4.4,1.19 -8.43,2.39 -12.23,3.73 -3.8,1.27 -7.76,2.38 -11.78,3.28l20.95 -165.62 163.83 0 0 43.4 -127.59 0 -9.17 73.3c2.61,-0.3 5.22,-0.82 7.91,-1.57 2.61,-0.67 5.36,-1.34 8.27,-1.93 5.52,-0.9 11.34,-1.35 17.45,-1.35 36.17,-0.89 66,7.98 89.56,26.63 6.12,5.29 12.08,11.55 17.75,18.79 5.67,7.31 10.14,16.18 13.27,26.69 2.99,10.15 4.4,21.55 4.4,34.08 0,12.53 -1.71,23.57 -5.22,33.19 -7.3,18.94 -18.57,34 -33.85,45.19 -15.29,11.26 -32.44,18.86 -51.38,22.97 -15.14,3.5 -32.14,4.84 -51.08,3.95 -18.94,-0.9 -35.87,-3.95 -50.71,-9.18 -7.9,-2.9 -14.54,-5.66 -20.13,-8.35 -0.53,-0.22 -2.76,-1.41 -6.49,-3.43l0 -46.75z"/>
 </g>
</svg>
