<?xml version="1.0" encoding="UTF-8"?>
<!DOCTYPE svg PUBLIC "-//W3C//DTD SVG 1.1//EN" "http://www.w3.org/Graphics/SVG/1.1/DTD/svg11.dtd">
<svg xmlns="http://www.w3.org/2000/svg" xml:space="preserve" width="590px" height="590px" version="1.1" style="shape-rendering:geometricPrecision; text-rendering:geometricPrecision; image-rendering:optimizeQuality; fill-rule:evenodd; clip-rule:evenodd"
viewBox="0 0 248.28 248.29"
 xmlns:xlink="http://www.w3.org/1999/xlink">
 <defs>
  <style type="text/css">
   <![CDATA[
    .fil0 {fill:#0E4F95}
    .fil1 {fill:#FFFFFF;fill-rule:nonzero}
   ]]>
  </style>
 </defs>
 <g id="Layer_x0020_1">
  <circle class="fil0" cx="124.14" cy="124.14" r="124.14"/>
  <path class="fil1" d="M42.57 93.71c-2.1,-7.86 -3.94,-14.69 -5.46,-20.44 6.16,-4.12 12.64,-7.41 19.5,-9.95 6.84,-2.54 14.05,-3.83 21.64,-3.83 11.35,0 21.11,3.83 29.34,11.47 7.97,7.54 11.97,16.65 11.97,27.36 0,11.65 -4.12,22.51 -12.32,32.61 -3.94,4.85 -8.96,10.02 -15.07,15.57 -6.1,5.51 -13.43,11.85 -22.04,18.97l52.18 0 0 20.97c-14.72,0 -29.41,0 -44.06,0 -14.66,0 -29.32,0 -43.97,0l0 -19.86c7.82,-6.54 15.88,-13.31 24.26,-20.32 8.35,-6.98 16.03,-14.16 23.04,-21.57 9.75,-10.22 14.62,-19.01 14.62,-26.37 0,-4.79 -1.78,-8.96 -5.37,-12.55 -3.59,-3.59 -7.79,-5.4 -12.58,-5.4 -6.89,0 -13.2,1.34 -18.92,3.97 -5.69,2.65 -11.27,5.78 -16.76,9.37z"/>
  <path class="fil1" d="M163.24 82.41l-2.89 23.27c3.59,-0.73 7.06,-1.17 10.42,-1.29 6.83,-0.2 13.08,0.44 18.74,1.99 10.08,2.95 17.96,8.26 23.59,15.91 4.91,6.77 7.27,14.95 7.1,24.56 -0.21,12.52 -5.17,22.71 -14.86,30.51 -5.84,4.64 -12.32,7.76 -19.51,9.37 -7.18,1.63 -14.39,2.28 -21.63,1.92 -7.27,-0.46 -13.78,-1.66 -19.59,-3.67 -3.83,-1.32 -7.65,-2.92 -11.48,-4.88l0 -22.74c6.11,3.71 12.27,6.54 18.52,8.49 6.24,1.99 13.04,2.63 20.4,1.93 5.37,-0.5 10.57,-2.22 15.65,-5.11 5.08,-2.92 8.12,-7.3 9.08,-13.2 1.02,-6.16 -0.17,-11.38 -3.59,-15.73 -3.41,-4.32 -8.06,-7.27 -13.87,-8.79 -4.61,-1.2 -9.63,-1.61 -15.06,-1.17 -5.4,0.44 -10.37,1.23 -14.86,2.37 -2.02,0.49 -4,1.05 -5.99,1.66 -2.01,0.58 -3.97,1.14 -5.93,1.66l8.56 -67.58 65.78 0 0 20.52 -48.58 0z"/>
 </g>
</svg>
