<?xml version="1.0" encoding="UTF-8"?>
<!DOCTYPE svg PUBLIC "-//W3C//DTD SVG 1.1//EN" "http://www.w3.org/Graphics/SVG/1.1/DTD/svg11.dtd">
<!-- Creator: CorelDRAW 2021.5 -->
<svg xmlns="http://www.w3.org/2000/svg" xml:space="preserve" width="591px" height="591px" version="1.1" style="shape-rendering:geometricPrecision; text-rendering:geometricPrecision; image-rendering:optimizeQuality; fill-rule:evenodd; clip-rule:evenodd"
viewBox="0 0 103.93 103.93"
 xmlns:xlink="http://www.w3.org/1999/xlink"
 xmlns:xodm="http://www.corel.com/coreldraw/odm/2003">
 <defs>
  <style type="text/css">
   <![CDATA[
    .fil0 {fill:#0E4F95}
    .fil1 {fill:#FEFEFE;fill-rule:nonzero}
   ]]>
  </style>
 </defs>
 <g id="Layer_x0020_1">
  <metadata id="CorelCorpID_0Corel-Layer"/>
  <circle class="fil0" cx="51.96" cy="51.96" r="51.96"/>
  <path class="fil1" d="M5.86 74.6l0 -6.32c7.79,-6.55 13.59,-11.7 17.41,-15.43 3.81,-3.73 5.72,-7.18 5.72,-10.36 0,-1.99 -0.75,-3.73 -2.26,-5.23 -1.5,-1.51 -3.25,-2.26 -5.23,-2.26 -3.22,0 -6.06,0.68 -8.54,2.04 -2.47,1.36 -3.89,2.19 -4.26,2.48 -0.29,-1.03 -0.59,-2.05 -0.87,-3.03 -0.29,-0.99 -0.56,-2.03 -0.8,-3.1 0.28,-0.17 1.8,-1 4.55,-2.48 2.73,-1.49 6.05,-2.24 9.92,-2.24 3.79,0 7.19,1.27 10.2,3.83 3.01,2.55 4.51,5.88 4.51,9.97 0,4.37 -1.48,8.25 -4.44,11.65 -2.97,3.4 -8.08,8.12 -15.33,14.14l20.76 0 0 6.34 -31.34 0z"/>
  <path class="fil1" d="M39.17 65.75c1.76,1.11 3.87,2 6.3,2.68 2.44,0.69 4.95,0.9 7.55,0.65 2.19,-0.21 4.28,-0.9 6.28,-2.1 2,-1.19 3.2,-2.98 3.62,-5.38 0.45,-2.73 -0.08,-4.93 -1.61,-6.62 -1.52,-1.69 -3.34,-2.82 -5.44,-3.4 -1.77,-0.41 -3.72,-0.55 -5.82,-0.4 -2.1,0.13 -4.02,0.42 -5.75,0.83 -0.62,0.17 -1.19,0.34 -1.73,0.53 -0.54,0.18 -1.1,0.34 -1.67,0.46l2.97 -23.45 23.19 0 0 6.15 -18.06 0 -1.3 10.38c0.37,-0.04 0.74,-0.12 1.12,-0.22 0.37,-0.1 0.76,-0.19 1.17,-0.28 0.78,-0.13 1.6,-0.19 2.47,-0.19 5.12,-0.13 9.34,1.13 12.68,3.77 0.87,0.75 1.71,1.64 2.51,2.66 0.81,1.04 1.44,2.29 1.88,3.78 0.43,1.44 0.63,3.05 0.63,4.83 0,1.77 -0.25,3.33 -0.74,4.69 -1.04,2.69 -2.63,4.82 -4.8,6.4 -2.16,1.6 -4.59,2.67 -7.27,3.26 -2.14,0.49 -4.55,0.68 -7.23,0.56 -2.69,-0.13 -5.08,-0.56 -7.18,-1.3 -1.12,-0.42 -2.06,-0.81 -2.85,-1.19 -0.08,-0.03 -0.4,-0.2 -0.92,-0.48l0 -6.62z"/>
  <path class="fil1" d="M68.25 74.47l12.36 -36.31 5.18 0 12.38 36.31 -5.19 0 -3.25 -9.5 -13.06 0 -3.24 9.5 -5.18 0zm19.84 -14.4l-4.88 -14.26 -4.89 14.26 9.77 0z"/>
 </g>
</svg>
