<?xml version="1.0" encoding="UTF-8"?>
<!DOCTYPE svg PUBLIC "-//W3C//DTD SVG 1.1//EN" "http://www.w3.org/Graphics/SVG/1.1/DTD/svg11.dtd">
<!-- Creator: CorelDRAW 2021.5 -->
<svg xmlns="http://www.w3.org/2000/svg" xml:space="preserve" width="590px" height="590px" version="1.1" style="shape-rendering:geometricPrecision; text-rendering:geometricPrecision; image-rendering:optimizeQuality; fill-rule:evenodd; clip-rule:evenodd"
viewBox="0 0 91.85 91.85"
 xmlns:xlink="http://www.w3.org/1999/xlink"
 xmlns:xodm="http://www.corel.com/coreldraw/odm/2003">
 <defs>
  <style type="text/css">
   <![CDATA[
    .fil0 {fill:#0E4F95}
    .fil1 {fill:white;fill-rule:nonzero}
   ]]>
  </style>
 </defs>
 <g id="Layer_x0020_1">
  <metadata id="CorelCorpID_0Corel-Layer"/>
  <circle class="fil0" cx="45.92" cy="45.92" r="45.92"/>
  <path class="fil1" d="M67.42 64.55l1.8 -5.34 8.61 0.01 1.78 5.33 4.39 0 -8.29 -24.61 -4.31 0 -8.29 24.61 4.31 0zm6.12 -18.18l2.83 8.46 -5.67 0 2.84 -8.46z"/>
  <path class="fil1" d="M11.77 38.24c-0.6,-2.23 -1.12,-4.17 -1.55,-5.8 1.75,-1.17 3.59,-2.1 5.53,-2.82 1.94,-0.72 3.99,-1.09 6.14,-1.09 3.22,0 5.99,1.09 8.33,3.26 2.26,2.13 3.39,4.72 3.39,7.76 0,3.3 -1.16,6.39 -3.49,9.25 -1.12,1.38 -2.54,2.84 -4.28,4.42 -1.73,1.56 -3.81,3.36 -6.25,5.38l14.8 0 0 5.95c-4.17,0 -8.34,0 -12.5,0 -4.16,0 -8.32,0 -12.47,0l0 -5.63c2.22,-1.86 4.5,-3.78 6.88,-5.77 2.37,-1.98 4.55,-4.02 6.54,-6.12 2.76,-2.9 4.15,-5.39 4.15,-7.48 0,-1.36 -0.51,-2.54 -1.53,-3.56 -1.02,-1.02 -2.21,-1.54 -3.57,-1.54 -1.95,0 -3.74,0.39 -5.37,1.13 -1.61,0.75 -3.19,1.64 -4.75,2.66z"/>
  <path class="fil1" d="M46.2 35.03l-0.82 6.61c1.02,-0.21 2,-0.33 2.95,-0.37 1.94,-0.06 3.72,0.13 5.32,0.57 2.86,0.83 5.1,2.34 6.7,4.51 1.39,1.92 2.06,4.24 2.01,6.97 -0.06,3.55 -1.47,6.44 -4.22,8.66 -1.65,1.31 -3.49,2.2 -5.53,2.65 -2.04,0.47 -4.09,0.65 -6.14,0.55 -2.06,-0.13 -3.91,-0.47 -5.56,-1.04 -1.08,-0.38 -2.17,-0.83 -3.25,-1.39l0 -6.45c1.73,1.05 3.48,1.86 5.25,2.41 1.77,0.56 3.7,0.75 5.79,0.55 1.52,-0.14 3,-0.63 4.44,-1.45 1.44,-0.83 2.3,-2.07 2.58,-3.75 0.29,-1.74 -0.05,-3.23 -1.02,-4.46 -0.97,-1.23 -2.29,-2.06 -3.94,-2.5 -1.31,-0.34 -2.73,-0.45 -4.27,-0.33 -1.54,0.13 -2.94,0.35 -4.22,0.67 -0.57,0.14 -1.13,0.3 -1.7,0.48 -0.57,0.16 -1.12,0.32 -1.68,0.47l2.43 -19.18 18.66 0 0 5.82 -13.78 0z"/>
 </g>
</svg>
