<?xml version="1.0" encoding="UTF-8"?>
<!DOCTYPE svg PUBLIC "-//W3C//DTD SVG 1.1//EN" "http://www.w3.org/Graphics/SVG/1.1/DTD/svg11.dtd">
<!-- Creator: CorelDRAW 2019 (64-Bit) -->
<svg xmlns="http://www.w3.org/2000/svg" xml:space="preserve" width="591px" height="591px" version="1.1" style="shape-rendering:geometricPrecision; text-rendering:geometricPrecision; image-rendering:optimizeQuality; fill-rule:evenodd; clip-rule:evenodd"
viewBox="0 0 189.82 189.82"
 xmlns:xlink="http://www.w3.org/1999/xlink">
 <defs>
  <style type="text/css">
   <![CDATA[
    .fil0 {fill:#0E4F95}
    .fil1 {fill:#FEFEFE;fill-rule:nonzero}
   ]]>
  </style>
 </defs>
 <g id="Layer_x0020_1">
  <metadata id="CorelCorpID_0Corel-Layer"/>
  <path class="fil0" d="M94.91 0c52.42,0 94.91,42.49 94.91,94.91 0,52.42 -42.49,94.91 -94.91,94.91 -52.42,0 -94.91,-42.49 -94.91,-94.91 0,-52.42 42.49,-94.91 94.91,-94.91z"/>
  <path class="fil1" d="M24.85 141.64l0 -13.09c16.14,-13.58 28.18,-24.23 36.07,-31.98 7.9,-7.72 11.86,-14.87 11.86,-21.46 0,-4.11 -1.55,-7.72 -4.68,-10.83 -3.11,-3.13 -6.74,-4.68 -10.83,-4.68 -6.67,0 -12.56,1.4 -17.7,4.22 -5.12,2.82 -8.07,4.53 -8.83,5.14 -0.6,-2.14 -1.21,-4.24 -1.8,-6.27 -0.59,-2.06 -1.16,-4.21 -1.66,-6.44 0.59,-0.35 3.74,-2.05 9.43,-5.14 5.66,-3.08 12.53,-4.63 20.56,-4.63 7.85,0 14.9,2.64 21.13,7.94 6.24,5.29 9.34,12.18 9.34,20.65 0,9.05 -3.06,17.1 -9.21,24.15 -6.14,7.04 -16.73,16.82 -31.76,29.29l43.03 0 0 13.13 -64.95 0zm135.98 -75.87c-0.61,-0.26 -1.16,-0.59 -1.68,-1.03 -3.92,-2.47 -8.58,-4.02 -13.96,-4.61 -4.44,-0.51 -8.75,-0.09 -12.88,1.29 -4.16,1.35 -7.6,3.72 -10.33,7.04 -5.29,6.5 -8.07,14.29 -8.33,23.34 0.17,-0.09 0.39,-0.3 0.65,-0.65 0.24,-0.33 0.5,-0.64 0.77,-0.9 0.68,-0.68 1.33,-1.34 1.99,-1.97 0.63,-0.66 1.46,-1.27 2.49,-1.86 2.65,-1.73 5.21,-2.91 7.68,-3.61 6.17,-1.62 12.29,-1.75 18.4,-0.37 6.12,1.36 11.22,4.4 15.31,9.1 3.76,4.53 5.97,9.78 6.65,15.77 0.77,7.7 -0.3,14.09 -3.26,19.17 -2.93,5.09 -6.45,9.01 -10.52,11.74 -4.79,3.07 -10.57,4.77 -17.3,5.12 -3.09,0 -6.33,-0.28 -9.76,-0.83 -3.41,-0.57 -6.41,-1.51 -8.97,-2.89 -0.68,-0.35 -1.31,-0.67 -1.93,-1.02 -0.59,-0.33 -1.15,-0.73 -1.66,-1.16 -0.26,-0.16 -0.5,-0.33 -0.76,-0.51 -0.27,-0.17 -0.53,-0.39 -0.77,-0.63 -2.49,-1.88 -4.7,-4.38 -6.67,-7.44 -3,-4.53 -5.08,-9.98 -6.28,-16.3 -1.12,-6.14 -1.38,-12.88 -0.77,-20.19 0.6,-7.31 2.06,-13.65 4.36,-19.03 0.94,-2.32 1.84,-4.22 2.69,-5.71 0.85,-1.51 1.97,-3.24 3.32,-5.19 1.21,-1.81 2.5,-3.39 3.85,-4.74 1.38,-1.56 2.83,-2.87 4.36,-3.98 5.14,-3.77 10.85,-6.02 17.19,-6.79 6.32,-0.78 12.56,-0.17 18.71,1.8 1.02,0.33 2.34,0.9 3.96,1.66l3.45 2.06 0 13.32zm-46.99 46.77c0.94,5.38 3.22,9.78 6.81,13.19 3.58,3.44 8.24,5.01 13.95,4.75 5.73,-0.09 10.22,-2.01 13.48,-5.75 0.41,-0.27 0.81,-0.66 1.14,-1.16 0.61,-0.86 0.94,-1.34 1.02,-1.43 0.7,-1 1.25,-2.07 1.67,-3.19 2.23,-5.47 2.05,-10.81 -0.51,-16.01 -0.59,-1.03 -1.62,-2.39 -3.08,-4.09 -4.44,-4.36 -9.82,-6.19 -16.15,-5.52 -4.61,0.59 -8.62,2.26 -12.05,4.99 -2.3,1.71 -4.13,3.85 -5.51,6.41 -0.86,1.79 -1.27,3.06 -1.27,3.79 0,0.72 0.17,2.05 0.5,4.02z"/>
 </g>
</svg>
