<?xml version="1.0" encoding="UTF-8"?>
<!DOCTYPE svg PUBLIC "-//W3C//DTD SVG 1.1//EN" "http://www.w3.org/Graphics/SVG/1.1/DTD/svg11.dtd">
<svg xmlns="http://www.w3.org/2000/svg" xml:space="preserve" width="590px" height="590px" version="1.1" style="shape-rendering:geometricPrecision; text-rendering:geometricPrecision; image-rendering:optimizeQuality; fill-rule:evenodd; clip-rule:evenodd"
viewBox="0 0 3346.36 3346.38"
 xmlns:xlink="http://www.w3.org/1999/xlink">
 <defs>
  <style type="text/css">
   <![CDATA[
    .fil0 {fill:#0E4F95}
    .fil1 {fill:#FFFFFF;fill-rule:nonzero}
   ]]>
  </style>
 </defs>
 <g id="Layer_x0020_1">
  <ellipse class="fil0" cx="1673.18" cy="1673.18" rx="1673.18" ry="1673.19"/>
  <path class="fil1" d="M562.91 1261.58c-28.33,-105.86 -53.12,-197.93 -73.59,-275.45 83.04,-55.49 170.4,-99.96 262.88,-134.19 92.07,-34.24 189.27,-51.55 291.59,-51.55 153.06,0 284.49,51.55 395.47,154.65 107.42,101.53 161.33,224.29 161.33,368.72 0,157 -55.48,303.38 -166.06,439.55 -53.13,65.32 -120.81,134.96 -203.05,209.73 -82.23,74.37 -181.02,159.76 -297.09,255.78l703.19 0 0 282.54c-198.32,0 -396.26,0 -593.79,0 -197.56,0 -395.09,0 -592.63,0l0 -267.58c105.46,-88.16 214.07,-179.45 327.01,-273.88 112.54,-94.05 216.02,-190.86 310.47,-290.8 131.43,-137.74 197.14,-256.19 197.14,-355.34 0,-64.53 -23.99,-120.8 -72.4,-169.21 -48.41,-48.4 -105.06,-72.8 -169.59,-72.8 -92.88,0 -177.88,18.1 -255,53.51 -76.73,35.82 -151.89,77.92 -225.88,126.32z"/>
  <path class="fil1" d="M2073.93 1542.93c55.49,-53.12 121.19,-89.71 197.14,-110.56 117.66,-31.49 232.96,-33.45 345.9,-5.91 109.39,28.33 199.11,83.81 269.93,166.06 69.66,82.24 110.59,179.44 122,291.59 11.81,120.02 -3.94,227.44 -47.22,323.06 -43.69,98.38 -112.54,178.66 -206.2,240.84 -90.11,59.01 -195.18,90.5 -315.99,94.43 -55.48,1.58 -113.72,-3.14 -175.11,-13.77 -61.78,-10.62 -116.47,-29.13 -164.88,-55.48 -92.48,-51.55 -163.69,-117.27 -214.45,-197.15 -54.7,-81.45 -92.88,-179.05 -114.13,-292.78 -20.85,-111.35 -25.57,-232.15 -13.77,-362.01 10.62,-127.49 36.61,-240.05 78.31,-337.63 27.55,-66.89 62.57,-131.83 104.29,-194.39 41.71,-62.58 92.86,-115.7 152.67,-159.77 88.55,-66.11 190.06,-107.04 304.57,-123.17 113.73,-14.55 229.03,-3.93 345.5,32.28 25.58,9.03 50.38,20.46 75.16,33.83 24.4,13.77 49.19,26.76 73.59,39.74l-1.17 293.18c-57.46,-29.52 -105.46,-53.91 -144.03,-73.99 -38.17,-20.06 -90.91,-33.83 -157.8,-41.31 -76.73,-9.46 -149.53,-1.58 -218,22.82 -89.72,32.26 -158.99,89.71 -206.99,171.95 -48,82.26 -77.52,168.43 -89.32,258.14zm433.65 142.86c-83.05,-27.56 -165.28,-24.01 -246.73,10.62 -83.04,33.84 -142.84,86.17 -179.84,157.78 -11.41,23.23 -17.7,40.14 -18.49,51.17 -0.78,11.41 1.17,28.33 5.89,51.55 7.48,46.03 19.68,88.93 36.61,128.29 16.92,39.73 44.07,74.75 80.67,105.46 60.2,52.32 133,76.73 219.18,72.78 88.53,-2.36 161.33,-32.26 218.39,-90.5 57.46,-57.84 84.61,-133 81.45,-225.48 -5.5,-132.22 -71.21,-219.17 -197.13,-261.67z"/>
 </g>
</svg>
