<?xml version="1.0" encoding="UTF-8"?>
<!DOCTYPE svg PUBLIC "-//W3C//DTD SVG 1.1//EN" "http://www.w3.org/Graphics/SVG/1.1/DTD/svg11.dtd">
<!-- Creator: CorelDRAW 2019 (64-Bit) -->
<svg xmlns="http://www.w3.org/2000/svg" xml:space="preserve" width="591px" height="591px" version="1.1" style="shape-rendering:geometricPrecision; text-rendering:geometricPrecision; image-rendering:optimizeQuality; fill-rule:evenodd; clip-rule:evenodd"
viewBox="0 0 169.49 169.49"
 xmlns:xlink="http://www.w3.org/1999/xlink">
 <defs>
  <style type="text/css">
   <![CDATA[
    .fil0 {fill:#0E4F95}
    .fil1 {fill:#FEFEFE;fill-rule:nonzero}
   ]]>
  </style>
 </defs>
 <g id="Layer_x0020_1">
  <metadata id="CorelCorpID_0Corel-Layer"/>
  <g id="_2527514544032">
   <circle class="fil0" cx="84.75" cy="84.75" r="84.75"/>
  </g>
  <path class="fil1" d="M22.19 126.47l0 -11.68c14.42,-12.13 25.16,-21.64 32.21,-28.56 7.05,-6.9 10.59,-13.28 10.59,-19.16 0,-3.67 -1.39,-6.9 -4.18,-9.67 -2.78,-2.79 -6.02,-4.18 -9.67,-4.18 -5.96,0 -11.21,1.25 -15.8,3.77 -4.58,2.52 -7.21,4.04 -7.9,4.59 -0.52,-1.92 -1.07,-3.79 -1.6,-5.61 -0.53,-1.83 -1.03,-3.75 -1.48,-5.74 0.52,-0.31 3.34,-1.84 8.42,-4.59 5.06,-2.75 11.19,-4.14 18.36,-4.14 7.01,0 13.3,2.36 18.87,7.09 5.56,4.73 8.34,10.88 8.34,18.44 0,8.09 -2.74,15.27 -8.23,21.56 -5.48,6.29 -14.94,15.03 -28.36,26.16l38.42 0 0 11.72 -57.99 0z"/>
  <path id="1" class="fil1" d="M89.29 102.79c0,-5.5 1.36,-9.94 4.12,-13.3 2.75,-3.36 5.88,-5.96 9.39,-7.77 -2.75,-1.62 -5.09,-3.77 -7.01,-6.49 -1.91,-2.71 -2.87,-6.13 -2.87,-10.25 0,-6.41 2.11,-11.94 6.31,-16.55 4.2,-4.63 10.53,-6.93 19.01,-6.93 8.47,0 14.8,2.32 19,6.99 4.2,4.65 6.31,10.16 6.31,16.49 0,5.04 -1.33,8.91 -3.96,11.58 -2.64,2.68 -4.81,4.49 -6.49,5.49 9.47,4.04 14.2,10.96 14.2,20.74 0,5.65 -2.34,11.26 -7.03,16.84 -4.69,5.57 -12.03,8.36 -22.03,8.36 -10.01,0 -17.31,-2.79 -21.98,-8.36 -4.65,-5.58 -6.97,-11.19 -6.97,-16.84zm12.77 0.02c0,4.44 1.58,8.17 4.77,11.24 3.16,3.04 6.97,4.57 11.41,4.57 4.43,0 8.26,-1.49 11.46,-4.48 3.23,-2.97 4.83,-6.74 4.83,-11.33 0,-4.41 -1.62,-7.71 -4.89,-9.88 -3.24,-2.19 -7.13,-3.93 -11.64,-5.22 -0.99,-0.31 -2.64,-0.76 -4.92,-1.36 -3.3,1.44 -5.96,3.57 -7.97,6.4 -2.03,2.82 -3.05,6.18 -3.05,10.06zm16.06 -25.04c0.16,0.08 0.82,0.26 2.01,0.53 1.17,0.25 1.8,0.39 1.88,0.39 1.68,-1 3.73,-2.54 6.17,-4.63 2.44,-2.09 3.65,-5.14 3.65,-9.1 0,-3.73 -1.33,-6.96 -4,-9.67 -2.66,-2.72 -5.86,-4.06 -9.59,-4.06 -3.74,0 -6.92,1.32 -9.54,4 -2.63,2.68 -3.94,5.92 -3.94,9.73 0,3.89 1.23,6.76 3.71,8.59 2.48,1.82 5.7,3.25 9.65,4.22z"/>
 </g>
</svg>
