<?xml version="1.0" encoding="UTF-8"?>
<!DOCTYPE svg PUBLIC "-//W3C//DTD SVG 1.1//EN" "http://www.w3.org/Graphics/SVG/1.1/DTD/svg11.dtd">
<!-- Creator: CorelDRAW 2019 (64-Bit) -->
<svg xmlns="http://www.w3.org/2000/svg" xml:space="preserve" width="591px" height="591px" version="1.1" style="shape-rendering:geometricPrecision; text-rendering:geometricPrecision; image-rendering:optimizeQuality; fill-rule:evenodd; clip-rule:evenodd"
viewBox="0 0 78.66 78.66"
 xmlns:xlink="http://www.w3.org/1999/xlink">
 <defs>
  <style type="text/css">
   <![CDATA[
    .fil0 {fill:#0E4F95}
    .fil1 {fill:#FEFEFE;fill-rule:nonzero}
   ]]>
  </style>
 </defs>
 <g id="Layer_x0020_1">
  <metadata id="CorelCorpID_0Corel-Layer"/>
  <g id="_2527472512496">
   <circle class="fil0" cx="39.33" cy="39.33" r="39.33"/>
  </g>
  <path class="fil1" d="M9.98 58.62l0 -5.42c6.69,-5.63 11.68,-10.05 14.95,-13.26 3.28,-3.2 4.92,-6.16 4.92,-8.89 0,-1.7 -0.65,-3.2 -1.94,-4.49 -1.29,-1.29 -2.8,-1.94 -4.49,-1.94 -2.77,0 -5.2,0.58 -7.33,1.75 -2.13,1.17 -3.35,1.88 -3.67,2.13 -0.24,-0.88 -0.5,-1.75 -0.74,-2.6 -0.25,-0.85 -0.48,-1.74 -0.69,-2.66 0.25,-0.15 1.55,-0.85 3.91,-2.13 2.35,-1.28 5.19,-1.92 8.52,-1.92 3.25,0 6.17,1.09 8.76,3.29 2.58,2.19 3.87,5.05 3.87,8.55 0,3.76 -1.27,7.09 -3.82,10.01 -2.55,2.92 -6.93,6.97 -13.16,12.14l17.83 0 0 5.44 -26.92 0z"/>
  <path id="1" class="fil1" d="M42.69 56.96l0.05 -5.58c0.42,0.28 0.64,0.43 0.64,0.43 1.52,1.02 3.45,1.69 5.78,1.97 1.85,0.21 3.63,0.03 5.34,-0.54 1.72,-0.56 3.17,-1.54 4.34,-2.92 2.15,-2.65 3.3,-5.9 3.45,-9.72 -0.11,0.07 -0.22,0.18 -0.32,0.31 -0.11,0.15 -0.2,0.26 -0.27,0.33 -0.74,0.74 -1.36,1.29 -1.86,1.64 -0.99,0.64 -2.07,1.13 -3.23,1.49 -2.56,0.71 -5.11,0.78 -7.66,0.22 -2.54,-0.58 -4.64,-1.84 -6.26,-3.83 -1.59,-1.84 -2.51,-4.04 -2.76,-6.59 -0.28,-3.15 0.17,-5.78 1.36,-7.89 1.17,-2.11 2.63,-3.75 4.36,-4.92 2.02,-1.34 4.41,-2.07 7.17,-2.17 1.27,0 2.62,0.11 4.01,0.34 1.4,0.24 2.65,0.64 3.75,1.25 0.74,0.46 1.22,0.76 1.43,0.91 0.11,0.1 0.22,0.19 0.32,0.26 0.1,0.07 0.23,0.15 0.37,0.26 0.96,0.78 1.87,1.79 2.76,3.03 1.21,1.91 2.08,4.16 2.6,6.75 0.5,2.55 0.61,5.36 0.32,8.43 -0.28,3.06 -0.88,5.67 -1.8,7.83 -0.43,0.96 -0.82,1.76 -1.17,2.39 -0.36,0.64 -0.8,1.37 -1.33,2.18 -0.49,0.7 -1.03,1.36 -1.59,1.96 -0.67,0.67 -1.3,1.23 -1.86,1.65 -2.13,1.53 -4.5,2.43 -7.12,2.74 -2.62,0.3 -5.19,0.06 -7.7,-0.72 -0.6,-0.14 -1.15,-0.38 -1.64,-0.69l-1.48 -0.8zm5.23 -19.28c1.74,1.84 3.97,2.6 6.7,2.28 1.73,-0.18 3.38,-0.85 4.94,-2.01 1.02,-0.78 1.79,-1.69 2.28,-2.71 0.35,-0.67 0.52,-1.17 0.5,-1.49 -0.01,-0.31 -0.08,-0.9 -0.18,-1.75 -0.39,-2.15 -1.34,-3.95 -2.84,-5.39 -1.51,-1.43 -3.43,-2.11 -5.77,-2.04 -2.4,0.15 -4.26,0.93 -5.57,2.38 -0.11,0.11 -0.19,0.2 -0.27,0.28 -0.07,0.07 -0.14,0.15 -0.22,0.26 -0.24,0.35 -0.38,0.55 -0.41,0.58 -0.26,0.39 -0.48,0.81 -0.7,1.28 -0.92,2.34 -0.82,4.55 0.27,6.63 0.32,0.67 0.75,1.24 1.27,1.7z"/>
 </g>
</svg>
