<?xml version="1.0" encoding="UTF-8"?>
<!DOCTYPE svg PUBLIC "-//W3C//DTD SVG 1.1//EN" "http://www.w3.org/Graphics/SVG/1.1/DTD/svg11.dtd">
<!-- Creator: CorelDRAW 2019 (64-Bit) -->
<svg xmlns="http://www.w3.org/2000/svg" xml:space="preserve" width="591px" height="591px" version="1.1" style="shape-rendering:geometricPrecision; text-rendering:geometricPrecision; image-rendering:optimizeQuality; fill-rule:evenodd; clip-rule:evenodd"
viewBox="0 0 78.66 78.66"
 xmlns:xlink="http://www.w3.org/1999/xlink">
 <defs>
  <style type="text/css">
   <![CDATA[
    .fil0 {fill:#0E4F95}
    .fil1 {fill:#FEFEFE;fill-rule:nonzero}
   ]]>
  </style>
 </defs>
 <g id="Layer_x0020_1">
  <metadata id="CorelCorpID_0Corel-Layer"/>
  <circle class="fil0" cx="39.33" cy="39.33" r="39.33"/>
  <path class="fil1" d="M13.85 58.65l0 -5.53c6.82,-5.75 11.91,-10.25 15.25,-13.52 3.34,-3.27 5.01,-6.29 5.01,-9.08 0,-1.74 -0.65,-3.26 -1.98,-4.58 -1.31,-1.32 -2.85,-1.98 -4.58,-1.98 -2.82,0 -5.31,0.6 -7.48,1.79 -2.16,1.19 -3.41,1.91 -3.74,2.17 -0.25,-0.9 -0.5,-1.79 -0.75,-2.65 -0.25,-0.87 -0.49,-1.78 -0.71,-2.72 0.25,-0.15 1.58,-0.87 3.99,-2.18 2.4,-1.3 5.3,-1.96 8.69,-1.96 3.32,0 6.3,1.12 8.94,3.36 2.64,2.24 3.95,5.15 3.95,8.73 0,3.83 -1.3,7.24 -3.9,10.21 -2.59,2.98 -7.07,7.12 -13.43,12.39l18.2 0 0 5.55 -27.46 0z"/>
  <path class="fil1" d="M44.85 58.65l9.36 -27.48 3.92 0 9.36 27.48 -3.93 0 -2.45 -7.19 -9.89 0 -2.45 7.19 -3.92 0zm15.02 -10.9l-3.7 -10.79 -3.7 10.79 7.4 0z"/>
 </g>
</svg>
