<?xml version="1.0" encoding="UTF-8"?>
<!DOCTYPE svg PUBLIC "-//W3C//DTD SVG 1.1//EN" "http://www.w3.org/Graphics/SVG/1.1/DTD/svg11.dtd">
<!-- Creator: CorelDRAW -->
<svg xmlns="http://www.w3.org/2000/svg" xml:space="preserve" width="236px" height="236px" version="1.1" style="shape-rendering:geometricPrecision; text-rendering:geometricPrecision; image-rendering:optimizeQuality; fill-rule:evenodd; clip-rule:evenodd"
viewBox="0 0 17.66 17.66"
 xmlns:xlink="http://www.w3.org/1999/xlink"
 xmlns:xodm="http://www.corel.com/coreldraw/odm/2003">
 <defs>
  <style type="text/css">
   <![CDATA[
    .fil0 {fill:#0E4F95}
    .fil1 {fill:#FEFEFE;fill-rule:nonzero}
   ]]>
  </style>
 </defs>
 <g id="Layer_x0020_1">
  <metadata id="CorelCorpID_0Corel-Layer"/>
  <path class="fil0" d="M8.83 0c4.88,0 8.83,3.95 8.83,8.83 0,4.88 -3.95,8.83 -8.83,8.83 -4.88,0 -8.83,-3.95 -8.83,-8.83 0,-4.88 3.95,-8.83 8.83,-8.83z"/>
  <path class="fil1" d="M5.67 5.82l-2.95 0 0 -1.42 6.02 0 -2.61 3.1c0.41,0.06 0.78,0.18 1.09,0.34 0.4,0.21 0.74,0.5 1.02,0.89 0.38,0.53 0.53,1.17 0.46,1.9 -0.06,0.73 -0.32,1.32 -0.78,1.77 -0.36,0.35 -0.78,0.61 -1.25,0.79 -0.43,0.16 -0.92,0.24 -1.46,0.24 -0.2,0 -0.43,-0.02 -0.7,-0.05 -0.26,-0.03 -0.52,-0.07 -0.79,-0.14 -0.48,-0.13 -0.87,-0.3 -1.16,-0.51l-0.06 -0.05 0 -1.66 0.26 0.16c0.36,0.23 0.7,0.41 1,0.52 0.35,0.12 0.74,0.18 1.15,0.2 0.46,0.02 0.86,-0.05 1.22,-0.19 0.33,-0.15 0.58,-0.36 0.75,-0.63 0.09,-0.14 0.15,-0.32 0.18,-0.53 0.03,-0.2 0.02,-0.4 -0.03,-0.57 -0.02,-0.09 -0.04,-0.15 -0.07,-0.2 -0.17,-0.41 -0.51,-0.69 -1.02,-0.85 -0.47,-0.13 -0.96,-0.13 -1.48,0 -0.14,0.04 -0.25,0.07 -0.34,0.11l-0.22 0.1 -0.01 -1.2 1.78 -2.12z"/>
  <path class="fil1" d="M12.6 4.23c1.03,0 1.84,0.42 2.44,1.25 0.6,0.84 0.9,1.95 0.9,3.34 0,1.41 -0.3,2.52 -0.9,3.35 -0.6,0.83 -1.41,1.25 -2.44,1.25 -1.11,0 -1.95,-0.45 -2.5,-1.34 -0.56,-0.9 -0.83,-1.98 -0.83,-3.26 0,-1.39 0.3,-2.5 0.9,-3.34 0.6,-0.83 1.41,-1.25 2.43,-1.25zm1.25 2.28c-0.31,-0.53 -0.72,-0.8 -1.25,-0.8 -0.52,0 -0.93,0.27 -1.24,0.8 -0.32,0.56 -0.48,1.33 -0.48,2.31 0,1 0.16,1.77 0.48,2.33 0.31,0.53 0.72,0.79 1.24,0.79 0.52,0 0.94,-0.26 1.25,-0.79 0.32,-0.56 0.49,-1.34 0.49,-2.33 0,-0.97 -0.17,-1.75 -0.49,-2.31z"/>
 </g>
</svg>
