<?xml version="1.0" encoding="UTF-8"?>
<!DOCTYPE svg PUBLIC "-//W3C//DTD SVG 1.1//EN" "http://www.w3.org/Graphics/SVG/1.1/DTD/svg11.dtd">
<!-- Creator: CorelDRAW 2021.5 -->
<svg xmlns="http://www.w3.org/2000/svg" xml:space="preserve" width="590px" height="590px" version="1.1" style="shape-rendering:geometricPrecision; text-rendering:geometricPrecision; image-rendering:optimizeQuality; fill-rule:evenodd; clip-rule:evenodd"
viewBox="0 0 44.11 44.11"
 xmlns:xlink="http://www.w3.org/1999/xlink"
 xmlns:xodm="http://www.corel.com/coreldraw/odm/2003">
 <defs>
  <style type="text/css">
   <![CDATA[
    .fil0 {fill:#0E4F95}
    .fil1 {fill:white;fill-rule:nonzero}
   ]]>
  </style>
 </defs>
 <g id="Layer_x0020_1">
  <metadata id="CorelCorpID_0Corel-Layer"/>
  <circle class="fil0" cx="22.05" cy="22.05" r="22.05"/>
  <path class="fil1" d="M14.17 14.53l-7.39 0 0 -3.54 15.03 0 -6.5 7.74c1.03,0.16 1.94,0.44 2.72,0.85 1,0.51 1.85,1.26 2.55,2.23 0.93,1.32 1.32,2.9 1.16,4.72 -0.15,1.83 -0.81,3.3 -1.96,4.43 -0.9,0.88 -1.94,1.54 -3.12,1.97 -1.08,0.4 -2.3,0.59 -3.64,0.59 -0.51,0 -1.09,-0.03 -1.75,-0.1 -0.65,-0.07 -1.31,-0.19 -1.98,-0.35 -1.21,-0.32 -2.17,-0.75 -2.89,-1.28l-0.16 -0.12 0.01 -4.16 0.64 0.41c0.9,0.58 1.74,1.01 2.51,1.29 0.87,0.29 1.83,0.46 2.87,0.5 1.14,0.05 2.15,-0.11 3.04,-0.47 0.83,-0.36 1.45,-0.89 1.87,-1.57 0.22,-0.35 0.38,-0.79 0.45,-1.32 0.07,-0.51 0.04,-1 -0.07,-1.44 -0.05,-0.2 -0.11,-0.36 -0.17,-0.49 -0.43,-1.02 -1.28,-1.73 -2.57,-2.11 -1.16,-0.34 -2.39,-0.35 -3.69,-0.02 -0.34,0.1 -0.62,0.19 -0.84,0.29l-0.56 0.25 -0.01 -3 4.45 -5.3z"/>
  <path class="fil1" d="M31.47 10.56c2.57,0 4.59,1.04 6.09,3.12 1.5,2.09 2.25,4.88 2.25,8.36 0,3.5 -0.75,6.29 -2.25,8.36 -1.5,2.07 -3.52,3.11 -6.09,3.11 -2.79,0 -4.87,-1.12 -6.25,-3.35 -1.39,-2.24 -2.08,-4.94 -2.08,-8.12 0,-3.48 0.76,-6.27 2.26,-8.36 1.48,-2.08 3.51,-3.12 6.07,-3.12zm3.12 5.69c-0.77,-1.32 -1.81,-1.98 -3.12,-1.98 -1.3,0 -2.34,0.66 -3.1,1.98 -0.8,1.4 -1.2,3.33 -1.2,5.79 0,2.48 0.4,4.41 1.2,5.8 0.77,1.32 1.8,1.98 3.1,1.98 1.3,0 2.34,-0.66 3.12,-1.98 0.81,-1.41 1.21,-3.34 1.21,-5.8 0,-2.44 -0.4,-4.38 -1.21,-5.79z"/>
 </g>
</svg>
