<?xml version="1.0" encoding="UTF-8"?>
<!DOCTYPE svg PUBLIC "-//W3C//DTD SVG 1.1//EN" "http://www.w3.org/Graphics/SVG/1.1/DTD/svg11.dtd">
<!-- Creator: CorelDRAW 2021.5 -->
<svg xmlns="http://www.w3.org/2000/svg" xml:space="preserve" width="590px" height="590px" version="1.1" style="shape-rendering:geometricPrecision; text-rendering:geometricPrecision; image-rendering:optimizeQuality; fill-rule:evenodd; clip-rule:evenodd"
viewBox="0 0 52.79 52.79"
 xmlns:xlink="http://www.w3.org/1999/xlink"
 xmlns:xodm="http://www.corel.com/coreldraw/odm/2003">
 <defs>
  <style type="text/css">
   <![CDATA[
    .fil0 {fill:#0E4F95}
    .fil1 {fill:white;fill-rule:nonzero}
   ]]>
  </style>
 </defs>
 <g id="Layer_x0020_1">
  <metadata id="CorelCorpID_0Corel-Layer"/>
  <circle class="fil0" cx="26.4" cy="26.4" r="26.4"/>
  <path class="fil1" d="M19.81 17.39l-8.84 0 0 -4.24 17.99 0 -7.79 9.26c1.24,0.19 2.33,0.53 3.26,1.02 1.2,0.61 2.22,1.51 3.06,2.67 1.11,1.59 1.57,3.48 1.38,5.65 -0.18,2.19 -0.97,3.95 -2.35,5.3 -1.07,1.06 -2.32,1.84 -3.73,2.37 -1.29,0.47 -2.75,0.7 -4.36,0.7 -0.61,0 -1.3,-0.04 -2.09,-0.12 -0.78,-0.09 -1.57,-0.23 -2.37,-0.42 -1.44,-0.39 -2.59,-0.9 -3.45,-1.53l-0.2 -0.14 0.02 -4.99 0.76 0.49c1.08,0.7 2.08,1.22 3,1.55 1.04,0.35 2.19,0.55 3.44,0.6 1.36,0.06 2.57,-0.13 3.63,-0.56 1,-0.44 1.74,-1.07 2.24,-1.88 0.27,-0.42 0.45,-0.95 0.54,-1.58 0.08,-0.62 0.05,-1.19 -0.08,-1.73 -0.06,-0.24 -0.13,-0.43 -0.21,-0.58 -0.51,-1.22 -1.53,-2.07 -3.07,-2.53 -1.39,-0.41 -2.87,-0.41 -4.42,-0.02 -0.41,0.11 -0.74,0.23 -1,0.35l-0.67 0.29 -0.02 -3.59 5.33 -6.34z"/>
  <polygon class="fil1" points="41.52,39.63 37.21,39.63 37.21,20.75 31.66,23.96 31.66,19.08 41.94,13.15 41.94,39.63 "/>
 </g>
</svg>
