<?xml version="1.0" encoding="UTF-8"?>
<!DOCTYPE svg PUBLIC "-//W3C//DTD SVG 1.1//EN" "http://www.w3.org/Graphics/SVG/1.1/DTD/svg11.dtd">
<!-- Creator: CorelDRAW 2019 (64-Bit) -->
<svg xmlns="http://www.w3.org/2000/svg" xml:space="preserve" width="591px" height="591px" version="1.1" style="shape-rendering:geometricPrecision; text-rendering:geometricPrecision; image-rendering:optimizeQuality; fill-rule:evenodd; clip-rule:evenodd"
viewBox="0 0 111.22 111.22"
 xmlns:xlink="http://www.w3.org/1999/xlink">
 <defs>
  <style type="text/css">
   <![CDATA[
    .fil0 {fill:#0E4F95}
    .fil1 {fill:#FEFEFE;fill-rule:nonzero}
   ]]>
  </style>
 </defs>
 <g id="Layer_x0020_1">
  <metadata id="CorelCorpID_0Corel-Layer"/>
  <g id="_2527260425552">
   <circle class="fil0" cx="55.61" cy="55.61" r="55.61"/>
  </g>
  <path class="fil1" d="M33.46 49.78l12.53 -15.01 -20.12 0 0 -7 35.22 0 -16.52 19.61c6.51,0.55 11.45,3.1 14.79,7.67 2.26,3.2 3.17,7.03 2.74,11.5 -0.42,4.46 -1.98,8.01 -4.69,10.66 -1.1,1.01 -1.92,1.7 -2.47,2.12 -3.91,2.75 -8.62,4.12 -14.13,4.12 -3.5,0 -6.59,-0.34 -9.24,-1.05 -1.1,-0.31 -2.22,-0.67 -3.33,-1.1 -1.13,-0.42 -2.14,-0.94 -3.05,-1.54 -0.45,-0.1 -0.67,-0.28 -0.67,-0.52 0,-0.61 0,-2.03 0,-4.26 0,-2.23 0,-3.55 0,-3.95 2.24,1.5 4.46,2.64 6.64,3.42 2.18,0.77 4.74,1.23 7.7,1.39 2.61,0.15 5.17,-0.22 7.7,-1.09 2.53,-0.87 4.47,-2.44 5.81,-4.69 1.47,-2.31 1.84,-4.94 1.13,-7.89 -0.39,-1.34 -0.97,-2.48 -1.73,-3.42 -0.74,-0.92 -1.55,-1.7 -2.39,-2.36 -1.5,-1.1 -3.34,-1.79 -5.49,-2.06 -2.15,-0.28 -4.21,-0.27 -6.15,0.04 -1.66,0.19 -3.08,0.57 -4.28,1.13l0 -5.72z"/>
  <polygon id="1" class="fil1" points="86.7,82.45 78.32,82.45 78.32,41.06 66.37,47.97 66.37,39.49 86.7,27.77 "/>
 </g>
</svg>
