<?xml version="1.0" encoding="UTF-8"?>
<!DOCTYPE svg PUBLIC "-//W3C//DTD SVG 1.1//EN" "http://www.w3.org/Graphics/SVG/1.1/DTD/svg11.dtd">
<!-- Creator: CorelDRAW 2019 (64-Bit) -->
<svg xmlns="http://www.w3.org/2000/svg" xml:space="preserve" width="591px" height="591px" version="1.1" style="shape-rendering:geometricPrecision; text-rendering:geometricPrecision; image-rendering:optimizeQuality; fill-rule:evenodd; clip-rule:evenodd"
viewBox="0 0 103.93 103.93"
 xmlns:xlink="http://www.w3.org/1999/xlink">
 <defs>
  <style type="text/css">
   <![CDATA[
    .fil0 {fill:#0E4F95}
    .fil1 {fill:#FEFEFE;fill-rule:nonzero}
   ]]>
  </style>
 </defs>
 <g id="Layer_x0020_1">
  <metadata id="CorelCorpID_0Corel-Layer"/>
  <g id="_2527365754736">
   <circle class="fil0" cx="51.96" cy="51.96" r="51.96"/>
  </g>
  <path class="fil1" d="M23.32 47.02l11.71 -14.03 -18.8 0 0 -6.54 32.91 0 -15.43 18.33c6.08,0.51 10.69,2.9 13.82,7.16 2.1,2.99 2.95,6.58 2.56,10.74 -0.4,4.17 -1.86,7.49 -4.38,9.97 -1.03,0.94 -1.8,1.59 -2.32,1.97 -3.65,2.58 -8.04,3.86 -13.19,3.86 -3.27,0 -6.16,-0.32 -8.64,-0.98 -1.03,-0.29 -2.07,-0.62 -3.11,-1.03 -1.06,-0.4 -2,-0.88 -2.85,-1.44 -0.42,-0.09 -0.63,-0.26 -0.63,-0.49 0,-0.56 0,-1.89 0,-3.98 0,-2.08 0,-3.31 0,-3.68 2.1,1.4 4.17,2.46 6.21,3.19 2.03,0.72 4.43,1.15 7.2,1.3 2.43,0.14 4.82,-0.21 7.18,-1.02 2.37,-0.82 4.18,-2.28 5.44,-4.39 1.36,-2.15 1.71,-4.61 1.05,-7.36 -0.37,-1.26 -0.91,-2.32 -1.61,-3.2 -0.7,-0.86 -1.45,-1.59 -2.24,-2.2 -1.4,-1.03 -3.12,-1.68 -5.13,-1.93 -2.01,-0.26 -3.93,-0.25 -5.75,0.04 -1.54,0.18 -2.87,0.53 -4,1.05l0 -5.34z"/>
  <path id="1" class="fil1" d="M53.4 77.55l0 -7.17c8.83,-7.43 15.42,-13.27 19.75,-17.51 4.32,-4.22 6.49,-8.14 6.49,-11.74 0,-2.26 -0.85,-4.23 -2.57,-5.93 -1.7,-1.72 -3.69,-2.57 -5.93,-2.57 -3.65,0 -6.87,0.77 -9.68,2.32 -2.81,1.54 -4.42,2.47 -4.84,2.81 -0.33,-1.17 -0.66,-2.32 -0.98,-3.44 -0.33,-1.12 -0.64,-2.3 -0.92,-3.52 0.33,-0.19 2.05,-1.12 5.17,-2.81 3.1,-1.69 6.86,-2.54 11.25,-2.54 4.3,0 8.16,1.45 11.57,4.35 3.42,2.89 5.12,6.67 5.12,11.3 0,4.96 -1.68,9.37 -5.04,13.22 -3.37,3.86 -9.17,9.21 -17.39,16.04l23.55 0 0 7.19 -35.55 0z"/>
 </g>
</svg>
