<?xml version="1.0" encoding="UTF-8"?>
<!DOCTYPE svg PUBLIC "-//W3C//DTD SVG 1.1//EN" "http://www.w3.org/Graphics/SVG/1.1/DTD/svg11.dtd">
<!-- Creator: CorelDRAW 2021.5 -->
<svg xmlns="http://www.w3.org/2000/svg" xml:space="preserve" width="590px" height="590px" version="1.1" style="shape-rendering:geometricPrecision; text-rendering:geometricPrecision; image-rendering:optimizeQuality; fill-rule:evenodd; clip-rule:evenodd"
viewBox="0 0 65.73 65.73"
 xmlns:xlink="http://www.w3.org/1999/xlink"
 xmlns:xodm="http://www.corel.com/coreldraw/odm/2003">
 <defs>
  <style type="text/css">
   <![CDATA[
    .fil0 {fill:#0E4F95}
    .fil1 {fill:white;fill-rule:nonzero}
   ]]>
  </style>
 </defs>
 <g id="Layer_x0020_1">
  <metadata id="CorelCorpID_0Corel-Layer"/>
  <circle class="fil0" cx="32.86" cy="32.86" r="32.86"/>
  <path class="fil1" d="M21.05 21.65l-11.01 0 0 -5.28 22.4 0 -9.69 11.54c1.54,0.23 2.89,0.65 4.05,1.26 1.5,0.77 2.77,1.88 3.81,3.33 1.39,1.97 1.96,4.32 1.72,7.04 -0.23,2.72 -1.2,4.91 -2.92,6.59 -1.34,1.31 -2.89,2.3 -4.64,2.95 -1.62,0.58 -3.43,0.88 -5.44,0.88 -0.75,0 -1.62,-0.06 -2.59,-0.16 -0.98,-0.11 -1.96,-0.28 -2.96,-0.52 -1.8,-0.48 -3.23,-1.12 -4.3,-1.9l-0.25 -0.18 0.03 -6.21 0.95 0.61c1.34,0.87 2.59,1.52 3.73,1.93 1.3,0.44 2.73,0.68 4.28,0.75 1.69,0.07 3.2,-0.17 4.53,-0.71 1.24,-0.54 2.17,-1.32 2.78,-2.33 0.34,-0.53 0.57,-1.18 0.68,-1.97 0.1,-0.77 0.06,-1.49 -0.1,-2.15 -0.08,-0.3 -0.17,-0.54 -0.26,-0.73 -0.63,-1.52 -1.91,-2.57 -3.83,-3.14 -1.73,-0.51 -3.57,-0.52 -5.5,-0.03 -0.51,0.14 -0.93,0.28 -1.24,0.44l-0.84 0.36 -0.02 -4.47 6.63 -7.9z"/>
  <path class="fil1" d="M37.02 24.8c-0.55,-2.08 -1.04,-3.89 -1.44,-5.41 1.63,-1.09 3.34,-1.97 5.16,-2.64 1.81,-0.67 3.72,-1.01 5.73,-1.01 3,0 5.59,1.01 7.77,3.04 2.11,1.99 3.16,4.4 3.16,7.24 0,3.08 -1.09,5.96 -3.26,8.63 -1.04,1.29 -2.37,2.65 -3.99,4.12 -1.61,1.46 -3.55,3.14 -5.83,5.03l13.81 0 0 5.55c-3.89,0 -7.78,0 -11.66,0 -3.88,0 -7.76,0 -11.64,0l0 -5.26c2.07,-1.73 4.2,-3.52 6.42,-5.38 2.21,-1.85 4.24,-3.75 6.1,-5.71 2.58,-2.71 3.87,-5.03 3.87,-6.98 0,-1.27 -0.47,-2.37 -1.42,-3.32 -0.95,-0.96 -2.07,-1.43 -3.33,-1.43 -1.83,0 -3.5,0.35 -5.01,1.05 -1.51,0.7 -2.98,1.53 -4.44,2.48z"/>
 </g>
</svg>
