<?xml version="1.0" encoding="UTF-8"?>
<!DOCTYPE svg PUBLIC "-//W3C//DTD SVG 1.1//EN" "http://www.w3.org/Graphics/SVG/1.1/DTD/svg11.dtd">
<!-- Creator: CorelDRAW 2019 (64-Bit) -->
<svg xmlns="http://www.w3.org/2000/svg" xml:space="preserve" width="591px" height="591px" version="1.1" style="shape-rendering:geometricPrecision; text-rendering:geometricPrecision; image-rendering:optimizeQuality; fill-rule:evenodd; clip-rule:evenodd"
viewBox="0 0 74.93 74.93"
 xmlns:xlink="http://www.w3.org/1999/xlink">
 <defs>
  <style type="text/css">
   <![CDATA[
    .fil0 {fill:#0E4F95}
    .fil1 {fill:#FEFEFE;fill-rule:nonzero}
   ]]>
  </style>
 </defs>
 <g id="Layer_x0020_1">
  <metadata id="CorelCorpID_0Corel-Layer"/>
  <g id="_2527467406784">
   <circle class="fil0" cx="37.47" cy="37.47" r="37.47"/>
  </g>
  <path class="fil1" d="M17.43 33.54l8.45 -10.12 -13.56 0 0 -4.71 23.73 0 -11.13 13.21c4.38,0.37 7.71,2.09 9.96,5.17 1.52,2.15 2.14,4.74 1.85,7.74 -0.28,3.01 -1.34,5.4 -3.16,7.19 -0.74,0.68 -1.3,1.15 -1.67,1.42 -2.63,1.86 -5.8,2.78 -9.51,2.78 -2.36,0 -4.44,-0.23 -6.23,-0.71 -0.74,-0.2 -1.49,-0.44 -2.25,-0.74 -0.76,-0.28 -1.44,-0.63 -2.05,-1.03 -0.3,-0.07 -0.45,-0.19 -0.45,-0.36 0,-0.4 0,-1.36 0,-2.87 0,-1.5 0,-2.39 0,-2.66 1.51,1.02 3.01,1.78 4.47,2.31 1.47,0.52 3.2,0.83 5.19,0.93 1.76,0.11 3.48,-0.14 5.19,-0.73 1.7,-0.59 3.01,-1.64 3.92,-3.16 0.98,-1.56 1.23,-3.33 0.76,-5.31 -0.27,-0.91 -0.66,-1.68 -1.17,-2.31 -0.5,-0.62 -1.05,-1.15 -1.62,-1.59 -1.01,-0.74 -2.24,-1.21 -3.69,-1.39 -1.45,-0.19 -2.83,-0.18 -4.15,0.03 -1.11,0.13 -2.07,0.39 -2.88,0.76l0 -3.85z"/>
  <path id="1" class="fil1" d="M45.92 33.54l8.44 -10.12 -13.55 0 0 -4.71 23.73 0 -11.13 13.21c4.38,0.37 7.71,2.09 9.96,5.17 1.52,2.15 2.13,4.74 1.85,7.74 -0.29,3.01 -1.34,5.4 -3.16,7.19 -0.74,0.68 -1.3,1.15 -1.67,1.42 -2.63,1.86 -5.8,2.78 -9.51,2.78 -2.36,0 -4.44,-0.23 -6.23,-0.71 -0.74,-0.2 -1.49,-0.44 -2.25,-0.74 -0.76,-0.28 -1.44,-0.63 -2.05,-1.03 -0.3,-0.07 -0.45,-0.19 -0.45,-0.36 0,-0.4 0,-1.36 0,-2.87 0,-1.5 0,-2.39 0,-2.66 1.51,1.02 3,1.78 4.47,2.31 1.47,0.52 3.2,0.83 5.19,0.93 1.76,0.11 3.48,-0.14 5.18,-0.73 1.71,-0.59 3.02,-1.64 3.92,-3.16 0.99,-1.56 1.24,-3.33 0.76,-5.31 -0.26,-0.91 -0.65,-1.68 -1.16,-2.31 -0.5,-0.62 -1.05,-1.15 -1.62,-1.59 -1.01,-0.74 -2.24,-1.21 -3.69,-1.39 -1.45,-0.19 -2.83,-0.18 -4.15,0.03 -1.11,0.13 -2.07,0.39 -2.88,0.76l0 -3.85z"/>
 </g>
</svg>
