<?xml version="1.0" encoding="UTF-8"?>
<!DOCTYPE svg PUBLIC "-//W3C//DTD SVG 1.1//EN" "http://www.w3.org/Graphics/SVG/1.1/DTD/svg11.dtd">
<!-- Creator: CorelDRAW 2019 (64-Bit) -->
<svg xmlns="http://www.w3.org/2000/svg" xml:space="preserve" width="591px" height="591px" version="1.1" style="shape-rendering:geometricPrecision; text-rendering:geometricPrecision; image-rendering:optimizeQuality; fill-rule:evenodd; clip-rule:evenodd"
viewBox="0 0 60.84 60.84"
 xmlns:xlink="http://www.w3.org/1999/xlink">
 <defs>
  <style type="text/css">
   <![CDATA[
    .fil0 {fill:#0E4F95}
    .fil1 {fill:#FEFEFE;fill-rule:nonzero}
   ]]>
  </style>
 </defs>
 <g id="Layer_x0020_1">
  <metadata id="CorelCorpID_0Corel-Layer"/>
  <g id="_2527467359616">
   <circle class="fil0" cx="30.42" cy="30.42" r="30.42"/>
  </g>
  <path class="fil1" d="M12.99 27.23l6.86 -8.21 -11.01 0 0 -3.83 19.27 0 -9.04 10.73c3.56,0.3 6.26,1.7 8.09,4.19 1.24,1.75 1.74,3.85 1.5,6.29 -0.23,2.44 -1.08,4.38 -2.56,5.83 -0.61,0.56 -1.05,0.94 -1.36,1.16 -2.13,1.51 -4.71,2.26 -7.72,2.26 -1.92,0 -3.61,-0.19 -5.06,-0.58 -0.6,-0.16 -1.21,-0.36 -1.82,-0.6 -0.62,-0.23 -1.17,-0.51 -1.67,-0.84 -0.25,-0.06 -0.36,-0.15 -0.36,-0.29 0,-0.33 0,-1.11 0,-2.33 0,-1.22 0,-1.94 0,-2.15 1.22,0.82 2.44,1.44 3.63,1.87 1.19,0.42 2.59,0.67 4.21,0.75 1.42,0.09 2.83,-0.11 4.21,-0.59 1.39,-0.48 2.45,-1.33 3.18,-2.57 0.8,-1.26 1,-2.7 0.62,-4.31 -0.22,-0.74 -0.53,-1.36 -0.95,-1.87 -0.4,-0.51 -0.85,-0.93 -1.31,-1.29 -0.82,-0.61 -1.82,-0.98 -3,-1.13 -1.18,-0.16 -2.3,-0.15 -3.37,0.02 -0.9,0.11 -1.68,0.32 -2.34,0.62l0 -3.13z"/>
  <path id="1" class="fil1" d="M31.18 37.28l0 -4.04 13.88 -18.05 4.63 0 0 18.05 3.05 0 0 4.04 -3.05 0 0 7.82 -4.63 0 0 -7.82 -13.88 0zm4.6 -4.04l9.28 0 0 -11.72 -9.28 11.72z"/>
 </g>
</svg>
