<?xml version="1.0" encoding="UTF-8"?>
<!DOCTYPE svg PUBLIC "-//W3C//DTD SVG 1.1//EN" "http://www.w3.org/Graphics/SVG/1.1/DTD/svg11.dtd">
<!-- Creator: CorelDRAW 2021.5 -->
<svg xmlns="http://www.w3.org/2000/svg" xml:space="preserve" width="590px" height="590px" version="1.1" style="shape-rendering:geometricPrecision; text-rendering:geometricPrecision; image-rendering:optimizeQuality; fill-rule:evenodd; clip-rule:evenodd"
viewBox="0 0 128.92 128.93"
 xmlns:xlink="http://www.w3.org/1999/xlink"
 xmlns:xodm="http://www.corel.com/coreldraw/odm/2003">
 <defs>
  <style type="text/css">
   <![CDATA[
    .fil0 {fill:#0E4F95}
    .fil1 {fill:white;fill-rule:nonzero}
   ]]>
  </style>
 </defs>
 <g id="Layer_x0020_1">
  <metadata id="CorelCorpID_0Corel-Layer"/>
  <circle class="fil0" cx="64.46" cy="64.46" r="64.46"/>
  <path class="fil1" d="M41.18 42.49l-21.59 0 0 -10.36 43.94 0 -19.01 22.62c3.02,0.47 5.67,1.29 7.94,2.49 2.94,1.5 5.43,3.68 7.48,6.52 2.71,3.88 3.85,8.49 3.36,13.81 -0.44,5.34 -2.35,9.64 -5.73,12.93 -2.62,2.58 -5.67,4.51 -9.09,5.78 -3.17,1.15 -6.74,1.73 -10.66,1.73 -1.49,0 -3.19,-0.11 -5.1,-0.31 -1.91,-0.21 -3.83,-0.56 -5.79,-1.03 -3.53,-0.94 -6.33,-2.18 -8.44,-3.73l-0.49 -0.34 0.05 -12.18 1.86 1.2c2.64,1.71 5.08,2.97 7.33,3.77 2.54,0.87 5.35,1.35 8.39,1.47 3.33,0.14 6.28,-0.31 8.89,-1.37 2.42,-1.07 4.24,-2.6 5.46,-4.58 0.65,-1.03 1.1,-2.32 1.33,-3.87 0.18,-1.5 0.11,-2.91 -0.21,-4.21 -0.15,-0.6 -0.32,-1.07 -0.5,-1.43 -1.24,-2.99 -3.75,-5.05 -7.51,-6.17 -3.39,-1 -7,-1.02 -10.79,-0.05 -1,0.28 -1.82,0.55 -2.44,0.85l-1.64 0.72 -0.04 -8.77 13 -15.49z"/>
  <path class="fil1" d="M97.94 96.81l0 -16.39 -29.09 0 0 -9.82 29.62 -38.47 11.19 0 0 37.77 6.4 0 0 10.52 -6.4 0 0 16.39 -11.72 0zm0 -26.91l0 -20.53 -16.25 20.53 16.25 0z"/>
 </g>
</svg>
