<?xml version="1.0" encoding="UTF-8"?>
<!DOCTYPE svg PUBLIC "-//W3C//DTD SVG 1.1//EN" "http://www.w3.org/Graphics/SVG/1.1/DTD/svg11.dtd">
<!-- Creator: CorelDRAW 2021.5 -->
<svg xmlns="http://www.w3.org/2000/svg" xml:space="preserve" width="590px" height="590px" version="1.1" style="shape-rendering:geometricPrecision; text-rendering:geometricPrecision; image-rendering:optimizeQuality; fill-rule:evenodd; clip-rule:evenodd"
viewBox="0 0 248.28 248.29"
 xmlns:xlink="http://www.w3.org/1999/xlink"
 xmlns:xodm="http://www.corel.com/coreldraw/odm/2003">
 <defs>
  <style type="text/css">
   <![CDATA[
    .fil0 {fill:#0E4F95}
    .fil1 {fill:white;fill-rule:nonzero}
   ]]>
  </style>
 </defs>
 <g id="Layer_x0020_1">
  <metadata id="CorelCorpID_0Corel-Layer"/>
  <circle class="fil0" cx="124.14" cy="124.14" r="124.14"/>
  <path class="fil1" d="M79.85 81.83l-41.57 0 0 -19.94 84.61 0 -36.61 43.56c5.81,0.9 10.92,2.48 15.3,4.78 5.66,2.89 10.45,7.1 14.39,12.56 5.23,7.47 7.42,16.35 6.48,26.6 -0.84,10.27 -4.52,18.56 -11.03,24.9 -5.06,4.96 -10.92,8.67 -17.52,11.12 -6.1,2.22 -12.97,3.33 -20.53,3.33 -2.86,0 -6.13,-0.2 -9.81,-0.58 -3.68,-0.41 -7.38,-1.08 -11.15,-1.99 -6.8,-1.81 -12.2,-4.2 -16.26,-7.18l-0.94 -0.67 0.09 -23.44 3.59 2.3c5.08,3.3 9.78,5.72 14.1,7.27 4.91,1.67 10.31,2.6 16.18,2.83 6.39,0.27 12.09,-0.61 17.11,-2.65 4.67,-2.05 8.17,-5 10.51,-8.82 1.25,-1.99 2.13,-4.47 2.57,-7.45 0.35,-2.89 0.2,-5.6 -0.41,-8.11 -0.29,-1.14 -0.61,-2.05 -0.97,-2.75 -2.39,-5.75 -7.21,-9.72 -14.45,-11.88 -6.54,-1.93 -13.49,-1.96 -20.78,-0.09 -1.93,0.53 -3.51,1.05 -4.71,1.64l-3.15 1.37 -0.09 -16.87 25.05 -29.84z"/>
  <path class="fil1" d="M163.24 82.41l-2.89 23.27c3.59,-0.73 7.06,-1.17 10.42,-1.29 6.83,-0.2 13.08,0.44 18.74,1.99 10.08,2.95 17.96,8.26 23.59,15.91 4.91,6.77 7.27,14.95 7.1,24.56 -0.21,12.52 -5.17,22.71 -14.86,30.51 -5.84,4.64 -12.32,7.76 -19.51,9.37 -7.18,1.63 -14.39,2.28 -21.63,1.92 -7.27,-0.46 -13.78,-1.66 -19.59,-3.67 -3.83,-1.32 -7.65,-2.92 -11.48,-4.88l0 -22.74c6.11,3.71 12.27,6.54 18.52,8.49 6.24,1.99 13.04,2.63 20.4,1.93 5.37,-0.5 10.57,-2.22 15.65,-5.11 5.08,-2.92 8.12,-7.3 9.08,-13.2 1.02,-6.16 -0.17,-11.38 -3.59,-15.73 -3.41,-4.32 -8.06,-7.27 -13.87,-8.79 -4.61,-1.2 -9.63,-1.61 -15.06,-1.17 -5.4,0.44 -10.37,1.23 -14.86,2.37 -2.02,0.49 -4,1.05 -5.99,1.66 -2.01,0.58 -3.97,1.14 -5.93,1.66l8.56 -67.58 65.78 0 0 20.52 -48.58 0z"/>
 </g>
</svg>
