<?xml version="1.0" encoding="UTF-8"?>
<!DOCTYPE svg PUBLIC "-//W3C//DTD SVG 1.1//EN" "http://www.w3.org/Graphics/SVG/1.1/DTD/svg11.dtd">
<!-- Creator: CorelDRAW 2021.5 -->
<svg xmlns="http://www.w3.org/2000/svg" xml:space="preserve" width="590px" height="590px" version="1.1" style="shape-rendering:geometricPrecision; text-rendering:geometricPrecision; image-rendering:optimizeQuality; fill-rule:evenodd; clip-rule:evenodd"
viewBox="0 0 3346.36 3346.38"
 xmlns:xlink="http://www.w3.org/1999/xlink"
 xmlns:xodm="http://www.corel.com/coreldraw/odm/2003">
 <defs>
  <style type="text/css">
   <![CDATA[
    .fil0 {fill:#0E4F95}
    .fil1 {fill:white;fill-rule:nonzero}
   ]]>
  </style>
 </defs>
 <g id="Layer_x0020_1">
  <metadata id="CorelCorpID_0Corel-Layer"/>
  <ellipse class="fil0" cx="1673.18" cy="1673.18" rx="1673.18" ry="1673.19"/>
  <path class="fil1" d="M1048.7 1101.43l-560.36 0 0 -268.77 1140.39 0 -493.45 587.11c78.3,12.2 147.15,33.45 206.18,64.53 76.35,38.95 140.89,95.63 194.01,169.21 70.42,100.75 99.94,220.36 87.36,358.48 -11.41,138.53 -61.01,250.28 -148.75,335.66 -68.08,66.9 -147.17,116.87 -236.1,149.94 -82.24,29.9 -174.72,44.85 -276.65,44.85 -38.55,0 -82.62,-2.76 -132.21,-7.86 -49.58,-5.52 -99.56,-14.57 -150.32,-26.77 -91.68,-24.4 -164.48,-56.65 -219.17,-96.79l-12.6 -9.06 1.18 -315.98 48.39 31.09c68.47,44.46 131.83,77.12 190.08,97.98 66.1,22.42 138.91,35.02 218,38.17 86.17,3.54 162.9,-8.27 230.6,-35.81 62.94,-27.54 110.18,-67.29 141.65,-118.85 16.91,-26.75 28.73,-60.2 34.63,-100.34 4.72,-38.95 2.75,-75.54 -5.5,-109.39 -3.95,-15.34 -8.27,-27.54 -13,-36.99 -32.26,-77.52 -97.2,-131.03 -194.78,-160.16 -88.14,-25.97 -181.81,-26.35 -280.17,-1.17 -25.97,7.07 -47.22,14.15 -63.37,22.03l-42.5 18.49 -1.17 -227.44 337.63 -402.16z"/>
  <path class="fil1" d="M2073.93 1542.93c55.49,-53.12 121.19,-89.71 197.14,-110.56 117.66,-31.49 232.96,-33.45 345.9,-5.91 109.39,28.33 199.11,83.81 269.93,166.06 69.66,82.24 110.59,179.44 122,291.59 11.81,120.02 -3.94,227.44 -47.22,323.06 -43.69,98.38 -112.54,178.66 -206.2,240.84 -90.11,59.01 -195.18,90.5 -315.99,94.43 -55.48,1.58 -113.72,-3.14 -175.11,-13.77 -61.78,-10.62 -116.47,-29.13 -164.88,-55.48 -92.48,-51.55 -163.69,-117.27 -214.45,-197.15 -54.7,-81.45 -92.88,-179.05 -114.13,-292.78 -20.85,-111.35 -25.57,-232.15 -13.77,-362.01 10.62,-127.49 36.61,-240.05 78.31,-337.63 27.55,-66.89 62.57,-131.83 104.29,-194.39 41.71,-62.58 92.86,-115.7 152.67,-159.77 88.55,-66.11 190.06,-107.04 304.57,-123.17 113.73,-14.55 229.03,-3.93 345.5,32.28 25.58,9.03 50.38,20.46 75.16,33.83 24.4,13.77 49.19,26.76 73.59,39.74l-1.17 293.18c-57.46,-29.52 -105.46,-53.91 -144.03,-73.99 -38.17,-20.06 -90.91,-33.83 -157.8,-41.31 -76.73,-9.46 -149.53,-1.58 -218,22.82 -89.72,32.26 -158.99,89.71 -206.99,171.95 -48,82.26 -77.52,168.43 -89.32,258.14zm433.65 142.86c-83.05,-27.56 -165.28,-24.01 -246.73,10.62 -83.04,33.84 -142.84,86.17 -179.84,157.78 -11.41,23.23 -17.7,40.14 -18.49,51.17 -0.78,11.41 1.17,28.33 5.89,51.55 7.48,46.03 19.68,88.93 36.61,128.29 16.92,39.73 44.07,74.75 80.67,105.46 60.2,52.32 133,76.73 219.18,72.78 88.53,-2.36 161.33,-32.26 218.39,-90.5 57.46,-57.84 84.61,-133 81.45,-225.48 -5.5,-132.22 -71.21,-219.17 -197.13,-261.67z"/>
 </g>
</svg>
