<?xml version="1.0" encoding="UTF-8"?>
<!DOCTYPE svg PUBLIC "-//W3C//DTD SVG 1.1//EN" "http://www.w3.org/Graphics/SVG/1.1/DTD/svg11.dtd">
<!-- Creator: CorelDRAW 2021.5 -->
<svg xmlns="http://www.w3.org/2000/svg" xml:space="preserve" width="590px" height="590px" version="1.1" style="shape-rendering:geometricPrecision; text-rendering:geometricPrecision; image-rendering:optimizeQuality; fill-rule:evenodd; clip-rule:evenodd"
viewBox="0 0 68.42 68.42"
 xmlns:xlink="http://www.w3.org/1999/xlink"
 xmlns:xodm="http://www.corel.com/coreldraw/odm/2003">
 <defs>
  <style type="text/css">
   <![CDATA[
    .fil0 {fill:#0E4F95}
    .fil1 {fill:white;fill-rule:nonzero}
   ]]>
  </style>
 </defs>
 <g id="Layer_x0020_1">
  <metadata id="CorelCorpID_0Corel-Layer"/>
  <circle class="fil0" cx="34.21" cy="34.21" r="34.21"/>
  <path class="fil1" d="M50.22 48.08l1.34 -3.98 6.42 0.01 1.32 3.97 3.27 0 -6.17 -18.33 -3.22 0 -6.17 18.33 3.21 0zm4.56 -13.54l2.1 6.3 -4.22 0 2.12 -6.3z"/>
  <path class="fil1" d="M15.42 25.97l-8.79 0 0 -4.21 17.89 0 -7.74 9.21c1.23,0.19 2.31,0.52 3.23,1.01 1.2,0.61 2.21,1.5 3.05,2.65 1.1,1.58 1.56,3.46 1.37,5.62 -0.18,2.17 -0.96,3.93 -2.34,5.27 -1.06,1.05 -2.3,1.83 -3.7,2.35 -1.29,0.47 -2.74,0.7 -4.34,0.7 -0.6,0 -1.29,-0.04 -2.07,-0.12 -0.78,-0.09 -1.56,-0.23 -2.36,-0.42 -1.44,-0.38 -2.58,-0.89 -3.44,-1.52l-0.19 -0.14 0.02 -4.96 0.75 0.49c1.08,0.7 2.07,1.21 2.99,1.54 1.03,0.35 2.17,0.55 3.41,0.6 1.36,0.05 2.56,-0.13 3.62,-0.57 0.99,-0.43 1.73,-1.05 2.22,-1.86 0.27,-0.42 0.45,-0.94 0.55,-1.57 0.07,-0.61 0.04,-1.19 -0.09,-1.72 -0.06,-0.24 -0.13,-0.43 -0.21,-0.58 -0.5,-1.21 -1.52,-2.05 -3.05,-2.51 -1.38,-0.41 -2.85,-0.41 -4.39,-0.02 -0.41,0.11 -0.74,0.22 -1,0.35l-0.66 0.29 -0.02 -3.57 5.29 -6.31z"/>
  <path class="fil1" d="M31.42 32.9c0.87,-0.84 1.9,-1.41 3.09,-1.74 1.84,-0.49 3.65,-0.52 5.42,-0.09 1.72,0.44 3.13,1.31 4.24,2.6 1.09,1.29 1.73,2.82 1.91,4.58 0.19,1.88 -0.06,3.56 -0.74,5.06 -0.69,1.55 -1.76,2.81 -3.23,3.78 -1.42,0.93 -3.06,1.42 -4.96,1.48 -0.87,0.03 -1.78,-0.05 -2.75,-0.21 -0.96,-0.17 -1.82,-0.46 -2.58,-0.87 -1.45,-0.81 -2.57,-1.84 -3.36,-3.1 -0.86,-1.27 -1.46,-2.8 -1.79,-4.59 -0.33,-1.74 -0.4,-3.64 -0.22,-5.67 0.17,-2 0.57,-3.77 1.23,-5.3 0.43,-1.05 0.98,-2.07 1.63,-3.05 0.66,-0.98 1.46,-1.81 2.4,-2.5 1.39,-1.04 2.98,-1.68 4.77,-1.94 1.79,-0.22 3.6,-0.06 5.42,0.51 0.4,0.14 0.79,0.32 1.18,0.53 0.38,0.22 0.77,0.42 1.16,0.62l-0.02 4.6c-0.9,-0.46 -1.66,-0.84 -2.26,-1.16 -0.6,-0.31 -1.43,-0.53 -2.48,-0.65 -1.2,-0.14 -2.34,-0.02 -3.42,0.36 -1.4,0.51 -2.49,1.41 -3.24,2.7 -0.75,1.29 -1.22,2.64 -1.4,4.05zm6.8 2.24c-1.3,-0.44 -2.59,-0.38 -3.87,0.16 -1.3,0.53 -2.24,1.36 -2.82,2.48 -0.18,0.36 -0.28,0.63 -0.29,0.8 -0.01,0.18 0.02,0.44 0.09,0.81 0.12,0.72 0.31,1.39 0.58,2.01 0.26,0.62 0.69,1.17 1.26,1.65 0.94,0.83 2.09,1.21 3.44,1.15 1.39,-0.04 2.53,-0.51 3.42,-1.42 0.9,-0.91 1.33,-2.09 1.28,-3.54 -0.09,-2.07 -1.12,-3.44 -3.09,-4.1z"/>
 </g>
</svg>
