<?xml version="1.0" encoding="UTF-8"?>
<!DOCTYPE svg PUBLIC "-//W3C//DTD SVG 1.1//EN" "http://www.w3.org/Graphics/SVG/1.1/DTD/svg11.dtd">
<!-- Creator: CorelDRAW 2019 (64-Bit) -->
<svg xmlns="http://www.w3.org/2000/svg" xml:space="preserve" width="591px" height="591px" version="1.1" style="shape-rendering:geometricPrecision; text-rendering:geometricPrecision; image-rendering:optimizeQuality; fill-rule:evenodd; clip-rule:evenodd"
viewBox="0 0 189.82 189.83"
 xmlns:xlink="http://www.w3.org/1999/xlink">
 <defs>
  <style type="text/css">
   <![CDATA[
    .fil0 {fill:#0E4F95}
    .fil1 {fill:#FEFEFE;fill-rule:nonzero}
   ]]>
  </style>
 </defs>
 <g id="Layer_x0020_1">
  <metadata id="CorelCorpID_0Corel-Layer"/>
  <g id="_2527469663760">
   <circle class="fil0" cx="94.91" cy="94.91" r="94.91"/>
   <g>
    <path class="fil1" d="M22.94 87.09l18.86 -22.58 -30.28 0 0 -10.53 53 0 -24.86 29.51c9.8,0.83 17.22,4.66 22.26,11.53 3.39,4.82 4.76,10.59 4.12,17.3 -0.63,6.71 -2.99,12.05 -7.06,16.04 -1.65,1.53 -2.89,2.57 -3.72,3.18 -5.88,4.15 -12.96,6.21 -21.25,6.21 -5.26,0 -9.91,-0.52 -13.9,-1.58 -1.66,-0.46 -3.34,-1 -5.02,-1.66 -1.7,-0.63 -3.22,-1.4 -4.59,-2.31 -0.67,-0.15 -1,-0.42 -1,-0.79 0,-0.91 0,-3.05 0,-6.4 0,-3.36 0,-5.35 0,-5.94 3.37,2.25 6.71,3.97 9.99,5.15 3.28,1.15 7.13,1.85 11.59,2.08 3.91,0.23 7.77,-0.33 11.57,-1.64 3.82,-1.31 6.73,-3.66 8.76,-7.06 2.19,-3.47 2.75,-7.42 1.69,-11.86 -0.59,-2.02 -1.46,-3.74 -2.6,-5.15 -1.12,-1.39 -2.33,-2.56 -3.61,-3.55 -2.25,-1.65 -5.01,-2.7 -8.25,-3.1 -3.24,-0.43 -6.33,-0.41 -9.26,0.06 -2.49,0.29 -4.63,0.86 -6.44,1.69l0 -8.6z"/>
    <path class="fil1" d="M123.72 69.37c-0.54,-0.23 -1.03,-0.52 -1.49,-0.91 -3.45,-2.18 -7.56,-3.55 -12.3,-4.07 -3.92,-0.44 -7.72,-0.07 -11.36,1.14 -3.67,1.2 -6.69,3.28 -9.1,6.21 -4.67,5.73 -7.12,12.59 -7.35,20.58 0.15,-0.08 0.35,-0.27 0.58,-0.58 0.21,-0.29 0.44,-0.56 0.67,-0.79 0.6,-0.6 1.18,-1.18 1.76,-1.74 0.56,-0.57 1.29,-1.11 2.2,-1.64 2.33,-1.52 4.58,-2.56 6.76,-3.18 5.44,-1.42 10.84,-1.54 16.22,-0.33 5.4,1.2 9.9,3.88 13.5,8.03 3.32,3.99 5.27,8.62 5.87,13.9 0.67,6.79 -0.27,12.42 -2.88,16.9 -2.58,4.49 -5.69,7.94 -9.27,10.35 -4.23,2.7 -9.32,4.21 -15.26,4.51 -2.72,0 -5.57,-0.25 -8.6,-0.73 -3.01,-0.5 -5.65,-1.33 -7.91,-2.54 -0.59,-0.31 -1.15,-0.6 -1.69,-0.91 -0.52,-0.29 -1.03,-0.64 -1.47,-1.02 -0.23,-0.14 -0.44,-0.29 -0.67,-0.45 -0.24,-0.15 -0.47,-0.34 -0.68,-0.56 -2.2,-1.65 -4.15,-3.85 -5.88,-6.55 -2.64,-3.99 -4.48,-8.8 -5.54,-14.37 -0.98,-5.42 -1.21,-11.36 -0.67,-17.8 0.52,-6.44 1.81,-12.03 3.84,-16.78 0.83,-2.04 1.62,-3.72 2.37,-5.03 0.75,-1.33 1.73,-2.86 2.93,-4.57 1.06,-1.6 2.2,-2.99 3.39,-4.19 1.22,-1.37 2.49,-2.52 3.84,-3.51 4.53,-3.31 9.57,-5.3 15.16,-5.97 5.57,-0.7 11.07,-0.16 16.49,1.58 0.9,0.29 2.06,0.79 3.49,1.46l3.05 1.81 0 11.75zm-41.43 41.23c0.83,4.74 2.84,8.62 6,11.63 3.16,3.03 7.27,4.42 12.3,4.18 5.06,-0.07 9.01,-1.77 11.88,-5.07 0.37,-0.23 0.72,-0.58 1.01,-1.02 0.54,-0.75 0.83,-1.18 0.9,-1.25 0.62,-0.89 1.1,-1.84 1.47,-2.82 1.96,-4.82 1.81,-9.53 -0.45,-14.12 -0.52,-0.9 -1.42,-2.1 -2.71,-3.6 -3.92,-3.84 -8.66,-5.46 -14.24,-4.86 -4.07,0.52 -7.6,1.99 -10.62,4.4 -2.03,1.5 -3.65,3.39 -4.86,5.65 -0.76,1.58 -1.12,2.7 -1.12,3.33 0,0.64 0.15,1.81 0.44,3.55z"/>
    <path class="fil1" d="M125.7 136.01l22.59 -66.3 9.46 0 22.6 66.3 -9.48 0 -5.92 -17.34 -23.86 0 -5.92 17.34 -9.47 0zm36.25 -26.29l-8.92 -26.05 -8.92 26.05 17.84 0z"/>
   </g>
  </g>
 </g>
</svg>
