<?xml version="1.0" encoding="UTF-8"?>
<!DOCTYPE svg PUBLIC "-//W3C//DTD SVG 1.1//EN" "http://www.w3.org/Graphics/SVG/1.1/DTD/svg11.dtd">
<!-- Creator: CorelDRAW 2021.5 -->
<svg xmlns="http://www.w3.org/2000/svg" xml:space="preserve" width="590px" height="590px" version="1.1" style="shape-rendering:geometricPrecision; text-rendering:geometricPrecision; image-rendering:optimizeQuality; fill-rule:evenodd; clip-rule:evenodd"
viewBox="0 0 291.55 291.55"
 xmlns:xlink="http://www.w3.org/1999/xlink"
 xmlns:xodm="http://www.corel.com/coreldraw/odm/2003">
 <defs>
  <style type="text/css">
   <![CDATA[
    .fil0 {fill:#0E4F95}
    .fil1 {fill:white;fill-rule:nonzero}
   ]]>
  </style>
 </defs>
 <g id="Layer_x0020_1">
  <metadata id="CorelCorpID_0Corel-Layer"/>
  <circle class="fil0" cx="145.77" cy="145.77" r="145.77"/>
  <path class="fil1" d="M94.88 95.96l-48.82 0 0 -23.42 99.36 0 -43 51.16c6.83,1.06 12.82,2.91 17.97,5.62 6.65,3.39 12.27,8.33 16.9,14.74 6.14,8.78 8.71,19.2 7.61,31.23 -0.99,12.07 -5.31,21.81 -12.96,29.25 -5.93,5.82 -12.82,10.18 -20.57,13.06 -7.16,2.6 -15.22,3.91 -24.1,3.91 -3.36,0 -7.2,-0.24 -11.52,-0.69 -4.32,-0.48 -8.67,-1.27 -13.1,-2.33 -7.98,-2.13 -14.33,-4.94 -19.09,-8.43l-1.1 -0.79 0.1 -27.53 4.22 2.71c5.97,3.87 11.49,6.72 16.56,8.53 5.76,1.96 12.1,3.05 18.99,3.33 7.51,0.31 14.2,-0.72 20.09,-3.12 5.49,-2.4 9.6,-5.86 12.34,-10.36 1.48,-2.33 2.51,-5.24 3.02,-8.74 0.41,-3.39 0.24,-6.58 -0.48,-9.53 -0.34,-1.34 -0.72,-2.4 -1.13,-3.22 -2.81,-6.76 -8.47,-11.42 -16.97,-13.96 -7.68,-2.26 -15.84,-2.29 -24.41,-0.1 -2.26,0.62 -4.11,1.24 -5.52,1.92l-3.7 1.61 -0.1 -19.81 29.41 -35.04z"/>
  <path class="fil1" d="M219.12 97.06l-64.59 0 0 -24.52 104.46 0c-10.83,24.38 -21.67,48.79 -32.43,73.2 -10.8,24.41 -21.57,48.75 -32.36,73.06l-28.91 -0.11 53.83 -121.63z"/>
 </g>
</svg>
