<?xml version="1.0" encoding="UTF-8"?>
<!DOCTYPE svg PUBLIC "-//W3C//DTD SVG 1.1//EN" "http://www.w3.org/Graphics/SVG/1.1/DTD/svg11.dtd">
<!-- Creator: CorelDRAW 2019 (64-Bit) -->
<svg xmlns="http://www.w3.org/2000/svg" xml:space="preserve" width="591px" height="591px" version="1.1" style="shape-rendering:geometricPrecision; text-rendering:geometricPrecision; image-rendering:optimizeQuality; fill-rule:evenodd; clip-rule:evenodd"
viewBox="0 0 78.66 78.66"
 xmlns:xlink="http://www.w3.org/1999/xlink">
 <defs>
  <style type="text/css">
   <![CDATA[
    .fil0 {fill:#0E4F95}
    .fil1 {fill:#FEFEFE;fill-rule:nonzero}
   ]]>
  </style>
 </defs>
 <g id="Layer_x0020_1">
  <metadata id="CorelCorpID_0Corel-Layer"/>
  <g id="_2527504079488">
   <circle class="fil0" cx="39.33" cy="39.33" r="39.33"/>
  </g>
  <path class="fil1" d="M18.74 35.23l8.87 -10.61 -14.23 0 0 -4.95 24.91 0 -11.69 13.87c4.61,0.38 8.1,2.19 10.46,5.42 1.6,2.26 2.24,4.97 1.94,8.13 -0.3,3.15 -1.4,5.66 -3.31,7.54 -0.78,0.72 -1.36,1.2 -1.75,1.49 -2.77,1.95 -6.1,2.92 -9.99,2.92 -2.48,0 -4.66,-0.24 -6.54,-0.74 -0.78,-0.22 -1.57,-0.47 -2.36,-0.78 -0.79,-0.3 -1.51,-0.66 -2.15,-1.09 -0.32,-0.07 -0.47,-0.2 -0.47,-0.37 0,-0.42 0,-1.43 0,-3.01 0,-1.58 0,-2.51 0,-2.79 1.58,1.06 3.15,1.87 4.69,2.42 1.54,0.54 3.35,0.87 5.45,0.98 1.84,0.11 3.65,-0.15 5.44,-0.77 1.79,-0.62 3.16,-1.72 4.11,-3.32 1.04,-1.63 1.3,-3.49 0.8,-5.57 -0.28,-0.96 -0.69,-1.76 -1.22,-2.42 -0.53,-0.66 -1.1,-1.21 -1.7,-1.67 -1.06,-0.78 -2.35,-1.27 -3.88,-1.46 -1.52,-0.2 -2.97,-0.19 -4.35,0.03 -1.17,0.13 -2.17,0.4 -3.03,0.79l0 -4.04z"/>
  <polygon id="1" class="fil1" points="45.09,58.34 59.8,25.05 41.8,25.05 41.8,19.61 68.73,19.61 51.62,58.34 "/>
 </g>
</svg>
