<?xml version="1.0" encoding="UTF-8"?>
<!DOCTYPE svg PUBLIC "-//W3C//DTD SVG 1.1//EN" "http://www.w3.org/Graphics/SVG/1.1/DTD/svg11.dtd">
<!-- Creator: CorelDRAW 2019 (64-Bit) -->
<svg xmlns="http://www.w3.org/2000/svg" xml:space="preserve" width="591px" height="591px" version="1.1" style="shape-rendering:geometricPrecision; text-rendering:geometricPrecision; image-rendering:optimizeQuality; fill-rule:evenodd; clip-rule:evenodd"
viewBox="0 0 111.22 111.22"
 xmlns:xlink="http://www.w3.org/1999/xlink">
 <defs>
  <style type="text/css">
   <![CDATA[
    .fil0 {fill:#0E4F95}
    .fil1 {fill:#FEFEFE;fill-rule:nonzero}
   ]]>
  </style>
 </defs>
 <g id="Layer_x0020_1">
  <metadata id="CorelCorpID_0Corel-Layer"/>
  <g id="_2492616559328">
   <circle class="fil0" cx="55.61" cy="55.61" r="55.61"/>
  </g>
  <path class="fil1" d="M25.7 50.32l12.53 -15.01 -20.12 0 0 -7 35.22 0 -16.52 19.61c6.51,0.55 11.45,3.1 14.79,7.67 2.26,3.2 3.17,7.03 2.75,11.49 -0.43,4.46 -1.99,8.02 -4.7,10.67 -1.1,1.01 -1.92,1.7 -2.47,2.11 -3.91,2.76 -8.61,4.13 -14.12,4.13 -3.5,0 -6.59,-0.35 -9.25,-1.05 -1.1,-0.31 -2.21,-0.67 -3.33,-1.1 -1.13,-0.43 -2.14,-0.94 -3.05,-1.54 -0.45,-0.1 -0.67,-0.28 -0.67,-0.53 0,-0.6 0,-2.02 0,-4.25 0,-2.23 0,-3.55 0,-3.95 2.25,1.5 4.46,2.64 6.64,3.42 2.18,0.77 4.75,1.23 7.71,1.39 2.6,0.15 5.16,-0.22 7.69,-1.09 2.54,-0.87 4.47,-2.44 5.82,-4.69 1.46,-2.31 1.83,-4.94 1.13,-7.89 -0.4,-1.34 -0.98,-2.48 -1.74,-3.42 -0.74,-0.92 -1.55,-1.7 -2.39,-2.36 -1.5,-1.1 -3.34,-1.79 -5.49,-2.06 -2.15,-0.28 -4.2,-0.27 -6.15,0.04 -1.65,0.19 -3.08,0.57 -4.28,1.12l0 -5.71z"/>
  <path id="1" class="fil1" d="M59.33 67.46c0,-3.62 0.9,-6.53 2.71,-8.73 1.8,-2.21 3.86,-3.91 6.16,-5.11 -1.8,-1.06 -3.34,-2.47 -4.6,-4.25 -1.26,-1.78 -1.88,-4.03 -1.88,-6.73 0,-4.2 1.38,-7.83 4.14,-10.86 2.75,-3.04 6.91,-4.55 12.47,-4.55 5.56,0 9.72,1.53 12.47,4.59 2.76,3.05 4.14,6.67 4.14,10.82 0,3.31 -0.87,5.84 -2.6,7.6 -1.73,1.76 -3.15,2.95 -4.26,3.6 6.22,2.66 9.32,7.19 9.32,13.62 0,3.7 -1.54,7.38 -4.61,11.04 -3.08,3.66 -7.9,5.49 -14.46,5.49 -6.56,0 -11.36,-1.83 -14.42,-5.49 -3.05,-3.66 -4.58,-7.34 -4.58,-11.04zm8.39 0.01c0,2.91 1.03,5.36 3.12,7.37 2.08,2 4.58,3 7.49,3 2.91,0 5.42,-0.98 7.52,-2.94 2.12,-1.95 3.17,-4.42 3.17,-7.43 0,-2.9 -1.06,-5.06 -3.21,-6.49 -2.12,-1.43 -4.67,-2.57 -7.64,-3.42 -0.65,-0.21 -1.73,-0.5 -3.23,-0.9 -2.16,0.95 -3.9,2.35 -5.22,4.21 -1.34,1.84 -2,4.05 -2,6.6zm10.53 -16.43c0.1,0.05 0.54,0.16 1.32,0.34 0.77,0.17 1.18,0.26 1.23,0.26 1.11,-0.66 2.45,-1.67 4.05,-3.04 1.61,-1.37 2.4,-3.37 2.4,-5.97 0,-2.45 -0.87,-4.57 -2.63,-6.35 -1.74,-1.78 -3.84,-2.66 -6.29,-2.66 -2.45,0 -4.54,0.87 -6.26,2.62 -1.73,1.76 -2.59,3.89 -2.59,6.39 0,2.55 0.81,4.43 2.44,5.64 1.63,1.19 3.74,2.12 6.33,2.77z"/>
 </g>
</svg>
