<?xml version="1.0" encoding="UTF-8"?>
<!DOCTYPE svg PUBLIC "-//W3C//DTD SVG 1.1//EN" "http://www.w3.org/Graphics/SVG/1.1/DTD/svg11.dtd">
<!-- Creator: CorelDRAW 2019 (64-Bit) -->
<svg xmlns="http://www.w3.org/2000/svg" xml:space="preserve" width="591px" height="591px" version="1.1" style="shape-rendering:geometricPrecision; text-rendering:geometricPrecision; image-rendering:optimizeQuality; fill-rule:evenodd; clip-rule:evenodd"
viewBox="0 0 189.82 189.83"
 xmlns:xlink="http://www.w3.org/1999/xlink">
 <defs>
  <style type="text/css">
   <![CDATA[
    .fil0 {fill:#0E4F95}
    .fil1 {fill:#FEFEFE;fill-rule:nonzero}
   ]]>
  </style>
 </defs>
 <g id="Layer_x0020_1">
  <metadata id="CorelCorpID_0Corel-Layer"/>
  <g id="_2527415542992">
   <circle class="fil0" cx="94.91" cy="94.91" r="94.91"/>
  </g>
  <path class="fil1" d="M45.56 85.7l21.4 -25.61 -34.35 0 0 -11.95 60.12 0 -28.2 33.47c11.11,0.94 19.53,5.3 25.24,13.08 3.85,5.47 5.41,12.01 4.69,19.63 -0.73,7.61 -3.39,13.67 -8.01,18.2 -1.88,1.73 -3.28,2.91 -4.22,3.61 -6.67,4.7 -14.7,7.04 -24.11,7.04 -5.97,0 -11.24,-0.59 -15.77,-1.79 -1.88,-0.53 -3.79,-1.14 -5.69,-1.88 -1.92,-0.73 -3.65,-1.6 -5.21,-2.63 -0.76,-0.17 -1.13,-0.48 -1.13,-0.9 0,-1.02 0,-3.45 0,-7.26 0,-3.81 0,-6.06 0,-6.74 3.82,2.56 7.61,4.51 11.33,5.84 3.72,1.32 8.09,2.1 13.15,2.37 4.44,0.26 8.81,-0.38 13.12,-1.86 4.33,-1.49 7.64,-4.16 9.93,-8.01 2.5,-3.94 3.13,-8.42 1.93,-13.45 -0.68,-2.3 -1.67,-4.25 -2.96,-5.84 -1.26,-1.58 -2.64,-2.91 -4.09,-4.03 -2.56,-1.88 -5.68,-3.06 -9.36,-3.52 -3.67,-0.48 -7.17,-0.46 -10.5,0.06 -2.82,0.33 -5.25,0.99 -7.31,1.93l0 -9.76z"/>
  <path id="1" class="fil1" d="M105.85 137.46l0.11 -13.45c1.03,0.68 1.56,1.03 1.56,1.03 3.67,2.47 8.33,4.06 13.95,4.74 4.46,0.51 8.75,0.09 12.89,-1.29 4.15,-1.35 7.63,-3.72 10.45,-7.04 5.21,-6.41 7.99,-14.24 8.34,-23.47 -0.26,0.17 -0.53,0.43 -0.77,0.76 -0.26,0.35 -0.48,0.61 -0.65,0.79 -1.8,1.79 -3.29,3.1 -4.49,3.96 -2.38,1.55 -4.99,2.73 -7.81,3.59 -6.17,1.72 -12.31,1.88 -18.46,0.52 -6.15,-1.38 -11.2,-4.44 -15.12,-9.23 -3.85,-4.44 -6.06,-9.76 -6.65,-15.9 -0.68,-7.62 0.4,-13.96 3.26,-19.04 2.85,-5.09 6.37,-9.05 10.52,-11.87 4.88,-3.24 10.66,-4.99 17.31,-5.25 3.08,0 6.32,0.28 9.69,0.83 3.37,0.57 6.39,1.55 9.03,3.02 1.8,1.11 2.96,1.83 3.46,2.18 0.26,0.24 0.52,0.46 0.77,0.64 0.26,0.17 0.56,0.37 0.89,0.63 2.32,1.88 4.53,4.31 6.67,7.31 2.91,4.61 5.01,10.04 6.28,16.3 1.21,6.14 1.47,12.92 0.77,20.32 -0.68,7.39 -2.12,13.69 -4.35,18.9 -1.03,2.32 -1.97,4.24 -2.83,5.77 -0.85,1.54 -1.92,3.31 -3.19,5.25 -1.2,1.71 -2.49,3.31 -3.85,4.75 -1.62,1.62 -3.13,2.95 -4.49,3.98 -5.14,3.68 -10.85,5.86 -17.17,6.61 -6.32,0.72 -12.53,0.13 -18.59,-1.75 -1.45,-0.33 -2.78,-0.9 -3.96,-1.66l-3.57 -1.93zm12.63 -46.53c4.2,4.44 9.58,6.28 16.16,5.51 4.18,-0.43 8.16,-2.05 11.92,-4.85 2.48,-1.88 4.31,-4.07 5.49,-6.54 0.86,-1.62 1.27,-2.83 1.23,-3.59 -0.04,-0.77 -0.2,-2.19 -0.44,-4.22 -0.94,-5.21 -3.24,-9.54 -6.87,-13.02 -3.63,-3.45 -8.27,-5.1 -13.91,-4.92 -5.8,0.35 -10.28,2.25 -13.45,5.75 -0.27,0.27 -0.46,0.48 -0.64,0.66 -0.17,0.17 -0.35,0.37 -0.52,0.63 -0.59,0.86 -0.94,1.34 -1.01,1.4 -0.61,0.94 -1.16,1.97 -1.68,3.09 -2.21,5.64 -1.99,10.98 0.65,16.01 0.77,1.62 1.8,2.98 3.07,4.09z"/>
 </g>
</svg>
