<?xml version="1.0" encoding="UTF-8"?>
<!DOCTYPE svg PUBLIC "-//W3C//DTD SVG 1.1//EN" "http://www.w3.org/Graphics/SVG/1.1/DTD/svg11.dtd">
<!-- Creator: CorelDRAW 2021.5 -->
<svg xmlns="http://www.w3.org/2000/svg" xml:space="preserve" width="590px" height="590px" version="1.1" style="shape-rendering:geometricPrecision; text-rendering:geometricPrecision; image-rendering:optimizeQuality; fill-rule:evenodd; clip-rule:evenodd"
viewBox="0 0 91.85 91.85"
 xmlns:xlink="http://www.w3.org/1999/xlink"
 xmlns:xodm="http://www.corel.com/coreldraw/odm/2003">
 <defs>
  <style type="text/css">
   <![CDATA[
    .fil0 {fill:#0E4F95}
    .fil1 {fill:white;fill-rule:nonzero}
   ]]>
  </style>
 </defs>
 <g id="Layer_x0020_1">
  <metadata id="CorelCorpID_0Corel-Layer"/>
  <circle class="fil0" cx="45.92" cy="45.92" r="45.92"/>
  <path class="fil1" d="M30.19 30.23l-15.38 0 0 -7.38 31.3 0 -13.54 16.12c2.15,0.33 4.04,0.92 5.66,1.77 2.09,1.07 3.87,2.62 5.32,4.64 1.94,2.77 2.75,6.05 2.4,9.84 -0.31,3.81 -1.67,6.87 -4.08,9.22 -1.87,1.83 -4.04,3.2 -6.48,4.11 -2.26,0.82 -4.8,1.23 -7.59,1.23 -1.06,0 -2.27,-0.07 -3.63,-0.21 -1.36,-0.15 -2.74,-0.4 -4.13,-0.74 -2.51,-0.67 -4.51,-1.55 -6.01,-2.65l-0.35 -0.25 0.03 -8.68 1.33 0.86c1.88,1.22 3.62,2.11 5.22,2.69 1.81,0.61 3.81,0.96 5.98,1.04 2.37,0.1 4.47,-0.22 6.33,-0.98 1.73,-0.75 3.02,-1.85 3.89,-3.26 0.46,-0.74 0.79,-1.65 0.95,-2.75 0.13,-1.07 0.07,-2.08 -0.15,-3.01 -0.11,-0.42 -0.23,-0.75 -0.36,-1.01 -0.88,-2.13 -2.67,-3.6 -5.35,-4.4 -2.41,-0.71 -4.99,-0.72 -7.69,-0.03 -0.71,0.19 -1.29,0.39 -1.73,0.6l-1.17 0.51 -0.03 -6.24 9.26 -11.04z"/>
  <path class="fil1" d="M73.4 53.24c0.4,-1.22 0.7,-2.5 0.92,-3.81 -1.61,1.46 -3.43,2.47 -5.45,3.02 -3.31,0.9 -6.47,0.95 -9.46,0.15 -3.03,-0.76 -5.52,-2.27 -7.44,-4.53 -1.91,-2.25 -3.03,-4.93 -3.35,-8.03 -0.3,-3.28 0.13,-6.22 1.3,-8.86 1.26,-2.85 3.2,-5.06 5.81,-6.66 2.6,-1.59 5.45,-2.44 8.55,-2.55 2.6,-0.07 5.08,0.31 7.43,1.12 2.37,0.81 4.45,2.2 6.25,4.17 2.31,2.61 3.88,5.96 4.67,10.06 0.58,3.12 0.71,6.43 0.38,9.93 -0.35,3.65 -1.07,6.75 -2.15,9.3 -0.8,1.84 -1.77,3.62 -2.92,5.34 -1.15,1.71 -2.54,3.18 -4.16,4.38 -2.45,1.77 -5.23,2.87 -8.35,3.33 -3.13,0.43 -6.29,0.15 -9.46,-0.87 -0.75,-0.2 -1.45,-0.49 -2.13,-0.88 -0.67,-0.38 -1.34,-0.76 -1.99,-1.13l0.03 -8.04c1.58,0.82 2.9,1.51 3.94,2.07 1.04,0.55 2.49,0.93 4.35,1.13 2.17,0.22 4.18,0.02 6.01,-0.64 1.84,-0.66 3.33,-1.7 4.5,-3.13 1.15,-1.44 2.06,-3.06 2.72,-4.87zm-7.09 -7.32c1.89,-0.18 3.68,-0.91 5.35,-2.18 1.05,-0.8 1.86,-1.76 2.43,-2.88 0.32,-0.61 0.49,-1.07 0.51,-1.37 0.02,-0.31 -0.02,-0.79 -0.13,-1.44 -0.51,-2.81 -1.59,-4.95 -3.25,-6.43 -1.63,-1.41 -3.63,-2.08 -6.02,-1.99 -2.49,0.08 -4.5,0.94 -6.05,2.57 -1.53,1.62 -2.26,3.65 -2.18,6.1 0.09,2.13 0.81,3.87 2.18,5.22 1.93,1.92 4.31,2.72 7.16,2.4z"/>
 </g>
</svg>
