<?xml version="1.0" encoding="UTF-8"?>
<!DOCTYPE svg PUBLIC "-//W3C//DTD SVG 1.1//EN" "http://www.w3.org/Graphics/SVG/1.1/DTD/svg11.dtd">
<!-- Creator: CorelDRAW -->
<svg xmlns="http://www.w3.org/2000/svg" xml:space="preserve" width="236px" height="236px" version="1.1" style="shape-rendering:geometricPrecision; text-rendering:geometricPrecision; image-rendering:optimizeQuality; fill-rule:evenodd; clip-rule:evenodd"
viewBox="0 0 27.37 27.37"
 xmlns:xlink="http://www.w3.org/1999/xlink"
 xmlns:xodm="http://www.corel.com/coreldraw/odm/2003">
 <defs>
  <style type="text/css">
   <![CDATA[
    .fil0 {fill:#0E4F95}
    .fil1 {fill:#FEFEFE;fill-rule:nonzero}
   ]]>
  </style>
 </defs>
 <g id="Layer_x0020_1">
  <metadata id="CorelCorpID_0Corel-Layer"/>
  <circle class="fil0" cx="13.68" cy="13.68" r="13.68"/>
  <path class="fil1" d="M19.95 19.23l0.54 -1.59 2.56 0 0.53 1.59 1.31 0 -2.47 -7.33 -1.28 0 -2.47 7.33 1.28 0zm1.83 -5.41l0.84 2.52 -1.69 0 0.85 -2.52z"/>
  <path class="fil1" d="M6.72 10.39l-3.52 0 0 -1.69 7.15 0 -3.09 3.69c0.49,0.07 0.92,0.21 1.29,0.4 0.48,0.25 0.89,0.6 1.22,1.06 0.44,0.63 0.63,1.38 0.55,2.25 -0.07,0.87 -0.38,1.57 -0.94,2.11 -0.42,0.42 -0.92,0.73 -1.48,0.94 -0.51,0.18 -1.09,0.28 -1.73,0.28 -0.24,0 -0.52,-0.02 -0.83,-0.05 -0.31,-0.04 -0.63,-0.09 -0.94,-0.17 -0.58,-0.15 -1.04,-0.35 -1.38,-0.61l-0.08 -0.05 0.01 -1.98 0.3 0.19c0.43,0.28 0.83,0.48 1.2,0.61 0.41,0.15 0.87,0.22 1.36,0.24 0.54,0.03 1.02,-0.05 1.45,-0.22 0.39,-0.17 0.69,-0.42 0.89,-0.75 0.1,-0.16 0.18,-0.37 0.22,-0.63 0.02,-0.24 0.01,-0.47 -0.04,-0.68 -0.02,-0.1 -0.05,-0.17 -0.08,-0.23 -0.2,-0.49 -0.61,-0.83 -1.22,-1.01 -0.56,-0.16 -1.14,-0.16 -1.76,-0.01 -0.16,0.05 -0.3,0.09 -0.4,0.14l-0.26 0.12 -0.01 -1.43 2.12 -2.52z"/>
  <path class="fil1" d="M16.86 14.73c-0.35,0.33 -0.76,0.56 -1.24,0.69 -0.74,0.2 -1.46,0.21 -2.17,0.04 -0.68,-0.18 -1.25,-0.53 -1.69,-1.04 -0.44,-0.52 -0.7,-1.13 -0.77,-1.83 -0.07,-0.76 0.03,-1.43 0.3,-2.03 0.27,-0.62 0.7,-1.12 1.29,-1.51 0.57,-0.37 1.22,-0.57 1.98,-0.59 0.35,-0.01 0.72,0.02 1.1,0.08 0.39,0.07 0.73,0.19 1.03,0.35 0.59,0.32 1.03,0.74 1.35,1.24 0.34,0.51 0.58,1.12 0.72,1.83 0.13,0.7 0.16,1.46 0.08,2.27 -0.06,0.8 -0.23,1.51 -0.49,2.12 -0.17,0.42 -0.39,0.83 -0.65,1.22 -0.26,0.39 -0.59,0.73 -0.96,1 -0.56,0.42 -1.19,0.68 -1.91,0.78 -0.71,0.09 -1.44,0.02 -2.17,-0.21 -0.16,-0.05 -0.31,-0.12 -0.47,-0.21 -0.15,-0.08 -0.31,-0.17 -0.46,-0.25l0.01 -1.84c0.36,0.19 0.66,0.34 0.9,0.47 0.24,0.12 0.57,0.21 0.99,0.26 0.48,0.06 0.94,0.01 1.37,-0.15 0.56,-0.2 0.99,-0.56 1.3,-1.07 0.3,-0.52 0.48,-1.06 0.56,-1.62zm-2.72 -0.9c0.52,0.17 1.03,0.15 1.54,-0.07 0.52,-0.21 0.9,-0.54 1.13,-0.99 0.07,-0.14 0.11,-0.25 0.12,-0.32 0,-0.07 -0.01,-0.17 -0.04,-0.32 -0.05,-0.29 -0.12,-0.56 -0.23,-0.81 -0.11,-0.24 -0.28,-0.46 -0.51,-0.66 -0.37,-0.33 -0.83,-0.48 -1.37,-0.45 -0.56,0.01 -1.01,0.2 -1.37,0.56 -0.36,0.37 -0.53,0.84 -0.51,1.42 0.03,0.83 0.45,1.37 1.24,1.64z"/>
 </g>
</svg>
