<?xml version="1.0" encoding="UTF-8"?>
<!DOCTYPE svg PUBLIC "-//W3C//DTD SVG 1.1//EN" "http://www.w3.org/Graphics/SVG/1.1/DTD/svg11.dtd">
<!-- Creator: CorelDRAW 2019 (64-Bit) -->
<svg xmlns="http://www.w3.org/2000/svg" xml:space="preserve" width="591px" height="591px" version="1.1" style="shape-rendering:geometricPrecision; text-rendering:geometricPrecision; image-rendering:optimizeQuality; fill-rule:evenodd; clip-rule:evenodd"
viewBox="0 0 111.23 111.23"
 xmlns:xlink="http://www.w3.org/1999/xlink">
 <defs>
  <style type="text/css">
   <![CDATA[
    .fil0 {fill:#0E4F95}
    .fil1 {fill:#FEFEFE;fill-rule:nonzero}
   ]]>
  </style>
 </defs>
 <g id="Layer_x0020_1">
  <metadata id="CorelCorpID_0Corel-Layer"/>
  <g id="_2527051101088">
   <circle class="fil0" cx="55.61" cy="55.61" r="55.61"/>
   <path class="fil1" d="M30.83 49.59l12.79 -15.31 -20.54 0 0 -7.14 35.95 0 -16.86 20.01c6.64,0.56 11.68,3.16 15.09,7.82 2.3,3.27 3.23,7.18 2.8,11.73 -0.43,4.55 -2.03,8.18 -4.79,10.88 -1.12,1.04 -1.96,1.74 -2.52,2.16 -3.99,2.81 -8.79,4.21 -14.42,4.21 -3.57,0 -6.72,-0.35 -9.43,-1.07 -1.12,-0.31 -2.26,-0.68 -3.4,-1.12 -1.15,-0.43 -2.18,-0.96 -3.11,-1.57 -0.46,-0.11 -0.68,-0.29 -0.68,-0.54 0,-0.61 0,-2.07 0,-4.34 0,-2.28 0,-3.62 0,-4.03 2.29,1.53 4.55,2.69 6.78,3.49 2.22,0.79 4.84,1.26 7.86,1.41 2.65,0.16 5.27,-0.22 7.84,-1.11 2.59,-0.89 4.57,-2.48 5.94,-4.78 1.49,-2.36 1.87,-5.04 1.15,-8.05 -0.4,-1.37 -0.99,-2.54 -1.76,-3.49 -0.76,-0.94 -1.58,-1.74 -2.45,-2.41 -1.53,-1.12 -3.4,-1.83 -5.6,-2.1 -2.19,-0.29 -4.29,-0.28 -6.27,0.04 -1.69,0.19 -3.14,0.59 -4.37,1.15l0 -5.84z"/>
   <path class="fil1" d="M62.53 82.93l13.24 -38.85 5.54 0 13.24 38.85 -5.55 0 -3.47 -10.16 -13.98 0 -3.47 10.16 -5.55 0zm21.24 -15.41l-5.23 -15.26 -5.22 15.26 10.45 0z"/>
  </g>
 </g>
</svg>
