<?xml version="1.0" encoding="UTF-8"?>
<!DOCTYPE svg PUBLIC "-//W3C//DTD SVG 1.1//EN" "http://www.w3.org/Graphics/SVG/1.1/DTD/svg11.dtd">
<!-- Creator: CorelDRAW 2021.5 -->
<svg xmlns="http://www.w3.org/2000/svg" xml:space="preserve" width="590px" height="590px" version="1.1" style="shape-rendering:geometricPrecision; text-rendering:geometricPrecision; image-rendering:optimizeQuality; fill-rule:evenodd; clip-rule:evenodd"
viewBox="0 0 87.07 87.07"
 xmlns:xlink="http://www.w3.org/1999/xlink"
 xmlns:xodm="http://www.corel.com/coreldraw/odm/2003">
 <defs>
  <style type="text/css">
   <![CDATA[
    .fil0 {fill:#0E4F95}
    .fil1 {fill:white;fill-rule:nonzero}
   ]]>
  </style>
 </defs>
 <g id="Layer_x0020_1">
  <metadata id="CorelCorpID_0Corel-Layer"/>
  <circle class="fil0" cx="43.53" cy="43.53" r="43.53"/>
  <path class="fil1" d="M32.65 28.32l-14.58 0 0 -6.99 29.67 0 -12.84 15.27c2.04,0.32 3.83,0.87 5.36,1.68 1.99,1.02 3.67,2.49 5.05,4.4 1.84,2.63 2.6,5.74 2.28,9.33 -0.3,3.61 -1.59,6.51 -3.87,8.74 -1.78,1.74 -3.83,3.04 -6.15,3.9 -2.14,0.77 -4.54,1.16 -7.2,1.16 -1,0 -2.15,-0.07 -3.44,-0.2 -1.29,-0.14 -2.59,-0.38 -3.91,-0.7 -2.38,-0.63 -4.28,-1.47 -5.7,-2.52l-0.33 -0.23 0.03 -8.22 1.26 0.81c1.78,1.15 3.43,2 4.95,2.55 1.72,0.58 3.61,0.91 5.67,0.99 2.24,0.09 4.24,-0.22 6,-0.93 1.64,-0.72 2.87,-1.75 3.69,-3.1 0.44,-0.69 0.74,-1.56 0.9,-2.61 0.12,-1.01 0.07,-1.96 -0.15,-2.84 -0.1,-0.4 -0.21,-0.72 -0.33,-0.97 -0.84,-2.01 -2.53,-3.4 -5.07,-4.16 -2.3,-0.68 -4.73,-0.69 -7.29,-0.03 -0.68,0.18 -1.23,0.37 -1.65,0.57l-1.11 0.48 -0.03 -5.92 8.79 -10.46z"/>
  <path class="fil1" d="M54.46 64.91l2.23 -6.6 10.64 0.01 2.2 6.59 5.42 0 -10.24 -30.41 -5.33 0 -10.25 30.41 5.33 0zm7.57 -22.46l3.49 10.44 -7.01 0 3.52 -10.44z"/>
 </g>
</svg>
