<?xml version="1.0" encoding="UTF-8"?>
<!DOCTYPE svg PUBLIC "-//W3C//DTD SVG 1.1//EN" "http://www.w3.org/Graphics/SVG/1.1/DTD/svg11.dtd">
<!-- Creator: CorelDRAW 2019 (64-Bit) -->
<svg xmlns="http://www.w3.org/2000/svg" xml:space="preserve" width="591px" height="591px" version="1.1" style="shape-rendering:geometricPrecision; text-rendering:geometricPrecision; image-rendering:optimizeQuality; fill-rule:evenodd; clip-rule:evenodd"
viewBox="0 0 647.05 647.05"
 xmlns:xlink="http://www.w3.org/1999/xlink">
 <defs>
  <style type="text/css">
   <![CDATA[
    .fil0 {fill:#0E4F95}
    .fil1 {fill:#FEFEFE;fill-rule:nonzero}
   ]]>
  </style>
 </defs>
 <g id="Layer_x0020_1">
  <metadata id="CorelCorpID_0Corel-Layer"/>
  <g id="_2491830294832">
   <circle class="fil0" cx="323.52" cy="323.52" r="323.52"/>
  </g>
  <path class="fil1" d="M79.45 399.59l0 -42.96 147.65 -191.94 49.22 0 0 191.94 32.36 0 0 42.96 -32.36 0 0 83.22 -49.22 0 0 -83.22 -147.65 0zm48.92 -42.96l98.73 0 0 -124.68 -98.73 124.68z"/>
  <path id="1" class="fil1" d="M449.25 488.62c-39.6,0 -69.2,-16.03 -88.89,-48.1 -19.61,-32.06 -29.46,-70.99 -29.46,-116.77 0,-45.49 9.85,-84.42 29.46,-116.78 19.69,-32.37 49.29,-48.55 88.89,-48.55 39.3,0 68.83,16.18 88.66,48.55 19.76,32.36 29.68,71.29 29.68,116.78 0,45.78 -9.92,84.71 -29.68,116.77 -19.83,32.07 -49.36,48.1 -88.66,48.1zm0 -44.29c23.64,0 41.09,-11.71 52.27,-35.2 11.26,-23.42 16.85,-51.9 16.85,-85.38 0,-33.19 -5.59,-61.6 -16.85,-85.16 -11.18,-23.64 -28.63,-35.42 -52.27,-35.42 -23.94,0 -41.54,11.78 -52.72,35.42 -11.26,23.56 -16.86,51.97 -16.86,85.16 0,33.48 5.6,61.96 16.86,85.38 11.18,23.49 28.78,35.2 52.72,35.2z"/>
 </g>
</svg>
