<?xml version="1.0" encoding="UTF-8"?>
<!DOCTYPE svg PUBLIC "-//W3C//DTD SVG 1.1//EN" "http://www.w3.org/Graphics/SVG/1.1/DTD/svg11.dtd">
<!-- Creator: CorelDRAW 2021.5 -->
<svg xmlns="http://www.w3.org/2000/svg" xml:space="preserve" width="590px" height="590px" version="1.1" style="shape-rendering:geometricPrecision; text-rendering:geometricPrecision; image-rendering:optimizeQuality; fill-rule:evenodd; clip-rule:evenodd"
viewBox="0 0 65.73 65.73"
 xmlns:xlink="http://www.w3.org/1999/xlink"
 xmlns:xodm="http://www.corel.com/coreldraw/odm/2003">
 <defs>
  <style type="text/css">
   <![CDATA[
    .fil0 {fill:#0E4F95}
    .fil1 {fill:white;fill-rule:nonzero}
   ]]>
  </style>
 </defs>
 <g id="Layer_x0020_1">
  <metadata id="CorelCorpID_0Corel-Layer"/>
  <circle class="fil0" cx="32.86" cy="32.86" r="32.86"/>
  <path class="fil1" d="M22.09 49.35l0 -8.36 -14.83 0 0 -5.01 15.1 -19.61 5.71 0 0 19.26 3.26 0 0 5.36 -3.26 0 0 8.36 -5.98 0zm0 -13.72l0 -10.47 -8.28 10.47 8.28 0z"/>
  <path class="fil1" d="M35.71 24.8c-0.56,-2.08 -1.05,-3.89 -1.45,-5.41 1.63,-1.09 3.35,-1.97 5.17,-2.64 1.8,-0.67 3.71,-1.01 5.72,-1.01 3.01,0 5.59,1.01 7.77,3.04 2.11,1.99 3.17,4.4 3.17,7.24 0,3.08 -1.09,5.96 -3.26,8.63 -1.05,1.29 -2.37,2.65 -3.99,4.12 -1.62,1.46 -3.56,3.14 -5.84,5.03l13.82 0 0 5.55c-3.9,0 -7.79,0 -11.67,0 -3.88,0 -7.76,0 -11.64,0l0 -5.26c2.07,-1.73 4.21,-3.52 6.43,-5.38 2.21,-1.85 4.24,-3.75 6.09,-5.71 2.59,-2.71 3.88,-5.03 3.88,-6.98 0,-1.27 -0.48,-2.37 -1.43,-3.32 -0.95,-0.96 -2.06,-1.43 -3.33,-1.43 -1.82,0 -3.49,0.35 -5.01,1.05 -1.5,0.7 -2.98,1.53 -4.43,2.48z"/>
 </g>
</svg>
