<?xml version="1.0" encoding="UTF-8"?>
<!DOCTYPE svg PUBLIC "-//W3C//DTD SVG 1.1//EN" "http://www.w3.org/Graphics/SVG/1.1/DTD/svg11.dtd">
<!-- Creator: CorelDRAW 2019 (64-Bit) -->
<svg xmlns="http://www.w3.org/2000/svg" xml:space="preserve" width="591px" height="591px" version="1.1" style="shape-rendering:geometricPrecision; text-rendering:geometricPrecision; image-rendering:optimizeQuality; fill-rule:evenodd; clip-rule:evenodd"
viewBox="0 0 459.29 459.29"
 xmlns:xlink="http://www.w3.org/1999/xlink">
 <defs>
  <style type="text/css">
   <![CDATA[
    .fil0 {fill:#0E4F95}
    .fil1 {fill:#FEFEFE;fill-rule:nonzero}
   ]]>
  </style>
 </defs>
 <g id="Layer_x0020_1">
  <metadata id="CorelCorpID_0Corel-Layer"/>
  <g id="_2527397104144">
   <circle class="fil0" cx="229.65" cy="229.65" r="229.65"/>
  </g>
  <path class="fil1" d="M58.67 285.7l0 -30.49 104.81 -136.25 34.94 0 0 136.25 22.97 0 0 30.49 -22.97 0 0 59.08 -34.94 0 0 -59.08 -104.81 0zm34.73 -30.49l70.08 0 0 -88.5 -70.08 88.5z"/>
  <path id="1" class="fil1" d="M243.46 344.78l0 -31.66c39.07,-32.87 68.18,-58.65 87.29,-77.39 19.11,-18.68 28.69,-35.99 28.69,-51.92 0,-9.95 -3.76,-18.69 -11.33,-26.21 -7.52,-7.56 -16.3,-11.32 -26.2,-11.32 -16.15,0 -30.38,3.38 -42.82,10.21 -12.39,6.83 -19.54,10.96 -21.39,12.44 -1.43,-5.18 -2.91,-10.27 -4.34,-15.19 -1.43,-4.97 -2.8,-10.16 -4.02,-15.56 1.43,-0.85 9.05,-4.98 22.81,-12.44 13.71,-7.46 30.33,-11.22 49.76,-11.22 19,0 36.05,6.4 51.13,19.21 15.09,12.81 22.6,29.49 22.6,49.97 0,21.92 -7.41,41.39 -22.28,58.44 -14.87,17.04 -40.49,40.7 -76.86,70.88l104.12 0 0 31.76 -157.16 0z"/>
 </g>
</svg>
