<?xml version="1.0" encoding="UTF-8"?>
<!DOCTYPE svg PUBLIC "-//W3C//DTD SVG 1.1//EN" "http://www.w3.org/Graphics/SVG/1.1/DTD/svg11.dtd">
<!-- Creator: CorelDRAW 2019 (64-Bit) -->
<svg xmlns="http://www.w3.org/2000/svg" xml:space="preserve" width="591px" height="591px" version="1.1" style="shape-rendering:geometricPrecision; text-rendering:geometricPrecision; image-rendering:optimizeQuality; fill-rule:evenodd; clip-rule:evenodd"
viewBox="0 0 169.49 169.49"
 xmlns:xlink="http://www.w3.org/1999/xlink">
 <defs>
  <style type="text/css">
   <![CDATA[
    .fil0 {fill:#0E4F95}
    .fil1 {fill:#FEFEFE;fill-rule:nonzero}
   ]]>
  </style>
 </defs>
 <g id="Layer_x0020_1">
  <metadata id="CorelCorpID_0Corel-Layer"/>
  <g id="_2527467355712">
   <circle class="fil0" cx="84.75" cy="84.75" r="84.75"/>
  </g>
  <path class="fil1" d="M22.3 103.85l0 -11.25 38.67 -50.28 12.9 0 0 50.28 8.47 0 0 11.25 -8.47 0 0 21.8 -12.9 0 0 -21.8 -38.67 0zm12.81 -11.25l25.86 0 0 -32.66 -25.86 32.66z"/>
  <path id="1" class="fil1" d="M102.89 75.86l19.11 -22.88 -30.67 0 0 -10.66 53.68 0 -25.18 29.89c9.92,0.84 17.44,4.72 22.54,11.68 3.44,4.88 4.82,10.72 4.18,17.52 -0.64,6.8 -3.03,12.21 -7.15,16.25 -1.68,1.54 -2.93,2.6 -3.77,3.22 -5.96,4.2 -13.13,6.29 -21.53,6.29 -5.33,0 -10.04,-0.52 -14.08,-1.6 -1.68,-0.47 -3.38,-1.01 -5.08,-1.68 -1.72,-0.64 -3.26,-1.42 -4.65,-2.34 -0.68,-0.16 -1.01,-0.43 -1.01,-0.8 0,-0.92 0,-3.09 0,-6.49 0,-3.4 0,-5.41 0,-6.02 3.42,2.29 6.8,4.03 10.12,5.22 3.32,1.17 7.22,1.88 11.74,2.11 3.96,0.23 7.87,-0.33 11.72,-1.66 3.86,-1.33 6.81,-3.71 8.86,-7.15 2.23,-3.52 2.8,-7.52 1.72,-12.01 -0.6,-2.05 -1.48,-3.79 -2.63,-5.22 -1.14,-1.41 -2.37,-2.6 -3.66,-3.59 -2.28,-1.68 -5.08,-2.74 -8.36,-3.15 -3.28,-0.43 -6.4,-0.41 -9.37,0.06 -2.52,0.29 -4.69,0.88 -6.53,1.72l0 -8.71z"/>
 </g>
</svg>
