<?xml version="1.0" encoding="UTF-8"?>
<!DOCTYPE svg PUBLIC "-//W3C//DTD SVG 1.1//EN" "http://www.w3.org/Graphics/SVG/1.1/DTD/svg11.dtd">
<!-- Creator: CorelDRAW 2019 (64-Bit) -->
<svg xmlns="http://www.w3.org/2000/svg" xml:space="preserve" width="591px" height="591px" version="1.1" style="shape-rendering:geometricPrecision; text-rendering:geometricPrecision; image-rendering:optimizeQuality; fill-rule:evenodd; clip-rule:evenodd"
viewBox="0 0 103.93 103.93"
 xmlns:xlink="http://www.w3.org/1999/xlink">
 <defs>
  <style type="text/css">
   <![CDATA[
    .fil0 {fill:#0E4F95}
    .fil1 {fill:#FEFEFE;fill-rule:nonzero}
   ]]>
  </style>
 </defs>
 <g id="Layer_x0020_1">
  <metadata id="CorelCorpID_0Corel-Layer"/>
  <g id="_2527412322400">
   <circle class="fil0" cx="51.96" cy="51.96" r="51.96"/>
  </g>
  <path class="fil1" d="M12.68 64.14l0 -6.89 23.71 -30.83 7.91 0 0 30.83 5.2 0 0 6.89 -5.2 0 0 13.37 -7.91 0 0 -13.37 -23.71 0zm7.86 -6.89l15.85 0 0 -20.03 -15.85 20.03z"/>
  <path id="1" class="fil1" d="M54.43 64.14l0 -6.89 23.72 -30.83 7.9 0 0 30.83 5.2 0 0 6.89 -5.2 0 0 13.37 -7.9 0 0 -13.37 -23.72 0zm7.86 -6.89l15.86 0 0 -20.03 -15.86 20.03z"/>
 </g>
</svg>
