<?xml version="1.0" encoding="UTF-8"?>
<!DOCTYPE svg PUBLIC "-//W3C//DTD SVG 1.1//EN" "http://www.w3.org/Graphics/SVG/1.1/DTD/svg11.dtd">
<!-- Creator: CorelDRAW 2019 (64-Bit) -->
<svg xmlns="http://www.w3.org/2000/svg" xml:space="preserve" width="591px" height="591px" version="1.1" style="shape-rendering:geometricPrecision; text-rendering:geometricPrecision; image-rendering:optimizeQuality; fill-rule:evenodd; clip-rule:evenodd"
viewBox="0 0 459.29 459.29"
 xmlns:xlink="http://www.w3.org/1999/xlink">
 <defs>
  <style type="text/css">
   <![CDATA[
    .fil0 {fill:#0E4F95}
    .fil1 {fill:#FEFEFE;fill-rule:nonzero}
   ]]>
  </style>
 </defs>
 <g id="Layer_x0020_1">
  <metadata id="CorelCorpID_0Corel-Layer"/>
  <g id="_2527464005504">
   <circle class="fil0" cx="229.65" cy="229.65" r="229.65"/>
  </g>
  <path class="fil1" d="M61.21 281.31l0 -30.49 104.81 -136.25 34.94 0 0 136.25 22.97 0 0 30.49 -22.97 0 0 59.07 -34.94 0 0 -59.07 -104.81 0zm34.73 -30.49l70.08 0 0 -88.5 -70.08 88.5z"/>
  <path id="1" class="fil1" d="M242.72 296.02c8.84,5.56 19.43,10.06 31.6,13.45 12.23,3.44 24.83,4.5 37.85,3.28 10.95,-1.06 21.44,-4.55 31.49,-10.53 10.01,-5.98 16.04,-14.98 18.16,-27 2.22,-13.65 -0.42,-24.72 -8.1,-33.19 -7.62,-8.47 -16.73,-14.13 -27.26,-17.04 -8.89,-2.07 -18.63,-2.75 -29.17,-2.01 -10.53,0.69 -20.16,2.11 -28.84,4.18 -3.13,0.85 -5.99,1.69 -8.69,2.65 -2.7,0.9 -5.5,1.69 -8.36,2.32l14.88 -117.56 116.29 0 0 30.81 -90.57 0 -6.51 52.03c1.85,-0.21 3.71,-0.58 5.61,-1.11 1.85,-0.48 3.81,-0.95 5.88,-1.38 3.91,-0.63 8.04,-0.95 12.38,-0.95 25.67,-0.63 46.85,5.66 63.57,18.9 4.35,3.76 8.58,8.2 12.6,13.34 4.03,5.18 7.2,11.48 9.42,18.95 2.12,7.19 3.13,15.29 3.13,24.19 0,8.89 -1.22,16.72 -3.71,23.55 -5.18,13.45 -13.18,24.14 -24.03,32.08 -10.85,7.99 -23.02,13.39 -36.47,16.3 -10.75,2.49 -22.81,3.44 -36.26,2.81 -13.44,-0.64 -25.46,-2.81 -35.99,-6.51 -5.61,-2.07 -10.32,-4.03 -14.29,-5.93 -0.37,-0.16 -1.96,-1.01 -4.61,-2.44l0 -33.19z"/>
 </g>
</svg>
