<?xml version="1.0" encoding="UTF-8"?>
<!DOCTYPE svg PUBLIC "-//W3C//DTD SVG 1.1//EN" "http://www.w3.org/Graphics/SVG/1.1/DTD/svg11.dtd">
<!-- Creator: CorelDRAW 2021.5 -->
<svg xmlns="http://www.w3.org/2000/svg" xml:space="preserve" width="590px" height="590px" version="1.1" style="shape-rendering:geometricPrecision; text-rendering:geometricPrecision; image-rendering:optimizeQuality; fill-rule:evenodd; clip-rule:evenodd"
viewBox="0 0 3346.36 3346.38"
 xmlns:xlink="http://www.w3.org/1999/xlink"
 xmlns:xodm="http://www.corel.com/coreldraw/odm/2003">
 <defs>
  <style type="text/css">
   <![CDATA[
    .fil0 {fill:#0E4F95}
    .fil1 {fill:white;fill-rule:nonzero}
   ]]>
  </style>
 </defs>
 <g id="Layer_x0020_1">
  <metadata id="CorelCorpID_0Corel-Layer"/>
  <ellipse class="fil0" cx="1673.18" cy="1673.18" rx="1673.18" ry="1673.19"/>
  <path class="fil1" d="M1118.51 2511.36l0 -425.38 -755.14 0 0 -254.99 768.91 -998.33 290.4 0 0 980.22 166.06 0 0 273.1 -166.06 0 0 425.38 -304.17 0zm0 -698.48l0 -532.81 -421.84 532.81 421.84 0z"/>
  <path class="fil1" d="M2040.47 1542.93c55.48,-53.12 121.19,-89.71 197.14,-110.56 117.65,-31.49 232.95,-33.45 345.89,-5.91 109.4,28.33 199.11,83.81 269.94,166.06 69.66,82.24 110.58,179.44 121.99,291.59 11.82,120.02 -3.93,227.44 -47.21,323.06 -43.69,98.38 -112.54,178.66 -206.21,240.84 -90.1,59.01 -195.18,90.5 -315.98,94.43 -55.48,1.58 -113.73,-3.14 -175.12,-13.77 -61.77,-10.62 -116.47,-29.13 -164.87,-55.48 -92.48,-51.55 -163.69,-117.27 -214.46,-197.15 -54.69,-81.45 -92.87,-179.05 -114.12,-292.78 -20.85,-111.35 -25.57,-232.15 -13.77,-362.01 10.62,-127.49 36.61,-240.05 78.3,-337.63 27.56,-66.89 62.58,-131.83 104.29,-194.39 41.71,-62.58 92.86,-115.7 152.68,-159.77 88.54,-66.11 190.06,-107.04 304.57,-123.17 113.73,-14.55 229.03,-3.93 345.5,32.28 25.58,9.03 50.38,20.46 75.16,33.83 24.39,13.77 49.19,26.76 73.58,39.74l-1.17 293.18c-57.45,-29.52 -105.46,-53.91 -144.03,-73.99 -38.16,-20.06 -90.9,-33.83 -157.79,-41.31 -76.74,-9.46 -149.54,-1.58 -218,22.82 -89.72,32.26 -158.99,89.71 -206.99,171.95 -48.01,82.26 -77.52,168.43 -89.32,258.14zm433.64 142.86c-83.04,-27.56 -165.28,-24.01 -246.73,10.62 -83.04,33.84 -142.84,86.17 -179.83,157.78 -11.41,23.23 -17.7,40.14 -18.49,51.17 -0.79,11.41 1.17,28.33 5.89,51.55 7.48,46.03 19.68,88.93 36.61,128.29 16.91,39.73 44.07,74.75 80.66,105.46 60.2,52.32 133.01,76.73 219.19,72.78 88.53,-2.36 161.33,-32.26 218.39,-90.5 57.45,-57.84 84.61,-133 81.45,-225.48 -5.51,-132.22 -71.21,-219.17 -197.14,-261.67z"/>
 </g>
</svg>
