<?xml version="1.0" encoding="UTF-8"?>
<!DOCTYPE svg PUBLIC "-//W3C//DTD SVG 1.1//EN" "http://www.w3.org/Graphics/SVG/1.1/DTD/svg11.dtd">
<!-- Creator: CorelDRAW 2019 (64-Bit) -->
<svg xmlns="http://www.w3.org/2000/svg" xml:space="preserve" width="591px" height="591px" version="1.1" style="shape-rendering:geometricPrecision; text-rendering:geometricPrecision; image-rendering:optimizeQuality; fill-rule:evenodd; clip-rule:evenodd"
viewBox="0 0 169.49 169.49"
 xmlns:xlink="http://www.w3.org/1999/xlink">
 <defs>
  <style type="text/css">
   <![CDATA[
    .fil0 {fill:#0E4F95}
    .fil1 {fill:#FEFEFE;fill-rule:nonzero}
   ]]>
  </style>
 </defs>
 <g id="Layer_x0020_1">
  <metadata id="CorelCorpID_0Corel-Layer"/>
  <g id="_2527454277776">
   <circle class="fil0" cx="84.75" cy="84.75" r="84.75"/>
  </g>
  <path class="fil1" d="M19.88 104.82l0 -11.25 38.68 -50.28 12.89 0 0 50.28 8.48 0 0 11.25 -8.48 0 0 21.8 -12.89 0 0 -21.8 -38.68 0zm12.82 -11.25l25.86 0 0 -32.66 -25.86 32.66z"/>
  <path id="1" class="fil1" d="M142.89 58.87c-0.55,-0.23 -1.04,-0.52 -1.51,-0.91 -3.49,-2.21 -7.65,-3.6 -12.46,-4.13 -3.96,-0.45 -7.81,-0.07 -11.5,1.16 -3.72,1.21 -6.78,3.32 -9.22,6.29 -4.73,5.8 -7.21,12.75 -7.45,20.84 0.16,-0.08 0.35,-0.27 0.59,-0.59 0.21,-0.29 0.45,-0.56 0.68,-0.8 0.61,-0.6 1.19,-1.19 1.78,-1.76 0.57,-0.58 1.31,-1.13 2.23,-1.66 2.36,-1.54 4.65,-2.59 6.85,-3.22 5.51,-1.44 10.98,-1.56 16.43,-0.33 5.47,1.21 10.02,3.92 13.67,8.12 3.36,4.05 5.34,8.74 5.94,14.09 0.69,6.87 -0.27,12.58 -2.91,17.11 -2.62,4.55 -5.76,8.05 -9.39,10.49 -4.28,2.73 -9.44,4.26 -15.45,4.57 -2.76,0 -5.65,-0.25 -8.72,-0.74 -3.04,-0.51 -5.72,-1.35 -8,-2.58 -0.61,-0.31 -1.18,-0.61 -1.72,-0.92 -0.53,-0.29 -1.04,-0.64 -1.49,-1.03 -0.23,-0.14 -0.45,-0.3 -0.68,-0.45 -0.24,-0.16 -0.47,-0.36 -0.69,-0.57 -2.22,-1.68 -4.2,-3.91 -5.95,-6.64 -2.68,-4.04 -4.54,-8.91 -5.61,-14.55 -1,-5.49 -1.23,-11.51 -0.68,-18.03 0.52,-6.53 1.83,-12.19 3.88,-17 0.84,-2.07 1.64,-3.77 2.41,-5.1 0.76,-1.34 1.75,-2.89 2.97,-4.63 1.07,-1.62 2.22,-3.02 3.43,-4.23 1.23,-1.39 2.52,-2.56 3.89,-3.56 4.59,-3.36 9.69,-5.37 15.35,-6.05 5.65,-0.71 11.22,-0.16 16.71,1.6 0.91,0.29 2.09,0.8 3.53,1.48l3.09 1.84 0 11.89zm-41.96 41.77c0.84,4.8 2.87,8.73 6.07,11.78 3.21,3.06 7.37,4.47 12.47,4.23 5.11,-0.07 9.12,-1.79 12.03,-5.13 0.37,-0.24 0.72,-0.59 1.01,-1.04 0.55,-0.76 0.85,-1.19 0.92,-1.27 0.63,-0.9 1.12,-1.85 1.49,-2.85 1.99,-4.88 1.83,-9.65 -0.45,-14.3 -0.53,-0.92 -1.45,-2.13 -2.76,-3.65 -3.96,-3.89 -8.77,-5.53 -14.41,-4.92 -4.12,0.52 -7.7,2.01 -10.76,4.45 -2.06,1.52 -3.7,3.44 -4.93,5.72 -0.76,1.6 -1.13,2.74 -1.13,3.38 0,0.65 0.16,1.84 0.45,3.6z"/>
 </g>
</svg>
