<?xml version="1.0" encoding="UTF-8"?>
<!DOCTYPE svg PUBLIC "-//W3C//DTD SVG 1.1//EN" "http://www.w3.org/Graphics/SVG/1.1/DTD/svg11.dtd">
<!-- Creator: CorelDRAW 2021.5 -->
<svg xmlns="http://www.w3.org/2000/svg" xml:space="preserve" width="590px" height="590px" version="1.1" style="shape-rendering:geometricPrecision; text-rendering:geometricPrecision; image-rendering:optimizeQuality; fill-rule:evenodd; clip-rule:evenodd"
viewBox="0 0 291.55 291.55"
 xmlns:xlink="http://www.w3.org/1999/xlink"
 xmlns:xodm="http://www.corel.com/coreldraw/odm/2003">
 <defs>
  <style type="text/css">
   <![CDATA[
    .fil0 {fill:#0E4F95}
    .fil1 {fill:white;fill-rule:nonzero}
   ]]>
  </style>
 </defs>
 <g id="Layer_x0020_1">
  <metadata id="CorelCorpID_0Corel-Layer"/>
  <circle class="fil0" cx="145.77" cy="145.77" r="145.77"/>
  <path class="fil1" d="M99.51 218.8l0 -37.06 -65.8 0 0 -22.22 67 -86.98 25.3 0 0 85.4 14.46 0 0 23.8 -14.46 0 0 37.06 -26.5 0zm0 -60.86l0 -46.42 -36.76 46.42 36.76 0z"/>
  <path class="fil1" d="M214.75 97.06l-64.59 0 0 -24.52 104.46 0c-10.83,24.38 -21.67,48.79 -32.43,73.2 -10.8,24.41 -21.57,48.75 -32.37,73.06l-28.9 -0.11 53.83 -121.63z"/>
 </g>
</svg>
