<?xml version="1.0" encoding="UTF-8"?>
<!DOCTYPE svg PUBLIC "-//W3C//DTD SVG 1.1//EN" "http://www.w3.org/Graphics/SVG/1.1/DTD/svg11.dtd">
<!-- Creator: CorelDRAW 2021.5 -->
<svg xmlns="http://www.w3.org/2000/svg" xml:space="preserve" width="590px" height="590px" version="1.1" style="shape-rendering:geometricPrecision; text-rendering:geometricPrecision; image-rendering:optimizeQuality; fill-rule:evenodd; clip-rule:evenodd"
viewBox="0 0 54.51 54.51"
 xmlns:xlink="http://www.w3.org/1999/xlink"
 xmlns:xodm="http://www.corel.com/coreldraw/odm/2003">
 <defs>
  <style type="text/css">
   <![CDATA[
    .fil0 {fill:#0E4F95}
    .fil1 {fill:white;fill-rule:nonzero}
   ]]>
  </style>
 </defs>
 <g id="Layer_x0020_1">
  <metadata id="CorelCorpID_0Corel-Layer"/>
  <circle class="fil0" cx="27.25" cy="27.25" r="27.25"/>
  <path class="fil1" d="M38.92 38.31l1.07 -3.17 5.11 0 1.06 3.17 2.6 0 -4.92 -14.6 -2.56 0 -4.92 14.6 2.56 0zm3.64 -10.79l1.67 5.02 -3.36 0 1.69 -5.02z"/>
  <path class="fil1" d="M16.39 38.31l0 -5.31 -9.44 0 0 -3.19 9.61 -12.47 3.63 0 0 12.24 2.07 0 0 3.42 -2.07 0 0 5.31 -3.8 0zm0 -8.73l0 -6.65 -5.28 6.65 5.28 0z"/>
  <path class="fil1" d="M32.43 20.85l-9.26 0 0 -3.51 14.98 0c-1.56,3.49 -3.11,6.99 -4.65,10.49 -1.55,3.5 -3.1,6.99 -4.65,10.48l-4.14 -0.01 7.72 -17.45z"/>
 </g>
</svg>
