<?xml version="1.0" encoding="UTF-8"?>
<!DOCTYPE svg PUBLIC "-//W3C//DTD SVG 1.1//EN" "http://www.w3.org/Graphics/SVG/1.1/DTD/svg11.dtd">
<!-- Creator: CorelDRAW -->
<svg xmlns="http://www.w3.org/2000/svg" xml:space="preserve" width="236px" height="236px" version="1.1" style="shape-rendering:geometricPrecision; text-rendering:geometricPrecision; image-rendering:optimizeQuality; fill-rule:evenodd; clip-rule:evenodd"
viewBox="0 0 55.67 55.67"
 xmlns:xlink="http://www.w3.org/1999/xlink"
 xmlns:xodm="http://www.corel.com/coreldraw/odm/2003">
 <defs>
  <style type="text/css">
   <![CDATA[
    .fil0 {fill:#0E4F95}
    .fil1 {fill:#FEFEFE;fill-rule:nonzero}
   ]]>
  </style>
 </defs>
 <g id="Layer_x0020_1">
  <metadata id="CorelCorpID_0Corel-Layer"/>
  <path class="fil0" d="M27.83 0c15.38,0 27.84,12.46 27.84,27.83 0,15.38 -12.46,27.84 -27.84,27.84 -15.37,0 -27.83,-12.46 -27.83,-27.84 0,-15.37 12.46,-27.83 27.83,-27.83z"/>
  <path class="fil1" d="M18.7 41.78l0 -7.08 -12.56 0 0 -4.24 12.79 -16.61 4.83 0 0 16.31 2.76 0 0 4.54 -2.76 0 0 7.08 -5.06 0zm0 -11.62l0 -8.87 -7.02 8.87 7.02 0z"/>
  <path class="fil1" d="M32.92 26.76c-0.76,-0.54 -1.35,-1.15 -1.78,-1.84 -0.67,-1.03 -1,-2.22 -1,-3.55 0,-2.45 0.79,-4.42 2.38,-5.91 1.56,-1.44 3.65,-2.16 6.29,-2.16 2.62,0 4.71,0.72 6.27,2.16 1.6,1.5 2.39,3.47 2.39,5.91 0,1.51 -0.45,2.84 -1.38,4.01 -0.43,0.54 -0.95,1.03 -1.55,1.48 1.23,0.61 2.19,1.41 2.88,2.41 0.84,1.23 1.27,2.69 1.27,4.4 0,1.07 -0.25,2.17 -0.72,3.3 -0.48,1.12 -1.22,2.12 -2.22,2.99 -1.8,1.56 -4.12,2.33 -6.94,2.33 -2.83,0 -5.13,-0.77 -6.93,-2.33 -1.01,-0.87 -1.75,-1.87 -2.23,-2.99 -0.48,-1.13 -0.72,-2.23 -0.72,-3.3 0,-1.59 0.39,-3.01 1.17,-4.26 0.68,-1.04 1.62,-1.92 2.82,-2.65zm4.22 2c-0.96,0.44 -1.72,1.09 -2.29,1.93 -0.56,0.87 -0.84,1.86 -0.84,2.98 0,1.29 0.47,2.39 1.4,3.3 0.94,0.91 2.07,1.38 3.4,1.38 1.33,0 2.47,-0.46 3.43,-1.36 0.91,-0.91 1.36,-2.02 1.36,-3.32 0,-1.19 -0.46,-2.16 -1.38,-2.92 -0.78,-0.59 -1.99,-1.12 -3.62,-1.59 -0.34,-0.08 -0.6,-0.15 -0.79,-0.21 -0.12,-0.03 -0.23,-0.06 -0.34,-0.09 -0.1,-0.03 -0.22,-0.06 -0.33,-0.1zm2.8 -3.42c0.27,-0.15 0.56,-0.33 0.88,-0.56 0.32,-0.21 0.62,-0.47 0.9,-0.78 0.71,-0.74 1.05,-1.62 1.05,-2.63 0,-1.1 -0.37,-2.05 -1.14,-2.84 -0.81,-0.78 -1.75,-1.16 -2.82,-1.16 -1.1,0 -2.04,0.38 -2.82,1.16 -0.77,0.77 -1.16,1.72 -1.16,2.84 0,1.04 0.36,1.84 1.07,2.42 0.6,0.51 1.61,0.94 2.99,1.3 0,0 0.15,0.04 0.45,0.12 0.14,0.03 0.35,0.06 0.6,0.13z"/>
 </g>
</svg>
