<?xml version="1.0" encoding="UTF-8"?>
<!DOCTYPE svg PUBLIC "-//W3C//DTD SVG 1.1//EN" "http://www.w3.org/Graphics/SVG/1.1/DTD/svg11.dtd">
<!-- Creator: CorelDRAW 2021.5 -->
<svg xmlns="http://www.w3.org/2000/svg" xml:space="preserve" width="590px" height="590px" version="1.1" style="shape-rendering:geometricPrecision; text-rendering:geometricPrecision; image-rendering:optimizeQuality; fill-rule:evenodd; clip-rule:evenodd"
viewBox="0 0 91.85 91.85"
 xmlns:xlink="http://www.w3.org/1999/xlink"
 xmlns:xodm="http://www.corel.com/coreldraw/odm/2003">
 <defs>
  <style type="text/css">
   <![CDATA[
    .fil0 {fill:#0E4F95}
    .fil1 {fill:white;fill-rule:nonzero}
   ]]>
  </style>
 </defs>
 <g id="Layer_x0020_1">
  <metadata id="CorelCorpID_0Corel-Layer"/>
  <circle class="fil0" cx="45.92" cy="45.92" r="45.92"/>
  <path class="fil1" d="M31.65 68.93l0 -11.68 -20.73 0 0 -6.99 21.11 -27.41 7.97 0 0 26.91 4.56 0 0 7.49 -4.56 0 0 11.68 -8.35 0zm0 -19.17l0 -14.63 -11.58 14.63 11.58 0z"/>
  <path class="fil1" d="M72.02 53.24c0.4,-1.22 0.7,-2.5 0.92,-3.81 -1.61,1.46 -3.42,2.47 -5.44,3.02 -3.32,0.9 -6.47,0.95 -9.46,0.15 -3.04,-0.76 -5.52,-2.27 -7.45,-4.53 -1.91,-2.25 -3.03,-4.93 -3.34,-8.03 -0.31,-3.28 0.13,-6.22 1.29,-8.86 1.27,-2.85 3.2,-5.06 5.81,-6.66 2.61,-1.59 5.46,-2.44 8.56,-2.55 2.59,-0.07 5.07,0.31 7.43,1.12 2.36,0.81 4.45,2.2 6.24,4.17 2.31,2.61 3.88,5.96 4.68,10.06 0.57,3.12 0.7,6.43 0.37,9.93 -0.35,3.65 -1.06,6.75 -2.14,9.3 -0.8,1.84 -1.78,3.62 -2.93,5.34 -1.15,1.71 -2.54,3.18 -4.16,4.38 -2.45,1.77 -5.23,2.87 -8.35,3.33 -3.13,0.43 -6.28,0.15 -9.46,-0.87 -0.75,-0.2 -1.45,-0.49 -2.13,-0.88 -0.67,-0.38 -1.34,-0.76 -1.98,-1.13l0.03 -8.04c1.57,0.82 2.89,1.51 3.93,2.07 1.05,0.55 2.49,0.93 4.35,1.13 2.17,0.22 4.18,0.02 6.02,-0.64 1.83,-0.66 3.32,-1.7 4.49,-3.13 1.16,-1.44 2.06,-3.06 2.72,-4.87zm-7.08 -7.32c1.89,-0.18 3.67,-0.91 5.34,-2.18 1.05,-0.8 1.86,-1.76 2.43,-2.88 0.33,-0.61 0.49,-1.07 0.51,-1.37 0.02,-0.31 -0.02,-0.79 -0.13,-1.44 -0.51,-2.81 -1.59,-4.95 -3.25,-6.43 -1.63,-1.41 -3.63,-2.08 -6.02,-1.99 -2.49,0.08 -4.5,0.94 -6.04,2.57 -1.54,1.62 -2.27,3.65 -2.19,6.1 0.09,2.13 0.81,3.87 2.19,5.22 1.92,1.92 4.31,2.72 7.16,2.4z"/>
 </g>
</svg>
