<?xml version="1.0" encoding="UTF-8"?>
<!DOCTYPE svg PUBLIC "-//W3C//DTD SVG 1.1//EN" "http://www.w3.org/Graphics/SVG/1.1/DTD/svg11.dtd">
<!-- Creator: CorelDRAW 2019 (64-Bit) -->
<svg xmlns="http://www.w3.org/2000/svg" xml:space="preserve" width="591px" height="591px" version="1.1" style="shape-rendering:geometricPrecision; text-rendering:geometricPrecision; image-rendering:optimizeQuality; fill-rule:evenodd; clip-rule:evenodd"
viewBox="0 0 74.93 74.93"
 xmlns:xlink="http://www.w3.org/1999/xlink">
 <defs>
  <style type="text/css">
   <![CDATA[
    .fil0 {fill:#0E4F95}
    .fil1 {fill:#FEFEFE;fill-rule:nonzero}
   ]]>
  </style>
 </defs>
 <g id="Layer_x0020_1">
  <metadata id="CorelCorpID_0Corel-Layer"/>
  <g id="_2527461825200">
   <circle class="fil0" cx="37.47" cy="37.47" r="37.47"/>
  </g>
  <path class="fil1" d="M8.96 46.21l0 -4.98 17.1 -22.23 5.7 0 0 22.23 3.75 0 0 4.98 -3.75 0 0 9.63 -5.7 0 0 -9.63 -17.1 0zm5.66 -4.98l11.44 0 0 -14.44 -11.44 14.44z"/>
  <path id="1" class="fil1" d="M41.22 54.26l0.05 -5.31c0.4,0.27 0.61,0.41 0.61,0.41 1.45,0.97 3.29,1.6 5.51,1.87 1.76,0.2 3.45,0.04 5.08,-0.51 1.65,-0.53 3.02,-1.47 4.13,-2.78 2.06,-2.53 3.15,-5.62 3.29,-9.27 -0.1,0.07 -0.2,0.18 -0.3,0.31 -0.1,0.14 -0.19,0.24 -0.26,0.31 -0.71,0.71 -1.29,1.22 -1.77,1.56 -0.94,0.61 -1.97,1.08 -3.08,1.42 -2.44,0.68 -4.86,0.74 -7.29,0.2 -2.43,-0.54 -4.42,-1.75 -5.97,-3.64 -1.52,-1.75 -2.39,-3.85 -2.62,-6.28 -0.27,-3 0.15,-5.51 1.28,-7.51 1.13,-2.01 2.52,-3.58 4.16,-4.69 1.92,-1.28 4.2,-1.97 6.83,-2.07 1.22,0 2.49,0.11 3.82,0.33 1.33,0.22 2.53,0.61 3.57,1.19 0.71,0.44 1.17,0.72 1.37,0.86 0.1,0.1 0.2,0.18 0.3,0.25 0.1,0.07 0.22,0.15 0.35,0.25 0.92,0.74 1.79,1.7 2.64,2.89 1.14,1.82 1.97,3.96 2.47,6.43 0.48,2.43 0.58,5.1 0.31,8.02 -0.27,2.92 -0.84,5.41 -1.72,7.46 -0.41,0.92 -0.78,1.68 -1.12,2.28 -0.33,0.61 -0.76,1.31 -1.26,2.08 -0.47,0.67 -0.98,1.3 -1.52,1.87 -0.64,0.64 -1.23,1.17 -1.77,1.57 -2.03,1.45 -4.28,2.32 -6.78,2.61 -2.49,0.28 -4.94,0.05 -7.34,-0.69 -0.57,-0.13 -1.09,-0.36 -1.56,-0.66l-1.41 -0.76zm4.99 -18.37c1.65,1.76 3.78,2.48 6.38,2.18 1.65,-0.17 3.22,-0.81 4.7,-1.92 0.98,-0.74 1.7,-1.6 2.17,-2.58 0.34,-0.64 0.5,-1.11 0.48,-1.42 -0.01,-0.3 -0.07,-0.86 -0.17,-1.66 -0.37,-2.06 -1.28,-3.77 -2.71,-5.14 -1.43,-1.36 -3.26,-2.01 -5.49,-1.94 -2.29,0.14 -4.06,0.89 -5.31,2.27 -0.11,0.1 -0.18,0.19 -0.25,0.26 -0.07,0.07 -0.14,0.14 -0.21,0.25 -0.23,0.33 -0.37,0.52 -0.4,0.55 -0.24,0.37 -0.46,0.78 -0.66,1.22 -0.88,2.23 -0.79,4.33 0.26,6.32 0.3,0.64 0.7,1.17 1.21,1.61z"/>
 </g>
</svg>
