<?xml version="1.0" encoding="UTF-8"?>
<!DOCTYPE svg PUBLIC "-//W3C//DTD SVG 1.1//EN" "http://www.w3.org/Graphics/SVG/1.1/DTD/svg11.dtd">
<!-- Creator: CorelDRAW 2019 (64-Bit) -->
<svg xmlns="http://www.w3.org/2000/svg" xml:space="preserve" width="591px" height="591px" version="1.1" style="shape-rendering:geometricPrecision; text-rendering:geometricPrecision; image-rendering:optimizeQuality; fill-rule:evenodd; clip-rule:evenodd"
viewBox="0 0 647.04 647.04"
 xmlns:xlink="http://www.w3.org/1999/xlink">
 <defs>
  <style type="text/css">
   <![CDATA[
    .fil0 {fill:#0E4F95}
    .fil1 {fill:#FEFEFE;fill-rule:nonzero}
   ]]>
  </style>
 </defs>
 <g id="Layer_x0020_1">
  <metadata id="CorelCorpID_0Corel-Layer"/>
  <path class="fil0" d="M323.52 0c178.68,0 323.52,144.84 323.52,323.52 0,178.68 -144.84,323.52 -323.52,323.52 -178.68,0 -323.52,-144.84 -323.52,-323.52 0,-178.68 144.84,-323.52 323.52,-323.52z"/>
  <path class="fil1" d="M94.68 397.54l0 -43.83 150.66 -195.85 50.21 0 0 195.85 33.03 0 0 43.83 -33.03 0 0 84.91 -50.21 0 0 -84.91 -150.66 0zm49.92 -43.83l100.74 0 0 -127.22 -100.74 127.22z"/>
  <path class="fil1" d="M363.77 482.45l76.98 -226.01 32.27 0 77.03 226.01 -32.32 0 -20.19 -59.13 -81.32 0 -20.18 59.13 -32.27 0zm123.55 -89.64l-30.41 -88.8 -30.41 88.8 60.82 0z"/>
 </g>
</svg>
