<?xml version="1.0" encoding="UTF-8"?>
<!DOCTYPE svg PUBLIC "-//W3C//DTD SVG 1.1//EN" "http://www.w3.org/Graphics/SVG/1.1/DTD/svg11.dtd">
<svg xmlns="http://www.w3.org/2000/svg" xml:space="preserve" width="590px" height="590px" version="1.1" style="shape-rendering:geometricPrecision; text-rendering:geometricPrecision; image-rendering:optimizeQuality; fill-rule:evenodd; clip-rule:evenodd"
viewBox="0 0 248.28 248.29"
 xmlns:xlink="http://www.w3.org/1999/xlink">
 <defs>
  <style type="text/css">
   <![CDATA[
    .fil0 {fill:#0E4F95}
    .fil1 {fill:#FFFFFF;fill-rule:nonzero}
   ]]>
  </style>
 </defs>
 <g id="Layer_x0020_1">
  <circle class="fil0" cx="124.14" cy="124.14" r="124.14"/>
  <path class="fil1" d="M113.05 82.41l-2.89 23.27c3.59,-0.73 7.07,-1.17 10.42,-1.29 6.83,-0.2 13.08,0.44 18.75,1.99 10.07,2.95 17.95,8.26 23.59,15.91 4.9,6.77 7.27,14.95 7.09,24.56 -0.2,12.52 -5.17,22.71 -14.86,30.51 -5.84,4.64 -12.32,7.76 -19.5,9.37 -7.18,1.63 -14.4,2.28 -21.64,1.92 -7.27,-0.46 -13.78,-1.66 -19.59,-3.67 -3.82,-1.32 -7.65,-2.92 -11.47,-4.88l0 -22.74c6.1,3.71 12.26,6.54 18.51,8.49 6.25,1.99 13.05,2.63 20.41,1.93 5.37,-0.5 10.57,-2.22 15.65,-5.11 5.08,-2.92 8.11,-7.3 9.08,-13.2 1.02,-6.16 -0.18,-11.38 -3.6,-15.73 -3.41,-4.32 -8.05,-7.27 -13.86,-8.79 -4.62,-1.2 -9.64,-1.61 -15.07,-1.17 -5.4,0.44 -10.36,1.23 -14.86,2.37 -2.01,0.49 -4,1.05 -5.99,1.66 -2.01,0.58 -3.97,1.14 -5.92,1.66l8.55 -67.58 65.78 0 0 20.52 -48.58 0z"/>
 </g>
</svg>
