<?xml version="1.0" encoding="UTF-8"?>
<!DOCTYPE svg PUBLIC "-//W3C//DTD SVG 1.1//EN" "http://www.w3.org/Graphics/SVG/1.1/DTD/svg11.dtd">
<!-- Creator: CorelDRAW 2021.5 -->
<svg xmlns="http://www.w3.org/2000/svg" xml:space="preserve" width="590px" height="590px" version="1.1" style="shape-rendering:geometricPrecision; text-rendering:geometricPrecision; image-rendering:optimizeQuality; fill-rule:evenodd; clip-rule:evenodd"
viewBox="0 0 44.11 44.11"
 xmlns:xlink="http://www.w3.org/1999/xlink"
 xmlns:xodm="http://www.corel.com/coreldraw/odm/2003">
 <defs>
  <style type="text/css">
   <![CDATA[
    .fil0 {fill:#0E4F95}
    .fil1 {fill:white;fill-rule:nonzero}
   ]]>
  </style>
 </defs>
 <g id="Layer_x0020_1">
  <metadata id="CorelCorpID_0Corel-Layer"/>
  <circle class="fil0" cx="22.05" cy="22.05" r="22.05"/>
  <path class="fil1" d="M11.26 14.63l-0.52 4.14c0.64,-0.13 1.26,-0.21 1.86,-0.23 1.21,-0.04 2.32,0.08 3.33,0.35 1.79,0.53 3.19,1.47 4.19,2.83 0.87,1.2 1.29,2.65 1.26,4.36 -0.04,2.23 -0.92,4.04 -2.64,5.42 -1.04,0.83 -2.19,1.38 -3.47,1.67 -1.27,0.29 -2.55,0.4 -3.84,0.34 -1.29,-0.08 -2.45,-0.3 -3.48,-0.66 -0.68,-0.23 -1.36,-0.51 -2.04,-0.86l0 -4.04c1.08,0.66 2.18,1.16 3.29,1.51 1.11,0.35 2.32,0.46 3.62,0.34 0.96,-0.09 1.88,-0.39 2.78,-0.91 0.91,-0.52 1.45,-1.29 1.62,-2.34 0.18,-1.1 -0.03,-2.03 -0.64,-2.8 -0.61,-0.77 -1.43,-1.29 -2.46,-1.56 -0.82,-0.21 -1.72,-0.28 -2.68,-0.21 -0.96,0.08 -1.84,0.22 -2.64,0.42 -0.36,0.09 -0.71,0.19 -1.06,0.3 -0.36,0.1 -0.71,0.2 -1.06,0.29l1.52 -12 11.69 0 0 3.64 -8.63 0z"/>
  <path class="fil1" d="M31.25 10.56c2.57,0 4.59,1.04 6.09,3.12 1.5,2.09 2.25,4.88 2.25,8.36 0,3.5 -0.75,6.29 -2.25,8.36 -1.5,2.07 -3.52,3.11 -6.09,3.11 -2.79,0 -4.87,-1.12 -6.25,-3.35 -1.39,-2.24 -2.08,-4.94 -2.08,-8.12 0,-3.48 0.76,-6.27 2.25,-8.36 1.49,-2.08 3.52,-3.12 6.08,-3.12zm3.12 5.69c-0.77,-1.32 -1.81,-1.98 -3.12,-1.98 -1.3,0 -2.34,0.66 -3.1,1.98 -0.8,1.4 -1.2,3.33 -1.2,5.79 0,2.48 0.4,4.41 1.2,5.8 0.77,1.32 1.8,1.98 3.1,1.98 1.3,0 2.34,-0.66 3.12,-1.98 0.81,-1.41 1.21,-3.34 1.21,-5.8 0,-2.44 -0.4,-4.38 -1.21,-5.79z"/>
 </g>
</svg>
