<?xml version="1.0" encoding="UTF-8"?>
<!DOCTYPE svg PUBLIC "-//W3C//DTD SVG 1.1//EN" "http://www.w3.org/Graphics/SVG/1.1/DTD/svg11.dtd">
<!-- Creator: CorelDRAW 2021.5 -->
<svg xmlns="http://www.w3.org/2000/svg" xml:space="preserve" width="590px" height="590px" version="1.1" style="shape-rendering:geometricPrecision; text-rendering:geometricPrecision; image-rendering:optimizeQuality; fill-rule:evenodd; clip-rule:evenodd"
viewBox="0 0 52.79 52.79"
 xmlns:xlink="http://www.w3.org/1999/xlink"
 xmlns:xodm="http://www.corel.com/coreldraw/odm/2003">
 <defs>
  <style type="text/css">
   <![CDATA[
    .fil0 {fill:#0E4F95}
    .fil1 {fill:white;fill-rule:nonzero}
   ]]>
  </style>
 </defs>
 <g id="Layer_x0020_1">
  <metadata id="CorelCorpID_0Corel-Layer"/>
  <circle class="fil0" cx="26.4" cy="26.4" r="26.4"/>
  <path class="fil1" d="M16.06 17.51l-0.61 4.95c0.76,-0.15 1.5,-0.25 2.21,-0.27 1.46,-0.04 2.78,0.09 3.99,0.42 2.14,0.63 3.82,1.76 5.01,3.38 1.05,1.44 1.55,3.18 1.51,5.22 -0.04,2.67 -1.1,4.83 -3.16,6.49 -1.24,0.99 -2.62,1.65 -4.14,1.99 -1.53,0.35 -3.06,0.49 -4.6,0.41 -1.55,-0.1 -2.93,-0.35 -4.17,-0.78 -0.81,-0.28 -1.63,-0.62 -2.44,-1.03l0 -4.84c1.3,0.79 2.61,1.39 3.94,1.81 1.33,0.42 2.77,0.55 4.34,0.41 1.14,-0.11 2.24,-0.48 3.32,-1.09 1.08,-0.62 1.73,-1.55 1.93,-2.81 0.22,-1.31 -0.03,-2.42 -0.76,-3.34 -0.73,-0.92 -1.71,-1.55 -2.95,-1.87 -0.98,-0.26 -2.05,-0.34 -3.2,-0.25 -1.15,0.09 -2.21,0.26 -3.16,0.5 -0.43,0.11 -0.85,0.23 -1.27,0.36 -0.43,0.12 -0.85,0.24 -1.26,0.35l1.81 -14.37 13.99 0 0 4.36 -10.33 0z"/>
  <polygon class="fil1" points="41.26,39.63 36.95,39.63 36.95,20.75 31.4,23.96 31.4,19.08 41.67,13.15 41.67,39.63 "/>
 </g>
</svg>
