<?xml version="1.0" encoding="UTF-8"?>
<!DOCTYPE svg PUBLIC "-//W3C//DTD SVG 1.1//EN" "http://www.w3.org/Graphics/SVG/1.1/DTD/svg11.dtd">
<!-- Creator: CorelDRAW 2019 (64-Bit) -->
<svg xmlns="http://www.w3.org/2000/svg" xml:space="preserve" width="591px" height="591px" version="1.1" style="shape-rendering:geometricPrecision; text-rendering:geometricPrecision; image-rendering:optimizeQuality; fill-rule:evenodd; clip-rule:evenodd"
viewBox="0 0 74.93 74.93"
 xmlns:xlink="http://www.w3.org/1999/xlink">
 <defs>
  <style type="text/css">
   <![CDATA[
    .fil0 {fill:#0E4F95}
    .fil1 {fill:#FEFEFE;fill-rule:nonzero}
   ]]>
  </style>
 </defs>
 <g id="Layer_x0020_1">
  <metadata id="CorelCorpID_0Corel-Layer"/>
  <g id="_2492616558688">
   <circle class="fil0" cx="37.47" cy="37.47" r="37.47"/>
  </g>
  <path class="fil1" d="M15.91 48.3c1.44,0.9 3.17,1.64 5.16,2.19 1.99,0.56 4.05,0.73 6.17,0.53 1.79,-0.17 3.5,-0.74 5.14,-1.71 1.63,-0.98 2.62,-2.45 2.96,-4.41 0.36,-2.23 -0.07,-4.03 -1.32,-5.41 -1.24,-1.39 -2.73,-2.31 -4.45,-2.78 -1.45,-0.34 -3.04,-0.45 -4.76,-0.33 -1.71,0.11 -3.29,0.34 -4.7,0.68 -0.51,0.14 -0.98,0.28 -1.42,0.43 -0.44,0.15 -0.9,0.28 -1.36,0.38l2.42 -19.18 18.98 0 0 5.03 -14.78 0 -1.06 8.49c0.3,-0.04 0.6,-0.1 0.91,-0.18 0.31,-0.08 0.63,-0.16 0.96,-0.23 0.64,-0.1 1.32,-0.15 2.02,-0.15 4.19,-0.11 7.65,0.92 10.38,3.08 0.7,0.61 1.39,1.34 2.05,2.17 0.66,0.85 1.17,1.88 1.54,3.1 0.34,1.17 0.51,2.49 0.51,3.94 0,1.45 -0.2,2.73 -0.61,3.85 -0.84,2.19 -2.15,3.93 -3.92,5.23 -1.77,1.3 -3.75,2.18 -5.95,2.66 -1.75,0.4 -3.72,0.56 -5.91,0.46 -2.2,-0.11 -4.16,-0.46 -5.88,-1.07 -0.91,-0.33 -1.68,-0.65 -2.33,-0.96 -0.06,-0.03 -0.32,-0.17 -0.75,-0.4l0 -5.41z"/>
  <polygon id="1" class="fil1" points="59.02,55.53 53.37,55.53 53.37,27.65 45.32,32.3 45.32,26.58 59.02,18.69 "/>
 </g>
</svg>
