<?xml version="1.0" encoding="UTF-8"?>
<!DOCTYPE svg PUBLIC "-//W3C//DTD SVG 1.1//EN" "http://www.w3.org/Graphics/SVG/1.1/DTD/svg11.dtd">
<!-- Creator: CorelDRAW 2019 (64-Bit) -->
<svg xmlns="http://www.w3.org/2000/svg" xml:space="preserve" width="591px" height="591px" version="1.1" style="shape-rendering:geometricPrecision; text-rendering:geometricPrecision; image-rendering:optimizeQuality; fill-rule:evenodd; clip-rule:evenodd"
viewBox="0 0 60.84 60.84"
 xmlns:xlink="http://www.w3.org/1999/xlink">
 <defs>
  <style type="text/css">
   <![CDATA[
    .fil0 {fill:#0E4F95}
    .fil1 {fill:#FEFEFE;fill-rule:nonzero}
   ]]>
  </style>
 </defs>
 <g id="Layer_x0020_1">
  <metadata id="CorelCorpID_0Corel-Layer"/>
  <g id="_2527366446016">
   <circle class="fil0" cx="30.42" cy="30.42" r="30.42"/>
  </g>
  <path class="fil1" d="M8.47 39.51c1.17,0.73 2.58,1.33 4.19,1.78 1.62,0.45 3.29,0.59 5.01,0.43 1.45,-0.14 2.84,-0.6 4.17,-1.39 1.33,-0.79 2.13,-1.99 2.41,-3.58 0.29,-1.81 -0.06,-3.27 -1.07,-4.39 -1.01,-1.13 -2.22,-1.88 -3.61,-2.26 -1.18,-0.28 -2.47,-0.37 -3.87,-0.27 -1.39,0.09 -2.67,0.28 -3.82,0.56 -0.41,0.11 -0.79,0.22 -1.15,0.35 -0.36,0.11 -0.73,0.22 -1.11,0.3l1.97 -15.57 15.41 0 0 4.08 -12 0 -0.86 6.89c0.24,-0.02 0.49,-0.07 0.74,-0.14 0.25,-0.07 0.51,-0.13 0.78,-0.19 0.52,-0.08 1.07,-0.12 1.64,-0.12 3.4,-0.09 6.21,0.75 8.42,2.5 0.58,0.5 1.14,1.09 1.67,1.77 0.53,0.69 0.95,1.52 1.25,2.51 0.28,0.95 0.41,2.03 0.41,3.2 0,1.18 -0.16,2.22 -0.49,3.12 -0.69,1.78 -1.74,3.2 -3.18,4.25 -1.44,1.06 -3.05,1.78 -4.83,2.16 -1.43,0.33 -3.02,0.46 -4.81,0.37 -1.78,-0.08 -3.37,-0.37 -4.76,-0.86 -0.75,-0.27 -1.37,-0.53 -1.9,-0.78 -0.05,-0.02 -0.26,-0.14 -0.61,-0.33l0 -4.39z"/>
  <path id="1" class="fil1" d="M31.55 45.38l0 -4.19c5.17,-4.35 9.03,-7.77 11.56,-10.25 2.53,-2.48 3.8,-4.77 3.8,-6.88 0,-1.32 -0.5,-2.47 -1.5,-3.47 -0.99,-1 -2.16,-1.5 -3.47,-1.5 -2.14,0 -4.02,0.45 -5.67,1.35 -1.64,0.91 -2.59,1.45 -2.83,1.65 -0.19,-0.69 -0.39,-1.36 -0.58,-2.01 -0.19,-0.66 -0.37,-1.35 -0.53,-2.06 0.19,-0.12 1.2,-0.66 3.02,-1.65 1.82,-0.99 4.02,-1.49 6.59,-1.49 2.52,0 4.78,0.85 6.77,2.55 2,1.69 3,3.9 3,6.62 0,2.9 -0.98,5.48 -2.95,7.74 -1.97,2.26 -5.37,5.39 -10.19,9.39l13.8 0 0 4.2 -20.82 0z"/>
 </g>
</svg>
