<?xml version="1.0" encoding="UTF-8"?>
<!DOCTYPE svg PUBLIC "-//W3C//DTD SVG 1.1//EN" "http://www.w3.org/Graphics/SVG/1.1/DTD/svg11.dtd">
<!-- Creator: CorelDRAW 2021.5 -->
<svg xmlns="http://www.w3.org/2000/svg" xml:space="preserve" width="590px" height="590px" version="1.1" style="shape-rendering:geometricPrecision; text-rendering:geometricPrecision; image-rendering:optimizeQuality; fill-rule:evenodd; clip-rule:evenodd"
viewBox="0 0 65.73 65.73"
 xmlns:xlink="http://www.w3.org/1999/xlink"
 xmlns:xodm="http://www.corel.com/coreldraw/odm/2003">
 <defs>
  <style type="text/css">
   <![CDATA[
    .fil0 {fill:#0E4F95}
    .fil1 {fill:white;fill-rule:nonzero}
   ]]>
  </style>
 </defs>
 <g id="Layer_x0020_1">
  <metadata id="CorelCorpID_0Corel-Layer"/>
  <circle class="fil0" cx="32.86" cy="32.86" r="32.86"/>
  <path class="fil1" d="M16.71 21.81l-0.76 6.16c0.95,-0.2 1.87,-0.31 2.76,-0.34 1.81,-0.06 3.46,0.11 4.96,0.52 2.67,0.78 4.75,2.19 6.25,4.21 1.29,1.8 1.92,3.96 1.87,6.51 -0.05,3.31 -1.36,6.01 -3.93,8.07 -1.55,1.23 -3.26,2.06 -5.16,2.48 -1.91,0.44 -3.81,0.61 -5.73,0.51 -1.93,-0.12 -3.65,-0.44 -5.19,-0.97 -1.01,-0.35 -2.02,-0.77 -3.03,-1.29l0 -6.02c1.61,0.98 3.24,1.73 4.9,2.25 1.65,0.52 3.45,0.69 5.4,0.51 1.42,-0.13 2.8,-0.59 4.14,-1.36 1.35,-0.77 2.15,-1.93 2.4,-3.49 0.28,-1.63 -0.04,-3.01 -0.95,-4.17 -0.9,-1.14 -2.13,-1.92 -3.67,-2.32 -1.22,-0.32 -2.55,-0.43 -3.99,-0.31 -1.43,0.11 -2.74,0.32 -3.93,0.63 -0.53,0.13 -1.06,0.27 -1.58,0.44 -0.54,0.15 -1.06,0.3 -1.57,0.44l2.26 -17.9 17.42 0 0 5.44 -12.87 0z"/>
  <path class="fil1" d="M36.69 24.8c-0.55,-2.08 -1.04,-3.89 -1.44,-5.41 1.63,-1.09 3.35,-1.97 5.16,-2.64 1.81,-0.67 3.72,-1.01 5.73,-1.01 3.01,0 5.59,1.01 7.77,3.04 2.11,1.99 3.17,4.4 3.17,7.24 0,3.08 -1.09,5.96 -3.27,8.63 -1.04,1.29 -2.37,2.65 -3.98,4.12 -1.62,1.46 -3.56,3.14 -5.84,5.03l13.81 0 0 5.55c-3.89,0 -7.78,0 -11.66,0 -3.88,0 -7.76,0 -11.64,0l0 -5.26c2.07,-1.73 4.2,-3.52 6.42,-5.38 2.21,-1.85 4.24,-3.75 6.1,-5.71 2.58,-2.71 3.87,-5.03 3.87,-6.98 0,-1.27 -0.47,-2.37 -1.42,-3.32 -0.95,-0.96 -2.06,-1.43 -3.33,-1.43 -1.83,0 -3.5,0.35 -5.01,1.05 -1.51,0.7 -2.98,1.53 -4.44,2.48z"/>
 </g>
</svg>
