<?xml version="1.0" encoding="UTF-8"?>
<!DOCTYPE svg PUBLIC "-//W3C//DTD SVG 1.1//EN" "http://www.w3.org/Graphics/SVG/1.1/DTD/svg11.dtd">
<!-- Creator: CorelDRAW 2019 (64-Bit) -->
<svg xmlns="http://www.w3.org/2000/svg" xml:space="preserve" width="591px" height="591px" version="1.1" style="shape-rendering:geometricPrecision; text-rendering:geometricPrecision; image-rendering:optimizeQuality; fill-rule:evenodd; clip-rule:evenodd"
viewBox="0 0 78.66 78.66"
 xmlns:xlink="http://www.w3.org/1999/xlink">
 <defs>
  <style type="text/css">
   <![CDATA[
    .fil0 {fill:#0E4F95}
    .fil1 {fill:#FEFEFE;fill-rule:nonzero}
   ]]>
  </style>
 </defs>
 <g id="Layer_x0020_1">
  <metadata id="CorelCorpID_0Corel-Layer"/>
  <g id="_2527460201360">
   <circle class="fil0" cx="39.33" cy="39.33" r="39.33"/>
  </g>
  <path class="fil1" d="M11.25 50.69c1.52,0.96 3.33,1.73 5.42,2.31 2.09,0.59 4.25,0.77 6.48,0.56 1.87,-0.18 3.67,-0.78 5.39,-1.8 1.71,-1.03 2.75,-2.57 3.11,-4.63 0.38,-2.34 -0.07,-4.23 -1.39,-5.68 -1.3,-1.45 -2.86,-2.42 -4.67,-2.92 -1.52,-0.35 -3.19,-0.47 -4.99,-0.34 -1.8,0.11 -3.45,0.36 -4.94,0.71 -0.54,0.15 -1.02,0.29 -1.49,0.45 -0.46,0.16 -0.94,0.29 -1.43,0.4l2.55 -20.13 19.91 0 0 5.28 -15.51 0 -1.11 8.91c0.32,-0.04 0.63,-0.1 0.96,-0.19 0.32,-0.08 0.65,-0.17 1.01,-0.24 0.67,-0.11 1.37,-0.16 2.12,-0.16 4.39,-0.11 8.02,0.97 10.88,3.23 0.75,0.65 1.47,1.41 2.16,2.29 0.69,0.89 1.23,1.97 1.61,3.24 0.37,1.24 0.54,2.62 0.54,4.15 0,1.52 -0.21,2.86 -0.64,4.03 -0.88,2.3 -2.25,4.13 -4.11,5.49 -1.86,1.37 -3.94,2.3 -6.25,2.8 -1.84,0.42 -3.9,0.58 -6.21,0.48 -2.3,-0.11 -4.36,-0.48 -6.16,-1.12 -0.96,-0.35 -1.77,-0.69 -2.45,-1.01 -0.06,-0.03 -0.33,-0.18 -0.79,-0.42l0 -5.69z"/>
  <path id="1" class="fil1" d="M46.84 35.19l8.87 -10.62 -14.23 0 0 -4.95 24.91 0 -11.69 13.87c4.61,0.39 8.1,2.19 10.46,5.42 1.6,2.27 2.24,4.98 1.94,8.13 -0.3,3.16 -1.4,5.67 -3.32,7.54 -0.77,0.72 -1.36,1.21 -1.74,1.5 -2.77,1.95 -6.1,2.92 -9.99,2.92 -2.48,0 -4.66,-0.25 -6.54,-0.74 -0.78,-0.22 -1.57,-0.48 -2.36,-0.78 -0.79,-0.3 -1.51,-0.67 -2.15,-1.09 -0.32,-0.07 -0.48,-0.2 -0.48,-0.37 0,-0.43 0,-1.44 0,-3.01 0,-1.58 0,-2.51 0,-2.8 1.59,1.07 3.16,1.87 4.7,2.42 1.54,0.55 3.35,0.88 5.45,0.98 1.84,0.11 3.65,-0.15 5.44,-0.77 1.79,-0.61 3.16,-1.72 4.11,-3.31 1.04,-1.64 1.3,-3.49 0.8,-5.58 -0.28,-0.95 -0.69,-1.76 -1.22,-2.42 -0.53,-0.65 -1.1,-1.21 -1.7,-1.67 -1.06,-0.78 -2.36,-1.27 -3.88,-1.46 -1.52,-0.2 -2.97,-0.19 -4.35,0.03 -1.17,0.14 -2.18,0.41 -3.03,0.8l0 -4.04z"/>
 </g>
</svg>
