<?xml version="1.0" encoding="UTF-8"?>
<!DOCTYPE svg PUBLIC "-//W3C//DTD SVG 1.1//EN" "http://www.w3.org/Graphics/SVG/1.1/DTD/svg11.dtd">
<!-- Creator: CorelDRAW 2021.5 -->
<svg xmlns="http://www.w3.org/2000/svg" xml:space="preserve" width="590px" height="590px" version="1.1" style="shape-rendering:geometricPrecision; text-rendering:geometricPrecision; image-rendering:optimizeQuality; fill-rule:evenodd; clip-rule:evenodd"
viewBox="0 0 87.07 87.07"
 xmlns:xlink="http://www.w3.org/1999/xlink"
 xmlns:xodm="http://www.corel.com/coreldraw/odm/2003">
 <defs>
  <style type="text/css">
   <![CDATA[
    .fil0 {fill:#0E4F95}
    .fil1 {fill:white;fill-rule:nonzero}
   ]]>
  </style>
 </defs>
 <g id="Layer_x0020_1">
  <metadata id="CorelCorpID_0Corel-Layer"/>
  <circle class="fil0" cx="43.53" cy="43.53" r="43.53"/>
  <path class="fil1" d="M22.11 28.9l-1.01 8.16c1.26,-0.26 2.48,-0.41 3.66,-0.45 2.39,-0.07 4.58,0.15 6.57,0.7 3.53,1.03 6.3,2.89 8.27,5.58 1.72,2.37 2.55,5.24 2.49,8.61 -0.07,4.39 -1.81,7.96 -5.21,10.7 -2.05,1.62 -4.32,2.72 -6.84,3.28 -2.52,0.58 -5.05,0.8 -7.59,0.68 -2.55,-0.17 -4.83,-0.59 -6.87,-1.29 -1.34,-0.46 -2.68,-1.03 -4.02,-1.71l0 -7.98c2.14,1.3 4.3,2.3 6.49,2.98 2.19,0.7 4.58,0.92 7.16,0.68 1.88,-0.18 3.7,-0.78 5.48,-1.79 1.79,-1.03 2.85,-2.56 3.19,-4.63 0.36,-2.16 -0.06,-4 -1.26,-5.52 -1.2,-1.52 -2.83,-2.55 -4.86,-3.08 -1.62,-0.42 -3.38,-0.57 -5.29,-0.41 -1.89,0.15 -3.63,0.43 -5.21,0.83 -0.7,0.17 -1.4,0.37 -2.1,0.58 -0.7,0.21 -1.39,0.4 -2.08,0.58l3 -23.7 23.07 0 0 7.2 -17.04 0z"/>
  <path class="fil1" d="M61.76 28.69l-14.58 0 0 -6.99 29.67 0 -12.83 15.28c2.03,0.32 3.83,0.87 5.36,1.68 1.99,1.01 3.67,2.49 5.05,4.4 1.83,2.62 2.6,5.73 2.27,9.33 -0.3,3.6 -1.59,6.51 -3.87,8.73 -1.77,1.74 -3.83,3.04 -6.14,3.9 -2.14,0.78 -4.55,1.17 -7.2,1.17 -1,0 -2.15,-0.07 -3.44,-0.21 -1.29,-0.14 -2.59,-0.38 -3.91,-0.69 -2.39,-0.64 -4.28,-1.48 -5.7,-2.52l-0.33 -0.24 0.03 -8.22 1.26 0.81c1.78,1.16 3.43,2.01 4.94,2.55 1.72,0.58 3.62,0.91 5.68,0.99 2.24,0.1 4.23,-0.21 6,-0.93 1.63,-0.72 2.86,-1.75 3.68,-3.09 0.44,-0.7 0.75,-1.57 0.9,-2.61 0.13,-1.01 0.07,-1.97 -0.14,-2.85 -0.1,-0.4 -0.22,-0.71 -0.34,-0.96 -0.84,-2.02 -2.53,-3.41 -5.07,-4.17 -2.29,-0.67 -4.73,-0.68 -7.29,-0.03 -0.67,0.19 -1.23,0.37 -1.65,0.58l-1.1 0.48 -0.03 -5.92 8.78 -10.47z"/>
 </g>
</svg>
