<?xml version="1.0" encoding="UTF-8"?>
<!DOCTYPE svg PUBLIC "-//W3C//DTD SVG 1.1//EN" "http://www.w3.org/Graphics/SVG/1.1/DTD/svg11.dtd">
<!-- Creator: CorelDRAW 2021.5 -->
<svg xmlns="http://www.w3.org/2000/svg" xml:space="preserve" width="590px" height="590px" version="1.1" style="shape-rendering:geometricPrecision; text-rendering:geometricPrecision; image-rendering:optimizeQuality; fill-rule:evenodd; clip-rule:evenodd"
viewBox="0 0 128.92 128.93"
 xmlns:xlink="http://www.w3.org/1999/xlink"
 xmlns:xodm="http://www.corel.com/coreldraw/odm/2003">
 <defs>
  <style type="text/css">
   <![CDATA[
    .fil0 {fill:#0E4F95}
    .fil1 {fill:white;fill-rule:nonzero}
   ]]>
  </style>
 </defs>
 <g id="Layer_x0020_1">
  <metadata id="CorelCorpID_0Corel-Layer"/>
  <circle class="fil0" cx="64.46" cy="64.46" r="64.46"/>
  <path class="fil1" d="M33.32 42.79l-1.5 12.09c1.87,-0.38 3.67,-0.61 5.41,-0.67 3.55,-0.11 6.8,0.23 9.74,1.03 5.23,1.53 9.32,4.29 12.25,8.26 2.54,3.52 3.77,7.76 3.68,12.75 -0.1,6.51 -2.68,11.8 -7.72,15.85 -3.03,2.41 -6.39,4.03 -10.12,4.86 -3.73,0.85 -7.48,1.18 -11.24,1 -3.77,-0.24 -7.15,-0.86 -10.17,-1.91 -1.99,-0.68 -3.97,-1.51 -5.96,-2.53l0 -11.81c3.17,1.93 6.37,3.4 9.61,4.41 3.25,1.03 6.78,1.37 10.6,1 2.79,-0.26 5.49,-1.15 8.13,-2.65 2.63,-1.52 4.21,-3.79 4.71,-6.85 0.53,-3.2 -0.09,-5.92 -1.86,-8.17 -1.78,-2.25 -4.19,-3.78 -7.2,-4.57 -2.4,-0.62 -5.01,-0.83 -7.83,-0.6 -2.8,0.22 -5.38,0.63 -7.71,1.22 -1.05,0.26 -2.08,0.55 -3.11,0.87 -1.05,0.3 -2.06,0.59 -3.08,0.86l4.44 -35.1 34.16 0 0 10.66 -25.23 0z"/>
  <path class="fil1" d="M97.3 96.81l0 -16.39 -29.09 0 0 -9.82 29.62 -38.47 11.19 0 0 37.77 6.4 0 0 10.52 -6.4 0 0 16.39 -11.72 0zm0 -26.91l0 -20.53 -16.25 20.53 16.25 0z"/>
 </g>
</svg>
