<?xml version="1.0" encoding="UTF-8"?>
<!DOCTYPE svg PUBLIC "-//W3C//DTD SVG 1.1//EN" "http://www.w3.org/Graphics/SVG/1.1/DTD/svg11.dtd">
<!-- Creator: CorelDRAW 2019 (64-Bit) -->
<svg xmlns="http://www.w3.org/2000/svg" xml:space="preserve" width="591px" height="591px" version="1.1" style="shape-rendering:geometricPrecision; text-rendering:geometricPrecision; image-rendering:optimizeQuality; fill-rule:evenodd; clip-rule:evenodd"
viewBox="0 0 60.84 60.84"
 xmlns:xlink="http://www.w3.org/1999/xlink">
 <defs>
  <style type="text/css">
   <![CDATA[
    .fil0 {fill:#0E4F95}
    .fil1 {fill:#FEFEFE;fill-rule:nonzero}
   ]]>
  </style>
 </defs>
 <g id="Layer_x0020_1">
  <metadata id="CorelCorpID_0Corel-Layer"/>
  <g id="_2527532191264">
   <circle class="fil0" cx="30.42" cy="30.42" r="30.42"/>
  </g>
  <path class="fil1" d="M8.81 39.21c1.17,0.74 2.57,1.34 4.19,1.78 1.62,0.46 3.28,0.6 5.01,0.44 1.45,-0.14 2.84,-0.6 4.17,-1.4 1.33,-0.79 2.13,-1.98 2.41,-3.57 0.29,-1.81 -0.06,-3.28 -1.08,-4.4 -1.01,-1.12 -2.21,-1.87 -3.61,-2.26 -1.18,-0.27 -2.47,-0.36 -3.86,-0.26 -1.4,0.09 -2.67,0.28 -3.82,0.55 -0.42,0.11 -0.79,0.23 -1.15,0.35 -0.36,0.12 -0.73,0.23 -1.11,0.31l1.97 -15.57 15.41 0 0 4.08 -12 0 -0.86 6.89c0.24,-0.03 0.49,-0.08 0.74,-0.15 0.24,-0.06 0.5,-0.12 0.78,-0.18 0.52,-0.08 1.06,-0.13 1.64,-0.13 3.4,-0.08 6.2,0.75 8.42,2.51 0.57,0.5 1.13,1.08 1.67,1.76 0.53,0.69 0.95,1.53 1.25,2.51 0.28,0.96 0.41,2.03 0.41,3.21 0,1.18 -0.16,2.21 -0.49,3.12 -0.69,1.78 -1.75,3.2 -3.18,4.25 -1.44,1.06 -3.05,1.77 -4.84,2.16 -1.42,0.33 -3.02,0.45 -4.8,0.37 -1.78,-0.08 -3.37,-0.37 -4.77,-0.86 -0.74,-0.28 -1.36,-0.54 -1.89,-0.79 -0.05,-0.02 -0.26,-0.13 -0.61,-0.32l0 -4.4z"/>
  <path id="1" class="fil1" d="M31.45 39.21c1.17,0.74 2.57,1.34 4.19,1.78 1.62,0.46 3.29,0.6 5.01,0.44 1.45,-0.14 2.84,-0.6 4.17,-1.4 1.33,-0.79 2.13,-1.98 2.41,-3.57 0.29,-1.81 -0.06,-3.28 -1.08,-4.4 -1.01,-1.12 -2.21,-1.87 -3.61,-2.26 -1.17,-0.27 -2.46,-0.36 -3.86,-0.26 -1.4,0.09 -2.67,0.28 -3.82,0.55 -0.42,0.11 -0.79,0.23 -1.15,0.35 -0.36,0.12 -0.73,0.23 -1.11,0.31l1.97 -15.57 15.41 0 0 4.08 -12 0 -0.86 6.89c0.24,-0.03 0.49,-0.08 0.74,-0.15 0.25,-0.06 0.5,-0.12 0.78,-0.18 0.52,-0.08 1.06,-0.13 1.64,-0.13 3.4,-0.08 6.2,0.75 8.42,2.51 0.57,0.5 1.14,1.08 1.67,1.76 0.53,0.69 0.95,1.53 1.25,2.51 0.28,0.96 0.41,2.03 0.41,3.21 0,1.18 -0.16,2.21 -0.49,3.12 -0.69,1.78 -1.75,3.2 -3.18,4.25 -1.44,1.06 -3.05,1.77 -4.83,2.16 -1.43,0.33 -3.03,0.45 -4.81,0.37 -1.78,-0.08 -3.37,-0.37 -4.77,-0.86 -0.74,-0.28 -1.36,-0.54 -1.89,-0.79 -0.05,-0.02 -0.26,-0.13 -0.61,-0.32l0 -4.4z"/>
 </g>
</svg>
