<?xml version="1.0" encoding="UTF-8"?>
<!DOCTYPE svg PUBLIC "-//W3C//DTD SVG 1.1//EN" "http://www.w3.org/Graphics/SVG/1.1/DTD/svg11.dtd">
<!-- Creator: CorelDRAW 2019 (64-Bit) -->
<svg xmlns="http://www.w3.org/2000/svg" xml:space="preserve" width="591px" height="591px" version="1.1" style="shape-rendering:geometricPrecision; text-rendering:geometricPrecision; image-rendering:optimizeQuality; fill-rule:evenodd; clip-rule:evenodd"
viewBox="0 0 78.66 78.66"
 xmlns:xlink="http://www.w3.org/1999/xlink">
 <defs>
  <style type="text/css">
   <![CDATA[
    .fil0 {fill:#0E4F95}
    .fil1 {fill:#FEFEFE;fill-rule:nonzero}
   ]]>
  </style>
 </defs>
 <g id="Layer_x0020_1">
  <metadata id="CorelCorpID_0Corel-Layer"/>
  <g id="_2527465287200">
   <circle class="fil0" cx="39.33" cy="39.33" r="39.33"/>
  </g>
  <path class="fil1" d="M10.13 51.14c1.52,0.96 3.33,1.73 5.42,2.31 2.09,0.59 4.25,0.77 6.48,0.56 1.87,-0.18 3.67,-0.78 5.39,-1.81 1.71,-1.02 2.75,-2.56 3.11,-4.62 0.38,-2.34 -0.07,-4.23 -1.39,-5.68 -1.3,-1.45 -2.86,-2.42 -4.67,-2.92 -1.52,-0.35 -3.19,-0.47 -4.99,-0.35 -1.8,0.12 -3.45,0.37 -4.94,0.72 -0.54,0.15 -1.02,0.29 -1.49,0.45 -0.46,0.16 -0.94,0.29 -1.43,0.4l2.55 -20.13 19.91 0 0 5.28 -15.51 0 -1.11 8.91c0.32,-0.04 0.63,-0.1 0.96,-0.19 0.32,-0.09 0.65,-0.17 1.01,-0.24 0.67,-0.11 1.37,-0.16 2.12,-0.16 4.39,-0.11 8.02,0.97 10.88,3.23 0.75,0.65 1.47,1.41 2.16,2.29 0.69,0.89 1.23,1.96 1.61,3.24 0.37,1.24 0.54,2.62 0.54,4.15 0,1.52 -0.21,2.86 -0.63,4.03 -0.89,2.3 -2.26,4.13 -4.12,5.49 -1.86,1.37 -3.94,2.3 -6.25,2.79 -1.84,0.43 -3.9,0.59 -6.21,0.48 -2.3,-0.1 -4.36,-0.48 -6.16,-1.11 -0.96,-0.35 -1.77,-0.69 -2.45,-1.02 -0.06,-0.02 -0.33,-0.17 -0.79,-0.41l0 -5.69z"/>
  <path id="1" class="fil1" d="M65.4 27.3c-0.25,-0.11 -0.48,-0.24 -0.7,-0.42 -1.62,-1.03 -3.55,-1.67 -5.78,-1.92 -1.84,-0.2 -3.62,-0.03 -5.34,0.54 -1.72,0.56 -3.14,1.54 -4.28,2.92 -2.19,2.69 -3.34,5.92 -3.45,9.67 0.07,-0.04 0.16,-0.13 0.27,-0.27 0.1,-0.14 0.21,-0.26 0.32,-0.37 0.28,-0.28 0.55,-0.56 0.82,-0.82 0.27,-0.27 0.61,-0.52 1.04,-0.77 1.09,-0.72 2.15,-1.21 3.18,-1.5 2.56,-0.67 5.09,-0.72 7.62,-0.15 2.54,0.56 4.65,1.82 6.35,3.77 1.56,1.88 2.47,4.05 2.75,6.54 0.32,3.19 -0.12,5.83 -1.35,7.94 -1.21,2.11 -2.67,3.73 -4.36,4.87 -1.98,1.26 -4.38,1.97 -7.17,2.12 -1.28,0 -2.62,-0.12 -4.04,-0.35 -1.41,-0.23 -2.66,-0.62 -3.72,-1.19 -0.28,-0.15 -0.54,-0.28 -0.79,-0.43 -0.25,-0.14 -0.49,-0.3 -0.69,-0.48 -0.11,-0.06 -0.21,-0.14 -0.32,-0.21 -0.11,-0.07 -0.22,-0.16 -0.32,-0.26 -1.03,-0.78 -1.95,-1.81 -2.76,-3.08 -1.24,-1.88 -2.11,-4.14 -2.6,-6.76 -0.47,-2.54 -0.58,-5.34 -0.32,-8.36 0.24,-3.03 0.85,-5.66 1.8,-7.89 0.39,-0.96 0.76,-1.75 1.12,-2.37 0.35,-0.62 0.81,-1.34 1.37,-2.14 0.5,-0.76 1.04,-1.41 1.6,-1.97 0.57,-0.65 1.17,-1.19 1.8,-1.65 2.13,-1.56 4.5,-2.49 7.13,-2.81 2.62,-0.33 5.2,-0.07 7.75,0.74 0.43,0.14 0.97,0.37 1.64,0.69l1.43 0.85 0 5.52zm-19.47 19.38c0.39,2.23 1.33,4.06 2.82,5.47 1.49,1.42 3.42,2.08 5.78,1.97 2.38,-0.04 4.24,-0.84 5.59,-2.39 0.17,-0.11 0.33,-0.27 0.47,-0.48 0.25,-0.35 0.39,-0.55 0.43,-0.59 0.29,-0.41 0.51,-0.86 0.68,-1.32 0.93,-2.27 0.86,-4.48 -0.2,-6.64 -0.25,-0.42 -0.68,-0.98 -1.28,-1.69 -1.84,-1.8 -4.07,-2.57 -6.69,-2.29 -1.91,0.25 -3.57,0.94 -5,2.07 -0.95,0.71 -1.71,1.6 -2.28,2.66 -0.35,0.74 -0.53,1.27 -0.53,1.57 0,0.29 0.08,0.85 0.21,1.66z"/>
 </g>
</svg>
