<?xml version="1.0" encoding="UTF-8"?>
<!DOCTYPE svg PUBLIC "-//W3C//DTD SVG 1.1//EN" "http://www.w3.org/Graphics/SVG/1.1/DTD/svg11.dtd">
<!-- Creator: CorelDRAW 2021.5 -->
<svg xmlns="http://www.w3.org/2000/svg" xml:space="preserve" width="590px" height="590px" version="1.1" style="shape-rendering:geometricPrecision; text-rendering:geometricPrecision; image-rendering:optimizeQuality; fill-rule:evenodd; clip-rule:evenodd"
viewBox="0 0 3346.36 3346.38"
 xmlns:xlink="http://www.w3.org/1999/xlink"
 xmlns:xodm="http://www.corel.com/coreldraw/odm/2003">
 <defs>
  <style type="text/css">
   <![CDATA[
    .fil0 {fill:#0E4F95}
    .fil1 {fill:white;fill-rule:nonzero}
   ]]>
  </style>
 </defs>
 <g id="Layer_x0020_1">
  <metadata id="CorelCorpID_0Corel-Layer"/>
  <ellipse class="fil0" cx="1673.18" cy="1673.18" rx="1673.18" ry="1673.19"/>
  <path class="fil1" d="M844.64 1109.29l-38.95 313.62c48.41,-9.83 95.24,-15.72 140.48,-17.31 92.08,-2.75 176.29,5.9 252.64,26.77 135.76,39.74 242.01,111.35 317.95,214.45 66.11,91.29 97.98,201.49 95.63,330.94 -2.77,168.82 -69.66,306.14 -200.3,411.22 -78.71,62.56 -166.07,104.67 -262.86,126.31 -96.81,22.03 -194.01,30.7 -291.59,25.97 -98,-6.29 -185.74,-22.42 -264.04,-49.58 -51.55,-17.7 -103.1,-39.35 -154.66,-65.71l0 -306.54c82.24,49.98 165.28,88.14 249.49,114.51 84.22,26.76 175.89,35.41 275.06,25.97 72.4,-6.69 142.45,-29.92 210.92,-68.87 68.47,-39.35 109.39,-98.38 122.38,-177.86 13.77,-83.04 -2.36,-153.46 -48.41,-212.11 -46.03,-58.23 -108.6,-97.98 -186.91,-118.44 -62.17,-16.13 -129.85,-21.64 -203.04,-15.73 -72.8,5.89 -139.69,16.51 -200.3,31.87 -27.15,6.68 -53.91,14.16 -80.68,22.42 -27.14,7.88 -53.51,15.35 -79.88,22.44l115.3 -910.97 886.58 0 0 276.63 -654.81 0z"/>
  <path class="fil1" d="M2073.93 1542.93c55.49,-53.12 121.19,-89.71 197.14,-110.56 117.66,-31.49 232.96,-33.45 345.9,-5.91 109.39,28.33 199.11,83.81 269.93,166.06 69.66,82.24 110.59,179.44 122,291.59 11.81,120.02 -3.94,227.44 -47.22,323.06 -43.69,98.38 -112.54,178.66 -206.2,240.84 -90.11,59.01 -195.18,90.5 -315.99,94.43 -55.48,1.58 -113.72,-3.14 -175.11,-13.77 -61.78,-10.62 -116.47,-29.13 -164.88,-55.48 -92.48,-51.55 -163.69,-117.27 -214.45,-197.15 -54.7,-81.45 -92.88,-179.05 -114.13,-292.78 -20.85,-111.35 -25.57,-232.15 -13.77,-362.01 10.62,-127.49 36.61,-240.05 78.31,-337.63 27.55,-66.89 62.57,-131.83 104.29,-194.39 41.71,-62.58 92.86,-115.7 152.67,-159.77 88.55,-66.11 190.06,-107.04 304.57,-123.17 113.73,-14.55 229.03,-3.93 345.5,32.28 25.58,9.03 50.38,20.46 75.16,33.83 24.4,13.77 49.19,26.76 73.59,39.74l-1.17 293.18c-57.46,-29.52 -105.46,-53.91 -144.03,-73.99 -38.17,-20.06 -90.91,-33.83 -157.8,-41.31 -76.73,-9.46 -149.53,-1.58 -218,22.82 -89.72,32.26 -158.99,89.71 -206.99,171.95 -48,82.26 -77.52,168.43 -89.32,258.14zm433.65 142.86c-83.05,-27.56 -165.28,-24.01 -246.73,10.62 -83.04,33.84 -142.84,86.17 -179.84,157.78 -11.41,23.23 -17.7,40.14 -18.49,51.17 -0.78,11.41 1.17,28.33 5.89,51.55 7.48,46.03 19.68,88.93 36.61,128.29 16.92,39.73 44.07,74.75 80.67,105.46 60.2,52.32 133,76.73 219.18,72.78 88.53,-2.36 161.33,-32.26 218.39,-90.5 57.46,-57.84 84.61,-133 81.45,-225.48 -5.5,-132.22 -71.21,-219.17 -197.13,-261.67z"/>
 </g>
</svg>
