<?xml version="1.0" encoding="UTF-8"?>
<!DOCTYPE svg PUBLIC "-//W3C//DTD SVG 1.1//EN" "http://www.w3.org/Graphics/SVG/1.1/DTD/svg11.dtd">
<!-- Creator: CorelDRAW 2021.5 -->
<svg xmlns="http://www.w3.org/2000/svg" xml:space="preserve" width="590px" height="590px" version="1.1" style="shape-rendering:geometricPrecision; text-rendering:geometricPrecision; image-rendering:optimizeQuality; fill-rule:evenodd; clip-rule:evenodd"
viewBox="0 0 291.55 291.55"
 xmlns:xlink="http://www.w3.org/1999/xlink"
 xmlns:xodm="http://www.corel.com/coreldraw/odm/2003">
 <defs>
  <style type="text/css">
   <![CDATA[
    .fil0 {fill:#0E4F95}
    .fil1 {fill:white;fill-rule:nonzero}
   ]]>
  </style>
 </defs>
 <g id="Layer_x0020_1">
  <metadata id="CorelCorpID_0Corel-Layer"/>
  <circle class="fil0" cx="145.77" cy="145.77" r="145.77"/>
  <path class="fil1" d="M77.1 96.65l-3.39 27.32c4.22,-0.86 8.3,-1.37 12.24,-1.51 8.02,-0.24 15.36,0.51 22.01,2.33 11.83,3.46 21.08,9.7 27.7,18.69 5.76,7.95 8.54,17.55 8.33,28.83 -0.24,14.71 -6.07,26.67 -17.45,35.83 -6.86,5.45 -14.47,9.12 -22.9,11 -8.43,1.92 -16.9,2.68 -25.4,2.26 -8.54,-0.55 -16.19,-1.95 -23.01,-4.32 -4.49,-1.54 -8.98,-3.42 -13.47,-5.72l0 -26.71c7.16,4.36 14.4,7.68 21.73,9.98 7.34,2.33 15.33,3.08 23.97,2.26 6.3,-0.58 12.41,-2.61 18.37,-6 5.97,-3.43 9.53,-8.57 10.67,-15.49 1.2,-7.24 -0.21,-13.38 -4.22,-18.48 -4.01,-5.08 -9.46,-8.54 -16.29,-10.32 -5.41,-1.41 -11.31,-1.89 -17.69,-1.37 -6.34,0.51 -12.17,1.43 -17.45,2.77 -2.36,0.58 -4.69,1.24 -7.03,1.96 -2.36,0.68 -4.66,1.33 -6.96,1.95l10.05 -79.37 77.24 0 0 24.11 -57.05 0z"/>
  <path class="fil1" d="M219.12 97.06l-64.59 0 0 -24.52 104.46 0c-10.83,24.38 -21.67,48.79 -32.43,73.2 -10.8,24.41 -21.57,48.75 -32.36,73.06l-28.91 -0.11 53.83 -121.63z"/>
 </g>
</svg>
