<?xml version="1.0" encoding="UTF-8"?>
<!DOCTYPE svg PUBLIC "-//W3C//DTD SVG 1.1//EN" "http://www.w3.org/Graphics/SVG/1.1/DTD/svg11.dtd">
<!-- Creator: CorelDRAW 2019 (64-Bit) -->
<svg xmlns="http://www.w3.org/2000/svg" xml:space="preserve" width="591px" height="591px" version="1.1" style="shape-rendering:geometricPrecision; text-rendering:geometricPrecision; image-rendering:optimizeQuality; fill-rule:evenodd; clip-rule:evenodd"
viewBox="0 0 111.22 111.22"
 xmlns:xlink="http://www.w3.org/1999/xlink">
 <defs>
  <style type="text/css">
   <![CDATA[
    .fil0 {fill:#0E4F95}
    .fil1 {fill:#FEFEFE;fill-rule:nonzero}
   ]]>
  </style>
 </defs>
 <g id="Layer_x0020_1">
  <metadata id="CorelCorpID_0Corel-Layer"/>
  <g id="_2527502621248">
   <circle class="fil0" cx="55.61" cy="55.61" r="55.61"/>
  </g>
  <path class="fil1" d="M18.02 71.72c2.14,1.35 4.7,2.44 7.65,3.26 2.96,0.83 6.01,1.09 9.17,0.79 2.65,-0.25 5.19,-1.1 7.62,-2.55 2.43,-1.44 3.89,-3.62 4.4,-6.53 0.54,-3.31 -0.1,-5.99 -1.96,-8.04 -1.85,-2.05 -4.05,-3.42 -6.6,-4.13 -2.16,-0.5 -4.51,-0.66 -7.07,-0.49 -2.55,0.17 -4.88,0.52 -6.98,1.02 -0.76,0.2 -1.45,0.41 -2.1,0.64 -0.66,0.22 -1.34,0.41 -2.03,0.56l3.6 -28.47 28.16 0 0 7.46 -21.93 0 -1.57 12.6c0.44,-0.05 0.89,-0.14 1.35,-0.27 0.45,-0.11 0.93,-0.23 1.43,-0.33 0.95,-0.15 1.95,-0.23 3,-0.23 6.21,-0.15 11.34,1.37 15.39,4.58 1.05,0.91 2.08,1.98 3.05,3.23 0.98,1.25 1.75,2.78 2.28,4.59 0.52,1.74 0.76,3.7 0.76,5.85 0,2.16 -0.29,4.05 -0.9,5.71 -1.25,3.25 -3.19,5.84 -5.82,7.77 -2.62,1.93 -5.57,3.24 -8.83,3.94 -2.6,0.61 -5.52,0.84 -8.78,0.68 -3.25,-0.15 -6.16,-0.68 -8.71,-1.57 -1.36,-0.5 -2.5,-0.98 -3.47,-1.44 -0.09,-0.04 -0.47,-0.24 -1.11,-0.59l0 -8.04z"/>
  <polygon id="1" class="fil1" points="63.31,82.47 84.11,35.4 58.65,35.4 58.65,27.71 96.74,27.71 72.55,82.47 "/>
 </g>
</svg>
