<?xml version="1.0" encoding="UTF-8"?>
<!DOCTYPE svg PUBLIC "-//W3C//DTD SVG 1.1//EN" "http://www.w3.org/Graphics/SVG/1.1/DTD/svg11.dtd">
<!-- Creator: CorelDRAW 2021.5 -->
<svg xmlns="http://www.w3.org/2000/svg" xml:space="preserve" width="590px" height="590px" version="1.1" style="shape-rendering:geometricPrecision; text-rendering:geometricPrecision; image-rendering:optimizeQuality; fill-rule:evenodd; clip-rule:evenodd"
viewBox="0 0 91.85 91.85"
 xmlns:xlink="http://www.w3.org/1999/xlink"
 xmlns:xodm="http://www.corel.com/coreldraw/odm/2003">
 <defs>
  <style type="text/css">
   <![CDATA[
    .fil0 {fill:#0E4F95}
    .fil1 {fill:white;fill-rule:nonzero}
   ]]>
  </style>
 </defs>
 <g id="Layer_x0020_1">
  <metadata id="CorelCorpID_0Corel-Layer"/>
  <circle class="fil0" cx="45.92" cy="45.92" r="45.92"/>
  <path class="fil1" d="M24.13 30.45l-1.07 8.6c1.33,-0.27 2.62,-0.43 3.86,-0.47 2.53,-0.08 4.84,0.16 6.93,0.73 3.73,1.09 6.65,3.06 8.73,5.89 1.82,2.51 2.69,5.53 2.63,9.08 -0.08,4.64 -1.92,8.41 -5.5,11.29 -2.16,1.72 -4.56,2.87 -7.22,3.47 -2.65,0.6 -5.32,0.84 -8,0.71 -2.69,-0.17 -5.1,-0.62 -7.25,-1.36 -1.41,-0.49 -2.83,-1.08 -4.24,-1.8l0 -8.42c2.26,1.37 4.54,2.42 6.85,3.14 2.31,0.74 4.82,0.98 7.55,0.72 1.98,-0.19 3.91,-0.82 5.79,-1.89 1.87,-1.08 3,-2.7 3.35,-4.88 0.38,-2.28 -0.06,-4.22 -1.32,-5.83 -1.27,-1.59 -2.99,-2.69 -5.13,-3.25 -1.71,-0.44 -3.57,-0.59 -5.58,-0.43 -2,0.16 -3.83,0.45 -5.5,0.88 -0.74,0.18 -1.47,0.38 -2.21,0.61 -0.74,0.22 -1.47,0.42 -2.19,0.62l3.16 -25.01 24.34 0 0 7.6 -17.98 0z"/>
  <path class="fil1" d="M72.94 53.24c0.4,-1.22 0.7,-2.5 0.92,-3.81 -1.61,1.46 -3.43,2.47 -5.44,3.02 -3.32,0.9 -6.47,0.95 -9.47,0.15 -3.03,-0.76 -5.52,-2.27 -7.44,-4.53 -1.91,-2.25 -3.03,-4.93 -3.35,-8.03 -0.3,-3.28 0.13,-6.22 1.3,-8.86 1.26,-2.85 3.2,-5.06 5.81,-6.66 2.6,-1.59 5.45,-2.44 8.55,-2.55 2.6,-0.07 5.08,0.31 7.44,1.12 2.36,0.81 4.45,2.2 6.24,4.17 2.31,2.61 3.88,5.96 4.67,10.06 0.58,3.12 0.71,6.43 0.38,9.93 -0.35,3.65 -1.07,6.75 -2.15,9.3 -0.8,1.84 -1.77,3.62 -2.92,5.34 -1.15,1.71 -2.54,3.18 -4.16,4.38 -2.45,1.77 -5.23,2.87 -8.35,3.33 -3.13,0.43 -6.29,0.15 -9.46,-0.87 -0.75,-0.2 -1.45,-0.49 -2.13,-0.88 -0.67,-0.38 -1.34,-0.76 -1.99,-1.13l0.04 -8.04c1.57,0.82 2.89,1.51 3.93,2.07 1.04,0.55 2.49,0.93 4.35,1.13 2.17,0.22 4.18,0.02 6.02,-0.64 1.83,-0.66 3.32,-1.7 4.49,-3.13 1.15,-1.44 2.06,-3.06 2.72,-4.87zm-7.08 -7.32c1.89,-0.18 3.67,-0.91 5.34,-2.18 1.05,-0.8 1.86,-1.76 2.43,-2.88 0.33,-0.61 0.49,-1.07 0.51,-1.37 0.02,-0.31 -0.02,-0.79 -0.13,-1.44 -0.51,-2.81 -1.59,-4.95 -3.25,-6.43 -1.63,-1.41 -3.63,-2.08 -6.02,-1.99 -2.49,0.08 -4.5,0.94 -6.05,2.57 -1.53,1.62 -2.26,3.65 -2.18,6.1 0.09,2.13 0.81,3.87 2.18,5.22 1.93,1.92 4.31,2.72 7.17,2.4z"/>
 </g>
</svg>
