<?xml version="1.0" encoding="UTF-8"?>
<!DOCTYPE svg PUBLIC "-//W3C//DTD SVG 1.1//EN" "http://www.w3.org/Graphics/SVG/1.1/DTD/svg11.dtd">
<!-- Creator: CorelDRAW 2021.5 -->
<svg xmlns="http://www.w3.org/2000/svg" xml:space="preserve" width="590px" height="590px" version="1.1" style="shape-rendering:geometricPrecision; text-rendering:geometricPrecision; image-rendering:optimizeQuality; fill-rule:evenodd; clip-rule:evenodd"
viewBox="0 0 248.29 248.29"
 xmlns:xlink="http://www.w3.org/1999/xlink"
 xmlns:xodm="http://www.corel.com/coreldraw/odm/2003">
 <defs>
  <style type="text/css">
   <![CDATA[
    .fil0 {fill:#0E4F95}
    .fil1 {fill:white;fill-rule:nonzero}
   ]]>
  </style>
 </defs>
 <g id="Layer_x0020_1">
  <metadata id="CorelCorpID_0Corel-Layer"/>
  <circle class="fil0" cx="124.14" cy="124.14" r="124.14"/>
  <path class="fil1" d="M77.32 81.34l-2.89 23.27c3.59,-0.73 7.06,-1.17 10.42,-1.28 6.83,-0.21 13.08,0.44 18.74,1.98 10.08,2.95 17.96,8.26 23.59,15.91 4.91,6.78 7.27,14.95 7.1,24.56 -0.2,12.52 -5.17,22.71 -14.86,30.51 -5.84,4.64 -12.32,7.77 -19.5,9.37 -7.19,1.64 -14.4,2.28 -21.64,1.93 -7.27,-0.47 -13.78,-1.66 -19.59,-3.68 -3.83,-1.31 -7.65,-2.92 -11.48,-4.88l0 -22.74c6.11,3.71 12.27,6.54 18.52,8.5 6.24,1.98 13.05,2.62 20.4,1.92 5.38,-0.49 10.57,-2.22 15.65,-5.11 5.08,-2.92 8.12,-7.3 9.08,-13.19 1.03,-6.16 -0.17,-11.39 -3.59,-15.74 -3.41,-4.32 -8.06,-7.27 -13.87,-8.79 -4.61,-1.2 -9.63,-1.6 -15.06,-1.17 -5.4,0.44 -10.37,1.23 -14.86,2.37 -2.02,0.49 -4,1.05 -5.99,1.66 -2.01,0.59 -3.97,1.14 -5.93,1.67l8.56 -67.59 65.78 0 0 20.52 -48.58 0z"/>
  <path class="fil1" d="M154.06 185.11l6.35 -18.84 30.34 0.03 6.28 18.81 15.47 0 -29.22 -86.73 -15.2 0 -29.22 86.73 15.2 0zm21.58 -64.06l9.95 29.78 -19.98 0 10.03 -29.78z"/>
 </g>
</svg>
