<?xml version="1.0" encoding="UTF-8"?>
<!DOCTYPE svg PUBLIC "-//W3C//DTD SVG 1.1//EN" "http://www.w3.org/Graphics/SVG/1.1/DTD/svg11.dtd">
<!-- Creator: CorelDRAW 2019 (64-Bit) -->
<svg xmlns="http://www.w3.org/2000/svg" xml:space="preserve" width="591px" height="591px" version="1.1" style="shape-rendering:geometricPrecision; text-rendering:geometricPrecision; image-rendering:optimizeQuality; fill-rule:evenodd; clip-rule:evenodd"
viewBox="0 0 189.82 189.83"
 xmlns:xlink="http://www.w3.org/1999/xlink">
 <defs>
  <style type="text/css">
   <![CDATA[
    .fil0 {fill:#0E4F95}
    .fil1 {fill:#FEFEFE;fill-rule:nonzero}
   ]]>
  </style>
 </defs>
 <g id="Layer_x0020_1">
  <metadata id="CorelCorpID_0Corel-Layer"/>
  <g id="_2527106106816">
   <circle class="fil0" cx="94.91" cy="94.91" r="94.91"/>
   <path class="fil1" d="M37.05 122.83c3.73,2.35 8.19,4.24 13.33,5.67 5.15,1.45 10.47,1.9 15.96,1.39 4.62,-0.45 9.04,-1.92 13.28,-4.45 4.22,-2.52 6.76,-6.31 7.66,-11.38 0.93,-5.76 -0.18,-10.43 -3.42,-14 -3.21,-3.57 -7.05,-5.96 -11.49,-7.18 -3.75,-0.87 -7.86,-1.16 -12.3,-0.85 -4.45,0.29 -8.51,0.89 -12.17,1.76 -1.32,0.36 -2.52,0.72 -3.66,1.12 -1.14,0.38 -2.32,0.71 -3.53,0.98l6.28 -49.58 49.04 0 0 12.99 -38.2 0 -2.74 21.95c0.78,-0.09 1.56,-0.25 2.36,-0.47 0.79,-0.2 1.61,-0.4 2.48,-0.58 1.65,-0.27 3.4,-0.4 5.23,-0.4 10.82,-0.27 19.75,2.38 26.8,7.96 1.83,1.59 3.62,3.46 5.32,5.63 1.69,2.19 3.03,4.84 3.97,7.99 0.89,3.04 1.32,6.45 1.32,10.2 0,3.75 -0.52,7.05 -1.57,9.93 -2.18,5.67 -5.55,10.18 -10.13,13.53 -4.58,3.37 -9.71,5.65 -15.38,6.88 -4.53,1.05 -9.62,1.45 -15.29,1.18 -5.67,-0.27 -10.74,-1.18 -15.18,-2.75 -2.36,-0.87 -4.35,-1.69 -6.03,-2.5 -0.15,-0.06 -0.82,-0.42 -1.94,-1.02l0 -14z"/>
   <path class="fil1" d="M106.72 141.54l22.58 -66.31 9.47 0 22.6 66.31 -9.48 0 -5.92 -17.35 -23.86 0 -5.92 17.35 -9.47 0zm36.25 -26.3l-8.93 -26.05 -8.92 26.05 17.85 0z"/>
  </g>
 </g>
</svg>
