<?xml version="1.0" encoding="UTF-8"?>
<!DOCTYPE svg PUBLIC "-//W3C//DTD SVG 1.1//EN" "http://www.w3.org/Graphics/SVG/1.1/DTD/svg11.dtd">
<!-- Creator: CorelDRAW 2019 (64-Bit) -->
<svg xmlns="http://www.w3.org/2000/svg" xml:space="preserve" width="591px" height="591px" version="1.1" style="shape-rendering:geometricPrecision; text-rendering:geometricPrecision; image-rendering:optimizeQuality; fill-rule:evenodd; clip-rule:evenodd"
viewBox="0 0 26.48 26.48"
 xmlns:xlink="http://www.w3.org/1999/xlink">
 <defs>
  <style type="text/css">
   <![CDATA[
    .fil0 {fill:#0E4F95}
    .fil1 {fill:#FEFEFE;fill-rule:nonzero}
   ]]>
  </style>
 </defs>
 <g id="Layer_x0020_1">
  <metadata id="CorelCorpID_0Corel-Layer"/>
  <g id="_1912824436496">
   <circle class="fil0" cx="13.24" cy="13.24" r="13.24"/>
  </g>
  <path class="fil1" d="M11.83 9.13c-0.09,-0.04 -0.17,-0.08 -0.24,-0.14 -0.56,-0.36 -1.22,-0.58 -1.99,-0.66 -0.63,-0.07 -1.24,-0.01 -1.83,0.18 -0.59,0.2 -1.08,0.53 -1.46,1 -0.76,0.93 -1.15,2.03 -1.19,3.32 0.03,-0.01 0.06,-0.04 0.1,-0.09 0.03,-0.05 0.07,-0.09 0.1,-0.13 0.1,-0.1 0.19,-0.19 0.29,-0.28 0.09,-0.09 0.21,-0.18 0.35,-0.26 0.38,-0.25 0.74,-0.42 1.09,-0.52 0.88,-0.23 1.75,-0.25 2.62,-0.05 0.87,0.19 1.59,0.63 2.17,1.29 0.54,0.65 0.85,1.39 0.95,2.24 0.11,1.1 -0.05,2.01 -0.47,2.73 -0.41,0.72 -0.91,1.28 -1.49,1.67 -0.68,0.43 -1.5,0.68 -2.46,0.72 -0.44,0 -0.9,-0.04 -1.39,-0.11 -0.48,-0.08 -0.91,-0.22 -1.27,-0.41 -0.1,-0.05 -0.19,-0.1 -0.27,-0.15 -0.09,-0.05 -0.17,-0.1 -0.24,-0.16 -0.04,-0.03 -0.07,-0.05 -0.11,-0.08 -0.04,-0.02 -0.07,-0.05 -0.11,-0.09 -0.35,-0.26 -0.67,-0.62 -0.95,-1.05 -0.42,-0.65 -0.72,-1.42 -0.89,-2.32 -0.16,-0.87 -0.19,-1.83 -0.11,-2.87 0.09,-1.04 0.3,-1.94 0.62,-2.7 0.14,-0.33 0.26,-0.6 0.38,-0.81 0.13,-0.22 0.28,-0.46 0.48,-0.74 0.17,-0.26 0.35,-0.48 0.54,-0.68 0.2,-0.22 0.4,-0.4 0.62,-0.56 0.73,-0.54 1.54,-0.86 2.45,-0.96 0.89,-0.12 1.78,-0.03 2.65,0.25 0.15,0.05 0.34,0.13 0.57,0.24l0.49 0.29 0 1.89zm-6.68 6.65c0.13,0.76 0.46,1.39 0.97,1.87 0.51,0.49 1.17,0.71 1.98,0.68 0.81,-0.02 1.45,-0.29 1.91,-0.82 0.06,-0.04 0.12,-0.09 0.17,-0.17 0.08,-0.12 0.13,-0.19 0.14,-0.2 0.1,-0.14 0.18,-0.29 0.24,-0.45 0.32,-0.78 0.29,-1.54 -0.07,-2.28 -0.09,-0.14 -0.23,-0.34 -0.44,-0.58 -0.63,-0.62 -1.4,-0.88 -2.3,-0.78 -0.65,0.08 -1.22,0.32 -1.71,0.71 -0.32,0.24 -0.59,0.54 -0.78,0.91 -0.12,0.25 -0.18,0.43 -0.18,0.54 0,0.1 0.02,0.29 0.07,0.57zm13.45 4.37c-1.65,0 -2.89,-0.66 -3.71,-2 -0.82,-1.34 -1.23,-2.96 -1.23,-4.87 0,-1.89 0.41,-3.52 1.23,-4.87 0.82,-1.35 2.06,-2.02 3.71,-2.02 1.64,0 2.87,0.67 3.69,2.02 0.83,1.35 1.24,2.98 1.24,4.87 0,1.91 -0.41,3.53 -1.24,4.87 -0.82,1.34 -2.05,2 -3.69,2zm0 -1.84c0.98,0 1.71,-0.49 2.18,-1.47 0.47,-0.98 0.7,-2.16 0.7,-3.56 0,-1.38 -0.23,-2.57 -0.7,-3.55 -0.47,-0.98 -1.2,-1.47 -2.18,-1.47 -1,0 -1.73,0.49 -2.2,1.47 -0.47,0.98 -0.7,2.17 -0.7,3.55 0,1.4 0.23,2.58 0.7,3.56 0.47,0.98 1.2,1.47 2.2,1.47z"/>
 </g>
</svg>
