<?xml version="1.0" encoding="UTF-8"?>
<!DOCTYPE svg PUBLIC "-//W3C//DTD SVG 1.1//EN" "http://www.w3.org/Graphics/SVG/1.1/DTD/svg11.dtd">
<!-- Creator: CorelDRAW 2021.5 -->
<svg xmlns="http://www.w3.org/2000/svg" xml:space="preserve" width="590px" height="590px" version="1.1" style="shape-rendering:geometricPrecision; text-rendering:geometricPrecision; image-rendering:optimizeQuality; fill-rule:evenodd; clip-rule:evenodd"
viewBox="0 0 44.11 44.11"
 xmlns:xlink="http://www.w3.org/1999/xlink"
 xmlns:xodm="http://www.corel.com/coreldraw/odm/2003">
 <defs>
  <style type="text/css">
   <![CDATA[
    .fil0 {fill:#0E4F95}
    .fil1 {fill:white;fill-rule:nonzero}
   ]]>
  </style>
 </defs>
 <g id="Layer_x0020_1">
  <metadata id="CorelCorpID_0Corel-Layer"/>
  <circle class="fil0" cx="22.05" cy="22.05" r="22.05"/>
  <path class="fil1" d="M8.84 20.35c0.73,-0.7 1.59,-1.18 2.59,-1.46 1.56,-0.41 3.07,-0.44 4.56,-0.08 1.45,0.38 2.63,1.11 3.56,2.19 0.92,1.09 1.46,2.37 1.61,3.85 0.16,1.58 -0.05,2.99 -0.62,4.25 -0.58,1.3 -1.49,2.36 -2.72,3.18 -1.19,0.78 -2.57,1.19 -4.17,1.24 -0.73,0.02 -1.49,-0.04 -2.3,-0.18 -0.82,-0.14 -1.54,-0.38 -2.18,-0.73 -1.22,-0.68 -2.15,-1.54 -2.82,-2.6 -0.72,-1.07 -1.23,-2.36 -1.51,-3.86 -0.27,-1.46 -0.34,-3.06 -0.18,-4.77 0.14,-1.68 0.48,-3.16 1.03,-4.45 0.37,-0.88 0.83,-1.74 1.38,-2.56 0.55,-0.83 1.22,-1.53 2.01,-2.11 1.17,-0.87 2.5,-1.41 4.01,-1.62 1.5,-0.19 3.02,-0.05 4.56,0.43 0.34,0.11 0.66,0.26 0.99,0.44 0.32,0.18 0.65,0.35 0.97,0.53l-0.02 3.86c-0.75,-0.39 -1.39,-0.71 -1.9,-0.98 -0.5,-0.26 -1.19,-0.44 -2.08,-0.54 -1.01,-0.12 -1.97,-0.02 -2.87,0.3 -1.18,0.43 -2.09,1.18 -2.73,2.27 -0.63,1.08 -1.02,2.22 -1.17,3.4zm5.71 1.88c-1.09,-0.36 -2.18,-0.31 -3.25,0.14 -1.09,0.45 -1.88,1.14 -2.37,2.08 -0.15,0.31 -0.23,0.53 -0.24,0.68 -0.01,0.15 0.01,0.37 0.07,0.68 0.1,0.6 0.26,1.17 0.49,1.69 0.22,0.52 0.58,0.98 1.06,1.39 0.79,0.69 1.75,1.01 2.89,0.96 1.16,-0.03 2.12,-0.43 2.88,-1.2 0.75,-0.76 1.11,-1.75 1.07,-2.97 -0.07,-1.74 -0.94,-2.89 -2.6,-3.45z"/>
  <path class="fil1" d="M31.25 10.56c2.57,0 4.59,1.04 6.09,3.12 1.5,2.09 2.25,4.88 2.25,8.36 0,3.5 -0.75,6.29 -2.25,8.36 -1.5,2.07 -3.52,3.11 -6.09,3.11 -2.79,0 -4.87,-1.12 -6.25,-3.35 -1.39,-2.24 -2.08,-4.94 -2.08,-8.12 0,-3.48 0.76,-6.27 2.25,-8.36 1.49,-2.08 3.52,-3.12 6.08,-3.12zm3.12 5.69c-0.77,-1.32 -1.81,-1.98 -3.12,-1.98 -1.3,0 -2.34,0.66 -3.1,1.98 -0.8,1.4 -1.2,3.33 -1.2,5.79 0,2.48 0.4,4.41 1.2,5.8 0.77,1.32 1.8,1.98 3.1,1.98 1.3,0 2.34,-0.66 3.12,-1.98 0.81,-1.41 1.21,-3.34 1.21,-5.8 0,-2.44 -0.4,-4.38 -1.21,-5.79z"/>
 </g>
</svg>
