<?xml version="1.0" encoding="UTF-8"?>
<!DOCTYPE svg PUBLIC "-//W3C//DTD SVG 1.1//EN" "http://www.w3.org/Graphics/SVG/1.1/DTD/svg11.dtd">
<!-- Creator: CorelDRAW 2019 (64-Bit) -->
<svg xmlns="http://www.w3.org/2000/svg" xml:space="preserve" width="591px" height="591px" version="1.1" style="shape-rendering:geometricPrecision; text-rendering:geometricPrecision; image-rendering:optimizeQuality; fill-rule:evenodd; clip-rule:evenodd"
viewBox="0 0 35.15 35.15"
 xmlns:xlink="http://www.w3.org/1999/xlink">
 <defs>
  <style type="text/css">
   <![CDATA[
    .fil0 {fill:#0E4F95}
    .fil1 {fill:#FEFEFE;fill-rule:nonzero}
   ]]>
  </style>
 </defs>
 <g id="Layer_x0020_1">
  <metadata id="CorelCorpID_0Corel-Layer"/>
  <g id="_1912663151968">
   <circle class="fil0" cx="17.58" cy="17.58" r="17.58"/>
  </g>
  <path class="fil1" d="M17.5 12.12c-0.12,-0.05 -0.22,-0.11 -0.32,-0.19 -0.74,-0.47 -1.62,-0.76 -2.63,-0.87 -0.84,-0.1 -1.66,-0.02 -2.44,0.24 -0.78,0.26 -1.43,0.7 -1.94,1.33 -1,1.23 -1.53,2.7 -1.58,4.41 0.04,-0.02 0.08,-0.06 0.13,-0.13 0.04,-0.06 0.09,-0.12 0.14,-0.17 0.13,-0.13 0.25,-0.25 0.38,-0.37 0.12,-0.12 0.27,-0.24 0.47,-0.35 0.5,-0.33 0.98,-0.55 1.45,-0.68 1.16,-0.31 2.32,-0.33 3.47,-0.07 1.15,0.25 2.12,0.83 2.89,1.72 0.71,0.85 1.12,1.84 1.25,2.97 0.15,1.45 -0.06,2.66 -0.61,3.62 -0.56,0.96 -1.22,1.7 -1.99,2.21 -0.9,0.58 -1.99,0.9 -3.26,0.97 -0.58,0 -1.2,-0.05 -1.84,-0.16 -0.65,-0.1 -1.21,-0.28 -1.7,-0.54 -0.12,-0.07 -0.24,-0.13 -0.36,-0.2 -0.11,-0.06 -0.22,-0.13 -0.31,-0.21 -0.05,-0.03 -0.1,-0.07 -0.15,-0.1 -0.05,-0.03 -0.1,-0.07 -0.14,-0.12 -0.47,-0.35 -0.89,-0.82 -1.26,-1.4 -0.57,-0.86 -0.96,-1.88 -1.19,-3.08 -0.21,-1.16 -0.26,-2.43 -0.14,-3.81 0.11,-1.38 0.39,-2.57 0.82,-3.59 0.18,-0.44 0.35,-0.79 0.51,-1.08 0.16,-0.28 0.37,-0.61 0.63,-0.97 0.22,-0.35 0.47,-0.64 0.72,-0.9 0.26,-0.29 0.54,-0.54 0.82,-0.75 0.97,-0.71 2.05,-1.14 3.25,-1.28 1.19,-0.15 2.37,-0.03 3.53,0.34 0.19,0.06 0.44,0.17 0.74,0.31l0.66 0.39 0 2.51zm-8.87 8.83c0.18,1.01 0.61,1.84 1.28,2.49 0.68,0.64 1.56,0.94 2.64,0.89 1.08,-0.01 1.93,-0.38 2.54,-1.08 0.08,-0.05 0.15,-0.13 0.22,-0.22 0.11,-0.16 0.17,-0.25 0.19,-0.27 0.13,-0.19 0.23,-0.39 0.31,-0.6 0.42,-1.03 0.39,-2.04 -0.09,-3.02 -0.11,-0.2 -0.31,-0.45 -0.58,-0.78 -0.84,-0.82 -1.86,-1.16 -3.05,-1.04 -0.87,0.12 -1.63,0.43 -2.27,0.95 -0.44,0.32 -0.78,0.72 -1.04,1.2 -0.17,0.34 -0.24,0.58 -0.24,0.72 0,0.14 0.03,0.39 0.09,0.76zm18.96 5.49l-2.7 0 0 -13.33 -3.85 2.23 0 -2.74 6.55 -3.77 0 17.61z"/>
 </g>
</svg>
