<?xml version="1.0" encoding="UTF-8"?>
<!DOCTYPE svg PUBLIC "-//W3C//DTD SVG 1.1//EN" "http://www.w3.org/Graphics/SVG/1.1/DTD/svg11.dtd">
<!-- Creator: CorelDRAW 2021.5 -->
<svg xmlns="http://www.w3.org/2000/svg" xml:space="preserve" width="590px" height="590px" version="1.1" style="shape-rendering:geometricPrecision; text-rendering:geometricPrecision; image-rendering:optimizeQuality; fill-rule:evenodd; clip-rule:evenodd"
viewBox="0 0 52.79 52.79"
 xmlns:xlink="http://www.w3.org/1999/xlink"
 xmlns:xodm="http://www.corel.com/coreldraw/odm/2003">
 <defs>
  <style type="text/css">
   <![CDATA[
    .fil0 {fill:#0E4F95}
    .fil1 {fill:white;fill-rule:nonzero}
   ]]>
  </style>
 </defs>
 <g id="Layer_x0020_1">
  <metadata id="CorelCorpID_0Corel-Layer"/>
  <circle class="fil0" cx="26.4" cy="26.4" r="26.4"/>
  <path class="fil1" d="M12.9 24.36c0.87,-0.84 1.91,-1.42 3.11,-1.75 1.85,-0.5 3.67,-0.53 5.45,-0.09 1.73,0.44 3.15,1.32 4.26,2.62 1.1,1.29 1.75,2.83 1.93,4.6 0.18,1.89 -0.06,3.59 -0.75,5.09 -0.69,1.56 -1.77,2.82 -3.25,3.8 -1.42,0.93 -3.08,1.43 -4.99,1.49 -0.87,0.03 -1.79,-0.05 -2.76,-0.21 -0.97,-0.17 -1.84,-0.46 -2.6,-0.88 -1.46,-0.81 -2.58,-1.85 -3.38,-3.11 -0.86,-1.28 -1.47,-2.82 -1.8,-4.62 -0.33,-1.76 -0.41,-3.66 -0.22,-5.71 0.17,-2.01 0.58,-3.79 1.24,-5.33 0.43,-1.05 0.98,-2.08 1.64,-3.06 0.66,-0.99 1.47,-1.83 2.41,-2.52 1.4,-1.05 3,-1.69 4.8,-1.95 1.8,-0.23 3.62,-0.06 5.46,0.51 0.4,0.15 0.79,0.33 1.18,0.54 0.39,0.21 0.78,0.42 1.16,0.62l-0.02 4.63c-0.9,-0.47 -1.66,-0.85 -2.27,-1.17 -0.6,-0.31 -1.43,-0.53 -2.49,-0.65 -1.21,-0.15 -2.36,-0.02 -3.44,0.36 -1.41,0.51 -2.51,1.42 -3.26,2.71 -0.76,1.3 -1.23,2.66 -1.41,4.08zm6.84 2.25c-1.31,-0.44 -2.61,-0.38 -3.89,0.17 -1.31,0.53 -2.26,1.36 -2.84,2.49 -0.18,0.36 -0.28,0.63 -0.29,0.8 -0.01,0.18 0.02,0.45 0.09,0.82 0.12,0.72 0.31,1.4 0.58,2.02 0.27,0.63 0.69,1.18 1.27,1.66 0.95,0.83 2.1,1.21 3.46,1.15 1.4,-0.04 2.54,-0.51 3.44,-1.43 0.91,-0.91 1.34,-2.09 1.29,-3.55 -0.09,-2.09 -1.12,-3.46 -3.11,-4.13z"/>
  <polygon class="fil1" points="41.26,39.63 36.95,39.63 36.95,20.75 31.4,23.96 31.4,19.08 41.67,13.15 41.67,39.63 "/>
 </g>
</svg>
