<?xml version="1.0" encoding="UTF-8"?>
<!DOCTYPE svg PUBLIC "-//W3C//DTD SVG 1.1//EN" "http://www.w3.org/Graphics/SVG/1.1/DTD/svg11.dtd">
<!-- Creator: CorelDRAW 2019 (64-Bit) -->
<svg xmlns="http://www.w3.org/2000/svg" xml:space="preserve" width="591px" height="591px" version="1.1" style="shape-rendering:geometricPrecision; text-rendering:geometricPrecision; image-rendering:optimizeQuality; fill-rule:evenodd; clip-rule:evenodd"
viewBox="0 0 52.29 52.29"
 xmlns:xlink="http://www.w3.org/1999/xlink">
 <defs>
  <style type="text/css">
   <![CDATA[
    .fil0 {fill:#0E4F95}
    .fil1 {fill:#FEFEFE;fill-rule:nonzero}
   ]]>
  </style>
 </defs>
 <g id="Layer_x0020_1">
  <metadata id="CorelCorpID_0Corel-Layer"/>
  <g id="_1912683538032">
   <circle class="fil0" cx="26.14" cy="26.14" r="26.14"/>
  </g>
  <path class="fil1" d="M23.36 18.03c-0.17,-0.07 -0.33,-0.16 -0.48,-0.28 -1.09,-0.7 -2.4,-1.13 -3.91,-1.3 -1.25,-0.14 -2.46,-0.02 -3.62,0.36 -1.16,0.38 -2.13,1.05 -2.9,1.98 -1.48,1.82 -2.26,4.01 -2.33,6.55 0.04,-0.03 0.11,-0.09 0.18,-0.18 0.07,-0.1 0.14,-0.18 0.21,-0.26 0.19,-0.19 0.38,-0.37 0.56,-0.55 0.18,-0.18 0.41,-0.36 0.7,-0.52 0.75,-0.49 1.46,-0.82 2.16,-1.01 1.73,-0.46 3.45,-0.5 5.16,-0.11 1.72,0.38 3.15,1.24 4.3,2.56 1.05,1.27 1.67,2.74 1.86,4.42 0.22,2.16 -0.08,3.96 -0.91,5.38 -0.82,1.43 -1.81,2.53 -2.95,3.3 -1.35,0.86 -2.97,1.34 -4.86,1.43 -0.87,0 -1.77,-0.08 -2.74,-0.23 -0.96,-0.16 -1.8,-0.42 -2.51,-0.81 -0.2,-0.1 -0.37,-0.19 -0.54,-0.29 -0.17,-0.09 -0.33,-0.2 -0.47,-0.32 -0.07,-0.05 -0.14,-0.1 -0.22,-0.15 -0.07,-0.04 -0.14,-0.11 -0.21,-0.17 -0.7,-0.53 -1.32,-1.23 -1.87,-2.09 -0.84,-1.27 -1.43,-2.8 -1.77,-4.57 -0.31,-1.73 -0.38,-3.62 -0.21,-5.67 0.17,-2.05 0.58,-3.83 1.22,-5.34 0.27,-0.65 0.52,-1.19 0.76,-1.6 0.24,-0.43 0.55,-0.91 0.93,-1.46 0.34,-0.51 0.7,-0.95 1.08,-1.33 0.39,-0.44 0.79,-0.81 1.22,-1.12 1.44,-1.05 3.05,-1.69 4.83,-1.9 1.77,-0.22 3.52,-0.05 5.25,0.5 0.28,0.09 0.65,0.25 1.11,0.47l0.97 0.57 0 3.74zm-13.19 13.13c0.26,1.51 0.9,2.74 1.91,3.7 1.01,0.96 2.31,1.41 3.92,1.33 1.6,-0.02 2.86,-0.56 3.78,-1.61 0.11,-0.07 0.23,-0.19 0.32,-0.33 0.17,-0.24 0.26,-0.37 0.29,-0.4 0.19,-0.28 0.35,-0.58 0.46,-0.89 0.63,-1.54 0.58,-3.03 -0.14,-4.5 -0.16,-0.28 -0.45,-0.67 -0.86,-1.14 -1.25,-1.23 -2.76,-1.74 -4.54,-1.55 -1.29,0.16 -2.41,0.63 -3.38,1.4 -0.64,0.48 -1.16,1.08 -1.54,1.8 -0.24,0.5 -0.36,0.86 -0.36,1.06 0,0.2 0.05,0.58 0.14,1.13zm17.55 8.16l0 -3.67c4.53,-3.81 7.9,-6.8 10.12,-8.97 2.22,-2.17 3.33,-4.18 3.33,-6.02 0,-1.16 -0.44,-2.17 -1.32,-3.04 -0.87,-0.88 -1.89,-1.32 -3.04,-1.32 -1.87,0 -3.52,0.4 -4.96,1.19 -1.44,0.79 -2.27,1.27 -2.48,1.44 -0.17,-0.6 -0.34,-1.19 -0.51,-1.76 -0.16,-0.58 -0.32,-1.18 -0.46,-1.81 0.16,-0.1 1.05,-0.57 2.64,-1.44 1.59,-0.87 3.52,-1.3 5.77,-1.3 2.21,0 4.19,0.74 5.93,2.23 1.75,1.48 2.63,3.42 2.63,5.79 0,2.54 -0.86,4.8 -2.59,6.78 -1.72,1.98 -4.69,4.72 -8.91,8.22l12.07 0 0 3.68 -18.22 0z"/>
 </g>
</svg>
