<?xml version="1.0" encoding="UTF-8"?>
<!DOCTYPE svg PUBLIC "-//W3C//DTD SVG 1.1//EN" "http://www.w3.org/Graphics/SVG/1.1/DTD/svg11.dtd">
<!-- Creator: CorelDRAW 2021.5 -->
<svg xmlns="http://www.w3.org/2000/svg" xml:space="preserve" width="590px" height="590px" version="1.1" style="shape-rendering:geometricPrecision; text-rendering:geometricPrecision; image-rendering:optimizeQuality; fill-rule:evenodd; clip-rule:evenodd"
viewBox="0 0 65.73 65.73"
 xmlns:xlink="http://www.w3.org/1999/xlink"
 xmlns:xodm="http://www.corel.com/coreldraw/odm/2003">
 <defs>
  <style type="text/css">
   <![CDATA[
    .fil0 {fill:#0E4F95}
    .fil1 {fill:white;fill-rule:nonzero}
   ]]>
  </style>
 </defs>
 <g id="Layer_x0020_1">
  <metadata id="CorelCorpID_0Corel-Layer"/>
  <circle class="fil0" cx="32.86" cy="32.86" r="32.86"/>
  <path class="fil1" d="M13.43 30.32c1.09,-1.04 2.38,-1.76 3.87,-2.17 2.32,-0.62 4.58,-0.65 6.8,-0.11 2.15,0.55 3.91,1.64 5.3,3.26 1.37,1.61 2.17,3.52 2.4,5.73 0.23,2.35 -0.08,4.46 -0.93,6.34 -0.86,1.93 -2.21,3.51 -4.05,4.73 -1.77,1.16 -3.83,1.78 -6.21,1.86 -1.09,0.03 -2.23,-0.07 -3.44,-0.27 -1.21,-0.21 -2.28,-0.58 -3.24,-1.09 -1.81,-1.02 -3.21,-2.31 -4.21,-3.88 -1.07,-1.6 -1.82,-3.51 -2.24,-5.75 -0.41,-2.18 -0.5,-4.56 -0.27,-7.11 0.21,-2.5 0.72,-4.71 1.54,-6.63 0.54,-1.31 1.23,-2.59 2.05,-3.82 0.82,-1.23 1.82,-2.27 3,-3.14 1.74,-1.29 3.73,-2.1 5.98,-2.41 2.23,-0.29 4.5,-0.08 6.78,0.63 0.51,0.18 0.99,0.4 1.48,0.66 0.48,0.27 0.97,0.53 1.45,0.78l-0.03 5.76c-1.13,-0.58 -2.07,-1.06 -2.83,-1.45 -0.75,-0.39 -1.78,-0.67 -3.1,-0.81 -1.5,-0.19 -2.93,-0.03 -4.28,0.45 -1.76,0.63 -3.12,1.76 -4.06,3.37 -0.95,1.62 -1.53,3.31 -1.76,5.07zm8.52 2.81c-1.63,-0.54 -3.25,-0.47 -4.85,0.21 -1.63,0.66 -2.8,1.69 -3.53,3.1 -0.22,0.45 -0.35,0.79 -0.36,1 -0.02,0.23 0.02,0.56 0.11,1.02 0.15,0.9 0.39,1.74 0.72,2.52 0.34,0.78 0.87,1.46 1.59,2.07 1.18,1.02 2.61,1.5 4.3,1.43 1.74,-0.05 3.17,-0.64 4.29,-1.78 1.13,-1.14 1.66,-2.61 1.6,-4.43 -0.11,-2.6 -1.4,-4.31 -3.87,-5.14z"/>
  <path class="fil1" d="M36.69 24.8c-0.55,-2.08 -1.04,-3.89 -1.44,-5.41 1.63,-1.09 3.35,-1.97 5.16,-2.64 1.81,-0.67 3.72,-1.01 5.73,-1.01 3.01,0 5.59,1.01 7.77,3.04 2.11,1.99 3.17,4.4 3.17,7.24 0,3.08 -1.09,5.96 -3.27,8.63 -1.04,1.29 -2.37,2.65 -3.98,4.12 -1.62,1.46 -3.56,3.14 -5.84,5.03l13.81 0 0 5.55c-3.89,0 -7.78,0 -11.66,0 -3.88,0 -7.76,0 -11.64,0l0 -5.26c2.07,-1.73 4.2,-3.52 6.42,-5.38 2.21,-1.85 4.24,-3.75 6.1,-5.71 2.58,-2.71 3.87,-5.03 3.87,-6.98 0,-1.27 -0.47,-2.37 -1.42,-3.32 -0.95,-0.96 -2.06,-1.43 -3.33,-1.43 -1.83,0 -3.5,0.35 -5.01,1.05 -1.51,0.7 -2.98,1.53 -4.44,2.48z"/>
 </g>
</svg>
