<?xml version="1.0" encoding="UTF-8"?>
<!DOCTYPE svg PUBLIC "-//W3C//DTD SVG 1.1//EN" "http://www.w3.org/Graphics/SVG/1.1/DTD/svg11.dtd">
<!-- Creator: CorelDRAW 2021.5 -->
<svg xmlns="http://www.w3.org/2000/svg" xml:space="preserve" width="590px" height="590px" version="1.1" style="shape-rendering:geometricPrecision; text-rendering:geometricPrecision; image-rendering:optimizeQuality; fill-rule:evenodd; clip-rule:evenodd"
viewBox="0 0 87.07 87.07"
 xmlns:xlink="http://www.w3.org/1999/xlink"
 xmlns:xodm="http://www.corel.com/coreldraw/odm/2003">
 <defs>
  <style type="text/css">
   <![CDATA[
    .fil0 {fill:#0E4F95}
    .fil1 {fill:white;fill-rule:nonzero}
   ]]>
  </style>
 </defs>
 <g id="Layer_x0020_1">
  <metadata id="CorelCorpID_0Corel-Layer"/>
  <circle class="fil0" cx="43.53" cy="43.53" r="43.53"/>
  <path class="fil1" d="M17.77 40.18c1.44,-1.38 3.15,-2.33 5.13,-2.87 3.06,-0.82 6.06,-0.87 9,-0.16 2.84,0.74 5.18,2.18 7.02,4.32 1.81,2.14 2.88,4.67 3.17,7.59 0.31,3.12 -0.1,5.92 -1.22,8.41 -1.14,2.55 -2.93,4.64 -5.37,6.26 -2.34,1.54 -5.08,2.36 -8.22,2.46 -1.44,0.04 -2.96,-0.08 -4.56,-0.36 -1.6,-0.28 -3.03,-0.76 -4.29,-1.44 -2.4,-1.34 -4.26,-3.05 -5.58,-5.13 -1.42,-2.12 -2.41,-4.66 -2.97,-7.62 -0.54,-2.9 -0.66,-6.04 -0.35,-9.42 0.27,-3.32 0.95,-6.25 2.03,-8.78 0.72,-1.75 1.63,-3.43 2.72,-5.06 1.08,-1.63 2.41,-3.01 3.97,-4.16 2.3,-1.72 4.94,-2.78 7.92,-3.2 2.96,-0.38 5.96,-0.11 8.99,0.84 0.67,0.23 1.31,0.53 1.96,0.88 0.63,0.35 1.28,0.69 1.91,1.03l-0.03 7.63c-1.49,-0.77 -2.74,-1.4 -3.74,-1.93 -1,-0.52 -2.37,-0.88 -4.11,-1.07 -2,-0.25 -3.89,-0.04 -5.67,0.59 -2.34,0.84 -4.14,2.34 -5.39,4.48 -1.25,2.14 -2.02,4.38 -2.32,6.71zm11.28 3.72c-2.16,-0.72 -4.3,-0.63 -6.42,0.28 -2.16,0.88 -3.72,2.24 -4.68,4.1 -0.29,0.61 -0.46,1.05 -0.48,1.33 -0.02,0.3 0.03,0.74 0.15,1.34 0.2,1.2 0.52,2.32 0.96,3.34 0.44,1.04 1.14,1.95 2.1,2.75 1.56,1.36 3.46,1.99 5.7,1.89 2.3,-0.06 4.2,-0.84 5.68,-2.36 1.5,-1.5 2.2,-3.46 2.12,-5.86 -0.14,-3.44 -1.85,-5.71 -5.13,-6.81z"/>
  <path class="fil1" d="M61.76 28.69l-14.58 0 0 -6.99 29.67 0 -12.83 15.28c2.03,0.32 3.83,0.87 5.36,1.68 1.99,1.01 3.67,2.49 5.05,4.4 1.83,2.62 2.6,5.73 2.27,9.33 -0.3,3.6 -1.59,6.51 -3.87,8.73 -1.77,1.74 -3.83,3.04 -6.14,3.9 -2.14,0.78 -4.55,1.17 -7.2,1.17 -1,0 -2.15,-0.07 -3.44,-0.21 -1.29,-0.14 -2.59,-0.38 -3.91,-0.69 -2.39,-0.64 -4.28,-1.48 -5.7,-2.52l-0.33 -0.24 0.03 -8.22 1.26 0.81c1.78,1.16 3.43,2.01 4.94,2.55 1.72,0.58 3.62,0.91 5.68,0.99 2.24,0.1 4.23,-0.21 6,-0.93 1.63,-0.72 2.86,-1.75 3.68,-3.09 0.44,-0.7 0.75,-1.57 0.9,-2.61 0.13,-1.01 0.07,-1.97 -0.14,-2.85 -0.1,-0.4 -0.22,-0.71 -0.34,-0.96 -0.84,-2.02 -2.53,-3.41 -5.07,-4.17 -2.29,-0.67 -4.73,-0.68 -7.29,-0.03 -0.67,0.19 -1.23,0.37 -1.65,0.58l-1.1 0.48 -0.03 -5.92 8.78 -10.47z"/>
 </g>
</svg>
