<?xml version="1.0" encoding="UTF-8"?>
<!DOCTYPE svg PUBLIC "-//W3C//DTD SVG 1.1//EN" "http://www.w3.org/Graphics/SVG/1.1/DTD/svg11.dtd">
<!-- Creator: CorelDRAW 2019 (64-Bit) -->
<svg xmlns="http://www.w3.org/2000/svg" xml:space="preserve" width="591px" height="591px" version="1.1" style="shape-rendering:geometricPrecision; text-rendering:geometricPrecision; image-rendering:optimizeQuality; fill-rule:evenodd; clip-rule:evenodd"
viewBox="0 0 102.01 102.01"
 xmlns:xlink="http://www.w3.org/1999/xlink">
 <defs>
  <style type="text/css">
   <![CDATA[
    .fil0 {fill:#0E4F95}
    .fil1 {fill:#FEFEFE;fill-rule:nonzero}
   ]]>
  </style>
 </defs>
 <g id="Layer_x0020_1">
  <metadata id="CorelCorpID_0Corel-Layer"/>
  <g id="_1912712899392">
   <circle class="fil0" cx="51.01" cy="51.01" r="51.01"/>
  </g>
  <path class="fil1" d="M45.57 35.18c-0.34,-0.14 -0.64,-0.32 -0.92,-0.56 -2.15,-1.35 -4.7,-2.2 -7.64,-2.53 -2.44,-0.27 -4.8,-0.04 -7.06,0.71 -2.27,0.74 -4.16,2.04 -5.65,3.86 -2.9,3.55 -4.42,7.82 -4.57,12.78 0.1,-0.05 0.22,-0.17 0.36,-0.36 0.14,-0.18 0.28,-0.35 0.42,-0.49 0.37,-0.37 0.73,-0.73 1.09,-1.08 0.35,-0.36 0.81,-0.7 1.37,-1.02 1.45,-0.95 2.85,-1.59 4.2,-1.98 3.38,-0.88 6.73,-0.95 10.08,-0.2 3.35,0.74 6.14,2.41 8.38,4.98 2.06,2.48 3.27,5.36 3.64,8.64 0.42,4.21 -0.17,7.71 -1.78,10.49 -1.61,2.79 -3.54,4.94 -5.76,6.43 -2.63,1.68 -5.79,2.61 -9.48,2.81 -1.69,0 -3.46,-0.16 -5.34,-0.46 -1.87,-0.31 -3.51,-0.83 -4.91,-1.58 -0.37,-0.19 -0.72,-0.37 -1.06,-0.56 -0.32,-0.18 -0.63,-0.4 -0.91,-0.64 -0.14,-0.08 -0.27,-0.18 -0.42,-0.27 -0.14,-0.1 -0.28,-0.22 -0.41,-0.35 -1.37,-1.03 -2.58,-2.4 -3.66,-4.07 -1.64,-2.48 -2.78,-5.47 -3.44,-8.93 -0.61,-3.36 -0.75,-7.05 -0.41,-11.05 0.32,-4 1.12,-7.48 2.38,-10.42 0.51,-1.27 1.01,-2.31 1.47,-3.13 0.47,-0.82 1.08,-1.77 1.82,-2.84 0.66,-0.99 1.37,-1.85 2.11,-2.6 0.76,-0.85 1.55,-1.56 2.38,-2.18 2.82,-2.06 5.94,-3.29 9.42,-3.71 3.46,-0.43 6.87,-0.09 10.24,0.98 0.56,0.18 1.28,0.49 2.17,0.91l1.89 1.13 0 7.29zm-25.73 25.61c0.52,2.95 1.76,5.36 3.73,7.22 1.96,1.88 4.51,2.75 7.64,2.6 3.14,-0.05 5.59,-1.1 7.38,-3.15 0.22,-0.14 0.44,-0.36 0.62,-0.63 0.34,-0.47 0.51,-0.73 0.56,-0.78 0.39,-0.55 0.69,-1.14 0.91,-1.75 1.22,-2.99 1.13,-5.92 -0.27,-8.77 -0.33,-0.56 -0.89,-1.3 -1.69,-2.24 -2.43,-2.38 -5.38,-3.39 -8.84,-3.02 -2.53,0.33 -4.72,1.24 -6.6,2.74 -1.26,0.93 -2.26,2.1 -3.02,3.51 -0.47,0.98 -0.69,1.67 -0.69,2.07 0,0.39 0.09,1.12 0.27,2.2zm41.84 -14.6l11.71 -14.02 -18.8 0 0 -6.54 32.91 0 -15.44 18.32c6.09,0.52 10.7,2.9 13.83,7.16 2.1,3 2.95,6.58 2.56,10.75 -0.4,4.17 -1.86,7.48 -4.38,9.96 -1.04,0.95 -1.8,1.6 -2.32,1.98 -3.65,2.57 -8.05,3.86 -13.2,3.86 -3.27,0 -6.15,-0.33 -8.63,-0.99 -1.03,-0.28 -2.07,-0.62 -3.12,-1.03 -1.05,-0.39 -2,-0.87 -2.85,-1.43 -0.42,-0.1 -0.62,-0.27 -0.62,-0.5 0,-0.56 0,-1.89 0,-3.97 0,-2.09 0,-3.32 0,-3.69 2.1,1.4 4.17,2.47 6.21,3.2 2.03,0.72 4.43,1.15 7.19,1.29 2.44,0.14 4.83,-0.2 7.19,-1.02 2.37,-0.81 4.18,-2.27 5.44,-4.38 1.36,-2.16 1.71,-4.61 1.05,-7.37 -0.37,-1.25 -0.91,-2.32 -1.61,-3.2 -0.7,-0.86 -1.45,-1.59 -2.24,-2.2 -1.41,-1.03 -3.12,-1.68 -5.13,-1.93 -2.01,-0.26 -3.93,-0.25 -5.75,0.04 -1.55,0.18 -2.87,0.54 -4,1.05l0 -5.34z"/>
 </g>
</svg>
