<?xml version="1.0" encoding="UTF-8"?>
<!DOCTYPE svg PUBLIC "-//W3C//DTD SVG 1.1//EN" "http://www.w3.org/Graphics/SVG/1.1/DTD/svg11.dtd">
<!-- Creator: CorelDRAW 2021.5 -->
<svg xmlns="http://www.w3.org/2000/svg" xml:space="preserve" width="590px" height="590px" version="1.1" style="shape-rendering:geometricPrecision; text-rendering:geometricPrecision; image-rendering:optimizeQuality; fill-rule:evenodd; clip-rule:evenodd"
viewBox="0 0 128.92 128.93"
 xmlns:xlink="http://www.w3.org/1999/xlink"
 xmlns:xodm="http://www.corel.com/coreldraw/odm/2003">
 <defs>
  <style type="text/css">
   <![CDATA[
    .fil0 {fill:#0E4F95}
    .fil1 {fill:white;fill-rule:nonzero}
   ]]>
  </style>
 </defs>
 <g id="Layer_x0020_1">
  <metadata id="CorelCorpID_0Corel-Layer"/>
  <circle class="fil0" cx="64.46" cy="64.46" r="64.46"/>
  <path class="fil1" d="M26.89 59.5c2.13,-2.05 4.67,-3.46 7.59,-4.26 4.53,-1.21 8.98,-1.29 13.33,-0.23 4.21,1.09 7.67,3.23 10.4,6.4 2.68,3.17 4.26,6.91 4.7,11.23 0.45,4.63 -0.15,8.77 -1.82,12.45 -1.68,3.79 -4.34,6.88 -7.95,9.28 -3.47,2.27 -7.52,3.49 -12.17,3.64 -2.14,0.06 -4.38,-0.12 -6.75,-0.53 -2.38,-0.41 -4.48,-1.13 -6.35,-2.14 -3.56,-1.99 -6.31,-4.52 -8.26,-7.6 -2.11,-3.13 -3.58,-6.89 -4.4,-11.28 -0.8,-4.29 -0.98,-8.94 -0.53,-13.94 0.41,-4.92 1.41,-9.25 3.02,-13.01 1.06,-2.58 2.41,-5.08 4.02,-7.49 1.6,-2.41 3.57,-4.46 5.88,-6.16 3.41,-2.54 7.32,-4.12 11.73,-4.74 4.38,-0.56 8.83,-0.15 13.31,1.24 0.99,0.35 1.94,0.79 2.9,1.31 0.94,0.53 1.89,1.03 2.83,1.53l-0.04 11.29c-2.21,-1.14 -4.06,-2.08 -5.55,-2.85 -1.47,-0.77 -3.5,-1.3 -6.08,-1.59 -2.96,-0.36 -5.76,-0.06 -8.4,0.88 -3.45,1.24 -6.12,3.46 -7.97,6.62 -1.85,3.17 -2.99,6.49 -3.44,9.95zm16.7 5.5c-3.2,-1.06 -6.36,-0.92 -9.5,0.41 -3.2,1.31 -5.51,3.32 -6.93,6.08 -0.44,0.9 -0.68,1.55 -0.71,1.97 -0.03,0.44 0.04,1.09 0.22,1.99 0.29,1.77 0.76,3.43 1.41,4.94 0.66,1.53 1.7,2.88 3.11,4.06 2.32,2.02 5.13,2.96 8.45,2.81 3.41,-0.09 6.21,-1.24 8.41,-3.49 2.21,-2.23 3.26,-5.12 3.14,-8.69 -0.21,-5.09 -2.75,-8.44 -7.6,-10.08z"/>
  <path class="fil1" d="M97.3 96.81l0 -16.39 -29.09 0 0 -9.82 29.62 -38.47 11.19 0 0 37.77 6.4 0 0 10.52 -6.4 0 0 16.39 -11.72 0zm0 -26.91l0 -20.53 -16.25 20.53 16.25 0z"/>
 </g>
</svg>
