<?xml version="1.0" encoding="UTF-8"?>
<!DOCTYPE svg PUBLIC "-//W3C//DTD SVG 1.1//EN" "http://www.w3.org/Graphics/SVG/1.1/DTD/svg11.dtd">
<!-- Creator: CorelDRAW 2019 (64-Bit) -->
<svg xmlns="http://www.w3.org/2000/svg" xml:space="preserve" width="591px" height="591px" version="1.1" style="shape-rendering:geometricPrecision; text-rendering:geometricPrecision; image-rendering:optimizeQuality; fill-rule:evenodd; clip-rule:evenodd"
viewBox="0 0 2081.31 2081.31"
 xmlns:xlink="http://www.w3.org/1999/xlink">
 <defs>
  <style type="text/css">
   <![CDATA[
    .fil0 {fill:#0E4F95}
    .fil1 {fill:#FEFEFE;fill-rule:nonzero}
   ]]>
  </style>
 </defs>
 <g id="Layer_x0020_1">
  <metadata id="CorelCorpID_0Corel-Layer"/>
  <g id="_1912496286736">
   <circle class="fil0" cx="1040.66" cy="1040.66" r="1040.66"/>
  </g>
  <path class="fil1" d="M928.01 717.82c-6.84,-2.93 -12.95,-6.59 -18.82,-11.49 -43.74,-27.6 -95.79,-44.96 -155.9,-51.56 -49.61,-5.62 -97.75,-0.98 -143.93,14.42 -46.43,15.16 -84.8,41.55 -115.34,78.69 -59.14,72.57 -90.17,159.56 -93.11,260.73 1.96,-0.97 4.4,-3.42 7.34,-7.33 2.68,-3.67 5.62,-7.09 8.55,-10.01 7.58,-7.58 14.91,-14.92 22.23,-22 7.09,-7.33 16.38,-14.18 27.86,-20.77 29.58,-19.31 58.16,-32.5 85.77,-40.32 68.91,-18.09 137.34,-19.55 205.51,-4.15 68.42,15.14 125.37,49.11 171.06,101.65 42.02,50.59 66.71,109.23 74.29,176.18 8.55,86.02 -3.43,157.37 -36.42,214.07 -32.74,56.93 -72.08,100.68 -117.53,131.22 -53.52,34.21 -118.03,53.27 -193.29,57.19 -34.46,0 -70.63,-3.19 -108.99,-9.3 -38.12,-6.34 -71.6,-16.86 -100.19,-32.25 -7.58,-3.91 -14.67,-7.57 -21.5,-11.49 -6.6,-3.66 -12.96,-8.06 -18.58,-12.94 -2.92,-1.72 -5.62,-3.67 -8.55,-5.63 -2.93,-1.95 -5.86,-4.39 -8.55,-7.09 -27.85,-21.01 -52.54,-48.87 -74.53,-83.07 -33.48,-50.59 -56.69,-111.44 -70.14,-182.06 -12.46,-68.66 -15.39,-143.93 -8.54,-225.55 6.6,-81.62 22.96,-152.47 48.62,-212.59 10.51,-25.91 20.53,-47.17 30.06,-63.77 9.52,-16.87 21.99,-36.18 37.14,-57.93 13.44,-20.28 27.86,-37.87 43.01,-53.02 15.39,-17.35 31.52,-32.01 48.63,-44.48 57.43,-42.03 121.2,-67.19 192.07,-75.75 70.62,-8.79 140.27,-1.95 208.93,20.04 11.49,3.67 26.14,10.02 44.23,18.57l38.61 22.97 0 148.82zm-524.89 522.44c10.5,60.12 35.91,109.24 75.99,147.36 40.07,38.36 92.13,55.96 155.91,53.02 64.02,-0.98 114.12,-22.48 150.52,-64.26 4.65,-2.93 9.04,-7.33 12.71,-12.95 6.84,-9.54 10.51,-14.91 11.48,-15.88 7.83,-11.24 13.94,-23.22 18.58,-35.68 24.92,-61.09 22.97,-120.71 -5.62,-178.88 -6.6,-11.49 -18.09,-26.64 -34.46,-45.69 -49.6,-48.63 -109.72,-69.15 -180.34,-61.59 -51.56,6.6 -96.28,25.18 -134.64,55.72 -25.66,19.06 -46.19,43.01 -61.59,71.6 -9.52,20.04 -14.16,34.21 -14.16,42.28 0,8.06 1.95,22.97 5.62,44.95zm697.17 52.3l0 -140.75 483.84 -628.99 161.28 0 0 628.99 106.05 0 0 140.75 -106.05 0 0 272.71 -161.28 0 0 -272.71 -483.84 0zm160.3 -140.75l323.54 0 0 -408.57 -323.54 408.57z"/>
 </g>
</svg>
