<?xml version="1.0" encoding="UTF-8"?>
<!DOCTYPE svg PUBLIC "-//W3C//DTD SVG 1.1//EN" "http://www.w3.org/Graphics/SVG/1.1/DTD/svg11.dtd">
<!-- Creator: CorelDRAW 2019 (64-Bit) -->
<svg xmlns="http://www.w3.org/2000/svg" xml:space="preserve" width="591px" height="591px" version="1.1" style="shape-rendering:geometricPrecision; text-rendering:geometricPrecision; image-rendering:optimizeQuality; fill-rule:evenodd; clip-rule:evenodd"
viewBox="0 0 113.1 113.1"
 xmlns:xlink="http://www.w3.org/1999/xlink">
 <defs>
  <style type="text/css">
   <![CDATA[
    .fil0 {fill:#0E4F95}
    .fil1 {fill:#FEFEFE;fill-rule:nonzero}
   ]]>
  </style>
 </defs>
 <g id="Layer_x0020_1">
  <metadata id="CorelCorpID_0Corel-Layer"/>
  <g id="_1912705373312">
   <circle class="fil0" cx="56.55" cy="56.55" r="56.55"/>
  </g>
  <path class="fil1" d="M50.52 39.01c-0.37,-0.16 -0.7,-0.36 -1.02,-0.63 -2.38,-1.5 -5.21,-2.44 -8.47,-2.8 -2.7,-0.3 -5.31,-0.05 -7.82,0.79 -2.53,0.82 -4.61,2.25 -6.27,4.27 -3.22,3.94 -4.9,8.67 -5.06,14.17 0.11,-0.05 0.24,-0.19 0.4,-0.4 0.14,-0.2 0.3,-0.38 0.46,-0.54 0.41,-0.41 0.81,-0.81 1.21,-1.2 0.39,-0.4 0.89,-0.77 1.51,-1.13 1.61,-1.05 3.17,-1.76 4.67,-2.19 3.74,-0.98 7.46,-1.06 11.16,-0.22 3.72,0.82 6.82,2.67 9.3,5.52 2.28,2.75 3.62,5.94 4.04,9.57 0.46,4.68 -0.19,8.56 -1.98,11.64 -1.78,3.09 -3.92,5.47 -6.39,7.13 -2.91,1.86 -6.41,2.89 -10.5,3.11 -1.88,0 -3.84,-0.18 -5.93,-0.51 -2.07,-0.34 -3.89,-0.92 -5.44,-1.75 -0.41,-0.21 -0.8,-0.41 -1.17,-0.63 -0.36,-0.2 -0.7,-0.43 -1.01,-0.7 -0.16,-0.09 -0.3,-0.2 -0.46,-0.31 -0.16,-0.1 -0.32,-0.23 -0.47,-0.38 -1.51,-1.14 -2.85,-2.66 -4.05,-4.52 -1.82,-2.74 -3.08,-6.05 -3.81,-9.89 -0.68,-3.73 -0.84,-7.82 -0.46,-12.26 0.35,-4.43 1.24,-8.28 2.64,-11.55 0.57,-1.41 1.11,-2.56 1.63,-3.46 0.52,-0.92 1.2,-1.97 2.02,-3.15 0.73,-1.1 1.51,-2.06 2.34,-2.88 0.83,-0.95 1.71,-1.74 2.64,-2.42 3.12,-2.28 6.59,-3.65 10.44,-4.12 3.83,-0.47 7.62,-0.1 11.35,1.09 0.63,0.2 1.42,0.55 2.4,1.01l2.1 1.25 0 8.09zm-28.52 28.39c0.57,3.27 1.95,5.93 4.13,8.01 2.18,2.08 5,3.04 8.47,2.88 3.48,-0.06 6.2,-1.22 8.18,-3.5 0.25,-0.15 0.49,-0.39 0.69,-0.7 0.37,-0.52 0.57,-0.81 0.63,-0.86 0.42,-0.61 0.75,-1.26 1,-1.94 1.36,-3.32 1.25,-6.56 -0.3,-9.72 -0.36,-0.63 -0.98,-1.45 -1.87,-2.48 -2.7,-2.65 -5.97,-3.76 -9.8,-3.35 -2.81,0.36 -5.24,1.37 -7.32,3.03 -1.39,1.03 -2.51,2.33 -3.35,3.89 -0.51,1.09 -0.77,1.86 -0.77,2.3 0,0.43 0.11,1.24 0.31,2.44zm37.13 6.53c2.21,1.4 4.87,2.52 7.92,3.37 3.07,0.87 6.23,1.13 9.5,0.83 2.75,-0.27 5.38,-1.14 7.9,-2.64 2.51,-1.51 4.02,-3.76 4.56,-6.78 0.55,-3.42 -0.11,-6.2 -2.04,-8.32 -1.91,-2.13 -4.19,-3.55 -6.83,-4.28 -2.24,-0.52 -4.68,-0.69 -7.32,-0.5 -2.64,0.17 -5.06,0.53 -7.24,1.05 -0.78,0.21 -1.5,0.42 -2.18,0.66 -0.67,0.23 -1.38,0.42 -2.09,0.58l3.73 -29.49 29.17 0 0 7.73 -22.72 0 -1.63 13.05c0.46,-0.05 0.93,-0.14 1.4,-0.28 0.47,-0.12 0.96,-0.24 1.48,-0.34 0.98,-0.16 2.02,-0.24 3.11,-0.24 6.44,-0.16 11.75,1.42 15.94,4.74 1.09,0.94 2.16,2.06 3.16,3.35 1.01,1.3 1.81,2.88 2.37,4.75 0.53,1.81 0.78,3.84 0.78,6.07 0,2.23 -0.3,4.2 -0.93,5.91 -1.3,3.37 -3.3,6.05 -6.03,8.05 -2.72,2 -5.77,3.36 -9.15,4.09 -2.69,0.62 -5.72,0.86 -9.09,0.7 -3.38,-0.16 -6.39,-0.7 -9.03,-1.63 -1.41,-0.52 -2.59,-1.01 -3.59,-1.49 -0.09,-0.04 -0.49,-0.25 -1.15,-0.61l0 -8.33z"/>
 </g>
</svg>
