<?xml version="1.0" encoding="UTF-8"?>
<!DOCTYPE svg PUBLIC "-//W3C//DTD SVG 1.1//EN" "http://www.w3.org/Graphics/SVG/1.1/DTD/svg11.dtd">
<!-- Creator: CorelDRAW 2021.5 -->
<svg xmlns="http://www.w3.org/2000/svg" xml:space="preserve" width="590px" height="590px" version="1.1" style="shape-rendering:geometricPrecision; text-rendering:geometricPrecision; image-rendering:optimizeQuality; fill-rule:evenodd; clip-rule:evenodd"
viewBox="0 0 248.28 248.29"
 xmlns:xlink="http://www.w3.org/1999/xlink"
 xmlns:xodm="http://www.corel.com/coreldraw/odm/2003">
 <defs>
  <style type="text/css">
   <![CDATA[
    .fil0 {fill:#0E4F95}
    .fil1 {fill:white;fill-rule:nonzero}
   ]]>
  </style>
 </defs>
 <g id="Layer_x0020_1">
  <metadata id="CorelCorpID_0Corel-Layer"/>
  <circle class="fil0" cx="124.14" cy="124.14" r="124.14"/>
  <path class="fil1" d="M52.32 114.58c4.12,-3.94 8.99,-6.65 14.63,-8.2 8.73,-2.34 17.28,-2.48 25.66,-0.44 8.12,2.1 14.77,6.22 20.03,12.32 5.17,6.1 8.2,13.32 9.05,21.64 0.88,8.9 -0.29,16.87 -3.5,23.97 -3.24,7.3 -8.35,13.25 -15.3,17.87 -6.69,4.37 -14.48,6.71 -23.45,7 -4.11,0.12 -8.43,-0.23 -12.99,-1.02 -4.58,-0.79 -8.64,-2.16 -12.23,-4.12 -6.86,-3.82 -12.15,-8.7 -15.91,-14.62 -4.06,-6.05 -6.89,-13.29 -8.47,-21.73 -1.55,-8.26 -1.9,-17.22 -1.02,-26.86 0.79,-9.45 2.71,-17.81 5.81,-25.05 2.04,-4.96 4.64,-9.78 7.73,-14.42 3.1,-4.64 6.89,-8.58 11.33,-11.85 6.57,-4.91 14.1,-7.94 22.6,-9.14 8.44,-1.08 16.99,-0.29 25.63,2.39 1.9,0.67 3.74,1.52 5.58,2.51 1.81,1.03 3.65,1.99 5.46,2.95l-0.09 21.75c-4.26,-2.19 -7.82,-4 -10.68,-5.49 -2.83,-1.48 -6.75,-2.51 -11.71,-3.06 -5.69,-0.7 -11.09,-0.12 -16.17,1.69 -6.66,2.4 -11.8,6.66 -15.36,12.76 -3.56,6.1 -5.75,12.5 -6.63,19.15zm32.18 10.6c-6.17,-2.04 -12.27,-1.78 -18.31,0.79 -6.16,2.51 -10.6,6.39 -13.34,11.71 -0.85,1.72 -1.32,2.98 -1.38,3.79 -0.05,0.85 0.09,2.11 0.44,3.83 0.56,3.41 1.46,6.6 2.72,9.52 1.25,2.95 3.27,5.54 5.98,7.82 4.47,3.88 9.87,5.69 16.27,5.4 6.56,-0.17 11.97,-2.39 16.2,-6.71 4.26,-4.29 6.28,-9.87 6.04,-16.73 -0.41,-9.81 -5.28,-16.26 -14.62,-19.42z"/>
  <path class="fil1" d="M163.24 82.41l-2.89 23.27c3.59,-0.73 7.06,-1.17 10.42,-1.29 6.83,-0.2 13.08,0.44 18.74,1.99 10.08,2.95 17.96,8.26 23.59,15.91 4.91,6.77 7.27,14.95 7.1,24.56 -0.21,12.52 -5.17,22.71 -14.86,30.51 -5.84,4.64 -12.32,7.76 -19.51,9.37 -7.18,1.63 -14.39,2.28 -21.63,1.92 -7.27,-0.46 -13.78,-1.66 -19.59,-3.67 -3.83,-1.32 -7.65,-2.92 -11.48,-4.88l0 -22.74c6.11,3.71 12.27,6.54 18.52,8.49 6.24,1.99 13.04,2.63 20.4,1.93 5.37,-0.5 10.57,-2.22 15.65,-5.11 5.08,-2.92 8.12,-7.3 9.08,-13.2 1.02,-6.16 -0.17,-11.38 -3.59,-15.73 -3.41,-4.32 -8.06,-7.27 -13.87,-8.79 -4.61,-1.2 -9.63,-1.61 -15.06,-1.17 -5.4,0.44 -10.37,1.23 -14.86,2.37 -2.02,0.49 -4,1.05 -5.99,1.66 -2.01,0.58 -3.97,1.14 -5.93,1.66l8.56 -67.58 65.78 0 0 20.52 -48.58 0z"/>
 </g>
</svg>
