<?xml version="1.0" encoding="UTF-8"?>
<!DOCTYPE svg PUBLIC "-//W3C//DTD SVG 1.1//EN" "http://www.w3.org/Graphics/SVG/1.1/DTD/svg11.dtd">
<!-- Creator: CorelDRAW 2019 (64-Bit) -->
<svg xmlns="http://www.w3.org/2000/svg" xml:space="preserve" width="591px" height="591px" version="1.1" style="shape-rendering:geometricPrecision; text-rendering:geometricPrecision; image-rendering:optimizeQuality; fill-rule:evenodd; clip-rule:evenodd"
viewBox="0 0 55.06 55.06"
 xmlns:xlink="http://www.w3.org/1999/xlink">
 <defs>
  <style type="text/css">
   <![CDATA[
    .fil0 {fill:#0E4F95}
    .fil1 {fill:#FEFEFE;fill-rule:nonzero}
   ]]>
  </style>
 </defs>
 <g id="Layer_x0020_1">
  <metadata id="CorelCorpID_0Corel-Layer"/>
  <g id="_1912496285200">
   <circle class="fil0" cx="27.53" cy="27.53" r="27.53"/>
  </g>
  <path class="fil1" d="M24.29 18.99c-0.18,-0.08 -0.35,-0.18 -0.5,-0.31 -1.16,-0.73 -2.54,-1.19 -4.13,-1.36 -1.31,-0.15 -2.58,-0.03 -3.8,0.38 -1.23,0.4 -2.25,1.1 -3.05,2.08 -1.57,1.92 -2.39,4.22 -2.47,6.9 0.05,-0.03 0.12,-0.09 0.2,-0.19 0.07,-0.1 0.15,-0.19 0.22,-0.27 0.2,-0.2 0.4,-0.39 0.59,-0.58 0.19,-0.19 0.43,-0.38 0.74,-0.55 0.78,-0.51 1.54,-0.86 2.27,-1.07 1.82,-0.48 3.63,-0.51 5.43,-0.11 1.81,0.4 3.32,1.3 4.53,2.69 1.11,1.34 1.76,2.89 1.96,4.66 0.23,2.28 -0.09,4.17 -0.96,5.67 -0.87,1.5 -1.91,2.66 -3.11,3.47 -1.41,0.9 -3.12,1.41 -5.11,1.51 -0.91,0 -1.87,-0.09 -2.88,-0.25 -1.01,-0.16 -1.9,-0.44 -2.66,-0.85 -0.2,-0.1 -0.38,-0.2 -0.56,-0.3 -0.18,-0.1 -0.35,-0.22 -0.5,-0.35 -0.07,-0.04 -0.14,-0.09 -0.22,-0.15 -0.08,-0.05 -0.16,-0.11 -0.23,-0.18 -0.73,-0.56 -1.39,-1.3 -1.97,-2.2 -0.88,-1.34 -1.5,-2.95 -1.85,-4.82 -0.33,-1.81 -0.41,-3.8 -0.23,-5.96 0.17,-2.16 0.61,-4.04 1.29,-5.63 0.27,-0.68 0.54,-1.24 0.79,-1.68 0.25,-0.45 0.58,-0.96 0.98,-1.53 0.36,-0.54 0.74,-1.01 1.14,-1.41 0.41,-0.46 0.83,-0.84 1.29,-1.17 1.52,-1.12 3.2,-1.78 5.08,-2.01 1.87,-0.23 3.71,-0.05 5.52,0.53 0.31,0.1 0.7,0.27 1.17,0.49l1.03 0.61 0 3.94zm-13.89 13.82c0.28,1.59 0.95,2.89 2.01,3.9 1.06,1.01 2.44,1.48 4.13,1.4 1.69,-0.03 3.01,-0.6 3.98,-1.7 0.12,-0.08 0.24,-0.2 0.33,-0.34 0.18,-0.26 0.28,-0.4 0.31,-0.42 0.2,-0.3 0.37,-0.62 0.49,-0.95 0.66,-1.61 0.61,-3.19 -0.15,-4.73 -0.17,-0.3 -0.48,-0.7 -0.91,-1.21 -1.31,-1.28 -2.9,-1.83 -4.77,-1.63 -1.37,0.18 -2.55,0.67 -3.56,1.48 -0.68,0.5 -1.23,1.13 -1.63,1.89 -0.25,0.53 -0.38,0.91 -0.38,1.12 0,0.21 0.05,0.61 0.15,1.19zm36.61 -13.82c-0.18,-0.08 -0.34,-0.18 -0.49,-0.31 -1.16,-0.73 -2.54,-1.19 -4.13,-1.36 -1.31,-0.15 -2.58,-0.03 -3.81,0.38 -1.22,0.4 -2.24,1.1 -3.05,2.08 -1.56,1.92 -2.38,4.22 -2.46,6.9 0.05,-0.03 0.12,-0.09 0.19,-0.19 0.08,-0.1 0.15,-0.19 0.23,-0.27 0.2,-0.2 0.4,-0.39 0.59,-0.58 0.19,-0.19 0.43,-0.38 0.74,-0.55 0.78,-0.51 1.53,-0.86 2.26,-1.07 1.83,-0.48 3.64,-0.51 5.44,-0.11 1.81,0.4 3.32,1.3 4.53,2.69 1.11,1.34 1.76,2.89 1.96,4.66 0.23,2.28 -0.09,4.17 -0.96,5.67 -0.87,1.5 -1.91,2.66 -3.11,3.47 -1.42,0.9 -3.12,1.41 -5.11,1.51 -0.92,0 -1.87,-0.09 -2.89,-0.25 -1.01,-0.16 -1.89,-0.44 -2.65,-0.85 -0.2,-0.1 -0.39,-0.2 -0.57,-0.3 -0.17,-0.1 -0.34,-0.22 -0.49,-0.35 -0.08,-0.04 -0.15,-0.09 -0.22,-0.15 -0.08,-0.05 -0.16,-0.11 -0.23,-0.18 -0.74,-0.56 -1.39,-1.3 -1.97,-2.2 -0.89,-1.34 -1.5,-2.95 -1.86,-4.82 -0.33,-1.81 -0.4,-3.8 -0.22,-5.96 0.17,-2.16 0.6,-4.04 1.28,-5.63 0.28,-0.68 0.55,-1.24 0.8,-1.68 0.25,-0.45 0.58,-0.96 0.98,-1.53 0.36,-0.54 0.74,-1.01 1.14,-1.41 0.41,-0.46 0.83,-0.84 1.28,-1.17 1.52,-1.12 3.21,-1.78 5.09,-2.01 1.86,-0.23 3.71,-0.05 5.52,0.53 0.31,0.1 0.69,0.27 1.17,0.49l1.02 0.61 0 3.94zm-13.88 13.82c0.28,1.59 0.95,2.89 2.01,3.9 1.06,1.01 2.44,1.48 4.12,1.4 1.7,-0.03 3.02,-0.6 3.98,-1.7 0.13,-0.08 0.24,-0.2 0.34,-0.34 0.18,-0.26 0.28,-0.4 0.3,-0.42 0.21,-0.3 0.37,-0.62 0.5,-0.95 0.66,-1.61 0.6,-3.19 -0.15,-4.73 -0.18,-0.3 -0.48,-0.7 -0.91,-1.21 -1.32,-1.28 -2.91,-1.83 -4.77,-1.63 -1.37,0.18 -2.55,0.67 -3.57,1.48 -0.67,0.5 -1.22,1.13 -1.63,1.89 -0.25,0.53 -0.37,0.91 -0.37,1.12 0,0.21 0.05,0.61 0.15,1.19z"/>
 </g>
</svg>
