<?xml version="1.0" encoding="UTF-8"?>
<!DOCTYPE svg PUBLIC "-//W3C//DTD SVG 1.1//EN" "http://www.w3.org/Graphics/SVG/1.1/DTD/svg11.dtd">
<!-- Creator: CorelDRAW 2019 (64-Bit) -->
<svg xmlns="http://www.w3.org/2000/svg" xml:space="preserve" width="591px" height="591px" version="1.1" style="shape-rendering:geometricPrecision; text-rendering:geometricPrecision; image-rendering:optimizeQuality; fill-rule:evenodd; clip-rule:evenodd"
viewBox="0 0 36.38 36.38"
 xmlns:xlink="http://www.w3.org/1999/xlink">
 <defs>
  <style type="text/css">
   <![CDATA[
    .fil0 {fill:#0E4F95}
    .fil1 {fill:#FEFEFE;fill-rule:nonzero}
   ]]>
  </style>
 </defs>
 <g id="Layer_x0020_1">
  <metadata id="CorelCorpID_0Corel-Layer"/>
  <g id="_1912705381376">
   <circle class="fil0" cx="18.19" cy="18.19" r="18.19"/>
  </g>
  <path class="fil1" d="M16.25 12.55c-0.12,-0.05 -0.22,-0.12 -0.33,-0.2 -0.76,-0.49 -1.67,-0.79 -2.72,-0.9 -0.87,-0.1 -1.71,-0.02 -2.52,0.25 -0.81,0.26 -1.48,0.72 -2.01,1.37 -1.04,1.27 -1.58,2.79 -1.63,4.56 0.03,-0.02 0.07,-0.06 0.13,-0.13 0.04,-0.06 0.09,-0.12 0.15,-0.17 0.13,-0.13 0.26,-0.26 0.38,-0.39 0.13,-0.12 0.29,-0.24 0.49,-0.36 0.52,-0.34 1.02,-0.57 1.5,-0.7 1.21,-0.32 2.4,-0.35 3.59,-0.08 1.2,0.27 2.19,0.86 2.99,1.78 0.74,0.88 1.17,1.91 1.3,3.08 0.15,1.5 -0.06,2.75 -0.63,3.74 -0.58,1 -1.26,1.76 -2.06,2.3 -0.93,0.59 -2.06,0.93 -3.38,1 -0.6,0 -1.23,-0.06 -1.9,-0.17 -0.67,-0.11 -1.25,-0.29 -1.75,-0.56 -0.14,-0.07 -0.26,-0.13 -0.38,-0.2 -0.12,-0.07 -0.23,-0.14 -0.33,-0.23 -0.05,-0.03 -0.09,-0.06 -0.14,-0.1 -0.06,-0.03 -0.11,-0.07 -0.15,-0.12 -0.49,-0.37 -0.92,-0.85 -1.31,-1.45 -0.58,-0.89 -0.99,-1.95 -1.22,-3.19 -0.22,-1.2 -0.27,-2.51 -0.15,-3.94 0.11,-1.42 0.4,-2.66 0.85,-3.71 0.18,-0.46 0.36,-0.83 0.52,-1.12 0.17,-0.29 0.39,-0.63 0.65,-1.01 0.24,-0.36 0.49,-0.66 0.75,-0.93 0.27,-0.3 0.56,-0.56 0.85,-0.78 1.01,-0.73 2.12,-1.17 3.36,-1.32 1.24,-0.15 2.45,-0.03 3.65,0.35 0.2,0.06 0.46,0.18 0.78,0.32l0.67 0.41 0 2.6zm-9.17 9.13c0.18,1.05 0.62,1.91 1.32,2.58 0.71,0.67 1.62,0.97 2.73,0.92 1.12,-0.01 2,-0.39 2.63,-1.12 0.08,-0.05 0.16,-0.13 0.22,-0.23 0.12,-0.16 0.19,-0.26 0.2,-0.27 0.14,-0.2 0.25,-0.41 0.33,-0.63 0.43,-1.07 0.4,-2.11 -0.1,-3.12 -0.11,-0.21 -0.32,-0.47 -0.6,-0.8 -0.87,-0.85 -1.92,-1.21 -3.15,-1.08 -0.91,0.12 -1.69,0.44 -2.36,0.97 -0.45,0.34 -0.8,0.76 -1.07,1.26 -0.17,0.35 -0.25,0.59 -0.25,0.73 0,0.15 0.03,0.41 0.1,0.79zm13.24 5.68l6.93 -15.68 -8.48 0 0 -2.57 12.69 0 -8.06 18.25 -3.08 0z"/>
 </g>
</svg>
