<?xml version="1.0" encoding="UTF-8"?>
<!DOCTYPE svg PUBLIC "-//W3C//DTD SVG 1.1//EN" "http://www.w3.org/Graphics/SVG/1.1/DTD/svg11.dtd">
<!-- Creator: CorelDRAW 2021.5 -->
<svg xmlns="http://www.w3.org/2000/svg" xml:space="preserve" width="590px" height="590px" version="1.1" style="shape-rendering:geometricPrecision; text-rendering:geometricPrecision; image-rendering:optimizeQuality; fill-rule:evenodd; clip-rule:evenodd"
viewBox="0 0 291.55 291.55"
 xmlns:xlink="http://www.w3.org/1999/xlink"
 xmlns:xodm="http://www.corel.com/coreldraw/odm/2003">
 <defs>
  <style type="text/css">
   <![CDATA[
    .fil0 {fill:#0E4F95}
    .fil1 {fill:white;fill-rule:nonzero}
   ]]>
  </style>
 </defs>
 <g id="Layer_x0020_1">
  <metadata id="CorelCorpID_0Corel-Layer"/>
  <circle class="fil0" cx="145.77" cy="145.77" r="145.77"/>
  <path class="fil1" d="M64.01 134.43c4.83,-4.63 10.56,-7.82 17.17,-9.64 10.25,-2.74 20.3,-2.91 30.14,-0.51 9.53,2.47 17.35,7.3 23.52,14.47 6.07,7.16 9.63,15.63 10.62,25.4 1.03,10.46 -0.34,19.82 -4.11,28.15 -3.8,8.57 -9.8,15.56 -17.96,20.98 -7.85,5.14 -17.01,7.88 -27.53,8.23 -4.84,0.13 -9.91,-0.28 -15.26,-1.2 -5.38,-0.93 -10.15,-2.54 -14.36,-4.84 -8.06,-4.49 -14.27,-10.21 -18.69,-17.17 -4.76,-7.1 -8.09,-15.6 -9.94,-25.51 -1.82,-9.7 -2.23,-20.23 -1.2,-31.54 0.92,-11.11 3.19,-20.91 6.82,-29.42 2.4,-5.82 5.45,-11.48 9.09,-16.93 3.63,-5.45 8.09,-10.08 13.3,-13.92 7.71,-5.76 16.56,-9.33 26.53,-10.73 9.91,-1.27 19.96,-0.35 30.1,2.81 2.23,0.79 4.39,1.78 6.55,2.95 2.13,1.2 4.29,2.33 6.41,3.46l-0.1 25.54c-5,-2.57 -9.19,-4.7 -12.55,-6.44 -3.32,-1.75 -7.92,-2.95 -13.74,-3.6 -6.69,-0.83 -13.03,-0.14 -19,1.98 -7.81,2.81 -13.85,7.82 -18.03,14.99 -4.18,7.16 -6.75,14.67 -7.78,22.49zm37.78 12.44c-7.24,-2.4 -14.4,-2.09 -21.5,0.93 -7.23,2.94 -12.44,7.5 -15.67,13.74 -0.99,2.03 -1.54,3.5 -1.61,4.46 -0.06,1 0.11,2.47 0.52,4.49 0.65,4.01 1.71,7.75 3.19,11.18 1.47,3.46 3.84,6.51 7.02,9.19 5.25,4.56 11.59,6.68 19.1,6.34 7.71,-0.21 14.06,-2.81 19.03,-7.89 5,-5.04 7.37,-11.58 7.09,-19.64 -0.48,-11.52 -6.2,-19.1 -17.17,-22.8z"/>
  <path class="fil1" d="M219.12 97.06l-64.59 0 0 -24.52 104.46 0c-10.83,24.38 -21.67,48.79 -32.43,73.2 -10.8,24.41 -21.57,48.75 -32.36,73.06l-28.91 -0.11 53.83 -121.63z"/>
 </g>
</svg>
