<?xml version="1.0" encoding="UTF-8"?>
<!DOCTYPE svg PUBLIC "-//W3C//DTD SVG 1.1//EN" "http://www.w3.org/Graphics/SVG/1.1/DTD/svg11.dtd">
<!-- Creator: CorelDRAW 2021.5 -->
<svg xmlns="http://www.w3.org/2000/svg" xml:space="preserve" width="590px" height="590px" version="1.1" style="shape-rendering:geometricPrecision; text-rendering:geometricPrecision; image-rendering:optimizeQuality; fill-rule:evenodd; clip-rule:evenodd"
viewBox="0 0 139.69 139.69"
 xmlns:xlink="http://www.w3.org/1999/xlink"
 xmlns:xodm="http://www.corel.com/coreldraw/odm/2003">
 <defs>
  <style type="text/css">
   <![CDATA[
    .fil0 {fill:#0E4F95}
    .fil1 {fill:white;fill-rule:nonzero}
   ]]>
  </style>
 </defs>
 <g id="Layer_x0020_1">
  <metadata id="CorelCorpID_0Corel-Layer"/>
  <circle class="fil0" cx="69.84" cy="69.84" r="69.84"/>
  <path class="fil1" d="M29.92 64.41c2.32,-2.22 5.06,-3.75 8.23,-4.62 4.91,-1.31 9.72,-1.39 14.44,-0.24 4.57,1.18 8.31,3.49 11.27,6.93 2.9,3.43 4.61,7.49 5.09,12.17 0.49,5.01 -0.17,9.49 -1.97,13.48 -1.83,4.11 -4.7,7.46 -8.61,10.06 -3.76,2.46 -8.15,3.78 -13.19,3.94 -2.32,0.07 -4.75,-0.13 -7.31,-0.57 -2.58,-0.45 -4.86,-1.22 -6.88,-2.32 -3.86,-2.15 -6.83,-4.9 -8.95,-8.23 -2.29,-3.4 -3.88,-7.47 -4.77,-12.22 -0.87,-4.65 -1.07,-9.69 -0.57,-15.11 0.44,-5.33 1.53,-10.02 3.27,-14.1 1.15,-2.79 2.61,-5.5 4.35,-8.11 1.74,-2.61 3.88,-4.83 6.37,-6.67 3.7,-2.76 7.94,-4.47 12.72,-5.14 4.74,-0.61 9.56,-0.17 14.42,1.34 1.07,0.38 2.1,0.86 3.14,1.42 1.01,0.57 2.05,1.11 3.07,1.66l-0.05 12.23c-2.4,-1.23 -4.4,-2.25 -6.01,-3.08 -1.6,-0.84 -3.8,-1.42 -6.59,-1.73 -3.2,-0.39 -6.24,-0.06 -9.1,0.95 -3.75,1.35 -6.64,3.75 -8.64,7.18 -2,3.44 -3.24,7.03 -3.73,10.78zm18.1 5.96c-3.46,-1.15 -6.9,-1 -10.3,0.44 -3.46,1.42 -5.96,3.6 -7.5,6.59 -0.48,0.97 -0.74,1.68 -0.78,2.14 -0.03,0.47 0.05,1.18 0.25,2.15 0.31,1.92 0.82,3.71 1.53,5.35 0.7,1.66 1.84,3.12 3.37,4.41 2.51,2.18 5.55,3.2 9.15,3.03 3.69,-0.09 6.73,-1.34 9.11,-3.77 2.4,-2.42 3.53,-5.56 3.4,-9.42 -0.23,-5.52 -2.97,-9.15 -8.23,-10.92z"/>
  <path class="fil1" d="M85.39 67.15c-1.89,-1.35 -3.38,-2.89 -4.47,-4.62 -1.67,-2.59 -2.49,-5.56 -2.49,-8.9 0,-6.16 1.98,-11.1 5.96,-14.83 3.91,-3.62 9.16,-5.44 15.78,-5.44 6.57,0 11.83,1.82 15.74,5.44 4.01,3.76 6.01,8.7 6.01,14.83 0,3.78 -1.15,7.13 -3.46,10.05 -1.09,1.35 -2.38,2.58 -3.9,3.72 3.08,1.52 5.49,3.55 7.22,6.06 2.11,3.07 3.18,6.75 3.18,11.02 0,2.69 -0.61,5.45 -1.81,8.28 -1.19,2.81 -3.05,5.32 -5.56,7.51 -4.52,3.91 -10.34,5.86 -17.42,5.86 -7.09,0 -12.87,-1.95 -17.37,-5.86 -2.53,-2.19 -4.41,-4.7 -5.61,-7.51 -1.2,-2.83 -1.8,-5.59 -1.8,-8.28 0,-3.98 0.98,-7.54 2.94,-10.69 1.69,-2.6 4.06,-4.82 7.06,-6.64zm10.6 5.01c-2.42,1.12 -4.32,2.74 -5.74,4.86 -1.41,2.17 -2.12,4.67 -2.12,7.46 0,3.24 1.19,6 3.52,8.28 2.35,2.3 5.19,3.46 8.52,3.46 3.34,0 6.21,-1.14 8.61,-3.41 2.29,-2.28 3.42,-5.06 3.42,-8.33 0,-2.99 -1.15,-5.42 -3.47,-7.33 -1.95,-1.46 -4.97,-2.79 -9.08,-3.99 -0.84,-0.18 -1.5,-0.36 -1.99,-0.52 -0.28,-0.07 -0.56,-0.13 -0.84,-0.22 -0.26,-0.08 -0.55,-0.16 -0.83,-0.26zm7.03 -8.57c0.67,-0.38 1.41,-0.84 2.2,-1.4 0.8,-0.54 1.56,-1.2 2.26,-1.97 1.78,-1.86 2.65,-4.06 2.65,-6.59 0,-2.76 -0.95,-5.14 -2.88,-7.13 -2.03,-1.95 -4.38,-2.92 -7.08,-2.92 -2.76,0 -5.12,0.97 -7.08,2.92 -1.92,1.92 -2.89,4.31 -2.89,7.13 0,2.6 0.89,4.62 2.67,6.06 1.52,1.28 4.04,2.37 7.5,3.27 0,0 0.38,0.1 1.15,0.3 0.35,0.06 0.86,0.16 1.5,0.33z"/>
 </g>
</svg>
