<?xml version="1.0" encoding="UTF-8"?>
<!DOCTYPE svg PUBLIC "-//W3C//DTD SVG 1.1//EN" "http://www.w3.org/Graphics/SVG/1.1/DTD/svg11.dtd">
<!-- Creator: CorelDRAW 2019 (64-Bit) -->
<svg xmlns="http://www.w3.org/2000/svg" xml:space="preserve" width="591px" height="591px" version="1.1" style="shape-rendering:geometricPrecision; text-rendering:geometricPrecision; image-rendering:optimizeQuality; fill-rule:evenodd; clip-rule:evenodd"
viewBox="0 0 27.17 27.17"
 xmlns:xlink="http://www.w3.org/1999/xlink">
 <defs>
  <style type="text/css">
   <![CDATA[
    .fil0 {fill:#0E4F95}
    .fil1 {fill:#FEFEFE;fill-rule:nonzero}
   ]]>
  </style>
 </defs>
 <g id="Layer_x0020_1">
  <metadata id="CorelCorpID_0Corel-Layer"/>
  <g id="_1912712885920">
   <circle class="fil0" cx="13.58" cy="13.58" r="13.58"/>
  </g>
  <path class="fil1" d="M12.23 9.37c-0.09,-0.04 -0.17,-0.09 -0.24,-0.15 -0.57,-0.36 -1.25,-0.59 -2.04,-0.67 -0.65,-0.08 -1.27,-0.02 -1.88,0.19 -0.6,0.19 -1.1,0.54 -1.5,1.02 -0.78,0.95 -1.18,2.09 -1.22,3.41 0.03,-0.02 0.06,-0.05 0.1,-0.1 0.03,-0.05 0.07,-0.09 0.11,-0.13 0.1,-0.1 0.19,-0.2 0.29,-0.29 0.09,-0.09 0.21,-0.18 0.36,-0.27 0.39,-0.25 0.76,-0.42 1.12,-0.53 0.9,-0.23 1.79,-0.25 2.68,-0.05 0.9,0.2 1.64,0.64 2.24,1.33 0.55,0.66 0.87,1.42 0.97,2.3 0.11,1.12 -0.05,2.05 -0.48,2.79 -0.43,0.74 -0.94,1.32 -1.53,1.71 -0.7,0.45 -1.54,0.7 -2.53,0.75 -0.45,0 -0.92,-0.04 -1.42,-0.12 -0.5,-0.08 -0.93,-0.22 -1.31,-0.42 -0.09,-0.05 -0.19,-0.1 -0.28,-0.15 -0.08,-0.05 -0.17,-0.11 -0.24,-0.17 -0.04,-0.02 -0.07,-0.05 -0.11,-0.07 -0.04,-0.03 -0.08,-0.06 -0.11,-0.1 -0.37,-0.27 -0.69,-0.63 -0.98,-1.08 -0.43,-0.66 -0.74,-1.46 -0.91,-2.38 -0.16,-0.89 -0.2,-1.88 -0.11,-2.94 0.08,-1.07 0.3,-1.99 0.63,-2.78 0.14,-0.33 0.27,-0.61 0.39,-0.83 0.13,-0.22 0.29,-0.47 0.49,-0.75 0.18,-0.27 0.36,-0.5 0.56,-0.7 0.2,-0.22 0.41,-0.41 0.64,-0.58 0.75,-0.55 1.58,-0.87 2.5,-0.99 0.92,-0.11 1.83,-0.02 2.73,0.27 0.15,0.04 0.34,0.13 0.58,0.24l0.5 0.3 0 1.94zm-6.85 6.82c0.14,0.78 0.47,1.43 0.99,1.92 0.53,0.5 1.2,0.73 2.04,0.7 0.83,-0.02 1.49,-0.3 1.96,-0.84 0.06,-0.04 0.12,-0.1 0.17,-0.17 0.09,-0.13 0.14,-0.2 0.15,-0.21 0.1,-0.15 0.18,-0.3 0.24,-0.47 0.33,-0.79 0.3,-1.57 -0.07,-2.33 -0.09,-0.15 -0.24,-0.35 -0.45,-0.6 -0.65,-0.63 -1.44,-0.9 -2.36,-0.8 -0.67,0.09 -1.25,0.33 -1.75,0.73 -0.34,0.25 -0.61,0.56 -0.81,0.93 -0.12,0.26 -0.18,0.45 -0.18,0.55 0,0.11 0.02,0.3 0.07,0.59zm9.2 0.38c0,-0.9 0.22,-1.63 0.67,-2.18 0.45,-0.54 0.96,-0.97 1.53,-1.27 -0.45,-0.26 -0.83,-0.61 -1.14,-1.05 -0.31,-0.45 -0.47,-1.01 -0.47,-1.68 0,-1.05 0.34,-1.95 1.03,-2.7 0.69,-0.76 1.72,-1.13 3.1,-1.13 1.39,0 2.42,0.38 3.11,1.14 0.68,0.76 1.03,1.66 1.03,2.69 0,0.82 -0.22,1.46 -0.65,1.89 -0.43,0.44 -0.78,0.74 -1.06,0.9 1.55,0.66 2.32,1.79 2.32,3.39 0,0.92 -0.38,1.83 -1.15,2.75 -0.76,0.9 -1.96,1.36 -3.6,1.36 -1.63,0 -2.82,-0.46 -3.58,-1.36 -0.76,-0.92 -1.14,-1.83 -1.14,-2.75zm2.08 0c0,0.72 0.26,1.33 0.78,1.83 0.52,0.5 1.14,0.75 1.86,0.75 0.73,0 1.35,-0.24 1.88,-0.73 0.52,-0.49 0.78,-1.1 0.78,-1.85 0,-0.72 -0.26,-1.26 -0.79,-1.61 -0.53,-0.36 -1.17,-0.65 -1.9,-0.86 -0.17,-0.05 -0.44,-0.12 -0.81,-0.22 -0.54,0.24 -0.97,0.58 -1.3,1.05 -0.33,0.46 -0.5,1 -0.5,1.64zm2.62 -4.09c0.03,0.01 0.14,0.04 0.33,0.09 0.19,0.04 0.3,0.06 0.31,0.06 0.27,-0.16 0.61,-0.41 1.01,-0.76 0.4,-0.34 0.59,-0.83 0.59,-1.48 0,-0.61 -0.21,-1.14 -0.65,-1.58 -0.43,-0.44 -0.96,-0.66 -1.57,-0.66 -0.61,0 -1.13,0.21 -1.55,0.65 -0.43,0.44 -0.65,0.97 -0.65,1.59 0,0.63 0.2,1.1 0.61,1.4 0.4,0.3 0.93,0.53 1.57,0.69z"/>
 </g>
</svg>
