<?xml version="1.0" encoding="UTF-8"?>
<!DOCTYPE svg PUBLIC "-//W3C//DTD SVG 1.1//EN" "http://www.w3.org/Graphics/SVG/1.1/DTD/svg11.dtd">
<!-- Creator: CorelDRAW 2021.5 -->
<svg xmlns="http://www.w3.org/2000/svg" xml:space="preserve" width="590px" height="590px" version="1.1" style="shape-rendering:geometricPrecision; text-rendering:geometricPrecision; image-rendering:optimizeQuality; fill-rule:evenodd; clip-rule:evenodd"
viewBox="0 0 91.85 91.85"
 xmlns:xlink="http://www.w3.org/1999/xlink"
 xmlns:xodm="http://www.corel.com/coreldraw/odm/2003">
 <defs>
  <style type="text/css">
   <![CDATA[
    .fil0 {fill:#0E4F95}
    .fil1 {fill:white;fill-rule:nonzero}
   ]]>
  </style>
 </defs>
 <g id="Layer_x0020_1">
  <metadata id="CorelCorpID_0Corel-Layer"/>
  <circle class="fil0" cx="45.92" cy="45.92" r="45.92"/>
  <path class="fil1" d="M18.54 42.35c1.52,-1.46 3.33,-2.46 5.41,-3.04 3.23,-0.86 6.39,-0.91 9.49,-0.16 3.01,0.78 5.47,2.3 7.41,4.56 1.91,2.26 3.04,4.92 3.35,8 0.33,3.3 -0.11,6.25 -1.29,8.87 -1.2,2.7 -3.09,4.9 -5.66,6.61 -2.48,1.62 -5.36,2.48 -8.68,2.59 -1.52,0.05 -3.12,-0.08 -4.8,-0.38 -1.7,-0.29 -3.2,-0.8 -4.53,-1.52 -2.54,-1.41 -4.49,-3.22 -5.88,-5.41 -1.51,-2.24 -2.55,-4.91 -3.14,-8.04 -0.57,-3.05 -0.7,-6.37 -0.38,-9.93 0.3,-3.5 1.01,-6.59 2.15,-9.27 0.76,-1.83 1.72,-3.62 2.87,-5.33 1.14,-1.72 2.55,-3.18 4.19,-4.39 2.43,-1.81 5.21,-2.94 8.36,-3.38 3.12,-0.4 6.28,-0.11 9.48,0.89 0.7,0.24 1.38,0.56 2.06,0.92 0.67,0.38 1.35,0.74 2.02,1.1l-0.03 8.04c-1.58,-0.81 -2.89,-1.48 -3.95,-2.03 -1.05,-0.55 -2.5,-0.93 -4.33,-1.13 -2.11,-0.26 -4.11,-0.05 -5.99,0.62 -2.46,0.89 -4.36,2.47 -5.68,4.72 -1.32,2.26 -2.13,4.63 -2.45,7.09zm11.9 3.92c-2.28,-0.76 -4.53,-0.66 -6.77,0.29 -2.28,0.93 -3.92,2.37 -4.94,4.33 -0.31,0.64 -0.48,1.1 -0.5,1.41 -0.03,0.31 0.03,0.77 0.16,1.41 0.2,1.26 0.54,2.44 1,3.52 0.47,1.09 1.21,2.05 2.22,2.9 1.65,1.43 3.65,2.1 6.01,1.99 2.43,-0.06 4.43,-0.88 6,-2.48 1.57,-1.59 2.32,-3.65 2.23,-6.19 -0.15,-3.63 -1.95,-6.01 -5.41,-7.18z"/>
  <path class="fil1" d="M72.39 53.24c0.4,-1.22 0.7,-2.5 0.92,-3.81 -1.61,1.46 -3.43,2.47 -5.45,3.02 -3.31,0.9 -6.47,0.95 -9.46,0.15 -3.03,-0.76 -5.52,-2.27 -7.44,-4.53 -1.91,-2.25 -3.03,-4.93 -3.35,-8.03 -0.3,-3.28 0.13,-6.22 1.3,-8.86 1.26,-2.85 3.2,-5.06 5.81,-6.66 2.6,-1.59 5.45,-2.44 8.55,-2.55 2.6,-0.07 5.08,0.31 7.44,1.12 2.36,0.81 4.44,2.2 6.24,4.17 2.31,2.61 3.88,5.96 4.67,10.06 0.58,3.12 0.71,6.43 0.38,9.93 -0.35,3.65 -1.07,6.75 -2.15,9.3 -0.8,1.84 -1.77,3.62 -2.92,5.34 -1.15,1.71 -2.54,3.18 -4.16,4.38 -2.45,1.77 -5.23,2.87 -8.35,3.33 -3.13,0.43 -6.29,0.15 -9.46,-0.87 -0.75,-0.2 -1.45,-0.49 -2.13,-0.88 -0.67,-0.38 -1.34,-0.76 -1.99,-1.13l0.04 -8.04c1.57,0.82 2.89,1.51 3.93,2.07 1.04,0.55 2.49,0.93 4.35,1.13 2.17,0.22 4.18,0.02 6.01,-0.64 1.84,-0.66 3.33,-1.7 4.5,-3.13 1.15,-1.44 2.06,-3.06 2.72,-4.87zm-7.09 -7.32c1.89,-0.18 3.68,-0.91 5.35,-2.18 1.05,-0.8 1.86,-1.76 2.43,-2.88 0.32,-0.61 0.49,-1.07 0.51,-1.37 0.02,-0.31 -0.02,-0.79 -0.13,-1.44 -0.51,-2.81 -1.59,-4.95 -3.25,-6.43 -1.63,-1.41 -3.63,-2.08 -6.02,-1.99 -2.49,0.08 -4.5,0.94 -6.05,2.57 -1.53,1.62 -2.26,3.65 -2.18,6.1 0.09,2.13 0.81,3.87 2.18,5.22 1.93,1.92 4.31,2.72 7.16,2.4z"/>
 </g>
</svg>
