<?xml version="1.0" encoding="UTF-8"?>
<!DOCTYPE svg PUBLIC "-//W3C//DTD SVG 1.1//EN" "http://www.w3.org/Graphics/SVG/1.1/DTD/svg11.dtd">
<!-- Creator: CorelDRAW 2019 (64-Bit) -->
<svg xmlns="http://www.w3.org/2000/svg" xml:space="preserve" width="591px" height="591px" version="1.1" style="shape-rendering:geometricPrecision; text-rendering:geometricPrecision; image-rendering:optimizeQuality; fill-rule:evenodd; clip-rule:evenodd"
viewBox="0 0 21.68 21.68"
 xmlns:xlink="http://www.w3.org/1999/xlink">
 <defs>
  <style type="text/css">
   <![CDATA[
    .fil1 {fill:#0E4F95}
    .fil0 {fill:#FEFEFE;fill-rule:nonzero}
   ]]>
  </style>
 </defs>
 <g id="Layer_x0020_1">
  <metadata id="CorelCorpID_0Corel-Layer"/>
  <path class="fil0" d="M9.47 16.06l-1.63 0 0 -8.06 -2.33 1.34 0 -1.65 3.96 -2.28 0 10.65zm1.54 -2.09c0.41,0.26 0.91,0.48 1.49,0.64 0.57,0.16 1.17,0.21 1.78,0.15 0.52,-0.05 1.02,-0.21 1.49,-0.5 0.47,-0.28 0.76,-0.7 0.86,-1.27 0.1,-0.65 -0.02,-1.17 -0.39,-1.57 -0.35,-0.4 -0.78,-0.66 -1.28,-0.8 -0.42,-0.1 -0.88,-0.13 -1.38,-0.1 -0.5,0.04 -0.95,0.1 -1.36,0.2 -0.15,0.04 -0.28,0.08 -0.41,0.13 -0.13,0.04 -0.26,0.08 -0.39,0.11l0.7 -5.55 5.49 0 0 1.45 -4.28 0 -0.31 2.46c0.09,-0.01 0.18,-0.03 0.27,-0.06 0.09,-0.02 0.18,-0.04 0.28,-0.06 0.18,-0.03 0.38,-0.05 0.58,-0.05 1.21,-0.03 2.21,0.27 3,0.9 0.21,0.17 0.41,0.38 0.6,0.63 0.19,0.24 0.34,0.54 0.44,0.89 0.1,0.34 0.15,0.72 0.15,1.14 0,0.42 -0.06,0.79 -0.18,1.11 -0.24,0.64 -0.62,1.14 -1.13,1.52 -0.51,0.37 -1.09,0.63 -1.72,0.77 -0.51,0.11 -1.08,0.16 -1.71,0.13 -0.64,-0.03 -1.2,-0.13 -1.7,-0.31 -0.27,-0.1 -0.49,-0.19 -0.68,-0.28 -0.01,-0.01 -0.09,-0.05 -0.21,-0.11l0 -1.57z"/>
  <g id="_1912712880832">
   <circle class="fil1" cx="10.84" cy="10.84" r="10.84"/>
  </g>
  <path class="fil0" d="M9.61 7.48c-0.07,-0.03 -0.13,-0.07 -0.19,-0.12 -0.46,-0.29 -1,-0.47 -1.63,-0.54 -0.51,-0.06 -1.02,-0.01 -1.5,0.15 -0.48,0.16 -0.88,0.43 -1.2,0.82 -0.61,0.76 -0.94,1.66 -0.97,2.72 0.02,-0.01 0.05,-0.04 0.08,-0.08 0.03,-0.04 0.06,-0.07 0.09,-0.11 0.08,-0.07 0.15,-0.15 0.23,-0.22 0.07,-0.08 0.17,-0.15 0.29,-0.22 0.31,-0.2 0.61,-0.34 0.89,-0.42 0.72,-0.19 1.43,-0.2 2.14,-0.04 0.72,0.15 1.31,0.51 1.79,1.05 0.43,0.53 0.69,1.14 0.77,1.84 0.09,0.9 -0.04,1.64 -0.38,2.23 -0.34,0.59 -0.75,1.05 -1.22,1.37 -0.56,0.35 -1.23,0.55 -2.02,0.59 -0.36,0 -0.73,-0.03 -1.13,-0.1 -0.4,-0.06 -0.75,-0.17 -1.05,-0.33 -0.08,-0.04 -0.15,-0.08 -0.22,-0.12 -0.07,-0.04 -0.14,-0.08 -0.19,-0.14 -0.03,-0.01 -0.06,-0.03 -0.09,-0.05 -0.03,-0.02 -0.06,-0.05 -0.09,-0.08 -0.29,-0.22 -0.55,-0.51 -0.78,-0.86 -0.35,-0.53 -0.59,-1.16 -0.73,-1.9 -0.13,-0.71 -0.16,-1.5 -0.09,-2.35 0.07,-0.85 0.24,-1.59 0.51,-2.21 0.11,-0.27 0.21,-0.49 0.31,-0.67 0.1,-0.17 0.23,-0.37 0.39,-0.6 0.14,-0.21 0.29,-0.39 0.45,-0.55 0.16,-0.18 0.32,-0.34 0.5,-0.47 0.6,-0.43 1.27,-0.7 2,-0.78 0.74,-0.1 1.46,-0.03 2.18,0.2 0.12,0.04 0.27,0.11 0.46,0.2l0.4 0.24 0 1.55zm-5.46 5.44c0.1,0.62 0.37,1.14 0.79,1.53 0.41,0.4 0.96,0.59 1.62,0.56 0.67,-0.02 1.19,-0.24 1.57,-0.67 0.05,-0.03 0.09,-0.08 0.13,-0.14 0.07,-0.1 0.11,-0.15 0.12,-0.16 0.08,-0.12 0.15,-0.25 0.19,-0.38 0.26,-0.63 0.24,-1.25 -0.05,-1.86 -0.07,-0.12 -0.19,-0.28 -0.36,-0.48 -0.52,-0.5 -1.15,-0.72 -1.88,-0.64 -0.54,0.07 -1,0.27 -1.4,0.58 -0.27,0.2 -0.49,0.45 -0.65,0.75 -0.09,0.21 -0.14,0.36 -0.14,0.44 0,0.08 0.02,0.24 0.06,0.47zm7.89 2.92l0.02 -1.57c0.12,0.08 0.18,0.12 0.18,0.12 0.42,0.29 0.97,0.48 1.62,0.55 0.52,0.06 1.02,0.01 1.5,-0.15 0.48,-0.15 0.89,-0.43 1.22,-0.82 0.6,-0.74 0.92,-1.65 0.97,-2.73 -0.03,0.02 -0.07,0.05 -0.09,0.09 -0.03,0.04 -0.06,0.07 -0.08,0.09 -0.21,0.21 -0.38,0.37 -0.52,0.46 -0.28,0.19 -0.58,0.32 -0.91,0.42 -0.72,0.2 -1.43,0.22 -2.15,0.06 -0.71,-0.16 -1.3,-0.51 -1.76,-1.07 -0.44,-0.52 -0.7,-1.14 -0.77,-1.85 -0.08,-0.89 0.05,-1.62 0.38,-2.22 0.33,-0.59 0.74,-1.05 1.22,-1.38 0.57,-0.37 1.24,-0.58 2.02,-0.61 0.35,0 0.73,0.03 1.12,0.1 0.4,0.06 0.75,0.18 1.05,0.35 0.21,0.13 0.35,0.21 0.41,0.25 0.03,0.03 0.06,0.06 0.09,0.08 0.03,0.02 0.06,0.04 0.1,0.07 0.27,0.22 0.53,0.5 0.78,0.85 0.33,0.54 0.58,1.17 0.73,1.9 0.14,0.71 0.17,1.5 0.09,2.36 -0.08,0.86 -0.25,1.6 -0.51,2.2 -0.12,0.27 -0.23,0.5 -0.33,0.67 -0.1,0.18 -0.22,0.39 -0.37,0.61 -0.14,0.2 -0.29,0.39 -0.45,0.56 -0.19,0.18 -0.36,0.34 -0.52,0.46 -0.6,0.43 -1.26,0.68 -2,0.77 -0.73,0.08 -1.46,0.01 -2.16,-0.21 -0.17,-0.03 -0.32,-0.1 -0.46,-0.19l-0.42 -0.22zm1.47 -5.42c0.49,0.52 1.12,0.73 1.88,0.65 0.49,-0.06 0.95,-0.24 1.39,-0.57 0.29,-0.22 0.5,-0.47 0.64,-0.76 0.1,-0.19 0.15,-0.33 0.14,-0.42 0,-0.09 -0.02,-0.25 -0.05,-0.49 -0.11,-0.61 -0.38,-1.11 -0.8,-1.51 -0.42,-0.41 -0.96,-0.6 -1.62,-0.58 -0.67,0.04 -1.19,0.27 -1.56,0.67 -0.03,0.03 -0.06,0.06 -0.08,0.08 -0.02,0.02 -0.04,0.04 -0.06,0.07 -0.07,0.1 -0.11,0.16 -0.12,0.17 -0.07,0.11 -0.13,0.22 -0.19,0.35 -0.26,0.66 -0.23,1.28 0.08,1.87 0.08,0.19 0.2,0.34 0.35,0.47z"/>
 </g>
</svg>
