<?xml version="1.0" encoding="UTF-8"?>
<!DOCTYPE svg PUBLIC "-//W3C//DTD SVG 1.1//EN" "http://www.w3.org/Graphics/SVG/1.1/DTD/svg11.dtd">
<!-- Creator: CorelDRAW 2021.5 -->
<svg xmlns="http://www.w3.org/2000/svg" xml:space="preserve" width="590px" height="590px" version="1.1" style="shape-rendering:geometricPrecision; text-rendering:geometricPrecision; image-rendering:optimizeQuality; fill-rule:evenodd; clip-rule:evenodd"
viewBox="0 0 3347.31 3347.33"
 xmlns:xlink="http://www.w3.org/1999/xlink"
 xmlns:xodm="http://www.corel.com/coreldraw/odm/2003">
 <defs>
  <style type="text/css">
   <![CDATA[
    .fil0 {fill:#0E4F95}
    .fil1 {fill:white;fill-rule:nonzero}
   ]]>
  </style>
 </defs>
 <g id="Layer_x0020_1">
  <metadata id="CorelCorpID_0Corel-Layer"/>
  <circle class="fil0" cx="1673.65" cy="1673.66" r="1673.66"/>
  <path class="fil1" d="M910.27 1530.38c55.5,-53.14 121.23,-89.74 197.19,-110.61 117.71,-31.48 233.03,-33.46 346,-5.91 109.42,28.35 199.18,83.85 270.03,166.11 69.67,82.28 110.61,179.5 122.03,291.69 11.8,120.05 -3.95,227.5 -47.25,323.15 -43.68,98.41 -112.57,178.71 -206.25,240.91 -90.14,59.03 -195.23,90.53 -316.09,94.46 -55.49,1.57 -113.74,-3.15 -175.14,-13.78 -61.81,-10.62 -116.52,-29.13 -164.94,-55.49 -92.49,-51.57 -163.74,-117.31 -214.52,-197.21 -54.71,-81.48 -92.9,-179.1 -114.16,-292.86 -20.85,-111.4 -25.57,-232.24 -13.77,-362.13 10.63,-127.53 36.62,-240.1 78.34,-337.73 27.55,-66.91 62.58,-131.85 104.3,-194.45 41.73,-62.57 92.89,-115.71 152.73,-159.8 88.57,-66.12 190.12,-107.06 304.65,-123.21 113.76,-14.56 229.09,-3.94 345.61,32.28 25.58,9.06 50.38,20.47 75.19,33.84 24.4,13.79 49.2,26.78 73.6,39.77l-1.18 293.24c-57.48,-29.52 -105.5,-53.92 -144.07,-73.99 -38.18,-20.08 -90.92,-33.86 -157.85,-41.34 -76.75,-9.44 -149.57,-1.57 -218.06,22.83 -89.74,32.28 -159.01,89.74 -207.05,172.02 -48.01,82.26 -77.54,168.47 -89.34,258.21zm433.77 142.88c-83.05,-27.55 -165.33,-24 -246.8,10.63 -83.05,33.86 -142.88,86.21 -179.89,157.84 -11.41,23.23 -17.71,40.15 -18.49,51.18 -0.79,11.42 1.17,28.34 5.89,51.55 7.48,46.06 19.68,88.97 36.62,128.32 16.92,39.77 44.08,74.8 80.69,105.49 60.21,52.36 133.04,76.77 219.25,72.82 88.55,-2.36 161.37,-32.26 218.46,-90.52 57.46,-57.86 84.62,-133.04 81.47,-225.55 -5.5,-132.25 -71.24,-219.25 -197.2,-261.76z"/>
  <path class="fil1" d="M2093.67 2495.57l85.59 -254 409.06 0.47 84.64 253.53 208.55 0 -393.91 -1169.21 -204.94 0 -393.93 1169.21 204.94 0zm290.98 -863.65l134.06 401.55 -269.34 0 135.28 -401.55z"/>
 </g>
</svg>
