<?xml version="1.0" encoding="UTF-8"?>
<!DOCTYPE svg PUBLIC "-//W3C//DTD SVG 1.1//EN" "http://www.w3.org/Graphics/SVG/1.1/DTD/svg11.dtd">
<!-- Creator: CorelDRAW 2019 (64-Bit) -->
<svg xmlns="http://www.w3.org/2000/svg" xml:space="preserve" width="591px" height="591px" version="1.1" style="shape-rendering:geometricPrecision; text-rendering:geometricPrecision; image-rendering:optimizeQuality; fill-rule:evenodd; clip-rule:evenodd"
viewBox="0 0 459.34 459.34"
 xmlns:xlink="http://www.w3.org/1999/xlink">
 <defs>
  <style type="text/css">
   <![CDATA[
    .fil0 {fill:#0E4F95}
    .fil1 {fill:#FEFEFE;fill-rule:nonzero}
   ]]>
  </style>
 </defs>
 <g id="Layer_x0020_1">
  <metadata id="CorelCorpID_0Corel-Layer"/>
  <circle class="fil0" cx="229.67" cy="229.67" r="229.67"/>
  <path class="fil1" d="M229.99 155.17c-1.51,-0.65 -2.86,-1.46 -4.16,-2.54 -9.67,-6.1 -21.17,-9.94 -34.46,-11.39 -10.96,-1.25 -21.61,-0.22 -31.81,3.18 -10.27,3.35 -18.75,9.18 -25.5,17.4 -13.07,16.04 -19.93,35.27 -20.58,57.63 0.43,-0.22 0.97,-0.76 1.62,-1.62 0.6,-0.81 1.24,-1.57 1.89,-2.22 1.68,-1.67 3.3,-3.29 4.92,-4.86 1.56,-1.62 3.62,-3.13 6.16,-4.59 6.53,-4.27 12.85,-7.18 18.95,-8.91 15.24,-4 30.36,-4.32 45.43,-0.92 15.13,3.35 27.71,10.86 37.81,22.47 9.29,11.18 14.75,24.15 16.42,38.95 1.89,19.01 -0.75,34.78 -8.05,47.31 -7.23,12.59 -15.93,22.26 -25.98,29.01 -11.83,7.56 -26.09,11.77 -42.72,12.64 -7.62,0 -15.61,-0.7 -24.09,-2.05 -8.43,-1.41 -15.83,-3.73 -22.15,-7.13 -1.67,-0.87 -3.24,-1.68 -4.75,-2.54 -1.46,-0.81 -2.87,-1.79 -4.11,-2.87 -0.65,-0.37 -1.24,-0.81 -1.89,-1.24 -0.65,-0.43 -1.3,-0.97 -1.89,-1.56 -6.16,-4.65 -11.61,-10.81 -16.47,-18.37 -7.4,-11.18 -12.54,-24.63 -15.51,-40.24 -2.75,-15.18 -3.4,-31.82 -1.89,-49.86 1.46,-18.04 5.08,-33.7 10.75,-46.99 2.32,-5.73 4.54,-10.42 6.65,-14.1 2.1,-3.72 4.86,-7.99 8.21,-12.8 2.97,-4.48 6.15,-8.37 9.5,-11.72 3.41,-3.84 6.97,-7.08 10.75,-9.83 12.7,-9.29 26.79,-14.85 42.46,-16.75 15.61,-1.94 31,-0.43 46.18,4.43 2.54,0.81 5.78,2.22 9.78,4.11l8.53 5.08 0 32.89zm-116.02 115.49c2.32,13.28 7.94,24.14 16.8,32.57 8.85,8.48 20.36,12.37 34.46,11.72 14.15,-0.22 25.22,-4.97 33.27,-14.21 1.03,-0.65 2,-1.62 2.81,-2.86 1.51,-2.11 2.32,-3.3 2.54,-3.51 1.73,-2.49 3.08,-5.13 4.1,-7.89 5.51,-13.5 5.08,-26.68 -1.24,-39.54 -1.46,-2.54 -4,-5.89 -7.62,-10.1 -10.96,-10.75 -24.25,-15.28 -39.86,-13.61 -11.4,1.46 -21.28,5.56 -29.76,12.32 -5.67,4.21 -10.21,9.5 -13.61,15.82 -2.11,4.43 -3.14,7.56 -3.14,9.35 0,1.78 0.44,5.07 1.25,9.94z"/>
  <path class="fil1" d="M258.25 342.5l54.64 -160.45 22.91 0 54.69 160.45 -22.95 0 -14.33 -41.98 -57.73 0 -14.33 41.98 -22.9 0zm87.7 -63.64l-21.58 -63.04 -21.59 63.04 43.17 0z"/>
 </g>
</svg>
