<?xml version="1.0" encoding="UTF-8"?>
<!DOCTYPE svg PUBLIC "-//W3C//DTD SVG 1.1//EN" "http://www.w3.org/Graphics/SVG/1.1/DTD/svg11.dtd">
<svg xmlns="http://www.w3.org/2000/svg" xml:space="preserve" width="591px" height="591px" version="1.1" style="shape-rendering:geometricPrecision; text-rendering:geometricPrecision; image-rendering:optimizeQuality; fill-rule:evenodd; clip-rule:evenodd"
viewBox="0 0 17.73 17.73"
 xmlns:xlink="http://www.w3.org/1999/xlink">
 <defs>
  <style type="text/css">
   <![CDATA[
    .fil0 {fill:#0E4F95}
    .fil1 {fill:#FEFEFE;fill-rule:nonzero}
   ]]>
  </style>
 </defs>
 <g id="Layer_x0020_1">
  <metadata id="CorelCorpID_0Corel-Layer"/>
  <g id="_1912496282480">
   <circle class="fil0" cx="8.86" cy="8.86" r="8.86"/>
  </g>
  <path class="fil1" d="M3.75 13.33l3.38 -7.64 -4.14 0 0 -1.25 6.19 0 -3.93 8.89 -1.5 0zm8.77 0.16c-1.1,0 -1.93,-0.44 -2.48,-1.34 -0.54,-0.89 -0.82,-1.98 -0.82,-3.26 0,-1.27 0.28,-2.35 0.82,-3.26 0.55,-0.9 1.38,-1.35 2.48,-1.35 1.1,0 1.93,0.45 2.48,1.35 0.55,0.91 0.83,1.99 0.83,3.26 0,1.28 -0.28,2.37 -0.83,3.26 -0.55,0.9 -1.38,1.34 -2.48,1.34zm0 -1.23c0.66,0 1.15,-0.33 1.46,-0.98 0.32,-0.66 0.47,-1.45 0.47,-2.39 0,-0.92 -0.15,-1.72 -0.47,-2.37 -0.31,-0.66 -0.8,-0.99 -1.46,-0.99 -0.66,0 -1.15,0.33 -1.47,0.99 -0.31,0.65 -0.47,1.45 -0.47,2.37 0,0.94 0.16,1.73 0.47,2.39 0.32,0.65 0.81,0.98 1.47,0.98z"/>
 </g>
</svg>
