<?xml version="1.0" encoding="UTF-8"?>
<!DOCTYPE svg PUBLIC "-//W3C//DTD SVG 1.1//EN" "http://www.w3.org/Graphics/SVG/1.1/DTD/svg11.dtd">
<svg xmlns="http://www.w3.org/2000/svg" xml:space="preserve" width="591px" height="591px" version="1.1" style="shape-rendering:geometricPrecision; text-rendering:geometricPrecision; image-rendering:optimizeQuality; fill-rule:evenodd; clip-rule:evenodd"
viewBox="0 0 26.48 26.48"
 xmlns:xlink="http://www.w3.org/1999/xlink">
 <defs>
  <style type="text/css">
   <![CDATA[
    .fil0 {fill:#0E4F95}
    .fil1 {fill:#FEFEFE;fill-rule:nonzero}
   ]]>
  </style>
 </defs>
 <g id="Layer_x0020_1">
  <metadata id="CorelCorpID_0Corel-Layer"/>
  <g id="_1912699165088">
   <circle class="fil0" cx="13.24" cy="13.24" r="13.24"/>
  </g>
  <path class="fil1" d="M4.81 19.91l5.05 -11.41 -6.17 0 0 -1.87 9.23 0 -5.86 13.28 -2.25 0zm8.75 0l0 -1.86c2.3,-1.93 4.01,-3.44 5.13,-4.54 1.12,-1.1 1.68,-2.12 1.68,-3.05 0,-0.59 -0.22,-1.1 -0.66,-1.54 -0.44,-0.44 -0.96,-0.66 -1.54,-0.66 -0.95,0 -1.79,0.19 -2.52,0.59 -0.72,0.41 -1.14,0.65 -1.25,0.74 -0.09,-0.31 -0.17,-0.61 -0.26,-0.9 -0.08,-0.29 -0.16,-0.59 -0.23,-0.91 0.08,-0.05 0.53,-0.29 1.34,-0.73 0.8,-0.44 1.78,-0.66 2.92,-0.66 1.11,0 2.12,0.38 3,1.13 0.89,0.75 1.33,1.73 1.33,2.93 0,1.29 -0.44,2.43 -1.31,3.43 -0.87,1.01 -2.38,2.4 -4.51,4.17l6.11 0 0 1.86 -9.23 0z"/>
 </g>
</svg>
