<?xml version="1.0" encoding="UTF-8"?>
<!DOCTYPE svg PUBLIC "-//W3C//DTD SVG 1.1//EN" "http://www.w3.org/Graphics/SVG/1.1/DTD/svg11.dtd">
<!-- Creator: CorelDRAW 2021.5 -->
<svg xmlns="http://www.w3.org/2000/svg" xml:space="preserve" width="590px" height="590px" version="1.1" style="shape-rendering:geometricPrecision; text-rendering:geometricPrecision; image-rendering:optimizeQuality; fill-rule:evenodd; clip-rule:evenodd"
viewBox="0 0 128.92 128.93"
 xmlns:xlink="http://www.w3.org/1999/xlink"
 xmlns:xodm="http://www.corel.com/coreldraw/odm/2003">
 <defs>
  <style type="text/css">
   <![CDATA[
    .fil0 {fill:#0E4F95}
    .fil1 {fill:white;fill-rule:nonzero}
   ]]>
  </style>
 </defs>
 <g id="Layer_x0020_1">
  <metadata id="CorelCorpID_0Corel-Layer"/>
  <circle class="fil0" cx="64.46" cy="64.46" r="64.46"/>
  <path class="fil1" d="M49.68 42.97l-28.56 0 0 -10.84 46.19 0c-4.79,10.78 -9.58,21.58 -14.34,32.37 -4.77,10.8 -9.53,21.56 -14.31,32.31l-12.78 -0.05 23.8 -53.79z"/>
  <path class="fil1" d="M92.14 96.81l0 -16.39 -29.09 0 0 -9.82 29.62 -38.47 11.19 0 0 37.77 6.4 0 0 10.52 -6.4 0 0 16.39 -11.72 0zm0 -26.91l0 -20.53 -16.25 20.53 16.25 0z"/>
 </g>
</svg>
