<?xml version="1.0" encoding="UTF-8"?>
<!DOCTYPE svg PUBLIC "-//W3C//DTD SVG 1.1//EN" "http://www.w3.org/Graphics/SVG/1.1/DTD/svg11.dtd">
<svg xmlns="http://www.w3.org/2000/svg" xml:space="preserve" width="591px" height="591px" version="1.1" style="shape-rendering:geometricPrecision; text-rendering:geometricPrecision; image-rendering:optimizeQuality; fill-rule:evenodd; clip-rule:evenodd"
viewBox="0 0 102.01 102.01"
 xmlns:xlink="http://www.w3.org/1999/xlink">
 <defs>
  <style type="text/css">
   <![CDATA[
    .fil0 {fill:#0E4F95}
    .fil1 {fill:#FEFEFE;fill-rule:nonzero}
   ]]>
  </style>
 </defs>
 <g id="Layer_x0020_1">
  <metadata id="CorelCorpID_0Corel-Layer"/>
  <g id="_1912661888368">
   <circle class="fil0" cx="51.01" cy="51.01" r="51.01"/>
  </g>
  <path class="fil1" d="M20.47 76.72l19.44 -43.98 -23.78 0 0 -7.19 35.58 0 -22.6 51.17 -8.64 0zm32.97 -10.04c2,1.26 4.39,2.28 7.15,3.05 2.76,0.77 5.61,1.01 8.56,0.74 2.48,-0.24 4.85,-1.03 7.13,-2.38 2.26,-1.36 3.63,-3.39 4.1,-6.11 0.51,-3.09 -0.09,-5.6 -1.83,-7.51 -1.72,-1.92 -3.78,-3.2 -6.17,-3.86 -2.01,-0.47 -4.21,-0.62 -6.6,-0.45 -2.38,0.15 -4.56,0.47 -6.52,0.94 -0.71,0.19 -1.36,0.38 -1.97,0.6 -0.61,0.2 -1.24,0.38 -1.89,0.53l3.37 -26.6 26.31 0 0 6.97 -20.49 0 -1.48 11.77c0.42,-0.05 0.84,-0.13 1.27,-0.25 0.42,-0.11 0.87,-0.22 1.33,-0.31 0.89,-0.15 1.82,-0.22 2.8,-0.22 5.81,-0.14 10.6,1.28 14.39,4.28 0.98,0.85 1.94,1.85 2.85,3.02 0.91,1.17 1.63,2.6 2.13,4.28 0.48,1.63 0.71,3.47 0.71,5.48 0,2.01 -0.28,3.78 -0.84,5.33 -1.17,3.04 -2.98,5.46 -5.44,7.26 -2.45,1.8 -5.21,3.03 -8.25,3.68 -2.43,0.57 -5.16,0.78 -8.2,0.64 -3.05,-0.14 -5.77,-0.64 -8.15,-1.47 -1.27,-0.47 -2.33,-0.91 -3.23,-1.34 -0.09,-0.04 -0.45,-0.23 -1.04,-0.56l0 -7.51z"/>
 </g>
</svg>
