<?xml version="1.0" encoding="UTF-8"?>
<!DOCTYPE svg PUBLIC "-//W3C//DTD SVG 1.1//EN" "http://www.w3.org/Graphics/SVG/1.1/DTD/svg11.dtd">
<svg xmlns="http://www.w3.org/2000/svg" xml:space="preserve" width="591px" height="591px" version="1.1" style="shape-rendering:geometricPrecision; text-rendering:geometricPrecision; image-rendering:optimizeQuality; fill-rule:evenodd; clip-rule:evenodd"
viewBox="0 0 2081.31 2081.31"
 xmlns:xlink="http://www.w3.org/1999/xlink">
 <defs>
  <style type="text/css">
   <![CDATA[
    .fil0 {fill:#0E4F95}
    .fil1 {fill:#FEFEFE;fill-rule:nonzero}
   ]]>
  </style>
 </defs>
 <g id="Layer_x0020_1">
  <metadata id="CorelCorpID_0Corel-Layer"/>
  <g id="_1912705281840">
   <circle class="fil0" cx="1040.66" cy="1040.66" r="1040.66"/>
  </g>
  <path class="fil1" d="M408.3 1565.27l396.61 -897.3 -485.31 0 0 -146.62 726 0 -461.11 1043.92 -176.19 0zm1342.77 -847.45c-6.84,-2.93 -12.95,-6.59 -18.81,-11.49 -43.74,-27.6 -95.8,-44.96 -155.91,-51.56 -49.6,-5.62 -97.74,-0.98 -143.93,14.42 -46.42,15.16 -84.79,41.55 -115.33,78.69 -59.14,72.57 -90.18,159.56 -93.11,260.73 1.95,-0.97 4.4,-3.42 7.33,-7.33 2.69,-3.67 5.62,-7.09 8.56,-10.01 7.57,-7.58 14.9,-14.92 22.23,-22 7.08,-7.33 16.38,-14.18 27.86,-20.77 29.57,-19.31 58.16,-32.5 85.77,-40.32 68.91,-18.09 137.33,-19.55 205.51,-4.15 68.42,15.14 125.36,49.11 171.06,101.65 42.02,50.59 66.7,109.23 74.28,176.18 8.55,86.02 -3.42,157.37 -36.41,214.07 -32.74,56.93 -72.09,100.68 -117.53,131.22 -53.52,34.21 -118.04,53.27 -193.3,57.19 -34.45,0 -70.62,-3.19 -108.98,-9.3 -38.12,-6.34 -71.6,-16.86 -100.2,-32.25 -7.57,-3.91 -14.66,-7.57 -21.5,-11.49 -6.6,-3.66 -12.95,-8.06 -18.57,-12.94 -2.93,-1.72 -5.62,-3.67 -8.56,-5.63 -2.92,-1.95 -5.86,-4.39 -8.54,-7.09 -27.86,-21.01 -52.54,-48.87 -74.53,-83.07 -33.48,-50.59 -56.7,-111.44 -70.14,-182.06 -12.46,-68.66 -15.39,-143.93 -8.55,-225.55 6.6,-81.62 22.97,-152.47 48.62,-212.59 10.51,-25.91 20.53,-47.17 30.07,-63.77 9.52,-16.87 21.99,-36.18 37.14,-57.93 13.43,-20.28 27.86,-37.87 43.01,-53.02 15.39,-17.35 31.52,-32.01 48.63,-44.48 57.42,-42.03 121.19,-67.19 192.06,-75.75 70.62,-8.79 140.27,-1.95 208.93,20.04 11.49,3.67 26.15,10.02 44.23,18.57l38.61 22.97 0 148.82zm-524.89 522.44c10.5,60.12 35.92,109.24 75.99,147.36 40.08,38.36 92.13,55.96 155.91,53.02 64.03,-0.98 114.12,-22.48 150.52,-64.26 4.66,-2.93 9.05,-7.33 12.71,-12.95 6.85,-9.54 10.51,-14.91 11.49,-15.88 7.83,-11.24 13.93,-23.22 18.58,-35.68 24.92,-61.09 22.96,-120.71 -5.62,-178.88 -6.6,-11.49 -18.09,-26.64 -34.46,-45.69 -49.61,-48.63 -109.73,-69.15 -180.35,-61.59 -51.55,6.6 -96.28,25.18 -134.64,55.72 -25.66,19.06 -46.18,43.01 -61.58,71.6 -9.52,20.04 -14.17,34.21 -14.17,42.28 0,8.06 1.95,22.97 5.62,44.95z"/>
 </g>
</svg>
