<?xml version="1.0" encoding="UTF-8"?>
<!DOCTYPE svg PUBLIC "-//W3C//DTD SVG 1.1//EN" "http://www.w3.org/Graphics/SVG/1.1/DTD/svg11.dtd">
<!-- Creator: CorelDRAW 2021.5 -->
<svg xmlns="http://www.w3.org/2000/svg" xml:space="preserve" width="590px" height="590px" version="1.1" style="shape-rendering:geometricPrecision; text-rendering:geometricPrecision; image-rendering:optimizeQuality; fill-rule:evenodd; clip-rule:evenodd"
viewBox="0 0 139.69 139.69"
 xmlns:xlink="http://www.w3.org/1999/xlink"
 xmlns:xodm="http://www.corel.com/coreldraw/odm/2003">
 <defs>
  <style type="text/css">
   <![CDATA[
    .fil0 {fill:#0E4F95}
    .fil1 {fill:white;fill-rule:nonzero}
   ]]>
  </style>
 </defs>
 <g id="Layer_x0020_1">
  <metadata id="CorelCorpID_0Corel-Layer"/>
  <circle class="fil0" cx="69.84" cy="69.84" r="69.84"/>
  <path class="fil1" d="M53.92 46.5l-30.95 0 0 -11.74 50.05 0c-5.19,11.68 -10.38,23.37 -15.53,35.07 -5.18,11.69 -10.34,23.36 -15.51,35l-13.85 -0.05 25.79 -58.28z"/>
  <path class="fil1" d="M83.99 67.15c-1.89,-1.35 -3.38,-2.89 -4.46,-4.62 -1.68,-2.59 -2.5,-5.56 -2.5,-8.9 0,-6.16 1.99,-11.1 5.96,-14.83 3.91,-3.62 9.17,-5.44 15.79,-5.44 6.57,0 11.82,1.82 15.73,5.44 4.01,3.76 6.02,8.7 6.02,14.83 0,3.78 -1.15,7.13 -3.47,10.05 -1.08,1.35 -2.38,2.58 -3.89,3.72 3.07,1.52 5.48,3.55 7.21,6.06 2.12,3.07 3.18,6.75 3.18,11.02 0,2.69 -0.6,5.45 -1.8,8.28 -1.2,2.81 -3.06,5.32 -5.57,7.51 -4.52,3.91 -10.33,5.86 -17.41,5.86 -7.1,0 -12.88,-1.95 -17.38,-5.86 -2.53,-2.19 -4.4,-4.7 -5.6,-7.51 -1.2,-2.83 -1.81,-5.59 -1.81,-8.28 0,-3.98 0.99,-7.54 2.94,-10.69 1.69,-2.6 4.06,-4.82 7.06,-6.64zm10.6 5.01c-2.42,1.12 -4.32,2.74 -5.73,4.86 -1.42,2.17 -2.12,4.67 -2.12,7.46 0,3.24 1.18,6 3.51,8.28 2.35,2.3 5.19,3.46 8.53,3.46 3.33,0 6.21,-1.14 8.61,-3.41 2.28,-2.28 3.41,-5.06 3.41,-8.33 0,-2.99 -1.15,-5.42 -3.46,-7.33 -1.96,-1.46 -4.98,-2.79 -9.09,-3.99 -0.84,-0.18 -1.49,-0.36 -1.99,-0.52 -0.27,-0.07 -0.55,-0.13 -0.83,-0.22 -0.27,-0.08 -0.56,-0.16 -0.84,-0.26zm7.03 -8.57c0.67,-0.38 1.41,-0.84 2.2,-1.4 0.81,-0.54 1.56,-1.2 2.27,-1.97 1.77,-1.86 2.64,-4.06 2.64,-6.59 0,-2.76 -0.95,-5.14 -2.87,-7.13 -2.04,-1.95 -4.39,-2.92 -7.08,-2.92 -2.76,0 -5.13,0.97 -7.08,2.92 -1.92,1.92 -2.89,4.31 -2.89,7.13 0,2.6 0.88,4.62 2.66,6.06 1.53,1.28 4.04,2.37 7.5,3.27 0,0 0.38,0.1 1.15,0.3 0.35,0.06 0.86,0.16 1.5,0.33z"/>
 </g>
</svg>
