<?xml version="1.0" encoding="UTF-8"?>
<!DOCTYPE svg PUBLIC "-//W3C//DTD SVG 1.1//EN" "http://www.w3.org/Graphics/SVG/1.1/DTD/svg11.dtd">
<svg xmlns="http://www.w3.org/2000/svg" xml:space="preserve" width="591px" height="591px" version="1.1" style="shape-rendering:geometricPrecision; text-rendering:geometricPrecision; image-rendering:optimizeQuality; fill-rule:evenodd; clip-rule:evenodd"
viewBox="0 0 55.06 55.06"
 xmlns:xlink="http://www.w3.org/1999/xlink">
 <defs>
  <style type="text/css">
   <![CDATA[
    .fil0 {fill:#0E4F95}
    .fil1 {fill:#FEFEFE;fill-rule:nonzero}
   ]]>
  </style>
 </defs>
 <g id="Layer_x0020_1">
  <metadata id="CorelCorpID_0Corel-Layer"/>
  <g id="_1912787998992">
   <circle class="fil0" cx="27.53" cy="27.53" r="27.53"/>
  </g>
  <path class="fil1" d="M11.41 41.4l10.49 -23.73 -12.84 0 0 -3.88 19.2 0 -12.19 27.61 -4.66 0zm17.57 -7.83c0,-1.82 0.45,-3.29 1.37,-4.4 0.91,-1.11 1.94,-1.97 3.11,-2.57 -0.92,-0.54 -1.69,-1.25 -2.33,-2.15 -0.63,-0.9 -0.95,-2.03 -0.95,-3.39 0,-2.12 0.7,-3.95 2.09,-5.48 1.39,-1.53 3.49,-2.29 6.29,-2.29 2.81,0 4.9,0.77 6.29,2.31 1.39,1.54 2.09,3.36 2.09,5.46 0,1.66 -0.44,2.94 -1.31,3.83 -0.88,0.88 -1.59,1.49 -2.15,1.82 3.14,1.33 4.7,3.62 4.7,6.86 0,1.87 -0.78,3.72 -2.33,5.57 -1.55,1.84 -3.98,2.77 -7.29,2.77 -3.31,0 -5.73,-0.93 -7.27,-2.77 -1.54,-1.85 -2.31,-3.7 -2.31,-5.57zm4.23 0.01c0,1.46 0.52,2.7 1.58,3.71 1.04,1.01 2.3,1.52 3.77,1.52 1.47,0 2.74,-0.49 3.8,-1.48 1.06,-0.99 1.59,-2.23 1.59,-3.75 0,-1.46 -0.53,-2.56 -1.61,-3.27 -1.08,-0.73 -2.36,-1.3 -3.86,-1.73 -0.33,-0.1 -0.87,-0.25 -1.62,-0.45 -1.1,0.48 -1.98,1.18 -2.64,2.12 -0.67,0.93 -1.01,2.04 -1.01,3.33zm5.31 -8.29c0.05,0.03 0.27,0.08 0.67,0.17 0.39,0.09 0.59,0.13 0.62,0.13 0.56,-0.33 1.23,-0.84 2.04,-1.53 0.81,-0.69 1.21,-1.7 1.21,-3.01 0,-1.23 -0.44,-2.3 -1.32,-3.2 -0.88,-0.9 -1.94,-1.34 -3.18,-1.34 -1.23,0 -2.29,0.44 -3.15,1.32 -0.88,0.89 -1.31,1.96 -1.31,3.22 0,1.29 0.41,2.24 1.23,2.84 0.82,0.61 1.89,1.08 3.19,1.4z"/>
 </g>
</svg>
