<?xml version="1.0" encoding="UTF-8"?>
<!DOCTYPE svg PUBLIC "-//W3C//DTD SVG 1.1//EN" "http://www.w3.org/Graphics/SVG/1.1/DTD/svg11.dtd">
<svg xmlns="http://www.w3.org/2000/svg" xml:space="preserve" width="591px" height="591px" version="1.1" style="shape-rendering:geometricPrecision; text-rendering:geometricPrecision; image-rendering:optimizeQuality; fill-rule:evenodd; clip-rule:evenodd"
viewBox="0 0 36.38 36.38"
 xmlns:xlink="http://www.w3.org/1999/xlink">
 <defs>
  <style type="text/css">
   <![CDATA[
    .fil1 {fill:#0E4F95}
    .fil0 {fill:#FEFEFE;fill-rule:nonzero}
   ]]>
  </style>
 </defs>
 <g id="Layer_x0020_1">
  <metadata id="CorelCorpID_0Corel-Layer"/>
  <path class="fil0" d="M15.89 26.96l-2.74 0 0 -13.54 -3.91 2.26 0 -2.77 6.65 -3.83 0 17.88zm2.58 -3.51c0.7,0.44 1.54,0.79 2.5,1.06 0.97,0.28 1.97,0.36 3,0.26 0.87,-0.08 1.7,-0.36 2.5,-0.83 0.79,-0.48 1.27,-1.19 1.44,-2.14 0.17,-1.08 -0.04,-1.96 -0.65,-2.63 -0.6,-0.67 -1.32,-1.12 -2.16,-1.35 -0.7,-0.16 -1.47,-0.22 -2.31,-0.16 -0.83,0.06 -1.59,0.17 -2.28,0.33 -0.25,0.07 -0.47,0.14 -0.69,0.21 -0.21,0.07 -0.43,0.14 -0.66,0.19l1.18 -9.31 9.21 0 0 2.44 -7.17 0 -0.52 4.12c0.15,-0.02 0.29,-0.05 0.44,-0.09 0.15,-0.04 0.31,-0.08 0.47,-0.11 0.31,-0.05 0.64,-0.08 0.98,-0.08 2.03,-0.05 3.71,0.45 5.04,1.5 0.34,0.3 0.68,0.65 0.99,1.06 0.32,0.41 0.57,0.91 0.75,1.5 0.17,0.57 0.25,1.21 0.25,1.91 0,0.71 -0.1,1.33 -0.3,1.87 -0.41,1.07 -1.04,1.91 -1.9,2.54 -0.86,0.63 -1.82,1.06 -2.89,1.29 -0.85,0.2 -1.81,0.28 -2.87,0.22 -1.07,-0.05 -2.02,-0.22 -2.85,-0.51 -0.45,-0.16 -0.82,-0.32 -1.13,-0.47 -0.03,-0.01 -0.16,-0.08 -0.37,-0.19l0 -2.63z"/>
  <g id="_1912679519744">
   <circle class="fil1" cx="18.19" cy="18.19" r="18.19"/>
  </g>
  <path class="fil0" d="M7.31 27.36l6.93 -15.68 -8.48 0 0 -2.57 12.69 0 -8.06 18.25 -3.08 0zm13.32 -0.78l0.02 -2.63c0.2,0.14 0.3,0.2 0.3,0.2 0.72,0.49 1.63,0.8 2.73,0.93 0.87,0.1 1.71,0.02 2.52,-0.25 0.81,-0.27 1.49,-0.73 2.04,-1.38 1.01,-1.25 1.56,-2.78 1.63,-4.58 -0.06,0.03 -0.11,0.09 -0.15,0.15 -0.06,0.07 -0.1,0.12 -0.13,0.15 -0.35,0.35 -0.64,0.61 -0.88,0.78 -0.46,0.3 -0.97,0.53 -1.52,0.7 -1.21,0.33 -2.41,0.36 -3.61,0.1 -1.2,-0.27 -2.19,-0.87 -2.95,-1.8 -0.75,-0.87 -1.18,-1.91 -1.3,-3.11 -0.13,-1.49 0.08,-2.72 0.64,-3.71 0.55,-1 1.24,-1.77 2.05,-2.32 0.96,-0.64 2.08,-0.98 3.38,-1.03 0.6,0 1.24,0.06 1.89,0.16 0.66,0.11 1.25,0.31 1.77,0.59 0.35,0.22 0.57,0.36 0.67,0.43 0.05,0.05 0.11,0.09 0.15,0.12 0.05,0.04 0.11,0.08 0.18,0.13 0.45,0.36 0.88,0.84 1.3,1.42 0.57,0.91 0.98,1.96 1.23,3.19 0.23,1.2 0.28,2.52 0.15,3.96 -0.14,1.45 -0.42,2.68 -0.85,3.7 -0.2,0.45 -0.39,0.82 -0.56,1.12 -0.16,0.3 -0.37,0.65 -0.62,1.03 -0.23,0.33 -0.49,0.64 -0.75,0.92 -0.32,0.32 -0.61,0.58 -0.88,0.78 -1,0.72 -2.12,1.15 -3.35,1.29 -1.23,0.14 -2.45,0.03 -3.63,-0.34 -0.28,-0.06 -0.54,-0.17 -0.77,-0.32l-0.7 -0.38zm2.46 -9.09c0.83,0.87 1.88,1.23 3.16,1.08 0.82,-0.08 1.59,-0.4 2.33,-0.95 0.48,-0.36 0.84,-0.79 1.07,-1.27 0.17,-0.32 0.25,-0.56 0.24,-0.71 -0.01,-0.14 -0.04,-0.42 -0.08,-0.82 -0.19,-1.02 -0.64,-1.86 -1.35,-2.54 -0.7,-0.68 -1.61,-1 -2.71,-0.96 -1.13,0.07 -2.01,0.44 -2.63,1.12 -0.05,0.05 -0.09,0.1 -0.12,0.13 -0.04,0.03 -0.07,0.07 -0.11,0.12 -0.11,0.17 -0.18,0.26 -0.19,0.28 -0.12,0.18 -0.23,0.38 -0.33,0.6 -0.43,1.1 -0.39,2.14 0.13,3.13 0.15,0.31 0.35,0.58 0.59,0.79z"/>
 </g>
</svg>
