<?xml version="1.0" encoding="UTF-8"?>
<!DOCTYPE svg PUBLIC "-//W3C//DTD SVG 1.1//EN" "http://www.w3.org/Graphics/SVG/1.1/DTD/svg11.dtd">
<!-- Creator: CorelDRAW 2019 (64-Bit) -->
<svg xmlns="http://www.w3.org/2000/svg" xml:space="preserve" width="591px" height="591px" version="1.1" style="shape-rendering:geometricPrecision; text-rendering:geometricPrecision; image-rendering:optimizeQuality; fill-rule:evenodd; clip-rule:evenodd"
viewBox="0 0 647.05 647.05"
 xmlns:xlink="http://www.w3.org/1999/xlink">
 <defs>
  <style type="text/css">
   <![CDATA[
    .fil0 {fill:#0E4F95}
    .fil1 {fill:#FEFEFE;fill-rule:nonzero}
   ]]>
  </style>
 </defs>
 <g id="Layer_x0020_1">
  <metadata id="CorelCorpID_0Corel-Layer"/>
  <g id="_2527451374304">
   <circle class="fil0" cx="323.52" cy="323.52" r="323.52"/>
  </g>
  <path class="fil1" d="M212.78 392.43c0,-21.03 5.22,-37.96 15.74,-50.79 10.51,-12.82 22.44,-22.74 35.87,-29.68 -10.52,-6.19 -19.47,-14.39 -26.77,-24.75 -7.31,-10.37 -10.96,-23.42 -10.96,-39.15 0,-24.46 8.05,-45.57 24.08,-63.16 16.03,-17.68 40.19,-26.48 72.56,-26.48 32.36,0 56.52,8.88 72.56,26.7 16.03,17.75 24.08,38.78 24.08,62.94 0,19.24 -5.07,34 -15.14,44.22 -10.06,10.21 -18.34,17.15 -24.75,20.95 36.16,15.44 54.21,41.84 54.21,79.2 0,21.55 -8.95,42.95 -26.85,64.28 -17.89,21.25 -45.93,31.91 -84.11,31.91 -38.18,0 -66.07,-10.66 -83.89,-31.91 -17.75,-21.33 -26.63,-42.73 -26.63,-64.28zm48.77 0.07c0,16.93 6.04,31.17 18.2,42.88 12.08,11.63 26.62,17.45 43.55,17.45 16.93,0 31.54,-5.67 43.77,-17.08 12.31,-11.33 18.42,-25.72 18.42,-43.25 0,-16.85 -6.19,-29.45 -18.64,-37.73 -12.38,-8.35 -27.22,-14.99 -44.45,-19.91 -3.8,-1.2 -10.06,-2.91 -18.79,-5.22 -12.6,5.52 -22.74,13.64 -30.42,24.46 -7.76,10.74 -11.64,23.56 -11.64,38.4zm61.3 -95.6c0.6,0.3 3.13,0.97 7.68,2.01 4.48,0.97 6.86,1.5 7.16,1.5 6.41,-3.81 14.24,-9.7 23.56,-17.68 9.33,-7.98 13.95,-19.61 13.95,-34.75 0,-14.24 -5.07,-26.54 -15.29,-36.91 -10.14,-10.37 -22.37,-15.51 -36.61,-15.51 -14.24,0 -26.4,5.07 -36.39,15.29 -10.07,10.21 -15.07,22.59 -15.07,37.13 0,14.84 4.7,25.8 14.17,32.81 9.47,6.94 21.78,12.38 36.84,16.11z"/>
 </g>
</svg>
