<?xml version="1.0" encoding="UTF-8"?>
<!DOCTYPE svg PUBLIC "-//W3C//DTD SVG 1.1//EN" "http://www.w3.org/Graphics/SVG/1.1/DTD/svg11.dtd">
<!-- Creator: CorelDRAW 2021.5 -->
<svg xmlns="http://www.w3.org/2000/svg" xml:space="preserve" width="590px" height="590px" version="1.1" style="shape-rendering:geometricPrecision; text-rendering:geometricPrecision; image-rendering:optimizeQuality; fill-rule:evenodd; clip-rule:evenodd"
viewBox="0 0 44.11 44.11"
 xmlns:xlink="http://www.w3.org/1999/xlink"
 xmlns:xodm="http://www.corel.com/coreldraw/odm/2003">
 <defs>
  <style type="text/css">
   <![CDATA[
    .fil0 {fill:#0E4F95}
    .fil1 {fill:white;fill-rule:nonzero}
   ]]>
  </style>
 </defs>
 <g id="Layer_x0020_1">
  <metadata id="CorelCorpID_0Corel-Layer"/>
  <circle class="fil0" cx="22.05" cy="22.05" r="22.05"/>
  <path class="fil1" d="M8.34 21.22c-0.6,-0.43 -1.07,-0.92 -1.41,-1.46 -0.53,-0.82 -0.79,-1.76 -0.79,-2.81 0,-1.95 0.63,-3.51 1.88,-4.69 1.24,-1.14 2.9,-1.71 4.99,-1.71 2.07,0 3.73,0.57 4.97,1.71 1.26,1.19 1.9,2.75 1.9,4.69 0,1.19 -0.37,2.25 -1.1,3.17 -0.34,0.43 -0.75,0.82 -1.23,1.17 0.97,0.49 1.73,1.12 2.28,1.92 0.67,0.97 1.01,2.13 1.01,3.48 0,0.85 -0.2,1.72 -0.58,2.61 -0.37,0.89 -0.96,1.68 -1.75,2.37 -1.43,1.24 -3.27,1.85 -5.5,1.85 -2.24,0 -4.07,-0.61 -5.49,-1.85 -0.8,-0.69 -1.39,-1.48 -1.77,-2.37 -0.38,-0.89 -0.57,-1.76 -0.57,-2.61 0,-1.26 0.31,-2.38 0.93,-3.38 0.53,-0.82 1.28,-1.52 2.23,-2.09zm3.35 1.58c-0.77,0.35 -1.37,0.86 -1.81,1.53 -0.45,0.69 -0.67,1.48 -0.67,2.36 0,1.02 0.37,1.89 1.11,2.61 0.74,0.73 1.64,1.1 2.69,1.1 1.05,0 1.96,-0.37 2.72,-1.08 0.72,-0.72 1.08,-1.6 1.08,-2.63 0,-0.95 -0.37,-1.71 -1.1,-2.32 -0.62,-0.46 -1.57,-0.88 -2.87,-1.26 -0.26,-0.05 -0.47,-0.11 -0.62,-0.16 -0.09,-0.02 -0.18,-0.04 -0.27,-0.07 -0.08,-0.03 -0.18,-0.05 -0.26,-0.08zm2.22 -2.71c0.21,-0.12 0.44,-0.26 0.69,-0.44 0.26,-0.17 0.49,-0.38 0.72,-0.62 0.56,-0.59 0.83,-1.28 0.83,-2.08 0,-0.87 -0.3,-1.63 -0.91,-2.25 -0.64,-0.62 -1.38,-0.93 -2.23,-0.93 -0.87,0 -1.62,0.31 -2.24,0.93 -0.6,0.6 -0.91,1.35 -0.91,2.25 0,0.82 0.28,1.45 0.84,1.91 0.48,0.41 1.28,0.75 2.37,1.03 0,0 0.12,0.03 0.36,0.1 0.11,0.02 0.27,0.05 0.48,0.1z"/>
  <path class="fil1" d="M31.25 10.56c2.57,0 4.59,1.04 6.09,3.12 1.5,2.09 2.25,4.88 2.25,8.36 0,3.5 -0.75,6.29 -2.25,8.36 -1.5,2.07 -3.52,3.11 -6.09,3.11 -2.79,0 -4.87,-1.12 -6.25,-3.35 -1.39,-2.24 -2.08,-4.94 -2.08,-8.12 0,-3.48 0.76,-6.27 2.25,-8.36 1.49,-2.08 3.52,-3.12 6.08,-3.12zm3.12 5.69c-0.77,-1.32 -1.81,-1.98 -3.12,-1.98 -1.3,0 -2.34,0.66 -3.1,1.98 -0.8,1.4 -1.2,3.33 -1.2,5.79 0,2.48 0.4,4.41 1.2,5.8 0.77,1.32 1.8,1.98 3.1,1.98 1.3,0 2.34,-0.66 3.12,-1.98 0.81,-1.41 1.21,-3.34 1.21,-5.8 0,-2.44 -0.4,-4.38 -1.21,-5.79z"/>
 </g>
</svg>
