<?xml version="1.0" encoding="UTF-8"?>
<!DOCTYPE svg PUBLIC "-//W3C//DTD SVG 1.1//EN" "http://www.w3.org/Graphics/SVG/1.1/DTD/svg11.dtd">
<svg xmlns="http://www.w3.org/2000/svg" xml:space="preserve" width="591px" height="591px" version="1.1" style="shape-rendering:geometricPrecision; text-rendering:geometricPrecision; image-rendering:optimizeQuality; fill-rule:evenodd; clip-rule:evenodd"
viewBox="0 0 17.73 17.73"
 xmlns:xlink="http://www.w3.org/1999/xlink">
 <defs>
  <style type="text/css">
   <![CDATA[
    .fil0 {fill:#0E4F95}
    .fil1 {fill:#FEFEFE;fill-rule:nonzero}
   ]]>
  </style>
 </defs>
 <g id="Layer_x0020_1">
  <metadata id="CorelCorpID_0Corel-Layer"/>
  <g id="_1912705306192">
   <circle class="fil0" cx="8.86" cy="8.86" r="8.86"/>
  </g>
  <path class="fil1" d="M2.21 10.81c0,-0.59 0.15,-1.06 0.44,-1.42 0.29,-0.36 0.63,-0.63 1,-0.83 -0.29,-0.17 -0.54,-0.4 -0.75,-0.69 -0.2,-0.29 -0.3,-0.65 -0.3,-1.09 0,-0.68 0.22,-1.27 0.67,-1.76 0.45,-0.5 1.12,-0.74 2.02,-0.74 0.91,0 1.58,0.25 2.03,0.74 0.45,0.5 0.67,1.09 0.67,1.76 0,0.54 -0.14,0.95 -0.42,1.23 -0.28,0.29 -0.51,0.48 -0.69,0.59 1.01,0.43 1.51,1.17 1.51,2.21 0,0.6 -0.25,1.2 -0.75,1.79 -0.5,0.6 -1.28,0.89 -2.35,0.89 -1.06,0 -1.84,-0.29 -2.34,-0.89 -0.49,-0.59 -0.74,-1.19 -0.74,-1.79zm1.36 0c0,0.47 0.17,0.87 0.51,1.2 0.34,0.32 0.74,0.48 1.21,0.48 0.48,0 0.89,-0.15 1.23,-0.47 0.34,-0.32 0.51,-0.72 0.51,-1.21 0,-0.47 -0.17,-0.82 -0.52,-1.05 -0.35,-0.24 -0.76,-0.42 -1.24,-0.56 -0.11,-0.03 -0.28,-0.08 -0.52,-0.14 -0.36,0.15 -0.64,0.38 -0.85,0.68 -0.22,0.3 -0.33,0.66 -0.33,1.07zm1.71 -2.67c0.02,0.01 0.09,0.03 0.22,0.06 0.12,0.03 0.19,0.04 0.2,0.04 0.18,-0.11 0.39,-0.27 0.65,-0.49 0.26,-0.23 0.39,-0.55 0.39,-0.97 0,-0.4 -0.14,-0.74 -0.42,-1.03 -0.29,-0.29 -0.63,-0.44 -1.03,-0.44 -0.39,0 -0.73,0.15 -1.01,0.43 -0.28,0.29 -0.42,0.63 -0.42,1.04 0,0.41 0.13,0.72 0.39,0.91 0.27,0.2 0.61,0.35 1.03,0.45zm7.09 5.35c-1.1,0 -1.93,-0.44 -2.48,-1.34 -0.55,-0.89 -0.82,-1.98 -0.82,-3.26 0,-1.27 0.27,-2.35 0.82,-3.26 0.55,-0.9 1.38,-1.35 2.48,-1.35 1.1,0 1.92,0.45 2.48,1.35 0.55,0.91 0.82,1.99 0.82,3.26 0,1.28 -0.27,2.37 -0.82,3.26 -0.56,0.9 -1.38,1.34 -2.48,1.34zm0 -1.23c0.66,0 1.15,-0.33 1.46,-0.98 0.31,-0.66 0.47,-1.45 0.47,-2.39 0,-0.92 -0.16,-1.72 -0.47,-2.37 -0.31,-0.66 -0.8,-0.99 -1.46,-0.99 -0.67,0 -1.16,0.33 -1.47,0.99 -0.31,0.65 -0.47,1.45 -0.47,2.37 0,0.94 0.16,1.73 0.47,2.39 0.31,0.65 0.8,0.98 1.47,0.98z"/>
 </g>
</svg>
