<?xml version="1.0" encoding="UTF-8"?>
<!DOCTYPE svg PUBLIC "-//W3C//DTD SVG 1.1//EN" "http://www.w3.org/Graphics/SVG/1.1/DTD/svg11.dtd">
<svg xmlns="http://www.w3.org/2000/svg" xml:space="preserve" width="591px" height="591px" version="1.1" style="shape-rendering:geometricPrecision; text-rendering:geometricPrecision; image-rendering:optimizeQuality; fill-rule:evenodd; clip-rule:evenodd"
viewBox="0 0 21.24 21.24"
 xmlns:xlink="http://www.w3.org/1999/xlink">
 <defs>
  <style type="text/css">
   <![CDATA[
    .fil0 {fill:#0E4F95}
    .fil1 {fill:#FEFEFE;fill-rule:nonzero}
   ]]>
  </style>
 </defs>
 <g id="Layer_x0020_1">
  <metadata id="CorelCorpID_0Corel-Layer"/>
  <g id="_1912418410704">
   <circle class="fil0" cx="10.62" cy="10.62" r="10.62"/>
  </g>
  <path class="fil1" d="M3.73 12.95c0,-0.7 0.18,-1.27 0.53,-1.7 0.35,-0.43 0.75,-0.76 1.2,-0.99 -0.35,-0.21 -0.65,-0.48 -0.9,-0.83 -0.24,-0.35 -0.36,-0.78 -0.36,-1.31 0,-0.82 0.26,-1.52 0.8,-2.11 0.54,-0.59 1.34,-0.89 2.43,-0.89 1.08,0 1.89,0.3 2.42,0.9 0.54,0.59 0.81,1.29 0.81,2.1 0,0.65 -0.17,1.14 -0.51,1.48 -0.33,0.34 -0.61,0.57 -0.83,0.7 1.21,0.52 1.82,1.4 1.82,2.65 0,0.72 -0.3,1.43 -0.9,2.15 -0.6,0.71 -1.54,1.06 -2.81,1.06 -1.28,0 -2.21,-0.35 -2.81,-1.06 -0.59,-0.72 -0.89,-1.43 -0.89,-2.15zm1.63 0c0,0.57 0.2,1.04 0.61,1.43 0.4,0.39 0.89,0.59 1.46,0.59 0.56,0 1.05,-0.19 1.46,-0.57 0.41,-0.38 0.62,-0.86 0.62,-1.45 0,-0.56 -0.21,-0.98 -0.63,-1.26 -0.41,-0.28 -0.91,-0.5 -1.48,-0.67 -0.13,-0.04 -0.34,-0.09 -0.63,-0.17 -0.42,0.18 -0.76,0.46 -1.02,0.82 -0.26,0.36 -0.39,0.79 -0.39,1.28zm2.05 -3.2c0.02,0.01 0.11,0.04 0.26,0.07 0.15,0.03 0.23,0.05 0.24,0.05 0.21,-0.13 0.47,-0.32 0.79,-0.59 0.31,-0.27 0.46,-0.65 0.46,-1.16 0,-0.48 -0.17,-0.89 -0.51,-1.23 -0.34,-0.35 -0.75,-0.52 -1.22,-0.52 -0.48,0 -0.89,0.17 -1.22,0.51 -0.34,0.34 -0.5,0.75 -0.5,1.24 0,0.5 0.15,0.86 0.47,1.1 0.32,0.23 0.73,0.41 1.23,0.53zm9.16 6.22l-1.63 0 0 -8.05 -2.32 1.34 0 -1.65 3.95 -2.28 0 10.64z"/>
 </g>
</svg>
