<?xml version="1.0" encoding="UTF-8"?>
<!DOCTYPE svg PUBLIC "-//W3C//DTD SVG 1.1//EN" "http://www.w3.org/Graphics/SVG/1.1/DTD/svg11.dtd">
<!-- Creator: CorelDRAW 2021.5 -->
<svg xmlns="http://www.w3.org/2000/svg" xml:space="preserve" width="590px" height="590px" version="1.1" style="shape-rendering:geometricPrecision; text-rendering:geometricPrecision; image-rendering:optimizeQuality; fill-rule:evenodd; clip-rule:evenodd"
viewBox="0 0 52.79 52.79"
 xmlns:xlink="http://www.w3.org/1999/xlink"
 xmlns:xodm="http://www.corel.com/coreldraw/odm/2003">
 <defs>
  <style type="text/css">
   <![CDATA[
    .fil0 {fill:#0E4F95}
    .fil1 {fill:white;fill-rule:nonzero}
   ]]>
  </style>
 </defs>
 <g id="Layer_x0020_1">
  <metadata id="CorelCorpID_0Corel-Layer"/>
  <circle class="fil0" cx="26.4" cy="26.4" r="26.4"/>
  <path class="fil1" d="M12.31 25.39c-0.72,-0.51 -1.28,-1.09 -1.69,-1.74 -0.64,-0.98 -0.95,-2.11 -0.95,-3.37 0,-2.33 0.75,-4.19 2.26,-5.6 1.47,-1.37 3.46,-2.06 5.96,-2.06 2.49,0 4.47,0.69 5.95,2.06 1.51,1.42 2.27,3.29 2.27,5.6 0,1.43 -0.43,2.7 -1.31,3.8 -0.41,0.51 -0.9,0.98 -1.47,1.4 1.16,0.58 2.07,1.35 2.73,2.3 0.8,1.16 1.2,2.55 1.2,4.16 0,1.02 -0.23,2.06 -0.68,3.13 -0.46,1.06 -1.16,2.01 -2.11,2.84 -1.7,1.47 -3.9,2.21 -6.58,2.21 -2.68,0 -4.86,-0.74 -6.57,-2.21 -0.95,-0.83 -1.66,-1.78 -2.11,-2.84 -0.46,-1.07 -0.69,-2.11 -0.69,-3.13 0,-1.5 0.38,-2.85 1.12,-4.04 0.64,-0.98 1.53,-1.82 2.67,-2.51zm4 1.9c-0.91,0.42 -1.63,1.03 -2.17,1.83 -0.53,0.82 -0.8,1.77 -0.8,2.82 0,1.22 0.45,2.27 1.33,3.13 0.89,0.87 1.96,1.31 3.22,1.31 1.26,0 2.35,-0.43 3.25,-1.29 0.87,-0.86 1.3,-1.91 1.3,-3.15 0,-1.13 -0.44,-2.05 -1.31,-2.77 -0.74,-0.55 -1.88,-1.05 -3.44,-1.51 -0.31,-0.06 -0.56,-0.13 -0.75,-0.19 -0.1,-0.03 -0.21,-0.05 -0.31,-0.09 -0.1,-0.03 -0.22,-0.06 -0.32,-0.09zm2.66 -3.25c0.25,-0.14 0.53,-0.31 0.83,-0.52 0.3,-0.21 0.59,-0.46 0.85,-0.75 0.67,-0.7 1,-1.53 1,-2.49 0,-1.04 -0.36,-1.94 -1.08,-2.69 -0.77,-0.74 -1.66,-1.11 -2.68,-1.11 -1.04,0 -1.93,0.37 -2.67,1.11 -0.73,0.72 -1.1,1.63 -1.1,2.69 0,0.98 0.34,1.75 1.01,2.29 0.58,0.49 1.53,0.9 2.84,1.24 0,0 0.14,0.04 0.43,0.11 0.13,0.03 0.32,0.06 0.57,0.12z"/>
  <polygon class="fil1" points="41.26,39.63 36.95,39.63 36.95,20.75 31.4,23.96 31.4,19.08 41.67,13.15 41.67,39.63 "/>
 </g>
</svg>
