<?xml version="1.0" encoding="UTF-8"?>
<!DOCTYPE svg PUBLIC "-//W3C//DTD SVG 1.1//EN" "http://www.w3.org/Graphics/SVG/1.1/DTD/svg11.dtd">
<svg xmlns="http://www.w3.org/2000/svg" xml:space="preserve" width="591px" height="591px" version="1.1" style="shape-rendering:geometricPrecision; text-rendering:geometricPrecision; image-rendering:optimizeQuality; fill-rule:evenodd; clip-rule:evenodd"
viewBox="0 0 26.48 26.48"
 xmlns:xlink="http://www.w3.org/1999/xlink">
 <defs>
  <style type="text/css">
   <![CDATA[
    .fil0 {fill:#0E4F95}
    .fil1 {fill:#FEFEFE;fill-rule:nonzero}
   ]]>
  </style>
 </defs>
 <g id="Layer_x0020_1">
  <metadata id="CorelCorpID_0Corel-Layer"/>
  <g id="_1912711943552">
   <circle class="fil0" cx="13.24" cy="13.24" r="13.24"/>
  </g>
  <path class="fil1" d="M3.3 16.14c0,-0.87 0.22,-1.58 0.66,-2.11 0.44,-0.54 0.93,-0.95 1.49,-1.24 -0.44,-0.26 -0.81,-0.6 -1.11,-1.03 -0.31,-0.43 -0.46,-0.98 -0.46,-1.63 0,-1.02 0.34,-1.9 1,-2.64 0.67,-0.73 1.68,-1.1 3.03,-1.1 1.35,0 2.36,0.37 3.02,1.11 0.67,0.74 1.01,1.62 1.01,2.63 0,0.8 -0.21,1.41 -0.63,1.84 -0.42,0.43 -0.77,0.71 -1.04,0.87 1.51,0.65 2.26,1.75 2.26,3.3 0,0.9 -0.37,1.8 -1.11,2.68 -0.75,0.89 -1.92,1.33 -3.51,1.33 -1.59,0 -2.76,-0.44 -3.5,-1.33 -0.74,-0.88 -1.11,-1.78 -1.11,-2.68zm2.03 0.01c0,0.7 0.26,1.3 0.76,1.79 0.51,0.48 1.11,0.72 1.82,0.72 0.7,0 1.31,-0.23 1.82,-0.71 0.52,-0.47 0.77,-1.07 0.77,-1.8 0,-0.7 -0.26,-1.23 -0.78,-1.58 -0.51,-0.34 -1.13,-0.62 -1.85,-0.83 -0.16,-0.04 -0.42,-0.12 -0.78,-0.21 -0.53,0.23 -0.95,0.57 -1.27,1.02 -0.32,0.44 -0.49,0.98 -0.49,1.6zm2.56 -3.99c0.03,0.01 0.13,0.04 0.32,0.09 0.19,0.04 0.29,0.06 0.3,0.06 0.27,-0.16 0.59,-0.41 0.98,-0.74 0.39,-0.33 0.58,-0.82 0.58,-1.45 0,-0.59 -0.21,-1.1 -0.63,-1.54 -0.43,-0.43 -0.94,-0.64 -1.53,-0.64 -0.59,0 -1.1,0.21 -1.52,0.64 -0.42,0.42 -0.63,0.94 -0.63,1.54 0,0.62 0.2,1.08 0.59,1.37 0.4,0.29 0.91,0.52 1.54,0.67zm6.02 7.75l0 -1.86c2.3,-1.93 4.01,-3.44 5.13,-4.54 1.12,-1.1 1.69,-2.12 1.69,-3.05 0,-0.59 -0.23,-1.1 -0.67,-1.54 -0.44,-0.44 -0.96,-0.66 -1.54,-0.66 -0.95,0 -1.78,0.19 -2.51,0.59 -0.73,0.41 -1.15,0.65 -1.26,0.74 -0.08,-0.31 -0.17,-0.61 -0.25,-0.9 -0.09,-0.29 -0.17,-0.59 -0.24,-0.91 0.08,-0.05 0.53,-0.29 1.34,-0.73 0.8,-0.44 1.78,-0.66 2.92,-0.66 1.12,0 2.12,0.38 3,1.13 0.89,0.75 1.33,1.73 1.33,2.93 0,1.29 -0.43,2.43 -1.31,3.43 -0.87,1.01 -2.38,2.4 -4.51,4.17l6.11 0 0 1.86 -9.23 0z"/>
 </g>
</svg>
