<?xml version="1.0" encoding="UTF-8"?>
<!DOCTYPE svg PUBLIC "-//W3C//DTD SVG 1.1//EN" "http://www.w3.org/Graphics/SVG/1.1/DTD/svg11.dtd">
<!-- Creator: CorelDRAW 2021.5 -->
<svg xmlns="http://www.w3.org/2000/svg" xml:space="preserve" width="590px" height="590px" version="1.1" style="shape-rendering:geometricPrecision; text-rendering:geometricPrecision; image-rendering:optimizeQuality; fill-rule:evenodd; clip-rule:evenodd"
viewBox="0 0 65.73 65.73"
 xmlns:xlink="http://www.w3.org/1999/xlink"
 xmlns:xodm="http://www.corel.com/coreldraw/odm/2003">
 <defs>
  <style type="text/css">
   <![CDATA[
    .fil0 {fill:#0E4F95}
    .fil1 {fill:white;fill-rule:nonzero}
   ]]>
  </style>
 </defs>
 <g id="Layer_x0020_1">
  <metadata id="CorelCorpID_0Corel-Layer"/>
  <circle class="fil0" cx="32.86" cy="32.86" r="32.86"/>
  <path class="fil1" d="M13.02 31.62c-0.89,-0.64 -1.59,-1.37 -2.1,-2.18 -0.79,-1.22 -1.17,-2.62 -1.17,-4.19 0,-2.89 0.93,-5.22 2.8,-6.98 1.84,-1.7 4.31,-2.55 7.43,-2.55 3.09,0 5.56,0.85 7.4,2.55 1.89,1.77 2.83,4.1 2.83,6.98 0,1.78 -0.54,3.36 -1.63,4.73 -0.51,0.64 -1.12,1.22 -1.83,1.75 1.45,0.72 2.58,1.67 3.39,2.85 1,1.45 1.5,3.18 1.5,5.19 0,1.27 -0.28,2.57 -0.85,3.89 -0.56,1.33 -1.44,2.51 -2.62,3.54 -2.12,1.84 -4.86,2.76 -8.19,2.76 -3.34,0 -6.06,-0.92 -8.18,-2.76 -1.19,-1.03 -2.07,-2.21 -2.63,-3.54 -0.57,-1.32 -0.85,-2.62 -0.85,-3.89 0,-1.87 0.46,-3.55 1.38,-5.03 0.8,-1.22 1.91,-2.27 3.32,-3.12zm4.99 2.35c-1.14,0.53 -2.03,1.29 -2.7,2.29 -0.66,1.02 -1,2.2 -1,3.51 0,1.52 0.56,2.82 1.66,3.89 1.1,1.09 2.44,1.64 4.01,1.64 1.57,0 2.92,-0.55 4.05,-1.61 1.07,-1.08 1.61,-2.38 1.61,-3.92 0,-1.41 -0.54,-2.55 -1.63,-3.45 -0.92,-0.69 -2.35,-1.31 -4.28,-1.88 -0.39,-0.08 -0.7,-0.17 -0.93,-0.24 -0.13,-0.03 -0.27,-0.07 -0.4,-0.1 -0.12,-0.04 -0.26,-0.08 -0.39,-0.13zm3.31 -4.03c0.31,-0.18 0.66,-0.4 1.03,-0.66 0.38,-0.25 0.74,-0.56 1.07,-0.93 0.83,-0.87 1.24,-1.91 1.24,-3.1 0,-1.29 -0.44,-2.42 -1.35,-3.35 -0.96,-0.92 -2.06,-1.38 -3.33,-1.38 -1.3,0 -2.41,0.46 -3.33,1.38 -0.91,0.9 -1.36,2.02 -1.36,3.35 0,1.23 0.42,2.18 1.25,2.86 0.72,0.6 1.9,1.11 3.53,1.53 0,0 0.18,0.05 0.54,0.14 0.17,0.03 0.41,0.08 0.71,0.16z"/>
  <path class="fil1" d="M37.02 24.8c-0.55,-2.08 -1.04,-3.89 -1.44,-5.41 1.63,-1.09 3.34,-1.97 5.16,-2.64 1.81,-0.67 3.72,-1.01 5.73,-1.01 3,0 5.59,1.01 7.77,3.04 2.11,1.99 3.16,4.4 3.16,7.24 0,3.08 -1.09,5.96 -3.26,8.63 -1.04,1.29 -2.37,2.65 -3.99,4.12 -1.61,1.46 -3.55,3.14 -5.83,5.03l13.81 0 0 5.55c-3.89,0 -7.78,0 -11.66,0 -3.88,0 -7.76,0 -11.64,0l0 -5.26c2.07,-1.73 4.2,-3.52 6.42,-5.38 2.21,-1.85 4.24,-3.75 6.1,-5.71 2.58,-2.71 3.87,-5.03 3.87,-6.98 0,-1.27 -0.47,-2.37 -1.42,-3.32 -0.95,-0.96 -2.07,-1.43 -3.33,-1.43 -1.83,0 -3.5,0.35 -5.01,1.05 -1.51,0.7 -2.98,1.53 -4.44,2.48z"/>
 </g>
</svg>
