<?xml version="1.0" encoding="UTF-8"?>
<!DOCTYPE svg PUBLIC "-//W3C//DTD SVG 1.1//EN" "http://www.w3.org/Graphics/SVG/1.1/DTD/svg11.dtd">
<!-- Creator: CorelDRAW 2021.5 -->
<svg xmlns="http://www.w3.org/2000/svg" xml:space="preserve" width="590px" height="590px" version="1.1" style="shape-rendering:geometricPrecision; text-rendering:geometricPrecision; image-rendering:optimizeQuality; fill-rule:evenodd; clip-rule:evenodd"
viewBox="0 0 87.07 87.07"
 xmlns:xlink="http://www.w3.org/1999/xlink"
 xmlns:xodm="http://www.corel.com/coreldraw/odm/2003">
 <defs>
  <style type="text/css">
   <![CDATA[
    .fil0 {fill:#0E4F95}
    .fil1 {fill:white;fill-rule:nonzero}
   ]]>
  </style>
 </defs>
 <g id="Layer_x0020_1">
  <metadata id="CorelCorpID_0Corel-Layer"/>
  <circle class="fil0" cx="43.53" cy="43.53" r="43.53"/>
  <path class="fil1" d="M16.79 41.89c-1.18,-0.84 -2.11,-1.8 -2.78,-2.87 -1.05,-1.62 -1.56,-3.48 -1.56,-5.55 0,-3.84 1.24,-6.93 3.72,-9.25 2.43,-2.25 5.71,-3.39 9.83,-3.39 4.1,0 7.38,1.14 9.81,3.39 2.5,2.35 3.75,5.43 3.75,9.25 0,2.35 -0.72,4.44 -2.16,6.26 -0.68,0.84 -1.48,1.61 -2.43,2.32 1.92,0.95 3.42,2.21 4.5,3.77 1.32,1.92 1.99,4.21 1.99,6.87 0,1.68 -0.38,3.4 -1.13,5.16 -0.75,1.76 -1.91,3.32 -3.47,4.68 -2.82,2.44 -6.44,3.66 -10.86,3.66 -4.42,0 -8.02,-1.22 -10.83,-3.66 -1.57,-1.36 -2.74,-2.92 -3.49,-4.68 -0.75,-1.76 -1.13,-3.48 -1.13,-5.16 0,-2.47 0.62,-4.7 1.84,-6.66 1.05,-1.62 2.53,-3 4.4,-4.14zm6.6 3.13c-1.5,0.69 -2.69,1.7 -3.57,3.03 -0.88,1.35 -1.32,2.9 -1.32,4.64 0,2.02 0.74,3.74 2.19,5.16 1.46,1.44 3.24,2.16 5.31,2.16 2.08,0 3.87,-0.71 5.37,-2.13 1.42,-1.42 2.13,-3.15 2.13,-5.19 0,-1.86 -0.72,-3.37 -2.16,-4.56 -1.22,-0.91 -3.1,-1.74 -5.66,-2.49 -0.53,-0.11 -0.93,-0.23 -1.24,-0.33 -0.18,-0.04 -0.35,-0.08 -0.52,-0.13 -0.17,-0.05 -0.35,-0.1 -0.53,-0.16zm4.39 -5.35c0.42,-0.23 0.88,-0.52 1.37,-0.87 0.5,-0.34 0.97,-0.75 1.41,-1.23 1.11,-1.16 1.65,-2.53 1.65,-4.1 0,-1.72 -0.59,-3.21 -1.79,-4.45 -1.27,-1.22 -2.74,-1.82 -4.42,-1.82 -1.72,0 -3.19,0.6 -4.41,1.82 -1.2,1.2 -1.8,2.69 -1.8,4.45 0,1.61 0.55,2.87 1.66,3.77 0.95,0.8 2.52,1.48 4.68,2.04 0,0 0.23,0.06 0.71,0.19 0.22,0.04 0.54,0.1 0.94,0.2z"/>
  <path class="fil1" d="M61.76 28.69l-14.58 0 0 -6.99 29.67 0 -12.83 15.28c2.03,0.32 3.83,0.87 5.36,1.68 1.99,1.01 3.67,2.49 5.05,4.4 1.83,2.62 2.6,5.73 2.27,9.33 -0.3,3.6 -1.59,6.51 -3.87,8.73 -1.77,1.74 -3.83,3.04 -6.14,3.9 -2.14,0.78 -4.55,1.17 -7.2,1.17 -1,0 -2.15,-0.07 -3.44,-0.21 -1.29,-0.14 -2.59,-0.38 -3.91,-0.69 -2.39,-0.64 -4.28,-1.48 -5.7,-2.52l-0.33 -0.24 0.03 -8.22 1.26 0.81c1.78,1.16 3.43,2.01 4.94,2.55 1.72,0.58 3.62,0.91 5.68,0.99 2.24,0.1 4.23,-0.21 6,-0.93 1.63,-0.72 2.86,-1.75 3.68,-3.09 0.44,-0.7 0.75,-1.57 0.9,-2.61 0.13,-1.01 0.07,-1.97 -0.14,-2.85 -0.1,-0.4 -0.22,-0.71 -0.34,-0.96 -0.84,-2.02 -2.53,-3.41 -5.07,-4.17 -2.29,-0.67 -4.73,-0.68 -7.29,-0.03 -0.67,0.19 -1.23,0.37 -1.65,0.58l-1.1 0.48 -0.03 -5.92 8.78 -10.47z"/>
 </g>
</svg>
