<?xml version="1.0" encoding="UTF-8"?>
<!DOCTYPE svg PUBLIC "-//W3C//DTD SVG 1.1//EN" "http://www.w3.org/Graphics/SVG/1.1/DTD/svg11.dtd">
<svg xmlns="http://www.w3.org/2000/svg" xml:space="preserve" width="591px" height="591px" version="1.1" style="shape-rendering:geometricPrecision; text-rendering:geometricPrecision; image-rendering:optimizeQuality; fill-rule:evenodd; clip-rule:evenodd"
viewBox="0 0 35.15 35.15"
 xmlns:xlink="http://www.w3.org/1999/xlink">
 <defs>
  <style type="text/css">
   <![CDATA[
    .fil0 {fill:#0E4F95}
    .fil1 {fill:#FEFEFE;fill-rule:nonzero}
   ]]>
  </style>
 </defs>
 <g id="Layer_x0020_1">
  <metadata id="CorelCorpID_0Corel-Layer"/>
  <g id="_1912505103024">
   <circle class="fil0" cx="17.58" cy="17.58" r="17.58"/>
  </g>
  <path class="fil1" d="M4.38 21.44c0,-1.17 0.29,-2.11 0.87,-2.82 0.59,-0.71 1.25,-1.25 1.99,-1.64 -0.58,-0.34 -1.08,-0.79 -1.48,-1.37 -0.41,-0.57 -0.61,-1.29 -0.61,-2.17 0,-1.35 0.45,-2.52 1.33,-3.49 0.89,-0.98 2.23,-1.47 4.02,-1.47 1.79,0 3.13,0.49 4.02,1.48 0.88,0.98 1.33,2.15 1.33,3.48 0,1.07 -0.28,1.89 -0.84,2.45 -0.56,0.57 -1.01,0.95 -1.37,1.16 2,0.86 3,2.32 3,4.39 0,1.19 -0.49,2.37 -1.48,3.55 -0.99,1.18 -2.55,1.77 -4.66,1.77 -2.11,0 -3.66,-0.59 -4.64,-1.77 -0.99,-1.18 -1.48,-2.36 -1.48,-3.55zm2.7 0c0,0.94 0.34,1.72 1.01,2.37 0.67,0.65 1.47,0.97 2.41,0.97 0.94,0 1.75,-0.32 2.42,-0.95 0.68,-0.62 1.02,-1.42 1.02,-2.39 0,-0.93 -0.34,-1.63 -1.03,-2.09 -0.68,-0.46 -1.51,-0.83 -2.46,-1.1 -0.21,-0.07 -0.56,-0.16 -1.04,-0.29 -0.7,0.31 -1.26,0.76 -1.68,1.35 -0.43,0.6 -0.65,1.31 -0.65,2.13zm3.4 -5.29c0.03,0.01 0.17,0.05 0.42,0.11 0.25,0.05 0.38,0.08 0.4,0.08 0.35,-0.21 0.79,-0.53 1.3,-0.98 0.52,-0.44 0.77,-1.08 0.77,-1.92 0,-0.79 -0.28,-1.47 -0.84,-2.04 -0.56,-0.58 -1.24,-0.86 -2.03,-0.86 -0.79,0 -1.46,0.28 -2.01,0.85 -0.56,0.56 -0.84,1.25 -0.84,2.05 0,0.82 0.26,1.43 0.79,1.82 0.52,0.38 1.2,0.68 2.04,0.89zm10.62 -0.23l4.03 -4.84 -6.48 0 0 -2.25 11.34 0 -5.32 6.32c2.1,0.17 3.69,0.99 4.77,2.46 0.72,1.04 1.02,2.27 0.88,3.71 -0.14,1.43 -0.64,2.58 -1.51,3.43 -0.36,0.33 -0.62,0.55 -0.8,0.68 -1.26,0.89 -2.77,1.33 -4.55,1.33 -1.12,0 -2.12,-0.11 -2.97,-0.34 -0.36,-0.1 -0.72,-0.21 -1.07,-0.35 -0.37,-0.14 -0.69,-0.31 -0.99,-0.5 -0.14,-0.03 -0.21,-0.09 -0.21,-0.17 0,-0.19 0,-0.65 0,-1.37 0,-0.72 0,-1.14 0,-1.27 0.72,0.48 1.43,0.85 2.14,1.1 0.7,0.25 1.52,0.4 2.48,0.45 0.83,0.05 1.66,-0.07 2.47,-0.35 0.82,-0.28 1.44,-0.79 1.88,-1.51 0.47,-0.75 0.59,-1.59 0.36,-2.54 -0.13,-0.44 -0.31,-0.8 -0.56,-1.1 -0.24,-0.3 -0.5,-0.55 -0.77,-0.76 -0.48,-0.36 -1.07,-0.58 -1.77,-0.67 -0.69,-0.09 -1.35,-0.08 -1.98,0.01 -0.53,0.07 -0.99,0.19 -1.37,0.37l0 -1.84z"/>
 </g>
</svg>
