<?xml version="1.0" encoding="UTF-8"?>
<!DOCTYPE svg PUBLIC "-//W3C//DTD SVG 1.1//EN" "http://www.w3.org/Graphics/SVG/1.1/DTD/svg11.dtd">
<svg xmlns="http://www.w3.org/2000/svg" xml:space="preserve" width="591px" height="591px" version="1.1" style="shape-rendering:geometricPrecision; text-rendering:geometricPrecision; image-rendering:optimizeQuality; fill-rule:evenodd; clip-rule:evenodd"
viewBox="0 0 130.94 130.94"
 xmlns:xlink="http://www.w3.org/1999/xlink">
 <defs>
  <style type="text/css">
   <![CDATA[
    .fil0 {fill:#0E4F95}
    .fil1 {fill:#FEFEFE;fill-rule:nonzero}
   ]]>
  </style>
 </defs>
 <g id="Layer_x0020_1">
  <metadata id="CorelCorpID_0Corel-Layer"/>
  <g id="_1912701598912">
   <circle class="fil0" cx="65.47" cy="65.47" r="65.47"/>
  </g>
  <path class="fil1" d="M16.22 79.84c0,-4.33 1.08,-7.82 3.25,-10.47 2.16,-2.64 4.62,-4.68 7.39,-6.11 -2.17,-1.28 -4.01,-2.97 -5.52,-5.11 -1.51,-2.13 -2.26,-4.83 -2.26,-8.07 0,-5.04 1.66,-9.39 4.97,-13.02 3.3,-3.64 8.28,-5.46 14.96,-5.46 6.67,0 11.65,1.83 14.95,5.5 3.31,3.66 4.97,8 4.97,12.98 0,3.97 -1.05,7.01 -3.12,9.12 -2.08,2.1 -3.78,3.53 -5.1,4.32 7.45,3.18 11.17,8.62 11.17,16.32 0,4.45 -1.84,8.86 -5.53,13.26 -3.69,4.38 -9.47,6.58 -17.34,6.58 -7.88,0 -13.63,-2.2 -17.3,-6.58 -3.66,-4.4 -5.49,-8.81 -5.49,-13.26zm10.06 0.02c0,3.49 1.24,6.43 3.75,8.84 2.49,2.4 5.49,3.6 8.98,3.6 3.49,0 6.5,-1.17 9.02,-3.52 2.54,-2.34 3.8,-5.31 3.8,-8.92 0,-3.47 -1.28,-6.07 -3.85,-7.78 -2.55,-1.72 -5.61,-3.09 -9.16,-4.1 -0.78,-0.25 -2.07,-0.6 -3.87,-1.08 -2.6,1.14 -4.69,2.81 -6.28,5.04 -1.59,2.22 -2.39,4.86 -2.39,7.92zm12.63 -19.71c0.13,0.06 0.65,0.2 1.59,0.42 0.92,0.2 1.41,0.3 1.47,0.3 1.33,-0.78 2.94,-2 4.86,-3.64 1.92,-1.65 2.88,-4.04 2.88,-7.16 0,-2.94 -1.05,-5.48 -3.16,-7.61 -2.09,-2.14 -4.61,-3.2 -7.54,-3.2 -2.94,0 -5.45,1.04 -7.51,3.15 -2.07,2.1 -3.1,4.66 -3.1,7.66 0,3.05 0.97,5.31 2.92,6.76 1.95,1.43 4.49,2.55 7.59,3.32zm29.72 21.17l0 -8.86 30.44 -39.57 10.15 0 0 39.57 6.67 0 0 8.86 -6.67 0 0 17.16 -10.15 0 0 -17.16 -30.44 0zm10.09 -8.86l20.35 0 0 -25.7 -20.35 25.7z"/>
 </g>
</svg>
