<?xml version="1.0" encoding="UTF-8"?>
<!DOCTYPE svg PUBLIC "-//W3C//DTD SVG 1.1//EN" "http://www.w3.org/Graphics/SVG/1.1/DTD/svg11.dtd">
<!-- Creator: CorelDRAW 2021.5 -->
<svg xmlns="http://www.w3.org/2000/svg" xml:space="preserve" width="590px" height="590px" version="1.1" style="shape-rendering:geometricPrecision; text-rendering:geometricPrecision; image-rendering:optimizeQuality; fill-rule:evenodd; clip-rule:evenodd"
viewBox="0 0 128.92 128.93"
 xmlns:xlink="http://www.w3.org/1999/xlink"
 xmlns:xodm="http://www.corel.com/coreldraw/odm/2003">
 <defs>
  <style type="text/css">
   <![CDATA[
    .fil0 {fill:#0E4F95}
    .fil1 {fill:white;fill-rule:nonzero}
   ]]>
  </style>
 </defs>
 <g id="Layer_x0020_1">
  <metadata id="CorelCorpID_0Corel-Layer"/>
  <circle class="fil0" cx="64.46" cy="64.46" r="64.46"/>
  <path class="fil1" d="M25.44 62.03c-1.75,-1.24 -3.12,-2.67 -4.13,-4.26 -1.54,-2.39 -2.3,-5.14 -2.3,-8.22 0,-5.68 1.83,-10.24 5.5,-13.69 3.61,-3.33 8.46,-5.01 14.57,-5.01 6.07,0 10.92,1.68 14.53,5.01 3.7,3.48 5.55,8.04 5.55,13.69 0,3.49 -1.07,6.58 -3.2,9.28 -1,1.25 -2.2,2.38 -3.6,3.43 2.84,1.41 5.07,3.27 6.66,5.59 1.95,2.84 2.94,6.23 2.94,10.18 0,2.48 -0.56,5.03 -1.67,7.64 -1.1,2.59 -2.82,4.91 -5.14,6.93 -4.17,3.6 -9.53,5.41 -16.07,5.41 -6.55,0 -11.88,-1.81 -16.04,-5.41 -2.33,-2.02 -4.06,-4.34 -5.17,-6.93 -1.1,-2.61 -1.66,-5.16 -1.66,-7.64 0,-3.67 0.9,-6.96 2.71,-9.87 1.56,-2.4 3.74,-4.45 6.52,-6.13zm9.78 4.63c-2.23,1.03 -3.99,2.53 -5.29,4.48 -1.31,2 -1.96,4.31 -1.96,6.89 0,2.98 1.09,5.53 3.24,7.64 2.17,2.12 4.79,3.2 7.87,3.2 3.08,0 5.73,-1.07 7.95,-3.16 2.1,-2.11 3.15,-4.67 3.15,-7.68 0,-2.76 -1.06,-5.01 -3.2,-6.77 -1.8,-1.35 -4.59,-2.57 -8.38,-3.68 -0.78,-0.17 -1.38,-0.33 -1.84,-0.48 -0.25,-0.07 -0.51,-0.13 -0.77,-0.2 -0.24,-0.08 -0.52,-0.15 -0.77,-0.24zm6.49 -7.92c0.62,-0.35 1.3,-0.77 2.03,-1.29 0.74,-0.5 1.44,-1.1 2.09,-1.82 1.64,-1.71 2.44,-3.74 2.44,-6.08 0,-2.54 -0.88,-4.74 -2.65,-6.58 -1.88,-1.8 -4.05,-2.69 -6.54,-2.69 -2.54,0 -4.73,0.89 -6.53,2.69 -1.78,1.78 -2.67,3.98 -2.67,6.58 0,2.4 0.82,4.26 2.46,5.6 1.41,1.18 3.73,2.18 6.92,3.02 0,0 0.35,0.09 1.07,0.27 0.31,0.06 0.78,0.15 1.38,0.3z"/>
  <path class="fil1" d="M96.65 96.81l0 -16.39 -29.09 0 0 -9.82 29.63 -38.47 11.18 0 0 37.77 6.4 0 0 10.52 -6.4 0 0 16.39 -11.72 0zm0 -26.91l0 -20.53 -16.25 20.53 16.25 0z"/>
 </g>
</svg>
