<?xml version="1.0" encoding="UTF-8"?>
<!DOCTYPE svg PUBLIC "-//W3C//DTD SVG 1.1//EN" "http://www.w3.org/Graphics/SVG/1.1/DTD/svg11.dtd">
<!-- Creator: CorelDRAW 2021.5 -->
<svg xmlns="http://www.w3.org/2000/svg" xml:space="preserve" width="590px" height="590px" version="1.1" style="shape-rendering:geometricPrecision; text-rendering:geometricPrecision; image-rendering:optimizeQuality; fill-rule:evenodd; clip-rule:evenodd"
viewBox="0 0 248.28 248.29"
 xmlns:xlink="http://www.w3.org/1999/xlink"
 xmlns:xodm="http://www.corel.com/coreldraw/odm/2003">
 <defs>
  <style type="text/css">
   <![CDATA[
    .fil0 {fill:#0E4F95}
    .fil1 {fill:white;fill-rule:nonzero}
   ]]>
  </style>
 </defs>
 <g id="Layer_x0020_1">
  <metadata id="CorelCorpID_0Corel-Layer"/>
  <circle class="fil0" cx="124.14" cy="124.14" r="124.14"/>
  <path class="fil1" d="M50.77 119.46c-3.35,-2.39 -6.01,-5.14 -7.94,-8.2 -2.98,-4.62 -4.44,-9.9 -4.44,-15.83 0,-10.95 3.54,-19.74 10.6,-26.36 6.95,-6.43 16.29,-9.67 28.06,-9.67 11.68,0 21.02,3.24 27.97,9.67 7.12,6.68 10.68,15.47 10.68,26.36 0,6.72 -2.04,12.67 -6.16,17.87 -1.92,2.39 -4.23,4.58 -6.92,6.6 5.46,2.71 9.76,6.3 12.82,10.77 3.77,5.46 5.67,12 5.67,19.59 0,4.79 -1.08,9.7 -3.22,14.72 -2.13,4.99 -5.43,9.46 -9.89,13.34 -8.03,6.95 -18.37,10.42 -30.95,10.42 -12.61,0 -22.89,-3.47 -30.89,-10.42 -4.5,-3.88 -7.82,-8.35 -9.96,-13.34 -2.13,-5.02 -3.21,-9.93 -3.21,-14.72 0,-7.06 1.75,-13.4 5.23,-19.01 3.01,-4.61 7.21,-8.55 12.55,-11.79zm18.83 8.9c-4.29,1.99 -7.67,4.88 -10.19,8.65 -2.51,3.85 -3.76,8.29 -3.76,13.25 0,5.75 2.1,10.66 6.25,14.72 4.17,4.08 9.22,6.16 15.15,6.16 5.93,0 11.04,-2.05 15.3,-6.08 4.06,-4.05 6.07,-8.99 6.07,-14.8 0,-5.31 -2.04,-9.63 -6.16,-13.02 -3.47,-2.6 -8.85,-4.96 -16.14,-7.09 -1.49,-0.33 -2.66,-0.65 -3.54,-0.94 -0.49,-0.12 -0.99,-0.23 -1.49,-0.38 -0.46,-0.14 -0.99,-0.29 -1.49,-0.47zm12.5 -15.24c1.2,-0.67 2.51,-1.48 3.91,-2.48 1.43,-0.96 2.78,-2.13 4.03,-3.5 3.16,-3.3 4.7,-7.21 4.7,-11.71 0,-4.9 -1.69,-9.14 -5.11,-12.67 -3.62,-3.47 -7.79,-5.2 -12.58,-5.2 -4.91,0 -9.11,1.73 -12.58,5.2 -3.42,3.42 -5.14,7.65 -5.14,12.67 0,4.61 1.57,8.21 4.73,10.78 2.71,2.27 7.18,4.2 13.34,5.81 0,0 0.67,0.17 2.04,0.52 0.62,0.12 1.52,0.29 2.66,0.58z"/>
  <path class="fil1" d="M161.99 82.41l-2.89 23.27c3.6,-0.73 7.07,-1.17 10.43,-1.29 6.83,-0.2 13.08,0.44 18.74,1.99 10.07,2.95 17.96,8.26 23.59,15.91 4.91,6.77 7.27,14.95 7.1,24.56 -0.21,12.52 -5.17,22.71 -14.86,30.51 -5.84,4.64 -12.33,7.76 -19.51,9.37 -7.18,1.63 -14.39,2.28 -21.63,1.92 -7.27,-0.46 -13.78,-1.66 -19.59,-3.67 -3.83,-1.32 -7.65,-2.92 -11.48,-4.88l0 -22.74c6.1,3.71 12.27,6.54 18.51,8.49 6.25,1.99 13.05,2.63 20.41,1.93 5.37,-0.5 10.57,-2.22 15.65,-5.11 5.08,-2.92 8.12,-7.3 9.08,-13.2 1.02,-6.16 -0.17,-11.38 -3.59,-15.73 -3.42,-4.32 -8.06,-7.27 -13.87,-8.79 -4.61,-1.2 -9.63,-1.61 -15.06,-1.17 -5.4,0.44 -10.37,1.23 -14.86,2.37 -2.02,0.49 -4,1.05 -5.99,1.66 -2.01,0.58 -3.97,1.14 -5.93,1.66l8.56 -67.58 65.78 0 0 20.52 -48.59 0z"/>
 </g>
</svg>
