<?xml version="1.0" encoding="UTF-8"?>
<!DOCTYPE svg PUBLIC "-//W3C//DTD SVG 1.1//EN" "http://www.w3.org/Graphics/SVG/1.1/DTD/svg11.dtd">
<svg xmlns="http://www.w3.org/2000/svg" xml:space="preserve" width="591px" height="591px" version="1.1" style="shape-rendering:geometricPrecision; text-rendering:geometricPrecision; image-rendering:optimizeQuality; fill-rule:evenodd; clip-rule:evenodd"
viewBox="0 0 255.47 255.47"
 xmlns:xlink="http://www.w3.org/1999/xlink">
 <defs>
  <style type="text/css">
   <![CDATA[
    .fil0 {fill:#0E4F95}
    .fil1 {fill:#FEFEFE;fill-rule:nonzero}
   ]]>
  </style>
 </defs>
 <g id="Layer_x0020_1">
  <metadata id="CorelCorpID_0Corel-Layer"/>
  <g id="_1912685806352">
   <circle class="fil0" cx="127.73" cy="127.73" r="127.73"/>
  </g>
  <path class="fil1" d="M31.86 155.77c0,-8.45 2.1,-15.26 6.33,-20.42 4.23,-5.16 9.02,-9.15 14.42,-11.94 -4.23,-2.49 -7.82,-5.79 -10.76,-9.96 -2.94,-4.17 -4.41,-9.42 -4.41,-15.74 0,-9.84 3.24,-18.33 9.69,-25.41 6.44,-7.11 16.16,-10.65 29.18,-10.65 13.02,0 22.74,3.57 29.18,10.74 6.45,7.14 9.69,15.6 9.69,25.32 0,7.73 -2.04,13.67 -6.09,17.78 -4.05,4.11 -7.37,6.9 -9.96,8.43 14.55,6.21 21.81,16.83 21.81,31.85 0,8.67 -3.6,17.28 -10.8,25.86 -7.2,8.55 -18.47,12.84 -33.83,12.84 -15.36,0 -26.58,-4.29 -33.74,-12.84 -7.14,-8.58 -10.71,-17.19 -10.71,-25.86zm19.61 0.04c0,6.8 2.43,12.53 7.32,17.24 4.86,4.68 10.71,7.02 17.52,7.02 6.81,0 12.69,-2.28 17.61,-6.87 4.95,-4.56 7.4,-10.35 7.4,-17.39 0,-6.78 -2.49,-11.85 -7.49,-15.18 -4.98,-3.36 -10.95,-6.03 -17.88,-8.01 -1.53,-0.48 -4.05,-1.17 -7.56,-2.1 -5.07,2.22 -9.15,5.49 -12.24,9.84 -3.12,4.32 -4.68,9.48 -4.68,15.45zm24.66 -38.46c0.24,0.12 1.26,0.39 3.09,0.81 1.8,0.39 2.76,0.6 2.88,0.6 2.58,-1.53 5.73,-3.9 9.48,-7.11 3.75,-3.21 5.61,-7.88 5.61,-13.97 0,-5.73 -2.04,-10.68 -6.15,-14.85 -4.08,-4.17 -9,-6.24 -14.73,-6.24 -5.73,0 -10.62,2.04 -14.64,6.15 -4.05,4.11 -6.06,9.09 -6.06,14.94 0,5.97 1.89,10.37 5.7,13.19 3.81,2.79 8.76,4.98 14.82,6.48zm56.27 49.64c5.01,3.15 11.01,5.7 17.9,7.62 6.93,1.95 14.07,2.55 21.45,1.86 6.21,-0.6 12.15,-2.58 17.85,-5.97 5.67,-3.39 9.08,-8.49 10.29,-15.29 1.25,-7.74 -0.24,-14.01 -4.59,-18.81 -4.32,-4.8 -9.48,-8.01 -15.45,-9.66 -5.04,-1.17 -10.56,-1.56 -16.53,-1.14 -5.97,0.39 -11.43,1.2 -16.34,2.37 -1.78,0.48 -3.39,0.96 -4.92,1.5 -1.53,0.51 -3.12,0.96 -4.74,1.32l8.43 -66.62 65.89 0 0 17.46 -51.32 0 -3.69 29.48c1.05,-0.12 2.1,-0.33 3.18,-0.63 1.05,-0.27 2.16,-0.54 3.33,-0.78 2.22,-0.36 4.56,-0.54 7.02,-0.54 14.55,-0.36 26.54,3.21 36.02,10.71 2.46,2.13 4.86,4.65 7.14,7.56 2.28,2.94 4.08,6.51 5.34,10.74 1.2,4.08 1.77,8.67 1.77,13.71 0,5.04 -0.69,9.47 -2.1,13.34 -2.94,7.62 -7.47,13.68 -13.62,18.18 -6.15,4.53 -13.04,7.59 -20.66,9.24 -6.09,1.41 -12.93,1.95 -20.55,1.59 -7.62,-0.36 -14.42,-1.59 -20.39,-3.69 -3.18,-1.17 -5.85,-2.28 -8.1,-3.36 -0.21,-0.09 -1.11,-0.57 -2.61,-1.38l0 -18.81z"/>
 </g>
</svg>
