<?xml version="1.0" encoding="UTF-8"?>
<!DOCTYPE svg PUBLIC "-//W3C//DTD SVG 1.1//EN" "http://www.w3.org/Graphics/SVG/1.1/DTD/svg11.dtd">
<svg xmlns="http://www.w3.org/2000/svg" xml:space="preserve" width="591px" height="591px" version="1.1" style="shape-rendering:geometricPrecision; text-rendering:geometricPrecision; image-rendering:optimizeQuality; fill-rule:evenodd; clip-rule:evenodd"
viewBox="0 0 5212.1 5212.1"
 xmlns:xlink="http://www.w3.org/1999/xlink">
 <defs>
  <style type="text/css">
   <![CDATA[
    .fil0 {fill:#0E4F95}
    .fil1 {fill:#FEFEFE;fill-rule:nonzero}
   ]]>
  </style>
 </defs>
 <g id="Layer_x0020_1">
  <metadata id="CorelCorpID_0Corel-Layer"/>
  <g id="_1912673966864">
   <circle class="fil0" cx="2606.05" cy="2606.05" r="2606.05"/>
  </g>
  <path class="fil1" d="M666.86 3178.13c0,-172.57 42.82,-311.48 129.11,-416.73 86.28,-105.26 184.19,-186.65 294.35,-243.54 -86.29,-50.79 -159.73,-118.1 -219.69,-203.17 -59.97,-85.06 -89.96,-192.17 -89.96,-321.27 0,-200.72 66.09,-373.92 197.67,-518.32 131.55,-145.02 329.82,-217.24 595.43,-217.24 265.58,0 463.85,72.82 595.4,219.07 131.58,145.65 197.67,318.22 197.67,516.49 0,157.87 -41.62,279.03 -124.23,362.87 -82.61,83.83 -150.53,140.75 -203.17,171.97 296.81,126.65 444.88,343.29 444.88,649.87 0,176.85 -73.44,352.49 -220.29,527.49 -146.88,174.42 -376.96,261.93 -690.26,261.93 -313.33,0 -542.19,-87.51 -688.44,-261.93 -145.65,-175 -218.47,-350.64 -218.47,-527.49zm400.21 0.63c0,138.9 49.57,255.78 149.3,351.86 99.14,95.46 218.47,143.18 357.4,143.18 138.9,0 258.83,-46.49 359.19,-140.13 100.98,-93.01 151.15,-211.11 151.15,-354.91 0,-138.31 -50.79,-241.74 -152.97,-309.66 -101.59,-68.53 -223.37,-123 -364.72,-163.39 -31.22,-9.78 -82.61,-23.85 -154.23,-42.82 -103.41,45.26 -186.64,111.98 -249.66,200.72 -63.64,88.11 -95.46,193.36 -95.46,315.15zm503.02 -784.53c4.9,2.45 25.7,7.95 63.02,16.52 36.72,7.95 56.31,12.25 58.76,12.25 52.62,-31.22 116.86,-79.56 193.37,-145.03 76.49,-65.49 114.43,-160.95 114.43,-285.18 0,-116.88 -41.61,-217.84 -125.45,-302.9 -83.21,-85.06 -183.57,-127.28 -300.45,-127.28 -116.88,0 -216.64,41.6 -298.66,125.43 -82.61,83.84 -123.6,185.42 -123.6,304.75 0,121.78 38.57,211.75 116.28,269.26 77.71,56.92 178.67,101.59 302.3,132.18zm2903.04 -596.63c-17.12,-7.35 -32.42,-16.52 -47.12,-28.77 -109.53,-69.14 -239.89,-112.61 -390.41,-129.13 -124.23,-14.07 -244.79,-2.45 -360.44,36.12 -116.26,37.94 -212.35,104.03 -288.83,197.04 -148.1,181.75 -225.82,399.59 -233.17,652.95 4.9,-2.45 11.03,-8.57 18.38,-18.37 6.72,-9.18 14.07,-17.75 21.42,-25.07 18.97,-18.98 37.32,-37.35 55.66,-55.1 17.75,-18.34 41.02,-35.49 69.77,-52.01 74.06,-48.34 145.65,-81.39 214.79,-100.96 172.57,-45.29 343.92,-48.97 514.64,-10.4 171.35,37.92 313.95,122.98 428.38,254.56 105.24,126.68 167.05,273.53 186.02,441.2 21.43,215.42 -8.57,394.09 -91.18,536.07 -81.99,142.58 -180.52,252.13 -294.33,328.62 -134.03,85.66 -295.58,133.41 -484.05,143.2 -86.28,0 -176.87,-7.97 -272.93,-23.27 -95.46,-15.89 -179.3,-42.22 -250.91,-80.76 -18.97,-9.8 -36.72,-18.97 -53.84,-28.77 -16.52,-9.17 -32.45,-20.2 -46.52,-32.42 -7.32,-4.3 -14.07,-9.2 -21.42,-14.1 -7.32,-4.87 -14.67,-11 -21.4,-17.74 -69.76,-52.62 -131.58,-122.38 -186.64,-208.05 -83.84,-126.68 -141.98,-279.05 -175.65,-455.9 -31.19,-171.95 -38.54,-360.44 -21.39,-564.83 16.52,-204.4 57.51,-381.84 121.75,-532.39 26.32,-64.87 51.42,-118.11 75.29,-159.7 23.84,-42.25 55.06,-90.59 93.01,-145.05 33.64,-50.8 69.76,-94.84 107.71,-132.78 38.54,-43.45 78.93,-80.17 121.78,-111.39 143.8,-105.25 303.5,-168.27 480.97,-189.69 176.85,-22.02 351.27,-4.9 523.22,50.17 28.77,9.2 65.46,25.09 110.75,46.51l96.69 57.52 0 372.69zm-1314.44 1308.32c26.29,150.55 89.93,273.55 190.29,369.01 100.36,96.06 230.72,140.13 390.44,132.78 160.33,-2.45 285.78,-56.29 376.94,-160.92 11.65,-7.35 22.65,-18.37 31.82,-32.45 17.15,-23.87 26.32,-37.32 28.77,-39.77 19.6,-28.14 34.9,-58.14 46.52,-89.33 62.41,-153 57.51,-302.3 -14.07,-447.96 -16.53,-28.77 -45.3,-66.71 -86.29,-114.43 -124.23,-121.78 -274.78,-173.17 -451.63,-154.22 -129.1,16.52 -241.11,63.04 -337.17,139.52 -64.26,47.75 -115.66,107.71 -154.23,179.3 -23.84,50.19 -35.46,85.69 -35.46,105.88 0,20.2 4.87,57.52 14.07,112.59z"/>
 </g>
</svg>
