<?xml version="1.0" encoding="UTF-8"?>
<!DOCTYPE svg PUBLIC "-//W3C//DTD SVG 1.1//EN" "http://www.w3.org/Graphics/SVG/1.1/DTD/svg11.dtd">
<svg xmlns="http://www.w3.org/2000/svg" xml:space="preserve" width="591px" height="591px" version="1.1" style="shape-rendering:geometricPrecision; text-rendering:geometricPrecision; image-rendering:optimizeQuality; fill-rule:evenodd; clip-rule:evenodd"
viewBox="0 0 283.23 283.23"
 xmlns:xlink="http://www.w3.org/1999/xlink">
 <defs>
  <style type="text/css">
   <![CDATA[
    .fil0 {fill:#0E4F95}
    .fil1 {fill:#FEFEFE;fill-rule:nonzero}
   ]]>
  </style>
 </defs>
 <g id="Layer_x0020_1">
  <metadata id="CorelCorpID_0Corel-Layer"/>
  <g id="_1912418426928">
   <circle class="fil0" cx="141.62" cy="141.62" r="141.62"/>
  </g>
  <path class="fil1" d="M41.57 172.71c0,-9.38 2.32,-16.93 7.01,-22.65 4.69,-5.72 10.01,-10.14 16,-13.24 -4.69,-2.76 -8.68,-6.41 -11.94,-11.04 -3.26,-4.62 -4.89,-10.44 -4.89,-17.45 0,-10.91 3.59,-20.32 10.74,-28.17 7.15,-7.88 17.93,-11.81 32.36,-11.81 14.43,0 25.21,3.96 32.35,11.91 7.15,7.91 10.75,17.29 10.75,28.07 0,8.58 -2.27,15.16 -6.76,19.71 -4.48,4.56 -8.17,7.65 -11.04,9.35 16.13,6.88 24.18,18.66 24.18,35.32 0,9.61 -3.99,19.15 -11.97,28.66 -7.98,9.48 -20.49,14.23 -37.51,14.23 -17.03,0 -29.46,-4.75 -37.41,-14.23 -7.92,-9.51 -11.87,-19.05 -11.87,-28.66zm21.74 0.03c0,7.55 2.7,13.9 8.12,19.12 5.38,5.19 11.87,7.78 19.42,7.78 7.55,0 14.06,-2.53 19.52,-7.61 5.49,-5.06 8.21,-11.48 8.21,-19.29 0,-7.52 -2.76,-13.14 -8.31,-16.83 -5.52,-3.72 -12.14,-6.68 -19.82,-8.88 -1.7,-0.53 -4.49,-1.29 -8.38,-2.32 -5.62,2.46 -10.14,6.08 -13.57,10.9 -3.46,4.79 -5.19,10.51 -5.19,17.13zm27.34 -42.63c0.27,0.13 1.4,0.43 3.42,0.89 2,0.44 3.06,0.67 3.2,0.67 2.86,-1.7 6.35,-4.32 10.5,-7.88 4.16,-3.56 6.22,-8.75 6.22,-15.5 0,-6.35 -2.26,-11.84 -6.81,-16.46 -4.53,-4.62 -9.98,-6.91 -16.33,-6.91 -6.35,0 -11.77,2.26 -16.23,6.81 -4.49,4.56 -6.72,10.08 -6.72,16.56 0,6.62 2.1,11.51 6.32,14.63 4.22,3.1 9.71,5.52 16.43,7.19zm72.49 82.9l53.97 -122.11 -66.04 0 0 -19.95 98.8 0 -62.75 142.06 -23.98 0z"/>
 </g>
</svg>
