<?xml version="1.0" encoding="UTF-8"?>
<!DOCTYPE svg PUBLIC "-//W3C//DTD SVG 1.1//EN" "http://www.w3.org/Graphics/SVG/1.1/DTD/svg11.dtd">
<!-- Creator: CorelDRAW 2021.5 -->
<svg xmlns="http://www.w3.org/2000/svg" xml:space="preserve" width="590px" height="590px" version="1.1" style="shape-rendering:geometricPrecision; text-rendering:geometricPrecision; image-rendering:optimizeQuality; fill-rule:evenodd; clip-rule:evenodd"
viewBox="0 0 291.55 291.55"
 xmlns:xlink="http://www.w3.org/1999/xlink"
 xmlns:xodm="http://www.corel.com/coreldraw/odm/2003">
 <defs>
  <style type="text/css">
   <![CDATA[
    .fil0 {fill:#0E4F95}
    .fil1 {fill:white;fill-rule:nonzero}
   ]]>
  </style>
 </defs>
 <g id="Layer_x0020_1">
  <metadata id="CorelCorpID_0Corel-Layer"/>
  <circle class="fil0" cx="145.77" cy="145.77" r="145.77"/>
  <path class="fil1" d="M62.19 140.15c-3.94,-2.81 -7.06,-6.03 -9.33,-9.63 -3.49,-5.42 -5.21,-11.62 -5.21,-18.58 0,-12.86 4.15,-23.18 12.45,-30.96 8.16,-7.54 19.13,-11.35 32.94,-11.35 13.72,0 24.69,3.81 32.85,11.35 8.36,7.85 12.55,18.17 12.55,30.96 0,7.88 -2.4,14.87 -7.24,20.98 -2.26,2.81 -4.97,5.38 -8.12,7.75 6.41,3.18 11.45,7.4 15.05,12.65 4.42,6.41 6.65,14.09 6.65,23 0,5.62 -1.27,11.38 -3.77,17.28 -2.51,5.86 -6.38,11.11 -11.62,15.67 -9.43,8.16 -21.57,12.24 -36.35,12.24 -14.81,0 -26.87,-4.08 -36.27,-12.24 -5.28,-4.56 -9.18,-9.81 -11.69,-15.67 -2.5,-5.9 -3.77,-11.66 -3.77,-17.28 0,-8.3 2.06,-15.74 6.14,-22.32 3.53,-5.42 8.47,-10.04 14.74,-13.85zm22.11 10.46c-5.04,2.33 -9.01,5.72 -11.96,10.15 -2.95,4.52 -4.43,9.73 -4.43,15.56 0,6.75 2.47,12.51 7.34,17.28 4.9,4.8 10.84,7.23 17.79,7.23 6.96,0 12.96,-2.4 17.97,-7.13 4.77,-4.76 7.13,-10.56 7.13,-17.38 0,-6.24 -2.4,-11.31 -7.23,-15.29 -4.08,-3.05 -10.39,-5.83 -18.96,-8.33 -1.75,-0.38 -3.12,-0.76 -4.15,-1.1 -0.58,-0.13 -1.17,-0.27 -1.75,-0.44 -0.55,-0.17 -1.16,-0.35 -1.75,-0.55zm14.68 -17.9c1.4,-0.79 2.94,-1.75 4.59,-2.91 1.68,-1.13 3.26,-2.5 4.73,-4.12 3.7,-3.87 5.52,-8.46 5.52,-13.74 0,-5.76 -1.99,-10.73 -6,-14.88 -4.25,-4.08 -9.15,-6.11 -14.78,-6.11 -5.75,0 -10.69,2.03 -14.77,6.11 -4.01,4.01 -6.03,8.98 -6.03,14.88 0,5.41 1.85,9.63 5.55,12.65 3.19,2.67 8.43,4.93 15.67,6.82 0,0 0.78,0.21 2.4,0.62 0.72,0.13 1.78,0.34 3.12,0.68z"/>
  <path class="fil1" d="M217.66 97.06l-64.59 0 0 -24.52 104.46 0c-10.83,24.38 -21.66,48.79 -32.43,73.2 -10.8,24.41 -21.56,48.75 -32.36,73.06l-28.9 -0.11 53.82 -121.63z"/>
 </g>
</svg>
