<?xml version="1.0" encoding="UTF-8"?>
<!DOCTYPE svg PUBLIC "-//W3C//DTD SVG 1.1//EN" "http://www.w3.org/Graphics/SVG/1.1/DTD/svg11.dtd">
<svg xmlns="http://www.w3.org/2000/svg" xml:space="preserve" width="591px" height="591px" version="1.1" style="shape-rendering:geometricPrecision; text-rendering:geometricPrecision; image-rendering:optimizeQuality; fill-rule:evenodd; clip-rule:evenodd"
viewBox="0 0 137.87 137.87"
 xmlns:xlink="http://www.w3.org/1999/xlink">
 <defs>
  <style type="text/css">
   <![CDATA[
    .fil0 {fill:#0E4F95}
    .fil1 {fill:#FEFEFE;fill-rule:nonzero}
   ]]>
  </style>
 </defs>
 <g id="Layer_x0020_1">
  <metadata id="CorelCorpID_0Corel-Layer"/>
  <g id="_1912787991472">
   <circle class="fil0" cx="68.94" cy="68.94" r="68.94"/>
  </g>
  <path class="fil1" d="M17.06 84.07c0,-4.57 1.14,-8.24 3.42,-11.03 2.28,-2.78 4.87,-4.93 7.79,-6.44 -2.29,-1.34 -4.23,-3.12 -5.82,-5.37 -1.58,-2.25 -2.38,-5.08 -2.38,-8.5 0,-5.31 1.75,-9.89 5.23,-13.71 3.48,-3.84 8.73,-5.75 15.75,-5.75 7.03,0 12.27,1.93 15.75,5.8 3.48,3.85 5.23,8.42 5.23,13.66 0,4.18 -1.1,7.38 -3.28,9.6 -2.19,2.22 -3.99,3.72 -5.38,4.55 7.85,3.35 11.77,9.08 11.77,17.19 0,4.68 -1.94,9.32 -5.83,13.95 -3.88,4.62 -9.97,6.93 -18.26,6.93 -8.28,0 -14.34,-2.31 -18.21,-6.93 -3.85,-4.63 -5.78,-9.27 -5.78,-13.95zm10.59 0.01c0,3.68 1.31,6.77 3.95,9.31 2.62,2.53 5.78,3.79 9.45,3.79 3.68,0 6.85,-1.23 9.51,-3.71 2.67,-2.46 3.99,-5.58 3.99,-9.39 0,-3.65 -1.34,-6.39 -4.04,-8.19 -2.69,-1.81 -5.91,-3.25 -9.65,-4.32 -0.83,-0.26 -2.19,-0.63 -4.08,-1.13 -2.74,1.2 -4.94,2.96 -6.6,5.31 -1.69,2.33 -2.53,5.11 -2.53,8.33zm13.31 -20.75c0.13,0.07 0.68,0.21 1.66,0.44 0.97,0.21 1.49,0.32 1.56,0.32 1.39,-0.82 3.09,-2.1 5.11,-3.83 2.03,-1.74 3.03,-4.26 3.03,-7.55 0,-3.09 -1.1,-5.76 -3.32,-8.01 -2.2,-2.25 -4.85,-3.37 -7.95,-3.37 -3.09,0 -5.73,1.1 -7.9,3.32 -2.18,2.22 -3.27,4.91 -3.27,8.06 0,3.23 1.02,5.6 3.08,7.13 2.06,1.5 4.73,2.68 8,3.49zm31.77 20.74c0,-4.57 1.13,-8.24 3.42,-11.03 2.28,-2.78 4.87,-4.93 7.78,-6.44 -2.28,-1.34 -4.22,-3.12 -5.81,-5.37 -1.58,-2.25 -2.38,-5.08 -2.38,-8.5 0,-5.31 1.75,-9.89 5.23,-13.71 3.48,-3.84 8.73,-5.75 15.75,-5.75 7.03,0 12.27,1.93 15.75,5.8 3.48,3.85 5.23,8.42 5.23,13.66 0,4.18 -1.1,7.38 -3.29,9.6 -2.18,2.22 -3.98,3.72 -5.37,4.55 7.85,3.35 11.77,9.08 11.77,17.19 0,4.68 -1.95,9.32 -5.83,13.95 -3.88,4.62 -9.97,6.93 -18.26,6.93 -8.29,0 -14.34,-2.31 -18.21,-6.93 -3.85,-4.63 -5.78,-9.27 -5.78,-13.95zm10.59 0.01c0,3.68 1.31,6.77 3.95,9.31 2.62,2.53 5.78,3.79 9.45,3.79 3.68,0 6.85,-1.23 9.5,-3.71 2.67,-2.46 4,-5.58 4,-9.39 0,-3.65 -1.34,-6.39 -4.05,-8.19 -2.68,-1.81 -5.9,-3.25 -9.64,-4.32 -0.83,-0.26 -2.19,-0.63 -4.08,-1.13 -2.74,1.2 -4.94,2.96 -6.61,5.31 -1.68,2.33 -2.52,5.11 -2.52,8.33zm13.3 -20.75c0.13,0.07 0.68,0.21 1.67,0.44 0.97,0.21 1.49,0.32 1.56,0.32 1.39,-0.82 3.09,-2.1 5.11,-3.83 2.02,-1.74 3.03,-4.26 3.03,-7.55 0,-3.09 -1.1,-5.76 -3.32,-8.01 -2.2,-2.25 -4.86,-3.37 -7.95,-3.37 -3.09,0 -5.73,1.1 -7.9,3.32 -2.18,2.22 -3.27,4.91 -3.27,8.06 0,3.23 1.02,5.6 3.08,7.13 2.05,1.5 4.72,2.68 7.99,3.49z"/>
 </g>
</svg>
