<?xml version="1.0" encoding="UTF-8"?>
<!DOCTYPE svg PUBLIC "-//W3C//DTD SVG 1.1//EN" "http://www.w3.org/Graphics/SVG/1.1/DTD/svg11.dtd">
<svg xmlns="http://www.w3.org/2000/svg" xml:space="preserve" width="591px" height="591px" version="1.1" style="shape-rendering:geometricPrecision; text-rendering:geometricPrecision; image-rendering:optimizeQuality; fill-rule:evenodd; clip-rule:evenodd"
viewBox="0 0 91.11 91.11"
 xmlns:xlink="http://www.w3.org/1999/xlink">
 <defs>
  <style type="text/css">
   <![CDATA[
    .fil1 {fill:#0E4F95}
    .fil0 {fill:#FEFEFE;fill-rule:nonzero}
   ]]>
  </style>
 </defs>
 <g id="Layer_x0020_1">
  <metadata id="CorelCorpID_0Corel-Layer"/>
  <path class="fil0" d="M39.8 67.52l-6.87 0 0 -33.91 -9.78 5.66 0 -6.95 16.65 -9.59 0 44.79zm6.46 -8.8c1.75,1.1 3.85,1.99 6.27,2.67 2.42,0.68 4.92,0.89 7.5,0.65 2.18,-0.21 4.26,-0.91 6.25,-2.09 1.99,-1.19 3.18,-2.97 3.6,-5.36 0.44,-2.71 -0.08,-4.9 -1.6,-6.58 -1.52,-1.68 -3.32,-2.8 -5.41,-3.38 -1.77,-0.41 -3.7,-0.55 -5.79,-0.4 -2.09,0.14 -4,0.42 -5.72,0.83 -0.62,0.17 -1.19,0.34 -1.72,0.52 -0.54,0.18 -1.09,0.34 -1.66,0.47l2.95 -23.32 23.07 0 0 6.11 -17.97 0 -1.29 10.32c0.37,-0.04 0.74,-0.12 1.11,-0.22 0.37,-0.1 0.76,-0.19 1.17,-0.28 0.78,-0.12 1.6,-0.18 2.46,-0.18 5.09,-0.13 9.29,1.12 12.61,3.74 0.86,0.75 1.7,1.63 2.5,2.65 0.79,1.03 1.42,2.28 1.86,3.76 0.42,1.43 0.62,3.03 0.62,4.8 0,1.76 -0.24,3.32 -0.73,4.67 -1.03,2.67 -2.61,4.79 -4.77,6.36 -2.15,1.59 -4.56,2.66 -7.23,3.24 -2.13,0.49 -4.53,0.68 -7.19,0.55 -2.67,-0.12 -5.05,-0.55 -7.14,-1.29 -1.12,-0.41 -2.05,-0.8 -2.84,-1.17 -0.07,-0.04 -0.39,-0.2 -0.91,-0.49l0 -6.58z"/>
  <g id="_1912709964960">
   <circle class="fil1" cx="45.56" cy="45.56" r="45.56"/>
  </g>
  <path class="fil0" d="M11.06 55.56c0,-3.02 0.75,-5.45 2.26,-7.29 1.51,-1.84 3.22,-3.26 5.14,-4.26 -1.5,-0.88 -2.79,-2.06 -3.84,-3.55 -1.04,-1.48 -1.57,-3.36 -1.57,-5.61 0,-3.51 1.16,-6.54 3.46,-9.06 2.3,-2.54 5.76,-3.8 10.41,-3.8 4.64,0 8.1,1.27 10.4,3.83 2.3,2.54 3.46,5.56 3.46,9.03 0,2.76 -0.73,4.87 -2.17,6.34 -1.45,1.46 -2.63,2.46 -3.55,3.01 5.18,2.21 7.77,6 7.77,11.36 0,3.09 -1.28,6.16 -3.85,9.22 -2.57,3.05 -6.59,4.58 -12.06,4.58 -5.48,0 -9.48,-1.53 -12.04,-4.58 -2.54,-3.06 -3.82,-6.13 -3.82,-9.22zm7 0.01c0,2.42 0.87,4.47 2.61,6.15 1.73,1.67 3.82,2.5 6.25,2.5 2.42,0 4.52,-0.81 6.27,-2.45 1.77,-1.63 2.65,-3.69 2.65,-6.2 0,-2.42 -0.89,-4.23 -2.68,-5.42 -1.77,-1.19 -3.9,-2.15 -6.37,-2.85 -0.55,-0.17 -1.45,-0.42 -2.7,-0.75 -1.81,0.79 -3.26,1.96 -4.36,3.51 -1.12,1.54 -1.67,3.38 -1.67,5.51zm8.79 -13.72c0.09,0.05 0.45,0.14 1.1,0.29 0.65,0.14 0.99,0.22 1.03,0.22 0.92,-0.55 2.04,-1.4 3.38,-2.54 1.34,-1.14 2,-2.81 2,-4.98 0,-2.05 -0.73,-3.81 -2.19,-5.3 -1.46,-1.49 -3.21,-2.22 -5.25,-2.22 -2.05,0 -3.79,0.72 -5.22,2.19 -1.45,1.46 -2.17,3.24 -2.17,5.33 0,2.12 0.68,3.7 2.04,4.7 1.36,1 3.12,1.78 5.28,2.31zm23.35 24.71l0.06 -6.58c0.5,0.34 0.76,0.51 0.76,0.51 1.79,1.21 4.07,1.99 6.82,2.32 2.18,0.24 4.28,0.04 6.3,-0.63 2.03,-0.67 3.73,-1.82 5.12,-3.45 2.54,-3.13 3.9,-6.96 4.07,-11.48 -0.13,0.09 -0.26,0.22 -0.37,0.38 -0.13,0.17 -0.24,0.3 -0.32,0.38 -0.88,0.88 -1.61,1.52 -2.2,1.94 -1.16,0.76 -2.44,1.34 -3.82,1.75 -3.01,0.85 -6.02,0.92 -9.02,0.26 -3.01,-0.67 -5.48,-2.17 -7.4,-4.51 -1.88,-2.17 -2.96,-4.77 -3.25,-7.78 -0.33,-3.72 0.19,-6.82 1.6,-9.31 1.39,-2.49 3.11,-4.42 5.14,-5.8 2.39,-1.59 5.21,-2.44 8.46,-2.57 1.51,0 3.09,0.14 4.74,0.4 1.65,0.28 3.12,0.76 4.42,1.48 0.88,0.55 1.44,0.9 1.69,1.07 0.13,0.12 0.26,0.23 0.37,0.31 0.13,0.09 0.28,0.18 0.44,0.31 1.14,0.92 2.22,2.11 3.26,3.57 1.43,2.26 2.45,4.91 3.07,7.97 0.59,3.01 0.72,6.33 0.38,9.94 -0.33,3.62 -1.04,6.7 -2.13,9.24 -0.5,1.14 -0.96,2.08 -1.38,2.83 -0.42,0.75 -0.94,1.61 -1.56,2.56 -0.59,0.84 -1.22,1.62 -1.88,2.33 -0.8,0.79 -1.53,1.44 -2.2,1.94 -2.51,1.8 -5.3,2.87 -8.39,3.23 -3.1,0.36 -6.13,0.07 -9.1,-0.85 -0.7,-0.16 -1.36,-0.44 -1.93,-0.82l-1.75 -0.94zm6.18 -22.75c2.05,2.17 4.68,3.07 7.9,2.7 2.04,-0.22 3.99,-1.01 5.83,-2.38 1.21,-0.92 2.11,-1.99 2.69,-3.2 0.41,-0.79 0.62,-1.38 0.59,-1.75 -0.02,-0.38 -0.09,-1.07 -0.21,-2.07 -0.46,-2.54 -1.58,-4.66 -3.36,-6.36 -1.77,-1.69 -4.04,-2.49 -6.8,-2.41 -2.84,0.17 -5.03,1.1 -6.58,2.82 -0.13,0.12 -0.23,0.23 -0.31,0.32 -0.09,0.08 -0.17,0.18 -0.26,0.31 -0.29,0.41 -0.46,0.65 -0.49,0.68 -0.3,0.46 -0.57,0.96 -0.82,1.51 -1.08,2.76 -0.98,5.37 0.32,7.83 0.37,0.79 0.88,1.45 1.5,2z"/>
 </g>
</svg>
