<?xml version="1.0" encoding="UTF-8"?>
<!DOCTYPE svg PUBLIC "-//W3C//DTD SVG 1.1//EN" "http://www.w3.org/Graphics/SVG/1.1/DTD/svg11.dtd">
<!-- Creator: CorelDRAW 2021.5 -->
<svg xmlns="http://www.w3.org/2000/svg" xml:space="preserve" width="590px" height="590px" version="1.1" style="shape-rendering:geometricPrecision; text-rendering:geometricPrecision; image-rendering:optimizeQuality; fill-rule:evenodd; clip-rule:evenodd"
viewBox="0 0 91.85 91.85"
 xmlns:xlink="http://www.w3.org/1999/xlink"
 xmlns:xodm="http://www.corel.com/coreldraw/odm/2003">
 <defs>
  <style type="text/css">
   <![CDATA[
    .fil0 {fill:#0E4F95}
    .fil1 {fill:white;fill-rule:nonzero}
   ]]>
  </style>
 </defs>
 <g id="Layer_x0020_1">
  <metadata id="CorelCorpID_0Corel-Layer"/>
  <circle class="fil0" cx="45.92" cy="45.92" r="45.92"/>
  <path class="fil1" d="M17.97 44.15c-1.25,-0.88 -2.23,-1.9 -2.94,-3.03 -1.1,-1.71 -1.64,-3.66 -1.64,-5.86 0,-4.05 1.3,-7.3 3.92,-9.75 2.57,-2.38 6.02,-3.57 10.38,-3.57 4.32,0 7.77,1.19 10.34,3.57 2.64,2.47 3.96,5.73 3.96,9.75 0,2.49 -0.76,4.69 -2.28,6.61 -0.71,0.89 -1.57,1.7 -2.56,2.44 2.02,1.01 3.61,2.34 4.74,3.99 1.39,2.02 2.1,4.44 2.1,7.25 0,1.77 -0.4,3.58 -1.19,5.44 -0.79,1.85 -2.01,3.5 -3.66,4.94 -2.97,2.57 -6.8,3.85 -11.45,3.85 -4.67,0 -8.47,-1.28 -11.43,-3.85 -1.66,-1.44 -2.89,-3.09 -3.68,-4.94 -0.79,-1.86 -1.19,-3.67 -1.19,-5.44 0,-2.62 0.65,-4.96 1.93,-7.03 1.11,-1.71 2.67,-3.17 4.65,-4.37zm6.96 3.3c-1.58,0.73 -2.84,1.8 -3.77,3.19 -0.92,1.43 -1.39,3.07 -1.39,4.91 0,2.13 0.78,3.94 2.31,5.44 1.55,1.51 3.41,2.28 5.61,2.28 2.19,0 4.08,-0.76 5.66,-2.25 1.5,-1.5 2.24,-3.32 2.24,-5.47 0,-1.97 -0.75,-3.57 -2.28,-4.82 -1.28,-0.96 -3.27,-1.84 -5.97,-2.62 -0.55,-0.12 -0.98,-0.24 -1.31,-0.35 -0.18,-0.04 -0.36,-0.09 -0.55,-0.14 -0.17,-0.05 -0.36,-0.11 -0.55,-0.17zm4.63 -5.64c0.44,-0.25 0.92,-0.55 1.44,-0.92 0.53,-0.36 1.03,-0.79 1.49,-1.3 1.17,-1.22 1.74,-2.66 1.74,-4.33 0,-1.81 -0.62,-3.38 -1.89,-4.68 -1.34,-1.29 -2.88,-1.93 -4.65,-1.93 -1.82,0 -3.37,0.64 -4.66,1.93 -1.26,1.26 -1.9,2.83 -1.9,4.68 0,1.71 0.58,3.04 1.75,3.99 1.01,0.84 2.66,1.55 4.94,2.15 0,0 0.25,0.06 0.75,0.19 0.23,0.05 0.56,0.11 0.99,0.22z"/>
  <path class="fil1" d="M72.39 53.24c0.4,-1.22 0.7,-2.5 0.92,-3.81 -1.61,1.46 -3.43,2.47 -5.45,3.02 -3.31,0.9 -6.47,0.95 -9.46,0.15 -3.03,-0.76 -5.52,-2.27 -7.44,-4.53 -1.91,-2.25 -3.03,-4.93 -3.35,-8.03 -0.3,-3.28 0.13,-6.22 1.3,-8.86 1.26,-2.85 3.2,-5.06 5.81,-6.66 2.6,-1.59 5.45,-2.44 8.55,-2.55 2.6,-0.07 5.08,0.31 7.44,1.12 2.36,0.81 4.44,2.2 6.24,4.17 2.31,2.61 3.88,5.96 4.67,10.06 0.58,3.12 0.71,6.43 0.38,9.93 -0.35,3.65 -1.07,6.75 -2.15,9.3 -0.8,1.84 -1.77,3.62 -2.92,5.34 -1.15,1.71 -2.54,3.18 -4.16,4.38 -2.45,1.77 -5.23,2.87 -8.35,3.33 -3.13,0.43 -6.29,0.15 -9.46,-0.87 -0.75,-0.2 -1.45,-0.49 -2.13,-0.88 -0.67,-0.38 -1.34,-0.76 -1.99,-1.13l0.04 -8.04c1.57,0.82 2.89,1.51 3.93,2.07 1.04,0.55 2.49,0.93 4.35,1.13 2.17,0.22 4.18,0.02 6.01,-0.64 1.84,-0.66 3.33,-1.7 4.5,-3.13 1.15,-1.44 2.06,-3.06 2.72,-4.87zm-7.09 -7.32c1.89,-0.18 3.68,-0.91 5.35,-2.18 1.05,-0.8 1.86,-1.76 2.43,-2.88 0.32,-0.61 0.49,-1.07 0.51,-1.37 0.02,-0.31 -0.02,-0.79 -0.13,-1.44 -0.51,-2.81 -1.59,-4.95 -3.25,-6.43 -1.63,-1.41 -3.63,-2.08 -6.02,-1.99 -2.49,0.08 -4.5,0.94 -6.05,2.57 -1.53,1.62 -2.26,3.65 -2.18,6.1 0.09,2.13 0.81,3.87 2.18,5.22 1.93,1.92 4.31,2.72 7.16,2.4z"/>
 </g>
</svg>
