<?xml version="1.0" encoding="UTF-8"?>
<!DOCTYPE svg PUBLIC "-//W3C//DTD SVG 1.1//EN" "http://www.w3.org/Graphics/SVG/1.1/DTD/svg11.dtd">
<!-- Creator: CorelDRAW 2019 (64-Bit) -->
<svg xmlns="http://www.w3.org/2000/svg" xml:space="preserve" width="591px" height="591px" version="1.1" style="shape-rendering:geometricPrecision; text-rendering:geometricPrecision; image-rendering:optimizeQuality; fill-rule:evenodd; clip-rule:evenodd"
viewBox="0 0 459.34 459.34"
 xmlns:xlink="http://www.w3.org/1999/xlink">
 <defs>
  <style type="text/css">
   <![CDATA[
    .fil0 {fill:#0E4F95}
    .fil1 {fill:#FEFEFE;fill-rule:nonzero}
   ]]>
  </style>
 </defs>
 <g id="Layer_x0020_1">
  <metadata id="CorelCorpID_0Corel-Layer"/>
  <g id="_2527445516304">
   <circle class="fil0" cx="229.67" cy="229.67" r="229.67"/>
   <path class="fil1" d="M94.36 277.03c0,-15.23 3.78,-27.49 11.4,-36.79 7.61,-9.29 16.26,-16.47 25.98,-21.49 -7.62,-4.49 -14.1,-10.43 -19.39,-17.94 -5.3,-7.5 -7.94,-16.96 -7.94,-28.35 0,-17.72 5.83,-33.01 17.44,-45.75 11.62,-12.81 29.12,-19.18 52.56,-19.18 23.44,0 40.94,6.43 52.56,19.34 11.61,12.85 17.44,28.09 17.44,45.59 0,13.93 -3.67,24.63 -10.96,32.03 -7.29,7.4 -13.29,12.42 -17.93,15.17 26.19,11.19 39.26,30.31 39.26,57.37 0,15.61 -6.48,31.11 -19.44,46.56 -12.96,15.39 -33.27,23.12 -60.93,23.12 -27.66,0 -47.86,-7.73 -60.77,-23.12 -12.85,-15.45 -19.28,-30.95 -19.28,-46.56zm35.33 0.05c0,12.26 4.37,22.58 13.18,31.06 8.75,8.43 19.28,12.64 31.54,12.64 12.26,0 22.85,-4.1 31.71,-12.37 8.91,-8.21 13.34,-18.63 13.34,-31.33 0,-12.2 -4.48,-21.33 -13.51,-27.33 -8.96,-6.05 -19.71,-10.86 -32.19,-14.42 -2.75,-0.86 -7.29,-2.11 -13.61,-3.78 -9.13,4 -16.47,9.88 -22.04,17.72 -5.62,7.77 -8.42,17.06 -8.42,27.81zm44.4 -69.24c0.43,0.21 2.26,0.7 5.56,1.45 3.24,0.71 4.97,1.08 5.18,1.08 4.65,-2.75 10.32,-7.02 17.07,-12.8 6.76,-5.78 10.1,-14.2 10.1,-25.17 0,-10.31 -3.67,-19.23 -11.07,-26.74 -7.34,-7.5 -16.2,-11.23 -26.52,-11.23 -10.32,0 -19.12,3.67 -26.36,11.07 -7.29,7.4 -10.91,16.37 -10.91,26.9 0,10.75 3.4,18.69 10.26,23.77 6.86,5.02 15.77,8.96 26.69,11.67z"/>
   <path class="fil1" d="M258.25 342.5l54.64 -160.45 22.91 0 54.69 160.45 -22.95 0 -14.33 -41.98 -57.73 0 -14.33 41.98 -22.9 0zm87.7 -63.64l-21.58 -63.04 -21.59 63.04 43.17 0z"/>
  </g>
 </g>
</svg>
