<?xml version="1.0" encoding="UTF-8"?>
<!DOCTYPE svg PUBLIC "-//W3C//DTD SVG 1.1//EN" "http://www.w3.org/Graphics/SVG/1.1/DTD/svg11.dtd">
<!-- Creator: CorelDRAW 2019 (64-Bit) -->
<svg xmlns="http://www.w3.org/2000/svg" xml:space="preserve" width="591px" height="591px" version="1.1" style="shape-rendering:geometricPrecision; text-rendering:geometricPrecision; image-rendering:optimizeQuality; fill-rule:evenodd; clip-rule:evenodd"
viewBox="0 0 169.49 169.49"
 xmlns:xlink="http://www.w3.org/1999/xlink">
 <defs>
  <style type="text/css">
   <![CDATA[
    .fil0 {fill:#0E4F95}
    .fil1 {fill:#FEFEFE;fill-rule:nonzero}
   ]]>
  </style>
 </defs>
 <g id="Layer_x0020_1">
  <metadata id="CorelCorpID_0Corel-Layer"/>
  <g id="_2527411530880">
   <circle class="fil0" cx="84.75" cy="84.75" r="84.75"/>
  </g>
  <path class="fil1" d="M60.03 122.74l0.09 -12.01c0.92,0.6 1.39,0.91 1.39,0.91 3.28,2.21 7.44,3.64 12.46,4.24 3.99,0.45 7.82,0.08 11.51,-1.15 3.71,-1.21 6.82,-3.32 9.33,-6.29 4.65,-5.72 7.13,-12.72 7.45,-20.96 -0.24,0.16 -0.47,0.39 -0.69,0.68 -0.23,0.32 -0.43,0.55 -0.58,0.71 -1.6,1.6 -2.93,2.77 -4.01,3.53 -2.13,1.39 -4.45,2.44 -6.97,3.21 -5.51,1.54 -11,1.68 -16.49,0.47 -5.49,-1.24 -10,-3.97 -13.49,-8.25 -3.44,-3.96 -5.41,-8.71 -5.94,-14.2 -0.61,-6.8 0.35,-12.46 2.91,-16.99 2.54,-4.55 5.68,-8.09 9.39,-10.61 4.36,-2.89 9.52,-4.45 15.45,-4.69 2.76,0 5.65,0.26 8.66,0.74 3.01,0.51 5.7,1.39 8.07,2.7 1.6,1 2.63,1.64 3.08,1.95 0.24,0.22 0.47,0.41 0.69,0.57 0.23,0.16 0.5,0.33 0.8,0.57 2.07,1.68 4.04,3.84 5.95,6.52 2.6,4.12 4.48,8.97 5.61,14.55 1.07,5.49 1.31,11.55 0.68,18.15 -0.6,6.6 -1.89,12.23 -3.88,16.88 -0.92,2.07 -1.76,3.79 -2.52,5.15 -0.76,1.37 -1.72,2.95 -2.85,4.69 -1.08,1.53 -2.23,2.95 -3.44,4.24 -1.45,1.45 -2.8,2.64 -4.01,3.56 -4.59,3.28 -9.69,5.23 -15.33,5.89 -5.65,0.65 -11.19,0.12 -16.6,-1.56 -1.29,-0.29 -2.49,-0.8 -3.54,-1.48l-3.18 -1.72zm11.27 -41.55c3.75,3.97 8.55,5.61 14.43,4.92 3.73,-0.39 7.29,-1.83 10.65,-4.33 2.2,-1.68 3.85,-3.64 4.9,-5.84 0.76,-1.45 1.13,-2.52 1.09,-3.21 -0.03,-0.68 -0.17,-1.95 -0.39,-3.77 -0.84,-4.65 -2.89,-8.51 -6.13,-11.62 -3.24,-3.09 -7.38,-4.55 -12.42,-4.39 -5.18,0.31 -9.18,2.01 -12.02,5.13 -0.23,0.24 -0.41,0.43 -0.56,0.59 -0.16,0.15 -0.32,0.33 -0.47,0.56 -0.53,0.77 -0.84,1.2 -0.9,1.25 -0.55,0.84 -1.04,1.76 -1.5,2.76 -1.98,5.04 -1.78,9.81 0.58,14.3 0.69,1.44 1.6,2.65 2.74,3.65z"/>
 </g>
</svg>
