<?xml version="1.0" encoding="UTF-8"?>
<!DOCTYPE svg PUBLIC "-//W3C//DTD SVG 1.1//EN" "http://www.w3.org/Graphics/SVG/1.1/DTD/svg11.dtd">
<svg xmlns="http://www.w3.org/2000/svg" xml:space="preserve" width="591px" height="591px" version="1.1" style="shape-rendering:geometricPrecision; text-rendering:geometricPrecision; image-rendering:optimizeQuality; fill-rule:evenodd; clip-rule:evenodd"
viewBox="0 0 44.39 44.39"
 xmlns:xlink="http://www.w3.org/1999/xlink">
 <defs>
  <style type="text/css">
   <![CDATA[
    .fil0 {fill:#0E4F95}
    .fil1 {fill:#FEFEFE;fill-rule:nonzero}
   ]]>
  </style>
 </defs>
 <g id="Layer_x0020_1">
  <metadata id="CorelCorpID_0Corel-Layer"/>
  <g id="_1912684411200">
   <circle class="fil0" cx="22.2" cy="22.2" r="22.2"/>
  </g>
  <path class="fil1" d="M6.68 32.43l0.02 -3.2c0.25,0.16 0.37,0.24 0.37,0.24 0.88,0.59 1.99,0.97 3.33,1.13 1.06,0.12 2.08,0.02 3.07,-0.31 0.99,-0.32 1.82,-0.88 2.49,-1.67 1.24,-1.53 1.9,-3.4 1.99,-5.6 -0.07,0.05 -0.13,0.11 -0.19,0.19 -0.06,0.08 -0.11,0.14 -0.15,0.18 -0.43,0.43 -0.79,0.74 -1.07,0.95 -0.57,0.37 -1.19,0.65 -1.86,0.85 -1.47,0.41 -2.94,0.45 -4.4,0.13 -1.47,-0.33 -2.67,-1.06 -3.6,-2.2 -0.92,-1.06 -1.45,-2.33 -1.59,-3.79 -0.16,-1.82 0.1,-3.33 0.78,-4.54 0.68,-1.21 1.52,-2.15 2.51,-2.83 1.16,-0.77 2.53,-1.18 4.12,-1.25 0.73,0 1.51,0.07 2.31,0.2 0.8,0.14 1.52,0.37 2.15,0.72 0.43,0.27 0.7,0.44 0.82,0.52 0.07,0.06 0.13,0.11 0.19,0.15 0.06,0.04 0.13,0.09 0.21,0.15 0.55,0.45 1.08,1.03 1.59,1.74 0.69,1.1 1.19,2.4 1.5,3.89 0.28,1.46 0.34,3.08 0.18,4.84 -0.16,1.76 -0.51,3.26 -1.04,4.5 -0.24,0.56 -0.47,1.01 -0.67,1.38 -0.2,0.36 -0.46,0.79 -0.76,1.25 -0.29,0.41 -0.6,0.79 -0.92,1.13 -0.39,0.39 -0.75,0.7 -1.07,0.95 -1.22,0.87 -2.58,1.4 -4.09,1.57 -1.51,0.17 -2.99,0.03 -4.43,-0.41 -0.34,-0.08 -0.66,-0.22 -0.94,-0.4l-0.85 -0.46zm3 -11.08c1.01,1.05 2.29,1.49 3.86,1.31 0.99,-0.11 1.94,-0.49 2.84,-1.16 0.59,-0.45 1.02,-0.97 1.3,-1.56 0.21,-0.38 0.31,-0.67 0.3,-0.85 -0.01,-0.18 -0.05,-0.52 -0.11,-1.01 -0.22,-1.24 -0.77,-2.27 -1.63,-3.1 -0.87,-0.82 -1.97,-1.21 -3.32,-1.17 -1.38,0.08 -2.45,0.54 -3.2,1.37 -0.07,0.06 -0.11,0.11 -0.16,0.16 -0.04,0.04 -0.08,0.08 -0.12,0.15 -0.14,0.2 -0.22,0.32 -0.24,0.33 -0.15,0.22 -0.28,0.47 -0.4,0.74 -0.53,1.34 -0.48,2.61 0.15,3.81 0.19,0.39 0.43,0.71 0.73,0.98zm21.51 12.44c-2.77,0 -4.84,-1.12 -6.21,-3.36 -1.37,-2.24 -2.06,-4.96 -2.06,-8.16 0,-3.18 0.69,-5.9 2.06,-8.16 1.37,-2.27 3.44,-3.4 6.21,-3.4 2.75,0 4.81,1.13 6.2,3.4 1.38,2.26 2.07,4.98 2.07,8.16 0,3.2 -0.69,5.92 -2.07,8.16 -1.39,2.24 -3.45,3.36 -6.2,3.36zm0 -3.09c1.65,0 2.87,-0.82 3.65,-2.46 0.79,-1.64 1.18,-3.63 1.18,-5.97 0,-2.32 -0.39,-4.31 -1.18,-5.95 -0.78,-1.66 -2,-2.48 -3.65,-2.48 -1.67,0 -2.9,0.82 -3.69,2.48 -0.78,1.64 -1.17,3.63 -1.17,5.95 0,2.34 0.39,4.33 1.17,5.97 0.79,1.64 2.02,2.46 3.69,2.46z"/>
 </g>
</svg>
