<?xml version="1.0" encoding="UTF-8"?>
<!DOCTYPE svg PUBLIC "-//W3C//DTD SVG 1.1//EN" "http://www.w3.org/Graphics/SVG/1.1/DTD/svg11.dtd">
<!-- Creator: CorelDRAW 2021.5 -->
<svg xmlns="http://www.w3.org/2000/svg" xml:space="preserve" width="590px" height="590px" version="1.1" style="shape-rendering:geometricPrecision; text-rendering:geometricPrecision; image-rendering:optimizeQuality; fill-rule:evenodd; clip-rule:evenodd"
viewBox="0 0 44.11 44.11"
 xmlns:xlink="http://www.w3.org/1999/xlink"
 xmlns:xodm="http://www.corel.com/coreldraw/odm/2003">
 <defs>
  <style type="text/css">
   <![CDATA[
    .fil0 {fill:#0E4F95}
    .fil1 {fill:white;fill-rule:nonzero}
   ]]>
  </style>
 </defs>
 <g id="Layer_x0020_1">
  <metadata id="CorelCorpID_0Corel-Layer"/>
  <circle class="fil0" cx="22.05" cy="22.05" r="22.05"/>
  <path class="fil1" d="M16.53 25.58c0.19,-0.59 0.34,-1.2 0.44,-1.83 -0.77,0.7 -1.65,1.18 -2.62,1.45 -1.59,0.43 -3.1,0.46 -4.54,0.07 -1.46,-0.36 -2.65,-1.09 -3.57,-2.17 -0.92,-1.09 -1.46,-2.37 -1.61,-3.86 -0.15,-1.57 0.06,-2.99 0.62,-4.25 0.61,-1.37 1.54,-2.44 2.79,-3.2 1.25,-0.77 2.62,-1.18 4.11,-1.23 1.25,-0.03 2.44,0.15 3.57,0.54 1.13,0.39 2.14,1.06 3,2 1.11,1.26 1.86,2.87 2.24,4.83 0.28,1.5 0.34,3.09 0.18,4.77 -0.17,1.76 -0.51,3.25 -1.03,4.47 -0.38,0.88 -0.85,1.74 -1.4,2.56 -0.55,0.83 -1.22,1.53 -2,2.11 -1.18,0.85 -2.51,1.38 -4.01,1.6 -1.5,0.2 -3.02,0.07 -4.54,-0.42 -0.36,-0.1 -0.7,-0.24 -1.03,-0.42 -0.32,-0.19 -0.64,-0.37 -0.95,-0.55l0.02 -3.86c0.75,0.4 1.39,0.73 1.88,1 0.51,0.26 1.2,0.44 2.09,0.54 1.05,0.11 2.01,0.01 2.89,-0.31 0.88,-0.32 1.6,-0.81 2.16,-1.5 0.56,-0.69 0.99,-1.47 1.31,-2.34zm-3.4 -3.51c0.9,-0.09 1.76,-0.44 2.56,-1.05 0.51,-0.39 0.9,-0.85 1.17,-1.39 0.16,-0.29 0.23,-0.51 0.24,-0.65 0.01,-0.15 -0.01,-0.38 -0.06,-0.69 -0.24,-1.35 -0.76,-2.38 -1.56,-3.09 -0.78,-0.68 -1.74,-1 -2.89,-0.96 -1.2,0.04 -2.16,0.45 -2.9,1.23 -0.74,0.78 -1.09,1.76 -1.05,2.93 0.04,1.03 0.39,1.86 1.05,2.51 0.92,0.92 2.07,1.31 3.44,1.16z"/>
  <path class="fil1" d="M31.25 10.56c2.57,0 4.59,1.04 6.09,3.12 1.5,2.09 2.25,4.88 2.25,8.36 0,3.5 -0.75,6.29 -2.25,8.36 -1.5,2.07 -3.52,3.11 -6.09,3.11 -2.79,0 -4.87,-1.12 -6.25,-3.35 -1.39,-2.24 -2.08,-4.94 -2.08,-8.12 0,-3.48 0.76,-6.27 2.25,-8.36 1.49,-2.08 3.52,-3.12 6.08,-3.12zm3.12 5.69c-0.77,-1.32 -1.81,-1.98 -3.12,-1.98 -1.3,0 -2.34,0.66 -3.1,1.98 -0.8,1.4 -1.2,3.33 -1.2,5.79 0,2.48 0.4,4.41 1.2,5.8 0.77,1.32 1.8,1.98 3.1,1.98 1.3,0 2.34,-0.66 3.12,-1.98 0.81,-1.41 1.21,-3.34 1.21,-5.8 0,-2.44 -0.4,-4.38 -1.21,-5.79z"/>
 </g>
</svg>
