<?xml version="1.0" encoding="UTF-8"?>
<!DOCTYPE svg PUBLIC "-//W3C//DTD SVG 1.1//EN" "http://www.w3.org/Graphics/SVG/1.1/DTD/svg11.dtd">
<!-- Creator: CorelDRAW 2021.5 -->
<svg xmlns="http://www.w3.org/2000/svg" xml:space="preserve" width="590px" height="590px" version="1.1" style="shape-rendering:geometricPrecision; text-rendering:geometricPrecision; image-rendering:optimizeQuality; fill-rule:evenodd; clip-rule:evenodd"
viewBox="0 0 52.79 52.79"
 xmlns:xlink="http://www.w3.org/1999/xlink"
 xmlns:xodm="http://www.corel.com/coreldraw/odm/2003">
 <defs>
  <style type="text/css">
   <![CDATA[
    .fil0 {fill:#0E4F95}
    .fil1 {fill:white;fill-rule:nonzero}
   ]]>
  </style>
 </defs>
 <g id="Layer_x0020_1">
  <metadata id="CorelCorpID_0Corel-Layer"/>
  <circle class="fil0" cx="26.4" cy="26.4" r="26.4"/>
  <path class="fil1" d="M22.1 30.61c0.23,-0.7 0.41,-1.43 0.53,-2.18 -0.92,0.84 -1.97,1.41 -3.13,1.73 -1.9,0.52 -3.72,0.55 -5.43,0.09 -1.75,-0.44 -3.18,-1.31 -4.28,-2.6 -1.1,-1.3 -1.75,-2.84 -1.93,-4.62 -0.17,-1.88 0.08,-3.58 0.75,-5.09 0.72,-1.64 1.84,-2.92 3.34,-3.83 1.49,-0.92 3.13,-1.41 4.91,-1.47 1.49,-0.04 2.92,0.18 4.28,0.65 1.36,0.46 2.55,1.26 3.58,2.39 1.33,1.51 2.23,3.43 2.69,5.78 0.33,1.8 0.41,3.7 0.22,5.71 -0.21,2.1 -0.62,3.88 -1.24,5.35 -0.46,1.05 -1.01,2.08 -1.68,3.06 -0.66,0.99 -1.46,1.84 -2.39,2.53 -1.41,1.01 -3,1.65 -4.8,1.91 -1.8,0.25 -3.61,0.08 -5.44,-0.5 -0.42,-0.12 -0.83,-0.28 -1.22,-0.51 -0.38,-0.22 -0.77,-0.43 -1.14,-0.65l0.02 -4.62c0.9,0.47 1.66,0.87 2.26,1.19 0.6,0.32 1.43,0.54 2.5,0.65 1.25,0.13 2.4,0.01 3.46,-0.37 1.05,-0.38 1.91,-0.97 2.58,-1.8 0.66,-0.82 1.19,-1.75 1.56,-2.8zm-4.07 -4.2c1.09,-0.11 2.11,-0.53 3.07,-1.25 0.61,-0.46 1.07,-1.02 1.4,-1.66 0.19,-0.35 0.28,-0.62 0.29,-0.79 0.02,-0.17 -0.01,-0.45 -0.07,-0.83 -0.29,-1.61 -0.91,-2.84 -1.87,-3.69 -0.94,-0.81 -2.09,-1.2 -3.46,-1.15 -1.43,0.05 -2.59,0.54 -3.47,1.48 -0.89,0.93 -1.31,2.1 -1.26,3.51 0.05,1.22 0.47,2.22 1.26,3 1.1,1.1 2.47,1.56 4.11,1.38z"/>
  <polygon class="fil1" points="41.26,39.63 36.95,39.63 36.95,20.75 31.4,23.96 31.4,19.08 41.67,13.15 41.67,39.63 "/>
 </g>
</svg>
