<?xml version="1.0" encoding="UTF-8"?>
<!DOCTYPE svg PUBLIC "-//W3C//DTD SVG 1.1//EN" "http://www.w3.org/Graphics/SVG/1.1/DTD/svg11.dtd">
<svg xmlns="http://www.w3.org/2000/svg" xml:space="preserve" width="591px" height="591px" version="1.1" style="shape-rendering:geometricPrecision; text-rendering:geometricPrecision; image-rendering:optimizeQuality; fill-rule:evenodd; clip-rule:evenodd"
viewBox="0 0 53.18 53.18"
 xmlns:xlink="http://www.w3.org/1999/xlink">
 <defs>
  <style type="text/css">
   <![CDATA[
    .fil0 {fill:#0E4F95}
    .fil1 {fill:#FEFEFE;fill-rule:nonzero}
   ]]>
  </style>
 </defs>
 <g id="Layer_x0020_1">
  <metadata id="CorelCorpID_0Corel-Layer"/>
  <g id="_1912418425552">
   <circle class="fil0" cx="26.59" cy="26.59" r="26.59"/>
  </g>
  <path class="fil1" d="M10.33 38.85l0.03 -3.84c0.29,0.2 0.44,0.29 0.44,0.29 1.05,0.71 2.38,1.17 3.98,1.36 1.28,0.14 2.5,0.02 3.68,-0.37 1.19,-0.39 2.18,-1.06 2.99,-2.01 1.48,-1.83 2.28,-4.06 2.38,-6.7 -0.08,0.05 -0.15,0.13 -0.22,0.22 -0.08,0.1 -0.14,0.17 -0.19,0.22 -0.51,0.52 -0.94,0.89 -1.28,1.13 -0.68,0.45 -1.42,0.79 -2.23,1.03 -1.76,0.49 -3.51,0.54 -5.27,0.15 -1.75,-0.39 -3.2,-1.27 -4.31,-2.64 -1.1,-1.26 -1.73,-2.78 -1.9,-4.54 -0.2,-2.17 0.11,-3.98 0.93,-5.43 0.81,-1.45 1.82,-2.58 3,-3.39 1.39,-0.92 3.04,-1.42 4.94,-1.5 0.88,0 1.8,0.09 2.77,0.24 0.96,0.16 1.82,0.44 2.57,0.86 0.52,0.32 0.85,0.53 0.99,0.63 0.08,0.07 0.15,0.13 0.22,0.18 0.08,0.05 0.16,0.1 0.26,0.18 0.66,0.54 1.29,1.23 1.9,2.08 0.83,1.32 1.43,2.87 1.79,4.66 0.35,1.75 0.42,3.69 0.22,5.8 -0.19,2.11 -0.6,3.91 -1.24,5.39 -0.3,0.66 -0.56,1.21 -0.81,1.65 -0.24,0.44 -0.55,0.94 -0.91,1.5 -0.34,0.48 -0.71,0.94 -1.1,1.35 -0.46,0.46 -0.89,0.85 -1.28,1.14 -1.46,1.05 -3.09,1.67 -4.9,1.88 -1.8,0.21 -3.58,0.04 -5.31,-0.49 -0.41,-0.1 -0.79,-0.26 -1.13,-0.48l-1.01 -0.55zm3.6 -13.28c1.2,1.27 2.73,1.79 4.61,1.57 1.2,-0.12 2.33,-0.58 3.41,-1.38 0.7,-0.54 1.23,-1.16 1.56,-1.87 0.25,-0.46 0.37,-0.8 0.35,-1.02 -0.01,-0.22 -0.05,-0.63 -0.12,-1.21 -0.27,-1.48 -0.93,-2.72 -1.96,-3.71 -1.04,-0.99 -2.36,-1.46 -3.97,-1.41 -1.66,0.1 -2.94,0.65 -3.84,1.64 -0.08,0.08 -0.13,0.14 -0.18,0.19 -0.05,0.05 -0.1,0.11 -0.15,0.18 -0.17,0.25 -0.27,0.38 -0.29,0.4 -0.18,0.27 -0.33,0.56 -0.48,0.88 -0.63,1.61 -0.57,3.14 0.18,4.57 0.22,0.47 0.52,0.85 0.88,1.17zm28.89 14.42l-4.08 0 0 -20.16 -5.82 3.37 0 -4.14 9.9 -5.7 0 26.63z"/>
 </g>
</svg>
