<?xml version="1.0" encoding="UTF-8"?>
<!DOCTYPE svg PUBLIC "-//W3C//DTD SVG 1.1//EN" "http://www.w3.org/Graphics/SVG/1.1/DTD/svg11.dtd">
<svg xmlns="http://www.w3.org/2000/svg" xml:space="preserve" width="591px" height="591px" version="1.1" style="shape-rendering:geometricPrecision; text-rendering:geometricPrecision; image-rendering:optimizeQuality; fill-rule:evenodd; clip-rule:evenodd"
viewBox="0 0 66.3 66.3"
 xmlns:xlink="http://www.w3.org/1999/xlink">
 <defs>
  <style type="text/css">
   <![CDATA[
    .fil0 {fill:#0E4F95}
    .fil1 {fill:#FEFEFE;fill-rule:nonzero}
   ]]>
  </style>
 </defs>
 <g id="Layer_x0020_1">
  <metadata id="CorelCorpID_0Corel-Layer"/>
  <g id="_1912425531920">
   <circle class="fil0" cx="33.15" cy="33.15" r="33.15"/>
  </g>
  <path class="fil1" d="M10.31 48.44l0.04 -4.79c0.36,0.24 0.55,0.37 0.55,0.37 1.31,0.88 2.97,1.45 4.97,1.69 1.58,0.18 3.11,0.03 4.58,-0.46 1.48,-0.48 2.72,-1.32 3.72,-2.51 1.86,-2.28 2.84,-5.07 2.97,-8.35 -0.09,0.06 -0.19,0.15 -0.27,0.27 -0.1,0.13 -0.18,0.22 -0.24,0.28 -0.64,0.64 -1.17,1.11 -1.59,1.41 -0.85,0.55 -1.78,0.97 -2.78,1.28 -2.2,0.61 -4.39,0.67 -6.57,0.18 -2.19,-0.49 -3.99,-1.58 -5.38,-3.28 -1.37,-1.58 -2.16,-3.47 -2.37,-5.66 -0.24,-2.71 0.14,-4.97 1.16,-6.77 1.01,-1.82 2.27,-3.23 3.75,-4.23 1.73,-1.15 3.79,-1.77 6.15,-1.87 1.1,0 2.25,0.1 3.45,0.3 1.2,0.2 2.28,0.55 3.22,1.07 0.64,0.4 1.05,0.66 1.23,0.78 0.09,0.09 0.18,0.16 0.27,0.23 0.09,0.06 0.2,0.13 0.32,0.22 0.82,0.67 1.61,1.54 2.37,2.6 1.04,1.64 1.79,3.58 2.24,5.8 0.43,2.19 0.52,4.6 0.27,7.23 -0.24,2.63 -0.76,4.88 -1.55,6.73 -0.37,0.82 -0.7,1.51 -1,2.05 -0.31,0.55 -0.69,1.18 -1.14,1.87 -0.43,0.61 -0.89,1.18 -1.37,1.69 -0.58,0.58 -1.11,1.05 -1.6,1.42 -1.83,1.31 -3.86,2.09 -6.11,2.35 -2.25,0.26 -4.46,0.05 -6.61,-0.62 -0.52,-0.12 -0.99,-0.32 -1.41,-0.59l-1.27 -0.69zm4.49 -16.56c1.49,1.58 3.41,2.24 5.75,1.96 1.49,-0.15 2.91,-0.73 4.25,-1.72 0.87,-0.67 1.53,-1.45 1.95,-2.33 0.3,-0.58 0.45,-1.01 0.44,-1.28 -0.02,-0.27 -0.07,-0.78 -0.16,-1.5 -0.34,-1.85 -1.15,-3.39 -2.44,-4.63 -1.3,-1.23 -2.95,-1.82 -4.96,-1.75 -2.06,0.12 -3.65,0.8 -4.78,2.04 -0.1,0.1 -0.17,0.17 -0.23,0.24 -0.06,0.06 -0.12,0.13 -0.19,0.22 -0.21,0.31 -0.33,0.48 -0.35,0.5 -0.22,0.34 -0.42,0.7 -0.6,1.1 -0.79,2.01 -0.71,3.91 0.23,5.7 0.27,0.57 0.64,1.06 1.09,1.45zm20.69 17.99l0 -4.66c5.75,-4.83 10.03,-8.63 12.84,-11.38 2.81,-2.75 4.22,-5.3 4.22,-7.64 0,-1.46 -0.55,-2.75 -1.67,-3.85 -1.1,-1.11 -2.4,-1.67 -3.85,-1.67 -2.38,0 -4.47,0.5 -6.3,1.5 -1.82,1.01 -2.87,1.62 -3.14,1.83 -0.21,-0.76 -0.43,-1.51 -0.64,-2.23 -0.21,-0.73 -0.42,-1.49 -0.59,-2.29 0.21,-0.12 1.33,-0.73 3.35,-1.83 2.02,-1.1 4.46,-1.65 7.32,-1.65 2.79,0 5.3,0.94 7.52,2.83 2.22,1.88 3.32,4.33 3.32,7.35 0,3.22 -1.09,6.08 -3.27,8.59 -2.19,2.51 -5.96,5.99 -11.31,10.42l15.31 0 0 4.68 -23.11 0z"/>
 </g>
</svg>
