<?xml version="1.0" encoding="UTF-8"?>
<!DOCTYPE svg PUBLIC "-//W3C//DTD SVG 1.1//EN" "http://www.w3.org/Graphics/SVG/1.1/DTD/svg11.dtd">
<!-- Creator: CorelDRAW 2021.5 -->
<svg xmlns="http://www.w3.org/2000/svg" xml:space="preserve" width="590px" height="590px" version="1.1" style="shape-rendering:geometricPrecision; text-rendering:geometricPrecision; image-rendering:optimizeQuality; fill-rule:evenodd; clip-rule:evenodd"
viewBox="0 0 65.73 65.73"
 xmlns:xlink="http://www.w3.org/1999/xlink"
 xmlns:xodm="http://www.corel.com/coreldraw/odm/2003">
 <defs>
  <style type="text/css">
   <![CDATA[
    .fil0 {fill:#0E4F95}
    .fil1 {fill:white;fill-rule:nonzero}
   ]]>
  </style>
 </defs>
 <g id="Layer_x0020_1">
  <metadata id="CorelCorpID_0Corel-Layer"/>
  <circle class="fil0" cx="32.86" cy="32.86" r="32.86"/>
  <path class="fil1" d="M24.9 38.12c0.28,-0.88 0.5,-1.79 0.65,-2.73 -1.15,1.05 -2.45,1.77 -3.89,2.16 -2.38,0.65 -4.63,0.68 -6.77,0.11 -2.18,-0.54 -3.95,-1.62 -5.33,-3.24 -1.37,-1.61 -2.17,-3.53 -2.4,-5.75 -0.21,-2.34 0.1,-4.45 0.93,-6.34 0.91,-2.04 2.29,-3.62 4.16,-4.77 1.86,-1.13 3.9,-1.74 6.12,-1.82 1.86,-0.05 3.63,0.22 5.32,0.8 1.69,0.58 3.18,1.58 4.47,2.99 1.65,1.87 2.77,4.26 3.34,7.19 0.41,2.24 0.51,4.61 0.27,7.11 -0.25,2.62 -0.76,4.83 -1.53,6.66 -0.58,1.31 -1.27,2.59 -2.1,3.82 -0.82,1.23 -1.81,2.28 -2.97,3.13 -1.76,1.27 -3.75,2.06 -5.98,2.39 -2.24,0.3 -4.5,0.1 -6.77,-0.62 -0.53,-0.15 -1.04,-0.36 -1.52,-0.64 -0.48,-0.27 -0.96,-0.54 -1.42,-0.81l0.02 -5.75c1.13,0.59 2.07,1.08 2.81,1.48 0.75,0.4 1.79,0.67 3.12,0.81 1.55,0.16 2.99,0.01 4.3,-0.46 1.32,-0.47 2.38,-1.21 3.22,-2.24 0.82,-1.03 1.47,-2.19 1.95,-3.48zm-5.08 -5.24c1.36,-0.13 2.63,-0.65 3.83,-1.56 0.75,-0.57 1.33,-1.26 1.74,-2.06 0.23,-0.44 0.35,-0.77 0.36,-0.98 0.02,-0.22 -0.01,-0.57 -0.09,-1.03 -0.36,-2.01 -1.14,-3.54 -2.33,-4.6 -1.16,-1.01 -2.59,-1.49 -4.3,-1.43 -1.79,0.06 -3.22,0.67 -4.33,1.84 -1.1,1.16 -1.62,2.61 -1.56,4.37 0.06,1.52 0.58,2.76 1.56,3.73 1.38,1.37 3.08,1.95 5.12,1.72z"/>
  <path class="fil1" d="M36.69 24.8c-0.55,-2.08 -1.04,-3.89 -1.44,-5.41 1.63,-1.09 3.35,-1.97 5.16,-2.64 1.81,-0.67 3.72,-1.01 5.73,-1.01 3.01,0 5.59,1.01 7.77,3.04 2.11,1.99 3.17,4.4 3.17,7.24 0,3.08 -1.09,5.96 -3.27,8.63 -1.04,1.29 -2.37,2.65 -3.98,4.12 -1.62,1.46 -3.56,3.14 -5.84,5.03l13.81 0 0 5.55c-3.89,0 -7.78,0 -11.66,0 -3.88,0 -7.76,0 -11.64,0l0 -5.26c2.07,-1.73 4.2,-3.52 6.42,-5.38 2.21,-1.85 4.24,-3.75 6.1,-5.71 2.58,-2.71 3.87,-5.03 3.87,-6.98 0,-1.27 -0.47,-2.37 -1.42,-3.32 -0.95,-0.96 -2.06,-1.43 -3.33,-1.43 -1.83,0 -3.5,0.35 -5.01,1.05 -1.51,0.7 -2.98,1.53 -4.44,2.48z"/>
 </g>
</svg>
