<?xml version="1.0" encoding="UTF-8"?>
<!DOCTYPE svg PUBLIC "-//W3C//DTD SVG 1.1//EN" "http://www.w3.org/Graphics/SVG/1.1/DTD/svg11.dtd">
<svg xmlns="http://www.w3.org/2000/svg" xml:space="preserve" width="591px" height="591px" version="1.1" style="shape-rendering:geometricPrecision; text-rendering:geometricPrecision; image-rendering:optimizeQuality; fill-rule:evenodd; clip-rule:evenodd"
viewBox="0 0 88.03 88.03"
 xmlns:xlink="http://www.w3.org/1999/xlink">
 <defs>
  <style type="text/css">
   <![CDATA[
    .fil0 {fill:#0E4F95}
    .fil1 {fill:#FEFEFE;fill-rule:nonzero}
   ]]>
  </style>
 </defs>
 <g id="Layer_x0020_1">
  <metadata id="CorelCorpID_0Corel-Layer"/>
  <g id="_1912669817856">
   <circle class="fil0" cx="44.02" cy="44.02" r="44.02"/>
  </g>
  <path class="fil1" d="M14.03 64.31l0.05 -6.35c0.48,0.32 0.73,0.48 0.73,0.48 1.74,1.17 3.94,1.93 6.6,2.25 2.11,0.23 4.13,0.04 6.08,-0.61 1.97,-0.64 3.61,-1.76 4.95,-3.33 2.45,-3.03 3.77,-6.73 3.93,-11.09 -0.12,0.08 -0.25,0.21 -0.36,0.36 -0.12,0.17 -0.23,0.29 -0.31,0.37 -0.85,0.85 -1.55,1.47 -2.12,1.87 -1.12,0.74 -2.35,1.3 -3.69,1.7 -2.91,0.81 -5.82,0.89 -8.72,0.25 -2.91,-0.65 -5.29,-2.1 -7.14,-4.37 -1.82,-2.09 -2.87,-4.61 -3.15,-7.51 -0.32,-3.6 0.19,-6.59 1.54,-8.99 1.35,-2.41 3.01,-4.28 4.98,-5.61 2.3,-1.53 5.03,-2.36 8.17,-2.48 1.46,0 2.99,0.13 4.58,0.39 1.59,0.27 3.02,0.73 4.27,1.42 0.85,0.53 1.39,0.87 1.63,1.04 0.13,0.11 0.25,0.22 0.36,0.3 0.13,0.08 0.27,0.17 0.43,0.3 1.09,0.89 2.14,2.03 3.15,3.45 1.38,2.18 2.37,4.74 2.97,7.7 0.57,2.9 0.69,6.11 0.36,9.6 -0.32,3.5 -1,6.47 -2.06,8.93 -0.48,1.1 -0.93,2.01 -1.33,2.73 -0.4,0.72 -0.91,1.56 -1.51,2.48 -0.57,0.81 -1.18,1.56 -1.82,2.24 -0.76,0.77 -1.48,1.4 -2.12,1.89 -2.43,1.73 -5.12,2.77 -8.11,3.12 -2.99,0.34 -5.92,0.06 -8.79,-0.83 -0.68,-0.16 -1.31,-0.42 -1.87,-0.79l-1.68 -0.91zm5.96 -21.98c1.99,2.1 4.53,2.97 7.64,2.61 1.97,-0.21 3.85,-0.98 5.63,-2.3 1.17,-0.89 2.04,-1.92 2.6,-3.09 0.4,-0.76 0.6,-1.33 0.58,-1.69 -0.03,-0.37 -0.1,-1.04 -0.21,-2 -0.45,-2.46 -1.53,-4.51 -3.25,-6.15 -1.71,-1.63 -3.9,-2.41 -6.57,-2.33 -2.74,0.17 -4.86,1.07 -6.36,2.72 -0.12,0.13 -0.21,0.23 -0.3,0.31 -0.08,0.09 -0.16,0.18 -0.24,0.3 -0.28,0.41 -0.45,0.63 -0.48,0.66 -0.29,0.45 -0.55,0.93 -0.8,1.46 -1.04,2.67 -0.94,5.19 0.31,7.57 0.37,0.76 0.85,1.4 1.45,1.93zm34.04 -2.47l10.11 -12.1 -16.23 0 0 -5.65 28.4 0 -13.32 15.82c5.25,0.44 9.23,2.5 11.93,6.18 1.81,2.58 2.55,5.67 2.21,9.27 -0.34,3.6 -1.61,6.46 -3.79,8.6 -0.88,0.82 -1.55,1.37 -1.99,1.7 -3.15,2.23 -6.95,3.33 -11.39,3.33 -2.82,0 -5.31,-0.28 -7.45,-0.85 -0.89,-0.24 -1.79,-0.53 -2.69,-0.88 -0.91,-0.35 -1.73,-0.76 -2.46,-1.24 -0.36,-0.09 -0.54,-0.23 -0.54,-0.43 0,-0.48 0,-1.63 0,-3.43 0,-1.8 0,-2.86 0,-3.18 1.81,1.21 3.6,2.13 5.36,2.76 1.75,0.62 3.82,0.99 6.21,1.11 2.1,0.13 4.16,-0.17 6.2,-0.88 2.05,-0.7 3.61,-1.96 4.69,-3.78 1.18,-1.86 1.48,-3.98 0.91,-6.36 -0.32,-1.08 -0.78,-2 -1.39,-2.75 -0.6,-0.75 -1.25,-1.38 -1.94,-1.91 -1.21,-0.89 -2.68,-1.44 -4.42,-1.66 -1.74,-0.23 -3.39,-0.22 -4.96,0.03 -1.33,0.16 -2.48,0.47 -3.45,0.91l0 -4.61z"/>
 </g>
</svg>
