<?xml version="1.0" encoding="UTF-8"?>
<!DOCTYPE svg PUBLIC "-//W3C//DTD SVG 1.1//EN" "http://www.w3.org/Graphics/SVG/1.1/DTD/svg11.dtd">
<!-- Creator: CorelDRAW 2021.5 -->
<svg xmlns="http://www.w3.org/2000/svg" xml:space="preserve" width="590px" height="590px" version="1.1" style="shape-rendering:geometricPrecision; text-rendering:geometricPrecision; image-rendering:optimizeQuality; fill-rule:evenodd; clip-rule:evenodd"
viewBox="0 0 87.07 87.07"
 xmlns:xlink="http://www.w3.org/1999/xlink"
 xmlns:xodm="http://www.corel.com/coreldraw/odm/2003">
 <defs>
  <style type="text/css">
   <![CDATA[
    .fil0 {fill:#0E4F95}
    .fil1 {fill:white;fill-rule:nonzero}
   ]]>
  </style>
 </defs>
 <g id="Layer_x0020_1">
  <metadata id="CorelCorpID_0Corel-Layer"/>
  <circle class="fil0" cx="43.53" cy="43.53" r="43.53"/>
  <path class="fil1" d="M32.95 50.5c0.38,-1.15 0.67,-2.36 0.87,-3.6 -1.52,1.38 -3.24,2.33 -5.16,2.86 -3.14,0.86 -6.13,0.9 -8.97,0.14 -2.87,-0.72 -5.23,-2.15 -7.05,-4.29 -1.81,-2.14 -2.88,-4.68 -3.18,-7.62 -0.28,-3.1 0.13,-5.9 1.23,-8.39 1.2,-2.71 3.03,-4.81 5.51,-6.32 2.47,-1.51 5.17,-2.32 8.11,-2.42 2.46,-0.06 4.81,0.3 7.04,1.07 2.25,0.76 4.22,2.09 5.92,3.95 2.19,2.48 3.68,5.65 4.44,9.53 0.54,2.96 0.66,6.1 0.35,9.42 -0.33,3.46 -1.01,6.4 -2.03,8.82 -0.76,1.74 -1.68,3.43 -2.78,5.05 -1.08,1.63 -2.4,3.02 -3.94,4.16 -2.32,1.68 -4.96,2.72 -7.91,3.15 -2.97,0.41 -5.96,0.15 -8.97,-0.81 -0.71,-0.2 -1.37,-0.48 -2.02,-0.84 -0.63,-0.36 -1.27,-0.72 -1.88,-1.08l0.03 -7.62c1.49,0.78 2.74,1.44 3.72,1.97 1,0.52 2.37,0.88 4.13,1.06 2.06,0.22 3.96,0.02 5.7,-0.6 1.74,-0.62 3.16,-1.61 4.26,-2.97 1.1,-1.36 1.96,-2.9 2.58,-4.62zm-6.71 -6.93c1.79,-0.17 3.48,-0.87 5.06,-2.07 1,-0.75 1.76,-1.67 2.31,-2.73 0.3,-0.57 0.46,-1.01 0.48,-1.3 0.02,-0.29 -0.02,-0.75 -0.12,-1.36 -0.49,-2.66 -1.51,-4.69 -3.09,-6.09 -1.54,-1.35 -3.44,-1.98 -5.7,-1.9 -2.36,0.08 -4.27,0.89 -5.73,2.44 -1.46,1.53 -2.15,3.46 -2.07,5.78 0.08,2.02 0.77,3.67 2.07,4.95 1.82,1.82 4.08,2.58 6.79,2.28z"/>
  <path class="fil1" d="M61.76 28.69l-14.58 0 0 -6.99 29.67 0 -12.83 15.28c2.03,0.32 3.83,0.87 5.36,1.68 1.99,1.01 3.67,2.49 5.05,4.4 1.83,2.62 2.6,5.73 2.27,9.33 -0.3,3.6 -1.59,6.51 -3.87,8.73 -1.77,1.74 -3.83,3.04 -6.14,3.9 -2.14,0.78 -4.55,1.17 -7.2,1.17 -1,0 -2.15,-0.07 -3.44,-0.21 -1.29,-0.14 -2.59,-0.38 -3.91,-0.69 -2.39,-0.64 -4.28,-1.48 -5.7,-2.52l-0.33 -0.24 0.03 -8.22 1.26 0.81c1.78,1.16 3.43,2.01 4.94,2.55 1.72,0.58 3.62,0.91 5.68,0.99 2.24,0.1 4.23,-0.21 6,-0.93 1.63,-0.72 2.86,-1.75 3.68,-3.09 0.44,-0.7 0.75,-1.57 0.9,-2.61 0.13,-1.01 0.07,-1.97 -0.14,-2.85 -0.1,-0.4 -0.22,-0.71 -0.34,-0.96 -0.84,-2.02 -2.53,-3.41 -5.07,-4.17 -2.29,-0.67 -4.73,-0.68 -7.29,-0.03 -0.67,0.19 -1.23,0.37 -1.65,0.58l-1.1 0.48 -0.03 -5.92 8.78 -10.47z"/>
 </g>
</svg>
