<?xml version="1.0" encoding="UTF-8"?>
<!DOCTYPE svg PUBLIC "-//W3C//DTD SVG 1.1//EN" "http://www.w3.org/Graphics/SVG/1.1/DTD/svg11.dtd">
<!-- Creator: CorelDRAW 2021.5 -->
<svg xmlns="http://www.w3.org/2000/svg" xml:space="preserve" width="590px" height="590px" version="1.1" style="shape-rendering:geometricPrecision; text-rendering:geometricPrecision; image-rendering:optimizeQuality; fill-rule:evenodd; clip-rule:evenodd"
viewBox="0 0 128.92 128.93"
 xmlns:xlink="http://www.w3.org/1999/xlink"
 xmlns:xodm="http://www.corel.com/coreldraw/odm/2003">
 <defs>
  <style type="text/css">
   <![CDATA[
    .fil0 {fill:#0E4F95}
    .fil1 {fill:white;fill-rule:nonzero}
   ]]>
  </style>
 </defs>
 <g id="Layer_x0020_1">
  <metadata id="CorelCorpID_0Corel-Layer"/>
  <circle class="fil0" cx="64.46" cy="64.46" r="64.46"/>
  <path class="fil1" d="M49.37 74.78c0.56,-1.71 0.99,-3.5 1.29,-5.33 -2.26,2.04 -4.81,3.45 -7.64,4.23 -4.66,1.27 -9.08,1.33 -13.28,0.21 -4.26,-1.06 -7.75,-3.19 -10.45,-6.36 -2.68,-3.16 -4.26,-6.92 -4.7,-11.27 -0.42,-4.6 0.18,-8.74 1.82,-12.44 1.77,-4 4.49,-7.11 8.16,-9.35 3.65,-2.23 7.65,-3.43 12,-3.58 3.64,-0.09 7.13,0.44 10.43,1.58 3.32,1.14 6.25,3.09 8.77,5.85 3.24,3.67 5.44,8.37 6.56,14.11 0.81,4.39 0.99,9.04 0.53,13.95 -0.5,5.13 -1.5,9.48 -3.01,13.06 -1.13,2.57 -2.49,5.07 -4.11,7.49 -1.61,2.41 -3.57,4.47 -5.84,6.15 -3.44,2.49 -7.34,4.03 -11.72,4.67 -4.4,0.61 -8.82,0.21 -13.28,-1.21 -1.05,-0.29 -2.03,-0.7 -2.99,-1.25 -0.94,-0.53 -1.88,-1.06 -2.79,-1.59l0.05 -11.28c2.21,1.15 4.06,2.13 5.52,2.91 1.47,0.78 3.5,1.31 6.11,1.58 3.04,0.32 5.87,0.03 8.44,-0.89 2.58,-0.93 4.67,-2.38 6.31,-4.4 1.62,-2.02 2.89,-4.29 3.82,-6.84zm-9.95 -10.26c2.66,-0.26 5.16,-1.29 7.51,-3.06 1.47,-1.13 2.61,-2.48 3.41,-4.05 0.45,-0.85 0.68,-1.5 0.71,-1.93 0.03,-0.42 -0.03,-1.1 -0.18,-2.01 -0.71,-3.95 -2.23,-6.95 -4.56,-9.02 -2.29,-1.99 -5.1,-2.93 -8.45,-2.81 -3.5,0.12 -6.32,1.32 -8.49,3.61 -2.15,2.27 -3.18,5.12 -3.06,8.56 0.12,2.99 1.14,5.43 3.06,7.33 2.7,2.7 6.05,3.82 10.05,3.38z"/>
  <path class="fil1" d="M97.3 96.81l0 -16.39 -29.09 0 0 -9.82 29.62 -38.47 11.19 0 0 37.77 6.4 0 0 10.52 -6.4 0 0 16.39 -11.72 0zm0 -26.91l0 -20.53 -16.25 20.53 16.25 0z"/>
 </g>
</svg>
