<?xml version="1.0" encoding="UTF-8"?>
<!DOCTYPE svg PUBLIC "-//W3C//DTD SVG 1.1//EN" "http://www.w3.org/Graphics/SVG/1.1/DTD/svg11.dtd">
<svg xmlns="http://www.w3.org/2000/svg" xml:space="preserve" width="591px" height="591px" version="1.1" style="shape-rendering:geometricPrecision; text-rendering:geometricPrecision; image-rendering:optimizeQuality; fill-rule:evenodd; clip-rule:evenodd"
viewBox="0 0 130.94 130.94"
 xmlns:xlink="http://www.w3.org/1999/xlink">
 <defs>
  <style type="text/css">
   <![CDATA[
    .fil0 {fill:#0E4F95}
    .fil1 {fill:#FEFEFE;fill-rule:nonzero}
   ]]>
  </style>
 </defs>
 <g id="Layer_x0020_1">
  <metadata id="CorelCorpID_0Corel-Layer"/>
  <g id="_1912679282720">
   <circle class="fil0" cx="65.47" cy="65.47" r="65.47"/>
  </g>
  <path class="fil1" d="M19.59 95.66l0.08 -9.45c0.72,0.48 1.09,0.72 1.09,0.72 2.58,1.74 5.85,2.86 9.81,3.34 3.13,0.35 6.14,0.06 9.05,-0.91 2.92,-0.95 5.37,-2.61 7.35,-4.95 3.66,-4.5 5.61,-10.01 5.86,-16.5 -0.19,0.13 -0.37,0.31 -0.54,0.54 -0.19,0.25 -0.34,0.43 -0.46,0.56 -1.26,1.26 -2.31,2.18 -3.15,2.78 -1.68,1.09 -3.51,1.92 -5.49,2.52 -4.34,1.21 -8.66,1.32 -12.98,0.37 -4.32,-0.97 -7.87,-3.12 -10.62,-6.49 -2.71,-3.12 -4.26,-6.86 -4.68,-11.18 -0.47,-5.35 0.28,-9.8 2.3,-13.37 1.99,-3.58 4.47,-6.37 7.39,-8.35 3.43,-2.27 7.49,-3.5 12.16,-3.69 2.17,0 4.44,0.2 6.81,0.59 2.37,0.4 4.49,1.09 6.35,2.12 1.26,0.78 2.08,1.29 2.43,1.53 0.18,0.17 0.37,0.33 0.54,0.45 0.18,0.12 0.4,0.26 0.63,0.45 1.63,1.32 3.18,3.02 4.69,5.13 2.04,3.24 3.52,7.06 4.41,11.45 0.85,4.32 1.03,9.09 0.54,14.29 -0.48,5.19 -1.49,9.62 -3.06,13.28 -0.72,1.63 -1.38,2.98 -1.98,4.06 -0.6,1.07 -1.36,2.32 -2.25,3.69 -0.84,1.2 -1.75,2.32 -2.7,3.33 -1.14,1.14 -2.2,2.08 -3.16,2.8 -3.61,2.59 -7.62,4.12 -12.07,4.65 -4.44,0.5 -8.8,0.09 -13.06,-1.23 -1.02,-0.23 -1.96,-0.63 -2.79,-1.17l-2.5 -1.36zm8.87 -32.7c2.95,3.12 6.73,4.42 11.36,3.88 2.94,-0.31 5.73,-1.45 8.38,-3.41 1.74,-1.33 3.03,-2.86 3.86,-4.6 0.6,-1.14 0.89,-1.98 0.86,-2.52 -0.03,-0.54 -0.14,-1.54 -0.31,-2.97 -0.66,-3.66 -2.27,-6.7 -4.83,-9.15 -2.55,-2.43 -5.81,-3.58 -9.77,-3.46 -4.08,0.25 -7.23,1.59 -9.46,4.05 -0.18,0.18 -0.32,0.33 -0.44,0.46 -0.13,0.12 -0.25,0.26 -0.37,0.44 -0.42,0.6 -0.66,0.94 -0.71,0.99 -0.43,0.66 -0.82,1.38 -1.18,2.17 -1.56,3.96 -1.4,7.71 0.46,11.25 0.53,1.14 1.26,2.09 2.15,2.87zm40.79 18.36l0 -8.86 30.44 -39.57 10.14 0 0 39.57 6.68 0 0 8.86 -6.68 0 0 17.16 -10.14 0 0 -17.16 -30.44 0zm10.08 -8.86l20.36 0 0 -25.7 -20.36 25.7z"/>
 </g>
</svg>
