<?xml version="1.0" encoding="UTF-8"?>
<!DOCTYPE svg PUBLIC "-//W3C//DTD SVG 1.1//EN" "http://www.w3.org/Graphics/SVG/1.1/DTD/svg11.dtd">
<!-- Creator: CorelDRAW 2021.5 -->
<svg xmlns="http://www.w3.org/2000/svg" xml:space="preserve" width="590px" height="590px" version="1.1" style="shape-rendering:geometricPrecision; text-rendering:geometricPrecision; image-rendering:optimizeQuality; fill-rule:evenodd; clip-rule:evenodd"
viewBox="0 0 248.28 248.29"
 xmlns:xlink="http://www.w3.org/1999/xlink"
 xmlns:xodm="http://www.corel.com/coreldraw/odm/2003">
 <defs>
  <style type="text/css">
   <![CDATA[
    .fil0 {fill:#0E4F95}
    .fil1 {fill:white;fill-rule:nonzero}
   ]]>
  </style>
 </defs>
 <g id="Layer_x0020_1">
  <metadata id="CorelCorpID_0Corel-Layer"/>
  <circle class="fil0" cx="124.14" cy="124.14" r="124.14"/>
  <path class="fil1" d="M95.62 144.01c1.08,-3.3 1.9,-6.74 2.48,-10.27 -4.35,3.94 -9.26,6.65 -14.71,8.14 -8.97,2.46 -17.49,2.57 -25.58,0.41 -8.21,-2.04 -14.92,-6.13 -20.12,-12.23 -5.16,-6.1 -8.2,-13.34 -9.05,-21.72 -0.82,-8.85 0.35,-16.82 3.51,-23.95 3.41,-7.7 8.64,-13.69 15.7,-18.01 7.04,-4.29 14.75,-6.6 23.13,-6.89 7,-0.17 13.72,0.85 20.08,3.04 6.4,2.19 12.03,5.95 16.88,11.27 6.25,7.06 10.48,16.11 12.64,27.18 1.55,8.44 1.9,17.4 1.02,26.86 -0.96,9.87 -2.89,18.25 -5.81,25.14 -2.16,4.96 -4.79,9.78 -7.91,14.42 -3.09,4.64 -6.86,8.61 -11.24,11.85 -6.63,4.79 -14.13,7.77 -22.57,9 -8.47,1.16 -16.99,0.4 -25.57,-2.34 -2.02,-0.55 -3.92,-1.34 -5.76,-2.39 -1.81,-1.03 -3.62,-2.05 -5.37,-3.07l0.09 -21.72c4.26,2.22 7.82,4.09 10.63,5.6 2.83,1.49 6.74,2.52 11.76,3.04 5.87,0.61 11.3,0.06 16.26,-1.72 4.97,-1.78 9,-4.58 12.15,-8.47 3.13,-3.88 5.58,-8.26 7.36,-13.17zm-19.15 -19.76c5.1,-0.5 9.92,-2.48 14.45,-5.9 2.83,-2.16 5.02,-4.76 6.57,-7.79 0.87,-1.64 1.31,-2.89 1.37,-3.71 0.06,-0.82 -0.06,-2.13 -0.35,-3.89 -1.37,-7.59 -4.29,-13.37 -8.79,-17.37 -4.41,-3.82 -9.81,-5.63 -16.26,-5.4 -6.75,0.23 -12.18,2.54 -16.35,6.95 -4.15,4.38 -6.13,9.87 -5.9,16.5 0.23,5.75 2.19,10.45 5.9,14.1 5.19,5.19 11.65,7.35 19.36,6.51z"/>
  <path class="fil1" d="M163.24 82.41l-2.89 23.27c3.59,-0.73 7.06,-1.17 10.42,-1.29 6.83,-0.2 13.08,0.44 18.74,1.99 10.08,2.95 17.96,8.26 23.59,15.91 4.91,6.77 7.27,14.95 7.1,24.56 -0.21,12.52 -5.17,22.71 -14.86,30.51 -5.84,4.64 -12.32,7.76 -19.51,9.37 -7.18,1.63 -14.39,2.28 -21.63,1.92 -7.27,-0.46 -13.78,-1.66 -19.59,-3.67 -3.83,-1.32 -7.65,-2.92 -11.48,-4.88l0 -22.74c6.11,3.71 12.27,6.54 18.52,8.49 6.24,1.99 13.04,2.63 20.4,1.93 5.37,-0.5 10.57,-2.22 15.65,-5.11 5.08,-2.92 8.12,-7.3 9.08,-13.2 1.02,-6.16 -0.17,-11.38 -3.59,-15.73 -3.41,-4.32 -8.06,-7.27 -13.87,-8.79 -4.61,-1.2 -9.63,-1.61 -15.06,-1.17 -5.4,0.44 -10.37,1.23 -14.86,2.37 -2.02,0.49 -4,1.05 -5.99,1.66 -2.01,0.58 -3.97,1.14 -5.93,1.66l8.56 -67.58 65.78 0 0 20.52 -48.58 0z"/>
 </g>
</svg>
