<?xml version="1.0" encoding="UTF-8"?>
<!DOCTYPE svg PUBLIC "-//W3C//DTD SVG 1.1//EN" "http://www.w3.org/Graphics/SVG/1.1/DTD/svg11.dtd">
<svg xmlns="http://www.w3.org/2000/svg" xml:space="preserve" width="591px" height="591px" version="1.1" style="shape-rendering:geometricPrecision; text-rendering:geometricPrecision; image-rendering:optimizeQuality; fill-rule:evenodd; clip-rule:evenodd"
viewBox="0 0 255.47 255.47"
 xmlns:xlink="http://www.w3.org/1999/xlink">
 <defs>
  <style type="text/css">
   <![CDATA[
    .fil0 {fill:#0E4F95}
    .fil1 {fill:#FEFEFE;fill-rule:nonzero}
   ]]>
  </style>
 </defs>
 <g id="Layer_x0020_1">
  <metadata id="CorelCorpID_0Corel-Layer"/>
  <g id="_1912662448304">
   <circle class="fil0" cx="127.73" cy="127.73" r="127.73"/>
  </g>
  <path class="fil1" d="M41.16 186.64l0.15 -18.45c1.41,0.93 2.13,1.41 2.13,1.41 5.04,3.39 11.42,5.58 19.13,6.51 6.12,0.69 12,0.12 17.67,-1.77 5.7,-1.86 10.47,-5.1 14.34,-9.66 7.14,-8.79 10.94,-19.52 11.42,-32.18 -0.36,0.24 -0.72,0.6 -1.05,1.05 -0.36,0.48 -0.65,0.84 -0.89,1.08 -2.46,2.46 -4.5,4.26 -6.15,5.43 -3.27,2.13 -6.84,3.75 -10.71,4.92 -8.46,2.37 -16.89,2.58 -25.32,0.72 -8.43,-1.89 -15.35,-6.09 -20.72,-12.66 -5.28,-6.09 -8.31,-13.38 -9.12,-21.81 -0.93,-10.43 0.54,-19.13 4.47,-26.09 3.9,-6.99 8.73,-12.42 14.43,-16.29 6.68,-4.44 14.6,-6.84 23.72,-7.2 4.23,0 8.67,0.39 13.29,1.14 4.62,0.78 8.76,2.13 12.39,4.14 2.46,1.53 4.04,2.52 4.73,3 0.36,0.33 0.72,0.63 1.05,0.87 0.36,0.24 0.78,0.51 1.23,0.87 3.18,2.58 6.21,5.91 9.15,10.02 3.99,6.33 6.87,13.77 8.61,22.34 1.65,8.43 2.01,17.73 1.05,27.87 -0.93,10.14 -2.91,18.78 -5.97,25.91 -1.41,3.18 -2.7,5.82 -3.87,7.92 -1.17,2.1 -2.64,4.53 -4.38,7.2 -1.65,2.34 -3.42,4.53 -5.28,6.51 -2.22,2.22 -4.28,4.05 -6.14,5.46 -7.05,5.04 -14.88,8.04 -23.55,9.06 -8.67,0.99 -17.19,0.18 -25.5,-2.4 -1.97,-0.45 -3.8,-1.23 -5.42,-2.28l-4.89 -2.64zm17.3 -63.8c5.76,6.09 13.14,8.61 22.17,7.56 5.73,-0.6 11.19,-2.82 16.35,-6.66 3.38,-2.58 5.91,-5.58 7.52,-8.97 1.17,-2.22 1.74,-3.87 1.68,-4.92 -0.06,-1.05 -0.27,-2.99 -0.6,-5.78 -1.28,-7.14 -4.43,-13.08 -9.41,-17.85 -4.98,-4.74 -11.34,-6.99 -19.08,-6.75 -7.95,0.48 -14.1,3.09 -18.45,7.89 -0.36,0.36 -0.63,0.66 -0.87,0.9 -0.24,0.24 -0.48,0.51 -0.72,0.87 -0.81,1.17 -1.29,1.83 -1.38,1.92 -0.84,1.29 -1.59,2.7 -2.31,4.23 -3.02,7.74 -2.72,15.05 0.9,21.95 1.05,2.22 2.46,4.08 4.2,5.61zm77.87 44.15c5.01,3.15 11.01,5.7 17.9,7.62 6.93,1.95 14.07,2.55 21.45,1.86 6.21,-0.6 12.15,-2.58 17.85,-5.97 5.67,-3.39 9.09,-8.49 10.29,-15.29 1.26,-7.74 -0.24,-14.01 -4.59,-18.81 -4.32,-4.8 -9.48,-8.01 -15.45,-9.66 -5.04,-1.17 -10.56,-1.56 -16.53,-1.14 -5.97,0.39 -11.43,1.2 -16.34,2.37 -1.77,0.48 -3.39,0.96 -4.92,1.5 -1.53,0.51 -3.12,0.96 -4.74,1.32l8.43 -66.62 65.89 0 0 17.46 -51.32 0 -3.69 29.48c1.05,-0.12 2.1,-0.33 3.18,-0.63 1.05,-0.27 2.16,-0.54 3.33,-0.78 2.22,-0.36 4.56,-0.54 7.02,-0.54 14.55,-0.36 26.55,3.21 36.02,10.71 2.46,2.13 4.86,4.65 7.14,7.56 2.28,2.94 4.08,6.51 5.34,10.74 1.2,4.08 1.77,8.67 1.77,13.71 0,5.04 -0.69,9.47 -2.1,13.34 -2.94,7.62 -7.47,13.68 -13.62,18.18 -6.14,4.53 -13.04,7.59 -20.66,9.24 -6.09,1.41 -12.93,1.95 -20.55,1.59 -7.62,-0.36 -14.42,-1.59 -20.39,-3.69 -3.18,-1.17 -5.85,-2.28 -8.1,-3.36 -0.21,-0.09 -1.11,-0.57 -2.61,-1.38l0 -18.81z"/>
 </g>
</svg>
