<?xml version="1.0" encoding="UTF-8"?>
<!DOCTYPE svg PUBLIC "-//W3C//DTD SVG 1.1//EN" "http://www.w3.org/Graphics/SVG/1.1/DTD/svg11.dtd">
<!-- Creator: CorelDRAW 2021.5 -->
<svg xmlns="http://www.w3.org/2000/svg" xml:space="preserve" width="590px" height="590px" version="1.1" style="shape-rendering:geometricPrecision; text-rendering:geometricPrecision; image-rendering:optimizeQuality; fill-rule:evenodd; clip-rule:evenodd"
viewBox="0 0 3346.36 3346.38"
 xmlns:xlink="http://www.w3.org/1999/xlink"
 xmlns:xodm="http://www.corel.com/coreldraw/odm/2003">
 <defs>
  <style type="text/css">
   <![CDATA[
    .fil0 {fill:#0E4F95}
    .fil1 {fill:white;fill-rule:nonzero}
   ]]>
  </style>
 </defs>
 <g id="Layer_x0020_1">
  <metadata id="CorelCorpID_0Corel-Layer"/>
  <ellipse class="fil0" cx="1673.18" cy="1673.18" rx="1673.18" ry="1673.19"/>
  <path class="fil1" d="M1244.43 1939.59c14.56,-44.47 25.57,-90.9 33.45,-138.52 -58.63,53.12 -124.75,89.73 -198.32,109.8 -120.82,33.06 -235.72,34.63 -344.73,5.5 -110.56,-27.54 -201.07,-82.64 -271.12,-164.88 -69.64,-82.23 -110.57,-179.83 -121.98,-292.77 -11.02,-119.23 4.72,-226.65 47.22,-322.67 46.05,-103.88 116.47,-184.56 211.71,-242.78 94.83,-57.86 198.71,-88.95 311.65,-92.88 94.45,-2.36 184.95,11.41 270.74,40.92 86.16,29.52 162.11,80.28 227.43,151.9 84.21,95.23 141.29,217.21 170.4,366.36 20.85,113.72 25.58,234.53 13.77,362.02 -12.98,133.01 -38.95,245.95 -78.31,338.81 -29.11,66.89 -64.53,131.83 -106.64,194.39 -41.72,62.56 -92.47,116.09 -151.5,159.76 -89.33,64.53 -190.45,104.67 -304.18,121.2 -114.11,15.75 -229.01,5.51 -344.71,-31.47 -27.16,-7.48 -52.72,-18.1 -77.52,-32.28 -24.4,-13.77 -48.79,-27.54 -72.4,-41.31l1.17 -292.77c57.46,29.9 105.46,55.1 143.24,75.56 38.17,20.06 90.91,33.83 158.59,40.93 79.09,8.24 152.28,0.78 219.17,-23.23 66.91,-24.01 121.21,-61.77 163.7,-114.11 42.12,-52.34 75.16,-111.37 99.17,-177.48zm-258.14 -266.4c68.86,-6.69 133.79,-33.45 194.78,-79.49 38.18,-29.12 67.68,-64.14 88.55,-105.06 11.79,-22.04 17.7,-38.96 18.48,-49.98 0.79,-11.01 -0.78,-28.73 -4.71,-52.34 -18.49,-102.31 -57.85,-180.22 -118.45,-234.13 -59.41,-51.55 -132.21,-75.94 -219.19,-72.8 -90.88,3.15 -164.09,34.23 -220.36,93.65 -55.88,59.03 -82.63,133 -79.49,222.33 3.15,77.52 29.52,140.89 79.49,190.06 70.04,70.06 157.02,99.17 260.9,87.76z"/>
  <path class="fil1" d="M2057.2 1542.93c55.49,-53.12 121.19,-89.71 197.14,-110.56 117.66,-31.49 232.96,-33.45 345.9,-5.91 109.39,28.33 199.11,83.81 269.93,166.06 69.66,82.24 110.58,179.44 121.99,291.59 11.82,120.02 -3.93,227.44 -47.21,323.06 -43.69,98.38 -112.54,178.66 -206.21,240.84 -90.1,59.01 -195.17,90.5 -315.98,94.43 -55.48,1.58 -113.73,-3.14 -175.11,-13.77 -61.78,-10.62 -116.48,-29.13 -164.88,-55.48 -92.48,-51.55 -163.69,-117.27 -214.45,-197.15 -54.7,-81.45 -92.88,-179.05 -114.13,-292.78 -20.85,-111.35 -25.57,-232.15 -13.77,-362.01 10.62,-127.49 36.61,-240.05 78.3,-337.63 27.56,-66.89 62.58,-131.83 104.29,-194.39 41.72,-62.58 92.87,-115.7 152.68,-159.77 88.55,-66.11 190.06,-107.04 304.57,-123.17 113.73,-14.55 229.03,-3.93 345.5,32.28 25.58,9.03 50.38,20.46 75.16,33.83 24.39,13.77 49.19,26.76 73.59,39.74l-1.18 293.18c-57.45,-29.52 -105.46,-53.91 -144.02,-73.99 -38.17,-20.06 -90.91,-33.83 -157.8,-41.31 -76.73,-9.46 -149.54,-1.58 -218,22.82 -89.72,32.26 -158.99,89.71 -206.99,171.95 -48.01,82.26 -77.52,168.43 -89.32,258.14zm433.64 142.86c-83.04,-27.56 -165.27,-24.01 -246.73,10.62 -83.04,33.84 -142.84,86.17 -179.83,157.78 -11.41,23.23 -17.7,40.14 -18.49,51.17 -0.78,11.41 1.17,28.33 5.89,51.55 7.48,46.03 19.68,88.93 36.61,128.29 16.92,39.73 44.07,74.75 80.67,105.46 60.2,52.32 133,76.73 219.18,72.78 88.53,-2.36 161.33,-32.26 218.39,-90.5 57.46,-57.84 84.61,-133 81.45,-225.48 -5.51,-132.22 -71.21,-219.17 -197.14,-261.67z"/>
 </g>
</svg>
