<?xml version="1.0" encoding="UTF-8"?>
<!DOCTYPE svg PUBLIC "-//W3C//DTD SVG 1.1//EN" "http://www.w3.org/Graphics/SVG/1.1/DTD/svg11.dtd">
<svg xmlns="http://www.w3.org/2000/svg" xml:space="preserve" width="591px" height="591px" version="1.1" style="shape-rendering:geometricPrecision; text-rendering:geometricPrecision; image-rendering:optimizeQuality; fill-rule:evenodd; clip-rule:evenodd"
viewBox="0 0 5212.1 5212.1"
 xmlns:xlink="http://www.w3.org/1999/xlink">
 <defs>
  <style type="text/css">
   <![CDATA[
    .fil0 {fill:#0E4F95}
    .fil1 {fill:#FEFEFE;fill-rule:nonzero}
   ]]>
  </style>
 </defs>
 <g id="Layer_x0020_1">
  <metadata id="CorelCorpID_0Corel-Layer"/>
  <g id="_1912783016592">
   <circle class="fil0" cx="2606.05" cy="2606.05" r="2606.05"/>
  </g>
  <path class="fil1" d="M754.95 3807.83l3.05 -376.34c28.77,18.97 43.44,28.74 43.44,28.74 102.81,69.17 233.16,113.84 390.44,132.81 124.83,14.07 244.76,2.45 360.41,-36.12 116.29,-37.92 213.57,-104.03 292.53,-197.04 145.63,-179.3 223.34,-398.36 233.14,-656.62 -7.35,4.89 -14.7,12.24 -21.42,21.42 -7.35,9.8 -13.45,17.15 -18.35,22.04 -50.19,50.17 -91.81,86.89 -125.45,110.76 -66.72,43.44 -139.53,76.49 -218.47,100.36 -172.57,48.34 -344.52,52.62 -516.47,14.67 -171.97,-38.54 -313.32,-124.2 -422.85,-258.23 -107.71,-124.23 -169.53,-272.93 -186.05,-444.88 -18.97,-212.97 11.02,-390.41 91.19,-532.39 79.56,-142.58 178.07,-253.36 294.35,-332.3 136.45,-90.56 298,-139.5 484.05,-146.85 86.28,0 176.84,7.95 271.08,23.25 94.23,15.92 178.7,43.44 252.73,84.46 50.2,31.19 82.62,51.39 96.69,61.19 7.35,6.72 14.7,12.85 21.42,17.75 7.35,4.9 15.9,10.4 25.1,17.74 64.86,52.62 126.65,120.56 186.64,204.4 81.39,129.1 140.13,280.88 175.62,455.87 33.65,171.98 41,361.67 21.42,568.51 -18.97,206.85 -59.36,383.07 -121.78,528.72 -28.77,64.86 -55.06,118.7 -78.93,161.55 -23.87,42.84 -53.87,92.41 -89.36,146.87 -33.65,47.72 -69.77,92.39 -107.69,132.78 -45.29,45.3 -87.51,82.61 -125.45,111.39 -143.8,102.8 -303.53,163.99 -480.38,184.79 -176.84,20.2 -350.64,3.67 -520.16,-48.94 -40.37,-9.17 -77.72,-25.1 -110.76,-46.52l-99.73 -53.84zm353.09 -1301.62c117.48,124.23 268.03,175.65 452.23,154.23 116.88,-12.25 228.24,-57.54 333.49,-135.86 69.14,-52.64 120.56,-113.83 153.6,-182.97 23.88,-45.29 35.5,-78.93 34.27,-100.35 -1.22,-21.43 -5.49,-61.2 -12.24,-118.11 -26.3,-145.65 -90.56,-266.81 -192.15,-364.12 -101.58,-96.68 -231.31,-142.58 -389.19,-137.68 -162.17,9.8 -287.63,63.02 -376.36,160.95 -7.32,7.33 -12.85,13.45 -17.72,18.35 -4.9,4.9 -9.8,10.4 -14.7,17.75 -16.52,23.87 -26.32,37.32 -28.15,39.17 -17.14,26.29 -32.44,55.06 -47.11,86.28 -61.82,157.88 -55.69,307.18 18.34,447.93 21.43,45.29 50.2,83.24 85.69,114.43zm3343.64 -708.61c-17.12,-7.35 -32.42,-16.52 -47.12,-28.77 -109.53,-69.14 -239.88,-112.61 -390.41,-129.13 -124.23,-14.07 -244.79,-2.45 -360.44,36.12 -116.26,37.94 -212.34,104.03 -288.83,197.04 -148.1,181.75 -225.81,399.59 -233.16,652.95 4.9,-2.45 11.02,-8.57 18.37,-18.37 6.72,-9.18 14.07,-17.75 21.42,-25.07 18.97,-18.98 37.32,-37.35 55.67,-55.1 17.74,-18.34 41.02,-35.49 69.76,-52.01 74.06,-48.34 145.65,-81.39 214.79,-100.96 172.57,-45.29 343.92,-48.97 514.64,-10.4 171.35,37.92 313.95,122.98 428.39,254.56 105.23,126.68 167.04,273.53 186.02,441.2 21.42,215.42 -8.58,394.09 -91.19,536.07 -81.99,142.58 -180.52,252.13 -294.33,328.62 -134.03,85.66 -295.58,133.41 -484.05,143.2 -86.28,0 -176.87,-7.97 -272.93,-23.27 -95.46,-15.89 -179.29,-42.22 -250.91,-80.76 -18.97,-9.8 -36.72,-18.97 -53.84,-28.77 -16.52,-9.17 -32.44,-20.2 -46.52,-32.42 -7.32,-4.3 -14.07,-9.2 -21.42,-14.1 -7.32,-4.87 -14.67,-11 -21.39,-17.74 -69.77,-52.62 -131.58,-122.38 -186.65,-208.05 -83.84,-126.68 -141.98,-279.05 -175.65,-455.9 -31.19,-171.95 -38.54,-360.44 -21.39,-564.83 16.52,-204.4 57.51,-381.84 121.75,-532.39 26.32,-64.87 51.42,-118.11 75.29,-159.7 23.85,-42.25 55.07,-90.59 93.01,-145.05 33.65,-50.8 69.76,-94.84 107.71,-132.78 38.54,-43.45 78.94,-80.17 121.78,-111.39 143.8,-105.25 303.5,-168.27 480.97,-189.69 176.85,-22.02 351.27,-4.9 523.22,50.17 28.77,9.2 65.46,25.09 110.76,46.51l96.68 57.52 0 372.69zm-1314.44 1308.32c26.3,150.55 89.94,273.55 190.29,369.01 100.36,96.06 230.72,140.13 390.44,132.78 160.33,-2.45 285.78,-56.29 376.94,-160.92 11.65,-7.35 22.65,-18.37 31.82,-32.45 17.15,-23.87 26.32,-37.32 28.77,-39.77 19.6,-28.14 34.9,-58.14 46.52,-89.33 62.42,-153 57.52,-302.3 -14.07,-447.96 -16.52,-28.77 -45.29,-66.71 -86.29,-114.43 -124.23,-121.78 -274.78,-173.17 -451.63,-154.22 -129.1,16.52 -241.11,63.04 -337.17,139.52 -64.26,47.75 -115.65,107.71 -154.22,179.3 -23.85,50.19 -35.47,85.69 -35.47,105.88 0,20.2 4.87,57.52 14.07,112.59z"/>
 </g>
</svg>
