<?xml version="1.0" encoding="UTF-8"?>
<!DOCTYPE svg PUBLIC "-//W3C//DTD SVG 1.1//EN" "http://www.w3.org/Graphics/SVG/1.1/DTD/svg11.dtd">
<!-- Creator: CorelDRAW 2021.5 -->
<svg xmlns="http://www.w3.org/2000/svg" xml:space="preserve" width="590px" height="590px" version="1.1" style="shape-rendering:geometricPrecision; text-rendering:geometricPrecision; image-rendering:optimizeQuality; fill-rule:evenodd; clip-rule:evenodd"
viewBox="0 0 291.55 291.55"
 xmlns:xlink="http://www.w3.org/1999/xlink"
 xmlns:xodm="http://www.corel.com/coreldraw/odm/2003">
 <defs>
  <style type="text/css">
   <![CDATA[
    .fil0 {fill:#0E4F95}
    .fil1 {fill:white;fill-rule:nonzero}
   ]]>
  </style>
 </defs>
 <g id="Layer_x0020_1">
  <metadata id="CorelCorpID_0Corel-Layer"/>
  <circle class="fil0" cx="145.77" cy="145.77" r="145.77"/>
  <path class="fil1" d="M114.85 168.98c1.27,-3.87 2.23,-7.92 2.91,-12.06 -5.1,4.62 -10.87,7.81 -17.28,9.56 -10.52,2.88 -20.53,3.02 -30.03,0.48 -9.63,-2.4 -17.52,-7.2 -23.62,-14.36 -6.07,-7.17 -9.63,-15.67 -10.63,-25.51 -0.96,-10.39 0.41,-19.75 4.12,-28.11 4.01,-9.05 10.14,-16.08 18.44,-21.16 8.26,-5.04 17.31,-7.74 27.15,-8.09 8.23,-0.2 16.12,1 23.59,3.57 7.51,2.57 14.13,6.99 19.82,13.23 7.33,8.3 12.31,18.93 14.84,31.92 1.82,9.91 2.23,20.43 1.2,31.54 -1.13,11.59 -3.39,21.43 -6.82,29.52 -2.54,5.83 -5.62,11.48 -9.29,16.94 -3.64,5.45 -8.06,10.11 -13.2,13.91 -7.78,5.63 -16.59,9.12 -26.5,10.56 -9.94,1.38 -19.95,0.48 -30.03,-2.74 -2.37,-0.65 -4.6,-1.58 -6.76,-2.81 -2.12,-1.2 -4.25,-2.4 -6.31,-3.6l0.11 -25.51c5,2.61 9.18,4.8 12.48,6.59 3.32,1.74 7.92,2.94 13.81,3.56 6.89,0.72 13.27,0.07 19.1,-2.02 5.83,-2.09 10.56,-5.38 14.26,-9.94 3.67,-4.56 6.55,-9.71 8.64,-15.47zm-22.49 -23.21c6,-0.58 11.66,-2.91 16.97,-6.92 3.33,-2.54 5.9,-5.59 7.71,-9.15 1.03,-1.92 1.55,-3.4 1.61,-4.36 0.07,-0.96 -0.06,-2.5 -0.41,-4.56 -1.61,-8.91 -5.04,-15.7 -10.32,-20.4 -5.17,-4.49 -11.52,-6.61 -19.09,-6.34 -7.92,0.27 -14.3,2.98 -19.2,8.16 -4.87,5.14 -7.2,11.59 -6.93,19.37 0.28,6.75 2.57,12.27 6.93,16.56 6.1,6.1 13.68,8.64 22.73,7.64z"/>
  <path class="fil1" d="M219.12 97.06l-64.59 0 0 -24.52 104.46 0c-10.83,24.38 -21.67,48.79 -32.43,73.2 -10.8,24.41 -21.57,48.75 -32.36,73.06l-28.91 -0.11 53.83 -121.63z"/>
 </g>
</svg>
