<?xml version="1.0" encoding="UTF-8"?>
<!DOCTYPE svg PUBLIC "-//W3C//DTD SVG 1.1//EN" "http://www.w3.org/Graphics/SVG/1.1/DTD/svg11.dtd">
<svg xmlns="http://www.w3.org/2000/svg" xml:space="preserve" width="591px" height="591px" version="1.1" style="shape-rendering:geometricPrecision; text-rendering:geometricPrecision; image-rendering:optimizeQuality; fill-rule:evenodd; clip-rule:evenodd"
viewBox="0 0 283.23 283.23"
 xmlns:xlink="http://www.w3.org/1999/xlink">
 <defs>
  <style type="text/css">
   <![CDATA[
    .fil0 {fill:#0E4F95}
    .fil1 {fill:#FEFEFE;fill-rule:nonzero}
   ]]>
  </style>
 </defs>
 <g id="Layer_x0020_1">
  <metadata id="CorelCorpID_0Corel-Layer"/>
  <g id="_1912709965408">
   <circle class="fil0" cx="141.62" cy="141.62" r="141.62"/>
  </g>
  <path class="fil1" d="M48.2 206.92l0.17 -20.45c1.56,1.03 2.36,1.57 2.36,1.57 5.58,3.75 12.67,6.18 21.21,7.21 6.79,0.77 13.31,0.14 19.59,-1.96 6.32,-2.06 11.61,-5.65 15.9,-10.71 7.91,-9.74 12.13,-21.65 12.67,-35.68 -0.4,0.27 -0.8,0.67 -1.17,1.16 -0.4,0.54 -0.73,0.94 -1,1.2 -2.72,2.73 -4.98,4.72 -6.81,6.02 -3.63,2.36 -7.59,4.16 -11.87,5.45 -9.38,2.63 -18.73,2.86 -28.07,0.8 -9.35,-2.09 -17.03,-6.75 -22.98,-14.03 -5.85,-6.75 -9.21,-14.83 -10.11,-24.18 -1.03,-11.57 0.6,-21.21 4.96,-28.93 4.32,-7.75 9.67,-13.77 15.99,-18.06 7.42,-4.92 16.2,-7.58 26.31,-7.98 4.68,0 9.61,0.44 14.73,1.27 5.12,0.86 9.71,2.36 13.73,4.59 2.73,1.69 4.49,2.79 5.25,3.32 0.4,0.37 0.8,0.7 1.17,0.97 0.4,0.26 0.86,0.56 1.36,0.96 3.53,2.86 6.89,6.55 10.15,11.11 4.42,7.01 7.61,15.26 9.54,24.77 1.83,9.35 2.23,19.66 1.16,30.9 -1.03,11.24 -3.22,20.81 -6.61,28.73 -1.57,3.52 -3,6.45 -4.29,8.78 -1.3,2.32 -2.93,5.02 -4.86,7.98 -1.83,2.59 -3.79,5.02 -5.85,7.21 -2.46,2.46 -4.76,4.49 -6.82,6.06 -7.81,5.58 -16.49,8.91 -26.1,10.04 -9.61,1.09 -19.06,0.2 -28.27,-2.66 -2.19,-0.5 -4.22,-1.37 -6.02,-2.53l-5.42 -2.93zm19.19 -70.73c6.38,6.75 14.56,9.55 24.57,8.38 6.35,-0.66 12.41,-3.12 18.13,-7.38 3.75,-2.86 6.55,-6.19 8.34,-9.94 1.3,-2.46 1.93,-4.29 1.87,-5.46 -0.07,-1.16 -0.3,-3.32 -0.67,-6.41 -1.43,-7.92 -4.92,-14.5 -10.44,-19.79 -5.52,-5.26 -12.57,-7.75 -21.15,-7.48 -8.81,0.53 -15.63,3.42 -20.45,8.74 -0.4,0.4 -0.7,0.73 -0.97,1 -0.26,0.27 -0.53,0.57 -0.79,0.96 -0.9,1.3 -1.44,2.03 -1.53,2.13 -0.94,1.43 -1.77,3 -2.56,4.69 -3.36,8.58 -3.03,16.69 0.99,24.34 1.17,2.46 2.73,4.53 4.66,6.22zm96.43 76.82l53.98 -122.11 -66.05 0 0 -19.95 98.8 0 -62.75 142.06 -23.98 0z"/>
 </g>
</svg>
