<?xml version="1.0" encoding="UTF-8"?>
<!DOCTYPE svg PUBLIC "-//W3C//DTD SVG 1.1//EN" "http://www.w3.org/Graphics/SVG/1.1/DTD/svg11.dtd">
<svg xmlns="http://www.w3.org/2000/svg" xml:space="preserve" width="591px" height="591px" version="1.1" style="shape-rendering:geometricPrecision; text-rendering:geometricPrecision; image-rendering:optimizeQuality; fill-rule:evenodd; clip-rule:evenodd"
viewBox="0 0 137.87 137.87"
 xmlns:xlink="http://www.w3.org/1999/xlink">
 <defs>
  <style type="text/css">
   <![CDATA[
    .fil0 {fill:#0E4F95}
    .fil1 {fill:#FEFEFE;fill-rule:nonzero}
   ]]>
  </style>
 </defs>
 <g id="Layer_x0020_1">
  <metadata id="CorelCorpID_0Corel-Layer"/>
  <g id="_1912709974080">
   <circle class="fil0" cx="68.94" cy="68.94" r="68.94"/>
  </g>
  <path class="fil1" d="M21.51 100.73l0.08 -9.96c0.76,0.5 1.15,0.76 1.15,0.76 2.72,1.83 6.17,3.01 10.33,3.51 3.3,0.38 6.47,0.07 9.53,-0.95 3.08,-1 5.65,-2.75 7.74,-5.21 3.85,-4.75 5.91,-10.54 6.17,-17.37 -0.2,0.13 -0.39,0.32 -0.57,0.56 -0.2,0.26 -0.36,0.46 -0.49,0.59 -1.32,1.32 -2.42,2.3 -3.31,2.93 -1.77,1.15 -3.7,2.02 -5.78,2.65 -4.57,1.28 -9.12,1.39 -13.67,0.39 -4.54,-1.02 -8.28,-3.29 -11.18,-6.83 -2.85,-3.29 -4.48,-7.22 -4.92,-11.77 -0.5,-5.63 0.29,-10.33 2.41,-14.08 2.1,-3.77 4.71,-6.7 7.79,-8.79 3.61,-2.4 7.88,-3.69 12.8,-3.89 2.28,0 4.68,0.21 7.17,0.62 2.49,0.42 4.73,1.15 6.69,2.23 1.32,0.83 2.18,1.36 2.55,1.62 0.2,0.18 0.39,0.34 0.57,0.47 0.2,0.13 0.42,0.28 0.66,0.47 1.72,1.39 3.35,3.19 4.94,5.41 2.15,3.41 3.71,7.43 4.65,12.06 0.89,4.54 1.08,9.56 0.56,15.03 -0.5,5.48 -1.57,10.14 -3.22,13.99 -0.76,1.72 -1.45,3.14 -2.09,4.27 -0.63,1.14 -1.42,2.45 -2.36,3.89 -0.89,1.26 -1.84,2.44 -2.85,3.51 -1.2,1.2 -2.31,2.19 -3.32,2.95 -3.8,2.72 -8.03,4.33 -12.7,4.88 -4.68,0.54 -9.28,0.1 -13.76,-1.29 -1.07,-0.24 -2.06,-0.66 -2.93,-1.23l-2.64 -1.42zm9.34 -34.44c3.11,3.29 7.09,4.65 11.96,4.08 3.09,-0.32 6.04,-1.52 8.82,-3.59 1.83,-1.39 3.19,-3.01 4.07,-4.84 0.63,-1.2 0.94,-2.09 0.9,-2.65 -0.03,-0.57 -0.14,-1.62 -0.32,-3.13 -0.7,-3.85 -2.4,-7.06 -5.08,-9.63 -2.69,-2.56 -6.12,-3.77 -10.3,-3.64 -4.29,0.26 -7.61,1.67 -9.95,4.26 -0.2,0.19 -0.34,0.35 -0.47,0.48 -0.13,0.13 -0.26,0.28 -0.39,0.47 -0.44,0.63 -0.7,0.99 -0.75,1.04 -0.45,0.69 -0.85,1.45 -1.24,2.28 -1.64,4.18 -1.48,8.12 0.48,11.85 0.57,1.2 1.33,2.2 2.27,3.02zm43.43 17.78c0,-4.57 1.13,-8.24 3.41,-11.03 2.29,-2.78 4.88,-4.93 7.79,-6.44 -2.28,-1.34 -4.22,-3.12 -5.81,-5.37 -1.59,-2.25 -2.38,-5.08 -2.38,-8.5 0,-5.31 1.75,-9.89 5.23,-13.71 3.48,-3.84 8.72,-5.75 15.75,-5.75 7.02,0 12.27,1.93 15.75,5.8 3.48,3.85 5.23,8.42 5.23,13.66 0,4.18 -1.1,7.38 -3.29,9.6 -2.18,2.22 -3.98,3.72 -5.37,4.55 7.85,3.35 11.77,9.08 11.77,17.19 0,4.68 -1.95,9.32 -5.83,13.95 -3.89,4.62 -9.97,6.93 -18.26,6.93 -8.29,0 -14.34,-2.31 -18.21,-6.93 -3.85,-4.63 -5.78,-9.27 -5.78,-13.95zm10.59 0.01c0,3.68 1.31,6.77 3.95,9.31 2.62,2.53 5.77,3.79 9.45,3.79 3.67,0 6.85,-1.23 9.5,-3.71 2.67,-2.46 4,-5.58 4,-9.39 0,-3.65 -1.34,-6.39 -4.05,-8.19 -2.68,-1.81 -5.91,-3.25 -9.65,-4.32 -0.82,-0.26 -2.18,-0.63 -4.07,-1.13 -2.74,1.2 -4.94,2.96 -6.61,5.31 -1.68,2.33 -2.52,5.11 -2.52,8.33zm13.3 -20.75c0.13,0.07 0.68,0.21 1.67,0.44 0.97,0.21 1.49,0.32 1.55,0.32 1.4,-0.82 3.09,-2.1 5.12,-3.83 2.02,-1.74 3.03,-4.26 3.03,-7.55 0,-3.09 -1.11,-5.76 -3.32,-8.01 -2.2,-2.25 -4.86,-3.37 -7.95,-3.37 -3.09,0 -5.73,1.1 -7.9,3.32 -2.19,2.22 -3.27,4.91 -3.27,8.06 0,3.23 1.02,5.6 3.08,7.13 2.05,1.5 4.72,2.68 7.99,3.49z"/>
 </g>
</svg>
