<?xml version="1.0" encoding="UTF-8"?>
<!DOCTYPE svg PUBLIC "-//W3C//DTD SVG 1.1//EN" "http://www.w3.org/Graphics/SVG/1.1/DTD/svg11.dtd">
<!-- Creator: CorelDRAW 2021.5 -->
<svg xmlns="http://www.w3.org/2000/svg" xml:space="preserve" width="590px" height="590px" version="1.1" style="shape-rendering:geometricPrecision; text-rendering:geometricPrecision; image-rendering:optimizeQuality; fill-rule:evenodd; clip-rule:evenodd"
viewBox="0 0 139.69 139.69"
 xmlns:xlink="http://www.w3.org/1999/xlink"
 xmlns:xodm="http://www.corel.com/coreldraw/odm/2003">
 <defs>
  <style type="text/css">
   <![CDATA[
    .fil0 {fill:#0E4F95}
    .fil1 {fill:white;fill-rule:nonzero}
   ]]>
  </style>
 </defs>
 <g id="Layer_x0020_1">
  <metadata id="CorelCorpID_0Corel-Layer"/>
  <circle class="fil0" cx="69.84" cy="69.84" r="69.84"/>
  <path class="fil1" d="M54.28 80.97c0.61,-1.86 1.07,-3.8 1.4,-5.79 -2.45,2.22 -5.21,3.75 -8.28,4.59 -5.05,1.38 -9.84,1.44 -14.39,0.23 -4.62,-1.15 -8.4,-3.45 -11.32,-6.89 -2.91,-3.43 -4.62,-7.5 -5.09,-12.22 -0.46,-4.98 0.2,-9.46 1.97,-13.47 1.92,-4.33 4.86,-7.7 8.84,-10.13 3.96,-2.42 8.29,-3.72 13.01,-3.88 3.94,-0.1 7.72,0.48 11.3,1.71 3.59,1.23 6.76,3.35 9.49,6.34 3.52,3.98 5.9,9.07 7.11,15.29 0.87,4.75 1.07,9.79 0.58,15.12 -0.54,5.55 -1.63,10.26 -3.27,14.14 -1.21,2.79 -2.69,5.5 -4.45,8.11 -1.74,2.61 -3.86,4.85 -6.32,6.67 -3.73,2.7 -7.96,4.37 -12.7,5.06 -4.77,0.66 -9.56,0.23 -14.39,-1.31 -1.14,-0.32 -2.2,-0.76 -3.24,-1.35 -1.02,-0.58 -2.03,-1.15 -3.02,-1.72l0.05 -12.23c2.4,1.25 4.4,2.3 5.98,3.16 1.59,0.84 3.79,1.41 6.62,1.71 3.3,0.34 6.35,0.03 9.15,-0.97 2.79,-1.01 5.06,-2.58 6.83,-4.77 1.76,-2.18 3.14,-4.65 4.14,-7.4zm-10.78 -11.13c2.88,-0.27 5.59,-1.39 8.14,-3.31 1.59,-1.22 2.82,-2.68 3.69,-4.39 0.49,-0.92 0.74,-1.63 0.77,-2.09 0.04,-0.46 -0.03,-1.19 -0.19,-2.18 -0.78,-4.27 -2.42,-7.52 -4.95,-9.77 -2.48,-2.16 -5.52,-3.17 -9.15,-3.04 -3.79,0.13 -6.85,1.43 -9.2,3.91 -2.33,2.46 -3.45,5.55 -3.31,9.28 0.13,3.23 1.23,5.88 3.31,7.93 2.93,2.93 6.56,4.14 10.89,3.66z"/>
  <path class="fil1" d="M85.39 67.15c-1.89,-1.35 -3.38,-2.89 -4.47,-4.62 -1.67,-2.59 -2.49,-5.56 -2.49,-8.9 0,-6.16 1.98,-11.1 5.96,-14.83 3.91,-3.62 9.16,-5.44 15.78,-5.44 6.57,0 11.83,1.82 15.74,5.44 4.01,3.76 6.01,8.7 6.01,14.83 0,3.78 -1.15,7.13 -3.46,10.05 -1.09,1.35 -2.38,2.58 -3.9,3.72 3.08,1.52 5.49,3.55 7.22,6.06 2.11,3.07 3.18,6.75 3.18,11.02 0,2.69 -0.61,5.45 -1.81,8.28 -1.19,2.81 -3.05,5.32 -5.56,7.51 -4.52,3.91 -10.34,5.86 -17.42,5.86 -7.09,0 -12.87,-1.95 -17.37,-5.86 -2.53,-2.19 -4.41,-4.7 -5.61,-7.51 -1.2,-2.83 -1.8,-5.59 -1.8,-8.28 0,-3.98 0.98,-7.54 2.94,-10.69 1.69,-2.6 4.06,-4.82 7.06,-6.64zm10.6 5.01c-2.42,1.12 -4.32,2.74 -5.74,4.86 -1.41,2.17 -2.12,4.67 -2.12,7.46 0,3.24 1.19,6 3.52,8.28 2.35,2.3 5.19,3.46 8.52,3.46 3.34,0 6.21,-1.14 8.61,-3.41 2.29,-2.28 3.42,-5.06 3.42,-8.33 0,-2.99 -1.15,-5.42 -3.47,-7.33 -1.95,-1.46 -4.97,-2.79 -9.08,-3.99 -0.84,-0.18 -1.5,-0.36 -1.99,-0.52 -0.28,-0.07 -0.56,-0.13 -0.84,-0.22 -0.26,-0.08 -0.55,-0.16 -0.83,-0.26zm7.03 -8.57c0.67,-0.38 1.41,-0.84 2.2,-1.4 0.8,-0.54 1.56,-1.2 2.26,-1.97 1.78,-1.86 2.65,-4.06 2.65,-6.59 0,-2.76 -0.95,-5.14 -2.88,-7.13 -2.03,-1.95 -4.38,-2.92 -7.08,-2.92 -2.76,0 -5.12,0.97 -7.08,2.92 -1.92,1.92 -2.89,4.31 -2.89,7.13 0,2.6 0.89,4.62 2.67,6.06 1.52,1.28 4.04,2.37 7.5,3.27 0,0 0.38,0.1 1.15,0.3 0.35,0.06 0.86,0.16 1.5,0.33z"/>
 </g>
</svg>
