<?xml version="1.0" encoding="UTF-8"?>
<!DOCTYPE svg PUBLIC "-//W3C//DTD SVG 1.1//EN" "http://www.w3.org/Graphics/SVG/1.1/DTD/svg11.dtd">
<svg xmlns="http://www.w3.org/2000/svg" xml:space="preserve" width="591px" height="591px" version="1.1" style="shape-rendering:geometricPrecision; text-rendering:geometricPrecision; image-rendering:optimizeQuality; fill-rule:evenodd; clip-rule:evenodd"
viewBox="0 0 91.11 91.11"
 xmlns:xlink="http://www.w3.org/1999/xlink">
 <defs>
  <style type="text/css">
   <![CDATA[
    .fil1 {fill:#0E4F95}
    .fil0 {fill:#FEFEFE;fill-rule:nonzero}
   ]]>
  </style>
 </defs>
 <g id="Layer_x0020_1">
  <metadata id="CorelCorpID_0Corel-Layer"/>
  <path class="fil0" d="M39.8 67.52l-6.87 0 0 -33.91 -9.78 5.66 0 -6.95 16.65 -9.59 0 44.79zm6.46 -8.8c1.75,1.1 3.85,1.99 6.27,2.67 2.42,0.68 4.92,0.89 7.5,0.65 2.18,-0.21 4.26,-0.91 6.25,-2.09 1.99,-1.19 3.18,-2.97 3.6,-5.36 0.44,-2.71 -0.08,-4.9 -1.6,-6.58 -1.52,-1.68 -3.32,-2.8 -5.41,-3.38 -1.77,-0.41 -3.7,-0.55 -5.79,-0.4 -2.09,0.14 -4,0.42 -5.72,0.83 -0.62,0.17 -1.19,0.34 -1.72,0.52 -0.54,0.18 -1.09,0.34 -1.66,0.47l2.95 -23.32 23.07 0 0 6.11 -17.97 0 -1.29 10.32c0.37,-0.04 0.74,-0.12 1.11,-0.22 0.37,-0.1 0.76,-0.19 1.17,-0.28 0.78,-0.12 1.6,-0.18 2.46,-0.18 5.09,-0.13 9.29,1.12 12.61,3.74 0.86,0.75 1.7,1.63 2.5,2.65 0.79,1.03 1.42,2.28 1.86,3.76 0.42,1.43 0.62,3.03 0.62,4.8 0,1.76 -0.24,3.32 -0.73,4.67 -1.03,2.67 -2.61,4.79 -4.77,6.36 -2.15,1.59 -4.56,2.66 -7.23,3.24 -2.13,0.49 -4.53,0.68 -7.19,0.55 -2.67,-0.12 -5.05,-0.55 -7.14,-1.29 -1.12,-0.41 -2.05,-0.8 -2.84,-1.17 -0.07,-0.04 -0.39,-0.2 -0.91,-0.49l0 -6.58z"/>
  <g id="_1912425529904">
   <circle class="fil1" cx="45.56" cy="45.56" r="45.56"/>
  </g>
  <path class="fil0" d="M14.72 66.56l0.05 -6.58c0.5,0.34 0.76,0.51 0.76,0.51 1.8,1.21 4.07,1.99 6.82,2.32 2.19,0.24 4.28,0.04 6.3,-0.63 2.04,-0.67 3.74,-1.82 5.12,-3.45 2.54,-3.13 3.9,-6.96 4.07,-11.48 -0.13,0.09 -0.25,0.22 -0.37,0.38 -0.13,0.17 -0.24,0.3 -0.32,0.38 -0.88,0.88 -1.61,1.52 -2.2,1.94 -1.16,0.76 -2.43,1.34 -3.81,1.75 -3.02,0.85 -6.03,0.92 -9.03,0.26 -3.01,-0.67 -5.48,-2.17 -7.39,-4.51 -1.89,-2.17 -2.97,-4.77 -3.26,-7.78 -0.33,-3.72 0.2,-6.82 1.6,-9.31 1.39,-2.49 3.11,-4.42 5.14,-5.8 2.39,-1.59 5.21,-2.44 8.46,-2.57 1.51,0 3.1,0.14 4.74,0.4 1.65,0.28 3.13,0.76 4.42,1.48 0.88,0.55 1.44,0.9 1.69,1.07 0.13,0.12 0.26,0.23 0.38,0.31 0.12,0.09 0.27,0.18 0.43,0.31 1.14,0.92 2.22,2.11 3.27,3.57 1.42,2.26 2.45,4.91 3.07,7.97 0.58,3.01 0.71,6.33 0.37,9.94 -0.33,3.62 -1.04,6.7 -2.13,9.24 -0.5,1.14 -0.96,2.08 -1.38,2.83 -0.41,0.75 -0.94,1.61 -1.56,2.56 -0.59,0.84 -1.22,1.62 -1.88,2.33 -0.79,0.79 -1.53,1.44 -2.2,1.94 -2.51,1.8 -5.3,2.87 -8.39,3.23 -3.09,0.36 -6.13,0.07 -9.1,-0.85 -0.7,-0.16 -1.35,-0.44 -1.93,-0.82l-1.74 -0.94zm6.17 -22.75c2.05,2.17 4.68,3.07 7.9,2.7 2.05,-0.22 3.99,-1.01 5.83,-2.38 1.21,-0.92 2.11,-1.99 2.69,-3.2 0.41,-0.79 0.62,-1.38 0.6,-1.75 -0.02,-0.38 -0.1,-1.07 -0.22,-2.07 -0.46,-2.54 -1.58,-4.66 -3.36,-6.36 -1.77,-1.69 -4.04,-2.49 -6.8,-2.41 -2.83,0.17 -5.03,1.1 -6.58,2.82 -0.13,0.12 -0.22,0.23 -0.31,0.32 -0.08,0.08 -0.17,0.18 -0.26,0.31 -0.28,0.41 -0.46,0.65 -0.49,0.68 -0.3,0.46 -0.56,0.96 -0.82,1.51 -1.08,2.76 -0.97,5.37 0.32,7.83 0.37,0.79 0.88,1.45 1.5,2zm31.05 22.75l0.05 -6.58c0.51,0.34 0.76,0.51 0.76,0.51 1.8,1.21 4.08,1.99 6.83,2.32 2.18,0.24 4.28,0.04 6.3,-0.63 2.03,-0.67 3.73,-1.82 5.11,-3.45 2.55,-3.13 3.91,-6.96 4.08,-11.48 -0.13,0.09 -0.26,0.22 -0.38,0.38 -0.12,0.17 -0.23,0.3 -0.32,0.38 -0.87,0.88 -1.6,1.52 -2.19,1.94 -1.17,0.76 -2.44,1.34 -3.82,1.75 -3.02,0.85 -6.02,0.92 -9.03,0.26 -3,-0.67 -5.47,-2.17 -7.39,-4.51 -1.88,-2.17 -2.96,-4.77 -3.25,-7.78 -0.33,-3.72 0.19,-6.82 1.59,-9.31 1.39,-2.49 3.12,-4.42 5.15,-5.8 2.38,-1.59 5.21,-2.44 8.46,-2.57 1.51,0 3.09,0.14 4.74,0.4 1.65,0.28 3.12,0.76 4.42,1.48 0.87,0.55 1.44,0.9 1.69,1.07 0.13,0.12 0.25,0.23 0.37,0.31 0.13,0.09 0.28,0.18 0.44,0.31 1.13,0.92 2.21,2.11 3.26,3.57 1.43,2.26 2.45,4.91 3.07,7.97 0.59,3.01 0.72,6.33 0.38,9.94 -0.33,3.62 -1.04,6.7 -2.13,9.24 -0.5,1.14 -0.96,2.08 -1.38,2.83 -0.42,0.75 -0.94,1.61 -1.56,2.56 -0.59,0.84 -1.22,1.62 -1.89,2.33 -0.79,0.79 -1.53,1.44 -2.19,1.94 -2.51,1.8 -5.3,2.87 -8.4,3.23 -3.09,0.36 -6.13,0.07 -9.09,-0.85 -0.7,-0.16 -1.36,-0.44 -1.94,-0.82l-1.74 -0.94zm6.17 -22.75c2.06,2.17 4.69,3.07 7.91,2.7 2.04,-0.22 3.99,-1.01 5.83,-2.38 1.21,-0.92 2.11,-1.99 2.68,-3.2 0.42,-0.79 0.62,-1.38 0.6,-1.75 -0.02,-0.38 -0.09,-1.07 -0.21,-2.07 -0.46,-2.54 -1.58,-4.66 -3.36,-6.36 -1.78,-1.69 -4.04,-2.49 -6.8,-2.41 -2.84,0.17 -5.03,1.1 -6.58,2.82 -0.13,0.12 -0.23,0.23 -0.31,0.32 -0.09,0.08 -0.17,0.18 -0.26,0.31 -0.29,0.41 -0.46,0.65 -0.49,0.68 -0.3,0.46 -0.57,0.96 -0.82,1.51 -1.09,2.76 -0.98,5.37 0.32,7.83 0.37,0.79 0.87,1.45 1.49,2z"/>
 </g>
</svg>
