<svg width="94" height="102" viewBox="0 0 94 102" fill="none" xmlns="http://www.w3.org/2000/svg">
<path fill-rule="evenodd" clip-rule="evenodd" d="M52.5722 0.000244141H5.3299C2.42268 0.000244141 0 2.42292 0 5.33014V52.5724C0 55.4796 2.42268 57.9023 5.3299 57.9023H7.02577V59.8405C7.02577 62.5054 9.20619 64.6858 11.8711 64.6858H12.3557C12.8402 64.6858 13.3247 64.6858 13.567 64.6858V50.1497C13.0825 51.1188 11.8711 51.8456 10.4175 51.8456C8.47938 51.8456 6.78351 50.1497 6.78351 48.2116C6.78351 46.0312 8.47938 44.3353 10.4175 44.3353C11.8711 44.3353 13.0825 45.0621 13.567 46.0312V40.459H6.78351V6.54148H51.1186V13.5673H57.9021V5.33014C57.9021 2.42292 55.4794 0.000244141 52.5722 0.000244141Z" fill="white"/>
<path fill-rule="evenodd" clip-rule="evenodd" d="M70.4999 18.1704H23.2576C20.3504 18.1704 17.9277 20.5931 17.9277 23.5003V70.7426C17.9277 73.6498 20.3504 76.0725 23.2576 76.0725H24.9535V78.0106C24.9535 80.6756 27.1339 82.856 30.0411 82.856H30.5257C31.0102 82.856 31.2525 82.856 31.737 82.856V68.0776C31.0102 69.289 29.7989 70.0158 28.5875 70.0158C26.4071 70.0158 24.7112 68.3199 24.7112 66.1395C24.7112 64.2013 26.4071 62.5055 28.5875 62.5055C29.7989 62.5055 31.0102 63.2323 31.737 64.2013V58.6292H24.7112V24.7116H69.0463V31.9797H75.8298V23.5003C75.8298 20.5931 73.4071 18.1704 70.4999 18.1704Z" fill="white"/>
<path fill-rule="evenodd" clip-rule="evenodd" d="M88.4278 36.3403H41.4278C38.5206 36.3403 36.0979 38.763 36.0979 41.6702V88.6702C36.0979 91.8197 38.5206 94.0001 41.4278 94.0001H43.1237V96.1805C43.1237 98.8455 45.3041 101.026 47.969 101.026H48.4536C51.1185 101.026 53.2989 98.8455 53.2989 96.1805V94.0001H77.0412V96.1805C77.0412 98.8455 79.2216 101.026 81.8866 101.026H82.3711C85.2783 101.026 87.4587 98.8455 87.4587 96.1805V94.0001H88.4278C91.5773 94.0001 94 91.8197 94 88.6702V41.6702C94 38.763 91.5773 36.3403 88.4278 36.3403ZM46.5154 88.1857C44.335 88.1857 42.6391 86.4898 42.6391 84.3094C42.6391 82.3713 44.335 80.6754 46.5154 80.6754C48.6958 80.6754 50.3917 82.3713 50.3917 84.3094C50.3917 86.4898 48.6958 88.1857 46.5154 88.1857ZM83.3402 88.1857C81.1598 88.1857 79.4639 86.4898 79.4639 84.3094C79.4639 82.3713 81.1598 80.6754 83.3402 80.6754C85.5206 80.6754 87.2165 82.3713 87.2165 84.3094C87.2165 86.4898 85.5206 88.1857 83.3402 88.1857ZM87.2165 76.7991H42.8814V42.8816H87.2165V76.7991Z" fill="white"/>
</svg>

