<?xml version="1.0" encoding="UTF-8"?>
<!DOCTYPE svg PUBLIC "-//W3C//DTD SVG 1.1//EN" "http://www.w3.org/Graphics/SVG/1.1/DTD/svg11.dtd">
<!-- Creator: CorelDRAW 2019 (64-Bit) -->
<svg xmlns="http://www.w3.org/2000/svg" xml:space="preserve" width="428px" height="480px" version="1.1" style="shape-rendering:geometricPrecision; text-rendering:geometricPrecision; image-rendering:optimizeQuality; fill-rule:evenodd; clip-rule:evenodd"
viewBox="0 0 51.15 57.3"
 xmlns:xlink="http://www.w3.org/1999/xlink">
 <defs>
  <style type="text/css">
   <![CDATA[
    .fil0 {fill:#7D8A92}
   ]]>
  </style>
 </defs>
 <g id="Layer_x0020_1">
  <metadata id="CorelCorpID_0Corel-Layer"/>
  <path class="fil0" d="M46.42 0l-41.69 0c-2.61,0 -4.73,2.12 -4.73,4.73l0 41.69c0,2.61 2.12,4.73 4.73,4.73l1.46 0 0 1.82c0,2.39 1.94,4.33 4.33,4.33l0.51 0c2.39,0 4.33,-1.94 4.33,-4.33l0 -1.82 20.85 0 0 1.82c0,2.39 1.94,4.33 4.33,4.33l0.51 0c2.39,0 4.33,-1.94 4.33,-4.33l0 -1.82 1.04 0c2.61,0 4.73,-2.12 4.73,-4.73l0 -41.69c0,-2.61 -2.12,-4.73 -4.73,-4.73zm-37.18 45.87c-1.84,0 -3.33,-1.5 -3.33,-3.34 0,-1.84 1.49,-3.33 3.33,-3.33 1.85,0 3.34,1.49 3.34,3.33 0,1.84 -1.49,3.34 -3.34,3.34zm32.59 0c-1.84,0 -3.33,-1.5 -3.33,-3.34 0,-1.84 1.49,-3.33 3.33,-3.33 1.85,0 3.34,1.49 3.34,3.33 0,1.84 -1.49,3.34 -3.34,3.34zm3.34 -10.01l-39.19 0 0 -30.02 39.19 0 0 30.02z"/>
 </g>
</svg>
