<?xml version="1.0" encoding="UTF-8"?>
<!DOCTYPE svg PUBLIC "-//W3C//DTD SVG 1.1//EN" "http://www.w3.org/Graphics/SVG/1.1/DTD/svg11.dtd">
<!-- Creator: CorelDRAW 2019 (64-Bit) -->
<svg xmlns="http://www.w3.org/2000/svg" xml:space="preserve" width="653px" height="699px" version="1.1" style="shape-rendering:geometricPrecision; text-rendering:geometricPrecision; image-rendering:optimizeQuality; fill-rule:evenodd; clip-rule:evenodd"
viewBox="0 0 568.98 608.56"
 xmlns:xlink="http://www.w3.org/1999/xlink">
 <defs>
  <style type="text/css">
   <![CDATA[
    .fil0 {fill:#7D8A92}
   ]]>
  </style>
 </defs>
 <g id="Layer_x0020_1">
  <metadata id="CorelCorpID_0Corel-Layer"/>
  <g id="_2527405715600">
   <path class="fil0" d="M338.52 190.72l-304.05 0c-19.03,0 -34.47,15.43 -34.47,34.48l0 304.01c0,19.04 15.44,34.51 34.47,34.51l10.66 0 0 13.26c0,17.41 14.13,31.58 31.6,31.58l3.69 0c17.43,0 31.58,-14.17 31.58,-31.58l0 -13.26 152.03 0 0 13.26c0,17.41 14.14,31.58 31.62,31.58l3.68 0c17.46,0 31.6,-14.17 31.6,-31.58l0 -13.26 7.59 0c19.03,0 34.47,-15.47 34.47,-34.51l0 -304.01c0,-19.05 -15.44,-34.48 -34.47,-34.48zm-271.13 334.48c-13.41,0 -24.3,-10.92 -24.3,-24.32 0,-13.44 10.89,-24.32 24.3,-24.32 13.46,0 24.36,10.88 24.36,24.32 0,13.4 -10.9,24.32 -24.36,24.32zm237.67 0c-13.43,0 -24.32,-10.92 -24.32,-24.32 0,-13.44 10.89,-24.32 24.32,-24.32 13.46,0 24.34,10.88 24.34,24.32 0,13.4 -10.88,24.32 -24.34,24.32zm24.34 -72.97l-285.82 0 0 -218.94 285.82 0 0 218.94z"/>
   <path class="fil0" d="M568.98 139.88c-12.37,50.51 -57.94,88 -112.28,88 -63.84,0 -115.6,-51.75 -115.6,-115.6 0,-54.34 37.49,-99.9 88.01,-112.28 -26.18,18.15 -43.33,48.4 -43.33,82.67 0,55.52 45.01,100.53 100.53,100.53 34.27,0 64.52,-17.15 82.67,-43.32z"/>
  </g>
 </g>
</svg>
