<?xml version="1.0" encoding="UTF-8"?>
<!DOCTYPE svg PUBLIC "-//W3C//DTD SVG 1.1//EN" "http://www.w3.org/Graphics/SVG/1.1/DTD/svg11.dtd">
<!-- Creator: CorelDRAW 2019 (64-Bit) -->
<svg xmlns="http://www.w3.org/2000/svg" xml:space="preserve" width="432px" height="729px" version="1.1" style="shape-rendering:geometricPrecision; text-rendering:geometricPrecision; image-rendering:optimizeQuality; fill-rule:evenodd; clip-rule:evenodd"
viewBox="0 0 36.82 62.19"
 xmlns:xlink="http://www.w3.org/1999/xlink">
 <defs>
  <style type="text/css">
   <![CDATA[
    .fil0 {fill:#7D8A92;fill-rule:nonzero}
   ]]>
  </style>
 </defs>
 <g id="Layer_x0020_1">
  <metadata id="CorelCorpID_0Corel-Layer"/>
  <g id="_2527366453152">
   <path class="fil0" d="M25.16 56.88l-13.5 0c-0.66,0.02 -1.18,0.57 -1.17,1.23 0.02,0.64 0.53,1.16 1.17,1.17l13.5 0c0.66,0.02 1.21,-0.51 1.23,-1.17 0.01,-0.66 -0.51,-1.21 -1.18,-1.23 -0.01,0 -0.03,0 -0.05,0z"/>
   <path class="fil0" d="M8.4 19.15l20 0 4.14 13.42 -1.54 7.78 -25.25 0 -1.47 -7.79 4.12 -13.41zm28.42 13.41l0 0c-0.01,-0.03 -4.55,-15.68 -4.56,-15.72 -0.2,-0.97 -1.12,-2.08 -2.33,-2.08 -1.15,-0.04 -8.95,0 -8.95,0l5.46 -5.53c0.67,-0.67 0.67,-1.75 0,-2.42l-3.88 -3.88 -2.41 -2.22c-0.47,-0.45 -1.09,-0.71 -1.74,-0.71 -0.65,0.01 -1.27,0.26 -1.75,0.69l-2.39 2.24 -3.88 3.88c-0.67,0.67 -0.67,1.75 0,2.41l5.46 5.54c0,0 -8.02,-0.03 -8.92,0 -1.15,0 -2.39,1.41 -2.6,2.67 -0.01,0.08 -4.33,15.13 -4.33,15.13l2.75 15.36c0.34,1.92 1.52,3.39 3.39,3.39l24.54 0c1.88,0 3.02,-1.11 3.39,-3.39l2.75 -15.36zm-23.49 -24.54l5.08 -5.09 5.09 5.09 -5.09 5.09 -5.08 -5.09zm14.11 39.5c-1.32,0 -2.39,-1.07 -2.39,-2.39 0.01,-1.32 1.08,-2.39 2.4,-2.39 1.32,0 2.39,1.07 2.39,2.39 0,1.32 -1.07,2.39 -2.39,2.39 0,0 0,0 0,0l-0.01 0zm-18.07 0c-1.32,0 -2.39,-1.07 -2.39,-2.39 0,-1.32 1.07,-2.39 2.39,-2.39 1.32,0 2.39,1.07 2.39,2.39 0,0 0,0 0,0 0,1.32 -1.07,2.39 -2.39,2.39l0 0z"/>
   <path class="fil0" d="M6.73 53.58l-5.26 5.29c-0.76,0.75 -0.76,1.99 0,2.75 0.75,0.76 1.99,0.76 2.75,0l8.03 -8.04 -5.52 0z"/>
   <path class="fil0" d="M30.1 53.58l-5.53 0 8.04 8.04c0.38,0.38 0.87,0.56 1.37,0.57l0.01 0c0.5,-0.01 0.99,-0.19 1.37,-0.57 0.76,-0.76 0.76,-1.99 0,-2.75l0 0 -5.26 -5.29z"/>
  </g>
 </g>
</svg>
