<?xml version="1.0" encoding="UTF-8"?>
<!DOCTYPE svg PUBLIC "-//W3C//DTD SVG 1.1//EN" "http://www.w3.org/Graphics/SVG/1.1/DTD/svg11.dtd">
<!-- Creator: CorelDRAW 2019 (64-Bit) -->
<svg xmlns="http://www.w3.org/2000/svg" xml:space="preserve" width="426px" height="628px" version="1.1" style="shape-rendering:geometricPrecision; text-rendering:geometricPrecision; image-rendering:optimizeQuality; fill-rule:evenodd; clip-rule:evenodd"
viewBox="0 0 83.83 123.5"
 xmlns:xlink="http://www.w3.org/1999/xlink">
 <defs>
  <style type="text/css">
   <![CDATA[
    .fil0 {fill:#7D8A92}
   ]]>
  </style>
 </defs>
 <g id="Layer_x0020_1">
  <metadata id="CorelCorpID_0Corel-Layer"/>
  <path class="fil0" d="M76.09 29.59l-68.34 0c-4.28,0 -7.75,3.47 -7.75,7.75l0 68.33c0,4.28 3.47,7.76 7.75,7.76l2.39 0 0 2.98c0,3.91 3.18,7.09 7.11,7.09l0.82 0c3.92,0 7.1,-3.18 7.1,-7.09l0 -2.98 34.17 0 0 2.98c0,3.91 3.18,7.09 7.11,7.09l0.83 0c3.92,0 7.1,-3.18 7.1,-7.09l0 -2.98 1.71 0c4.27,0 7.74,-3.48 7.74,-7.76l0 -68.33c0,-4.28 -3.47,-7.75 -7.74,-7.75zm-60.94 75.18c-3.02,0 -5.46,-2.45 -5.46,-5.47 0,-3.02 2.44,-5.46 5.46,-5.46 3.02,0 5.47,2.44 5.47,5.46 0,3.02 -2.45,5.47 -5.47,5.47zm53.41 0c-3.01,0 -5.46,-2.45 -5.46,-5.47 0,-3.02 2.45,-5.46 5.46,-5.46 3.03,0 5.47,2.44 5.47,5.46 0,3.02 -2.44,5.47 -5.47,5.47zm5.47 -16.4l-64.24 0 0 -49.21 64.24 0 0 49.21zm-39.49 -66.45l-14.22 0 20.43 -20.44c1.97,-1.97 5.15,-1.97 7.12,0 1.96,1.96 1.96,5.15 0,7.12l-13.33 13.32zm13.05 0l20.43 -20.44c1.98,-1.97 5.16,-1.97 7.12,0 1.97,1.96 1.97,5.15 0,7.12l-13.32 13.32 -14.23 0 0 0z"/>
 </g>
</svg>
