<?xml version="1.0" encoding="UTF-8"?>
<!DOCTYPE svg PUBLIC "-//W3C//DTD SVG 1.1//EN" "http://www.w3.org/Graphics/SVG/1.1/DTD/svg11.dtd">
<!-- Creator: CorelDRAW 2021.5 -->
<svg xmlns="http://www.w3.org/2000/svg" xml:space="preserve" width="590px" height="590px" version="1.1" style="shape-rendering:geometricPrecision; text-rendering:geometricPrecision; image-rendering:optimizeQuality; fill-rule:evenodd; clip-rule:evenodd"
viewBox="0 0 52.79 52.79"
 xmlns:xlink="http://www.w3.org/1999/xlink"
 xmlns:xodm="http://www.corel.com/coreldraw/odm/2003">
 <defs>
  <style type="text/css">
   <![CDATA[
    .fil0 {fill:#102070}
    .fil2 {fill:#FFE000}
    .fil1 {fill:#FFE000;fill-rule:nonzero}
   ]]>
  </style>
 </defs>
 <g id="Layer_x0020_1">
  <metadata id="CorelCorpID_0Corel-Layer"/>
  <circle class="fil0" cx="26.4" cy="26.4" r="26.4"/>
  <path class="fil1" d="M10.72 19.64c-0.45,-1.67 -0.84,-3.12 -1.16,-4.34 1.31,-0.88 2.69,-1.58 4.15,-2.12 1.45,-0.54 2.98,-0.81 4.6,-0.81 2.41,0 4.49,0.81 6.24,2.44 1.69,1.6 2.54,3.53 2.54,5.81 0,2.48 -0.87,4.79 -2.62,6.94 -0.84,1.03 -1.9,2.13 -3.2,3.31 -1.3,1.17 -2.86,2.52 -4.69,4.03l11.09 0 0 4.46c-3.12,0 -6.25,0 -9.36,0 -3.12,0 -6.24,0 -9.35,0l0 -4.22c1.66,-1.39 3.38,-2.83 5.16,-4.32 1.77,-1.49 3.41,-3.01 4.9,-4.59 2.07,-2.17 3.11,-4.04 3.11,-5.61 0,-1.02 -0.38,-1.9 -1.15,-2.67 -0.76,-0.76 -1.65,-1.15 -2.67,-1.15 -1.47,0 -2.81,0.29 -4.03,0.85 -1.21,0.56 -2.39,1.23 -3.56,1.99z"/>
  <polygon class="fil2" points="31.32,39.36 34.82,39.36 34.82,31.87 42.04,31.87 42.04,39.36 45.55,39.36 45.55,20.88 42.04,20.88 42.04,28.37 34.82,28.37 34.82,20.88 31.32,20.88 "/>
 </g>
</svg>
