<?xml version="1.0" encoding="UTF-8"?>
<!DOCTYPE svg PUBLIC "-//W3C//DTD SVG 1.1//EN" "http://www.w3.org/Graphics/SVG/1.1/DTD/svg11.dtd">
<!-- Creator: CorelDRAW 2021.5 -->
<svg xmlns="http://www.w3.org/2000/svg" xml:space="preserve" width="590px" height="590px" version="1.1" style="shape-rendering:geometricPrecision; text-rendering:geometricPrecision; image-rendering:optimizeQuality; fill-rule:evenodd; clip-rule:evenodd"
viewBox="0 0 65.73 65.73"
 xmlns:xlink="http://www.w3.org/1999/xlink"
 xmlns:xodm="http://www.corel.com/coreldraw/odm/2003">
 <defs>
  <style type="text/css">
   <![CDATA[
    .fil0 {fill:#102070}
    .fil2 {fill:#FFE000}
    .fil1 {fill:#FFE000;fill-rule:nonzero}
   ]]>
  </style>
 </defs>
 <g id="Layer_x0020_1">
  <metadata id="CorelCorpID_0Corel-Layer"/>
  <circle class="fil0" cx="32.86" cy="32.86" r="32.86"/>
  <path class="fil1" d="M22.41 21.31l-11 0 0 -5.28 22.4 0 -9.7 11.53c1.54,0.24 2.89,0.66 4.05,1.27 1.5,0.77 2.77,1.88 3.81,3.32 1.39,1.98 1.97,4.33 1.72,7.05 -0.23,2.72 -1.2,4.91 -2.92,6.59 -1.34,1.31 -2.89,2.29 -4.64,2.94 -1.62,0.59 -3.43,0.88 -5.43,0.88 -0.76,0 -1.63,-0.05 -2.6,-0.15 -0.97,-0.11 -1.96,-0.29 -2.95,-0.53 -1.8,-0.48 -3.23,-1.11 -4.31,-1.9l-0.25 -0.17 0.03 -6.21 0.95 0.61c1.34,0.87 2.59,1.51 3.73,1.92 1.3,0.44 2.73,0.69 4.28,0.75 1.7,0.07 3.2,-0.16 4.53,-0.7 1.24,-0.54 2.17,-1.32 2.79,-2.33 0.33,-0.53 0.56,-1.19 0.68,-1.98 0.09,-0.76 0.05,-1.48 -0.11,-2.14 -0.08,-0.31 -0.17,-0.54 -0.26,-0.73 -0.63,-1.52 -1.91,-2.57 -3.82,-3.15 -1.74,-0.51 -3.57,-0.51 -5.51,-0.02 -0.51,0.14 -0.92,0.28 -1.24,0.43l-0.84 0.37 -0.02 -4.47 6.63 -7.9z"/>
  <polygon class="fil2" points="38.1,49 42.46,49 42.46,39.68 51.46,39.68 51.46,49 55.82,49 55.82,26 51.46,26 51.46,35.32 42.46,35.32 42.46,26 38.1,26 "/>
 </g>
</svg>
