<?xml version="1.0" encoding="UTF-8"?>
<!DOCTYPE svg PUBLIC "-//W3C//DTD SVG 1.1//EN" "http://www.w3.org/Graphics/SVG/1.1/DTD/svg11.dtd">
<!-- Creator: CorelDRAW 2019 (64-Bit) -->
<svg xmlns="http://www.w3.org/2000/svg" xml:space="preserve" width="591px" height="591px" version="1.1" style="shape-rendering:geometricPrecision; text-rendering:geometricPrecision; image-rendering:optimizeQuality; fill-rule:evenodd; clip-rule:evenodd"
viewBox="0 0 150.24 150.24"
 xmlns:xlink="http://www.w3.org/1999/xlink">
 <defs>
  <style type="text/css">
   <![CDATA[
    .fil1 {fill:#FFED00}
    .fil0 {fill:#000066}
    .fil2 {fill:#FFED00;fill-rule:nonzero}
   ]]>
  </style>
 </defs>
 <g id="Layer_x0020_1">
  <metadata id="CorelCorpID_0Corel-Layer"/>
  <g id="_2527260440016">
   <path class="fil0" d="M75.12 0c41.48,0 75.12,33.63 75.12,75.12 0,41.48 -33.64,75.12 -75.12,75.12 -41.49,0 -75.12,-33.64 -75.12,-75.12 0,-41.49 33.63,-75.12 75.12,-75.12z"/>
   <g>
    <polygon class="fil1" points="118.44,39.19 129.7,39.19 129.7,112.23 118.44,112.23 118.44,81.34 90.12,81.34 90.12,112.23 78.87,112.23 78.87,39.19 90.12,39.19 90.12,70.09 118.44,70.09 "/>
    <path class="fil2" d="M22.35 48.59l0 -9.38 47.35 0 -22.2 26.35c8.73,0.74 15.36,4.17 19.87,10.28 3.04,4.31 4.26,9.46 3.69,15.45 -0.59,5.98 -2.69,10.77 -6.32,14.34 -1.48,1.34 -2.59,2.29 -3.33,2.82 -5.25,3.7 -11.57,5.55 -18.96,5.55 -4.72,0 -8.85,-0.47 -12.42,-1.42 -1.48,-0.39 -2.98,-0.89 -4.49,-1.46 -1.52,-0.57 -2.88,-1.26 -4.09,-2.07 -0.6,-0.14 -0.91,-0.36 -0.91,-0.7 0,-0.81 0,-2.71 0,-5.7 0,-3 0,-4.76 0,-5.31 3.03,2.03 6.01,3.55 8.94,4.6 2.91,1.03 6.37,1.67 10.33,1.86 3.5,0.21 6.96,-0.28 10.36,-1.46 3.39,-1.18 5.99,-3.28 7.82,-6.31 1.94,-3.1 2.44,-6.63 1.51,-10.59 -0.55,-1.83 -1.31,-3.34 -2.32,-4.6 -1.02,-1.24 -2.09,-2.29 -3.22,-3.17 -2.04,-1.48 -4.48,-2.41 -7.38,-2.77 -2.89,-0.38 -5.65,-0.37 -8.28,0.05 -2.22,0.26 -4.14,0.76 -5.75,1.5l0 -7.67 16.86 -20.19 -27.06 0z"/>
   </g>
  </g>
 </g>
</svg>
