<?xml version="1.0" encoding="UTF-8"?>
<!DOCTYPE svg PUBLIC "-//W3C//DTD SVG 1.1//EN" "http://www.w3.org/Graphics/SVG/1.1/DTD/svg11.dtd">
<!-- Creator: CorelDRAW 2021.5 -->
<svg xmlns="http://www.w3.org/2000/svg" xml:space="preserve" width="590px" height="590px" version="1.1" style="shape-rendering:geometricPrecision; text-rendering:geometricPrecision; image-rendering:optimizeQuality; fill-rule:evenodd; clip-rule:evenodd"
viewBox="0 0 87.07 87.07"
 xmlns:xlink="http://www.w3.org/1999/xlink"
 xmlns:xodm="http://www.corel.com/coreldraw/odm/2003">
 <defs>
  <style type="text/css">
   <![CDATA[
    .fil0 {fill:#102070}
    .fil2 {fill:#FFE000}
    .fil1 {fill:#FFE000;fill-rule:nonzero}
   ]]>
  </style>
 </defs>
 <g id="Layer_x0020_1">
  <metadata id="CorelCorpID_0Corel-Layer"/>
  <circle class="fil0" cx="43.53" cy="43.53" r="43.53"/>
  <path class="fil1" d="M32.81 64.91l0 -11.06 -19.65 0 0 -6.64 20.01 -25.97 7.56 0 0 25.5 4.32 0 0 7.11 -4.32 0 0 11.06 -7.92 0zm0 -18.17l0 -13.86 -10.97 13.86 10.97 0z"/>
  <polygon class="fil2" points="50.47,64.91 56.25,64.91 56.25,52.56 68.17,52.56 68.17,64.91 73.94,64.91 73.94,34.44 68.17,34.44 68.17,46.79 56.25,46.79 56.25,34.44 50.47,34.44 "/>
 </g>
</svg>
