<?xml version="1.0" encoding="UTF-8"?>
<!DOCTYPE svg PUBLIC "-//W3C//DTD SVG 1.1//EN" "http://www.w3.org/Graphics/SVG/1.1/DTD/svg11.dtd">
<!-- Creator: CorelDRAW 2019 (64-Bit) -->
<svg xmlns="http://www.w3.org/2000/svg" xml:space="preserve" width="591px" height="591px" version="1.1" style="shape-rendering:geometricPrecision; text-rendering:geometricPrecision; image-rendering:optimizeQuality; fill-rule:evenodd; clip-rule:evenodd"
viewBox="0 0 150.24 150.24"
 xmlns:xlink="http://www.w3.org/1999/xlink">
 <defs>
  <style type="text/css">
   <![CDATA[
    .fil1 {fill:#FFED00}
    .fil0 {fill:#000066}
    .fil2 {fill:#FFED00;fill-rule:nonzero}
   ]]>
  </style>
 </defs>
 <g id="Layer_x0020_1">
  <metadata id="CorelCorpID_0Corel-Layer"/>
  <g id="_2527422071808">
   <circle class="fil0" cx="75.12" cy="75.12" r="75.12"/>
   <g>
    <polygon class="fil1" points="118.5,39.19 129.75,39.19 129.75,112.23 118.5,112.23 118.5,81.34 90.18,81.34 90.18,112.23 78.92,112.23 78.92,39.19 90.18,39.19 90.18,70.09 118.5,70.09 "/>
    <path class="fil2" d="M36.54 49.2l-2.12 16.96c0.61,-0.07 1.21,-0.19 1.81,-0.36 0.6,-0.15 1.24,-0.31 1.91,-0.45 1.3,-0.2 2.64,-0.31 4.05,-0.31 8.34,-0.19 15.25,1.86 20.69,6.17 1.41,1.21 2.77,2.65 4.08,4.34 1.31,1.67 2.34,3.72 3.08,6.15 0.68,2.36 1.02,4.98 1.02,7.87 0,2.9 -0.41,5.46 -1.22,7.67 -1.67,4.37 -4.29,7.87 -7.82,10.45 -3.53,2.59 -7.48,4.36 -11.85,5.31 -3.5,0.79 -7.44,1.1 -11.82,0.89 -4.37,-0.19 -8.27,-0.89 -11.71,-2.12 -1.81,-0.67 -3.36,-1.3 -4.64,-1.91 -0.13,-0.07 -0.63,-0.34 -1.51,-0.81l0 -10.8c2.89,1.83 6.32,3.29 10.3,4.4 3.96,1.1 8.06,1.46 12.31,1.05 3.57,-0.33 6.98,-1.47 10.24,-3.43 3.27,-1.95 5.23,-4.88 5.9,-8.77 0.74,-4.44 -0.13,-8.04 -2.61,-10.8 -2.5,-2.77 -5.46,-4.62 -8.89,-5.56 -2.9,-0.67 -6.05,-0.88 -9.49,-0.66 -3.43,0.24 -6.57,0.69 -9.39,1.36 -1,0.28 -1.95,0.57 -2.83,0.86 -0.87,0.31 -1.77,0.56 -2.72,0.76l4.84 -38.25 37.86 0 0 9.99 -29.47 0z"/>
   </g>
  </g>
 </g>
</svg>
