<?xml version="1.0" encoding="UTF-8"?>
<!DOCTYPE svg PUBLIC "-//W3C//DTD SVG 1.1//EN" "http://www.w3.org/Graphics/SVG/1.1/DTD/svg11.dtd">
<!-- Creator: CorelDRAW 2021.5 -->
<svg xmlns="http://www.w3.org/2000/svg" xml:space="preserve" width="590px" height="590px" version="1.1" style="shape-rendering:geometricPrecision; text-rendering:geometricPrecision; image-rendering:optimizeQuality; fill-rule:evenodd; clip-rule:evenodd"
viewBox="0 0 248.28 248.29"
 xmlns:xlink="http://www.w3.org/1999/xlink"
 xmlns:xodm="http://www.corel.com/coreldraw/odm/2003">
 <defs>
  <style type="text/css">
   <![CDATA[
    .fil0 {fill:#102070}
    .fil2 {fill:#FFE000}
    .fil1 {fill:#FFE000;fill-rule:nonzero}
   ]]>
  </style>
 </defs>
 <g id="Layer_x0020_1">
  <metadata id="CorelCorpID_0Corel-Layer"/>
  <circle class="fil0" cx="124.14" cy="124.14" r="124.14"/>
  <path class="fil1" d="M57.84 113.26c4.12,-3.95 8.99,-6.66 14.63,-8.21 8.73,-2.33 17.28,-2.48 25.66,-0.44 8.12,2.11 14.78,6.22 20.03,12.32 5.17,6.11 8.2,13.32 9.05,21.64 0.88,8.9 -0.29,16.87 -3.5,23.97 -3.24,7.3 -8.35,13.25 -15.3,17.87 -6.69,4.38 -14.48,6.71 -23.45,7 -4.11,0.12 -8.43,-0.23 -12.99,-1.02 -4.58,-0.79 -8.64,-2.16 -12.23,-4.11 -6.86,-3.83 -12.15,-8.71 -15.91,-14.63 -4.06,-6.04 -6.9,-13.29 -8.47,-21.72 -1.55,-8.27 -1.9,-17.23 -1.02,-26.86 0.78,-9.46 2.71,-17.81 5.81,-25.06 2.04,-4.96 4.64,-9.78 7.73,-14.42 3.1,-4.64 6.89,-8.58 11.33,-11.85 6.57,-4.91 14.1,-7.94 22.6,-9.14 8.44,-1.08 16.99,-0.29 25.64,2.39 1.89,0.68 3.73,1.52 5.57,2.51 1.81,1.03 3.65,1.99 5.46,2.95l-0.09 21.75c-4.26,-2.19 -7.82,-4 -10.68,-5.48 -2.83,-1.49 -6.75,-2.52 -11.71,-3.07 -5.69,-0.7 -11.1,-0.12 -16.18,1.69 -6.65,2.4 -11.79,6.66 -15.35,12.76 -3.56,6.1 -5.75,12.5 -6.63,19.16zm32.17 10.59c-6.16,-2.04 -12.26,-1.78 -18.3,0.79 -6.16,2.51 -10.6,6.4 -13.34,11.71 -0.85,1.72 -1.32,2.98 -1.38,3.8 -0.05,0.84 0.09,2.1 0.44,3.82 0.56,3.42 1.46,6.6 2.72,9.52 1.25,2.95 3.27,5.55 5.98,7.82 4.47,3.89 9.87,5.7 16.26,5.4 6.57,-0.17 11.97,-2.39 16.21,-6.71 4.26,-4.29 6.28,-9.87 6.04,-16.73 -0.41,-9.81 -5.28,-16.26 -14.63,-19.42z"/>
  <polygon class="fil2" points="143.93,185.11 160.4,185.11 160.4,149.89 194.39,149.89 194.39,185.11 210.86,185.11 210.86,98.21 194.39,98.21 194.39,133.42 160.4,133.42 160.4,98.21 143.93,98.21 "/>
 </g>
</svg>
