<?xml version="1.0" encoding="UTF-8"?>
<!DOCTYPE svg PUBLIC "-//W3C//DTD SVG 1.1//EN" "http://www.w3.org/Graphics/SVG/1.1/DTD/svg11.dtd">
<!-- Creator: CorelDRAW 2019 (64-Bit) -->
<svg xmlns="http://www.w3.org/2000/svg" xml:space="preserve" width="591px" height="591px" version="1.1" style="shape-rendering:geometricPrecision; text-rendering:geometricPrecision; image-rendering:optimizeQuality; fill-rule:evenodd; clip-rule:evenodd"
viewBox="0 0 96.35 96.35"
 xmlns:xlink="http://www.w3.org/1999/xlink">
 <defs>
  <style type="text/css">
   <![CDATA[
    .fil1 {fill:#FFED00}
    .fil0 {fill:#000066}
    .fil2 {fill:#FFED00;fill-rule:nonzero}
   ]]>
  </style>
 </defs>
 <g id="Layer_x0020_1">
  <metadata id="CorelCorpID_0Corel-Layer"/>
  <g id="_2527260472880">
   <path class="fil0" d="M48.17 0c26.61,0 48.18,21.57 48.18,48.17 0,26.61 -21.57,48.18 -48.18,48.18 -26.6,0 -48.17,-21.57 -48.17,-48.18 0,-26.6 21.57,-48.17 48.17,-48.17z"/>
   <g>
    <polygon class="fil1" points="76.82,25.14 84.03,25.14 84.03,71.97 76.82,71.97 76.82,52.16 58.66,52.16 58.66,71.97 51.44,71.97 51.44,25.14 58.66,25.14 58.66,44.95 76.82,44.95 "/>
    <path class="fil2" d="M27.85 47.87c-2.33,0.29 -4.36,1.15 -6.08,2.53 -1.17,0.86 -2.1,1.93 -2.79,3.22 -0.43,0.91 -0.65,1.55 -0.65,1.91 0,0.38 0.09,1.05 0.27,2.05 0.47,2.71 1.61,4.93 3.42,6.66 1.81,1.73 4.16,2.53 7.06,2.39 2.89,-0.04 5.16,-1.01 6.79,-2.9 0.22,-0.13 0.41,-0.33 0.59,-0.59 0.3,-0.43 0.47,-0.67 0.52,-0.71 0.34,-0.52 0.62,-1.05 0.84,-1.62 1.12,-2.76 1.04,-5.45 -0.26,-8.09 -0.31,-0.51 -0.83,-1.21 -1.55,-2.07 -2.25,-2.2 -4.96,-3.13 -8.16,-2.78zm-9.32 -0.78c0.09,-0.04 0.19,-0.15 0.32,-0.33 0.13,-0.16 0.26,-0.32 0.39,-0.45 0.35,-0.34 0.68,-0.67 1,-1 0.32,-0.33 0.75,-0.64 1.26,-0.93 1.35,-0.88 2.64,-1.47 3.89,-1.83 3.1,-0.81 6.2,-0.88 9.29,-0.18 3.08,0.68 5.67,2.22 7.73,4.59 1.9,2.29 3.02,4.94 3.37,7.97 0.39,3.87 -0.16,7.1 -1.66,9.67 -1.48,2.56 -3.27,4.54 -5.33,5.92 -2.42,1.55 -5.34,2.41 -8.74,2.59 -1.56,0 -3.19,-0.15 -4.91,-0.42 -1.74,-0.28 -3.24,-0.76 -4.54,-1.46 -0.35,-0.17 -0.67,-0.34 -0.98,-0.52 -0.3,-0.16 -0.57,-0.36 -0.84,-0.57 -0.12,-0.09 -0.25,-0.18 -0.38,-0.27 -0.14,-0.09 -0.26,-0.19 -0.39,-0.32 -1.25,-0.95 -2.37,-2.2 -3.37,-3.75 -1.5,-2.29 -2.56,-5.03 -3.17,-8.22 -0.56,-3.11 -0.68,-6.51 -0.39,-10.2 0.3,-3.69 1.04,-6.89 2.2,-9.61 0.48,-1.17 0.93,-2.12 1.36,-2.88 0.43,-0.75 1,-1.63 1.69,-2.62 0.6,-0.91 1.25,-1.7 1.93,-2.4 0.7,-0.77 1.43,-1.45 2.21,-2.01 2.59,-1.89 5.48,-3.04 8.68,-3.42 3.19,-0.39 6.34,-0.09 9.44,0.9 0.52,0.18 1.19,0.46 2.01,0.84l1.75 1.04 0 6.73c-0.3,-0.13 -0.59,-0.3 -0.84,-0.52 -1.99,-1.25 -4.35,-2.02 -7.06,-2.33 -2.24,-0.26 -4.41,-0.03 -6.51,0.65 -2.09,0.7 -3.82,1.88 -5.2,3.56 -2.68,3.28 -4.08,7.21 -4.21,11.78z"/>
   </g>
  </g>
 </g>
</svg>
