<?xml version="1.0" encoding="UTF-8"?>
<!DOCTYPE svg PUBLIC "-//W3C//DTD SVG 1.1//EN" "http://www.w3.org/Graphics/SVG/1.1/DTD/svg11.dtd">
<!-- Creator: CorelDRAW 2021.5 -->
<svg xmlns="http://www.w3.org/2000/svg" xml:space="preserve" width="590px" height="590px" version="1.1" style="shape-rendering:geometricPrecision; text-rendering:geometricPrecision; image-rendering:optimizeQuality; fill-rule:evenodd; clip-rule:evenodd"
viewBox="0 0 291.55 291.55"
 xmlns:xlink="http://www.w3.org/1999/xlink"
 xmlns:xodm="http://www.corel.com/coreldraw/odm/2003">
 <defs>
  <style type="text/css">
   <![CDATA[
    .fil0 {fill:#102070}
    .fil2 {fill:#FFE000}
    .fil1 {fill:#FFE000;fill-rule:nonzero}
   ]]>
  </style>
 </defs>
 <g id="Layer_x0020_1">
  <metadata id="CorelCorpID_0Corel-Layer"/>
  <circle class="fil0" cx="145.77" cy="145.77" r="145.77"/>
  <path class="fil1" d="M66.41 138.72c-3.94,-2.82 -7.06,-6.04 -9.32,-9.64 -3.5,-5.42 -5.21,-11.62 -5.21,-18.58 0,-12.86 4.15,-23.18 12.44,-30.96 8.16,-7.54 19.13,-11.35 32.95,-11.35 13.71,0 24.68,3.81 32.84,11.35 8.37,7.85 12.55,18.17 12.55,30.96 0,7.88 -2.4,14.88 -7.23,20.98 -2.27,2.81 -4.98,5.38 -8.13,7.75 6.41,3.19 11.45,7.4 15.05,12.65 4.42,6.41 6.65,14.09 6.65,23.01 0,5.62 -1.27,11.38 -3.77,17.27 -2.5,5.87 -6.38,11.11 -11.62,15.67 -9.43,8.16 -21.57,12.24 -36.34,12.24 -14.81,0 -26.88,-4.08 -36.27,-12.24 -5.28,-4.56 -9.19,-9.8 -11.69,-15.67 -2.51,-5.89 -3.78,-11.65 -3.78,-17.27 0,-8.3 2.06,-15.74 6.14,-22.32 3.53,-5.42 8.47,-10.05 14.74,-13.85zm22.12 10.45c-5.04,2.33 -9.02,5.73 -11.97,10.15 -2.95,4.53 -4.42,9.74 -4.42,15.57 0,6.75 2.47,12.51 7.33,17.27 4.91,4.8 10.84,7.24 17.8,7.24 6.96,0 12.96,-2.4 17.96,-7.13 4.77,-4.77 7.13,-10.56 7.13,-17.38 0,-6.25 -2.4,-11.32 -7.23,-15.3 -4.08,-3.05 -10.39,-5.82 -18.96,-8.33 -1.75,-0.37 -3.12,-0.75 -4.15,-1.09 -0.58,-0.14 -1.16,-0.28 -1.75,-0.45 -0.54,-0.17 -1.16,-0.34 -1.74,-0.55zm14.67 -17.89c1.4,-0.79 2.95,-1.75 4.59,-2.92 1.68,-1.13 3.26,-2.5 4.73,-4.11 3.71,-3.88 5.52,-8.47 5.52,-13.75 0,-5.76 -1.98,-10.73 -6,-14.88 -4.25,-4.08 -9.15,-6.1 -14.77,-6.1 -5.76,0 -10.7,2.02 -14.78,6.1 -4.01,4.01 -6.03,8.98 -6.03,14.88 0,5.42 1.85,9.63 5.55,12.65 3.19,2.67 8.44,4.94 15.67,6.82 0,0 0.79,0.21 2.4,0.62 0.72,0.14 1.78,0.34 3.12,0.69z"/>
  <polygon class="fil2" points="170.47,217.36 189.81,217.36 189.81,176.01 229.72,176.01 229.72,217.36 249.06,217.36 249.06,115.32 229.72,115.32 229.72,156.67 189.81,156.67 189.81,115.32 170.47,115.32 "/>
 </g>
</svg>
