<?xml version="1.0" encoding="UTF-8"?>
<!DOCTYPE svg PUBLIC "-//W3C//DTD SVG 1.1//EN" "http://www.w3.org/Graphics/SVG/1.1/DTD/svg11.dtd">
<!-- Creator: CorelDRAW 2021.5 -->
<svg xmlns="http://www.w3.org/2000/svg" xml:space="preserve" width="590px" height="590px" version="1.1" style="shape-rendering:geometricPrecision; text-rendering:geometricPrecision; image-rendering:optimizeQuality; fill-rule:evenodd; clip-rule:evenodd"
viewBox="0 0 139.69 139.69"
 xmlns:xlink="http://www.w3.org/1999/xlink"
 xmlns:xodm="http://www.corel.com/coreldraw/odm/2003">
 <defs>
  <style type="text/css">
   <![CDATA[
    .fil0 {fill:#102070}
    .fil2 {fill:#FFE000}
    .fil1 {fill:#FFE000;fill-rule:nonzero}
   ]]>
  </style>
 </defs>
 <g id="Layer_x0020_1">
  <metadata id="CorelCorpID_0Corel-Layer"/>
  <circle class="fil0" cx="69.84" cy="69.84" r="69.84"/>
  <path class="fil1" d="M58.6 80.28c0.61,-1.86 1.07,-3.8 1.4,-5.79 -2.45,2.22 -5.21,3.75 -8.28,4.59 -5.05,1.38 -9.84,1.44 -14.39,0.23 -4.62,-1.15 -8.4,-3.45 -11.32,-6.88 -2.91,-3.44 -4.62,-7.51 -5.09,-12.23 -0.46,-4.97 0.19,-9.46 1.97,-13.47 1.92,-4.33 4.86,-7.7 8.84,-10.13 3.95,-2.42 8.29,-3.71 13,-3.88 3.95,-0.1 7.73,0.48 11.31,1.71 3.59,1.23 6.76,3.35 9.49,6.34 3.52,3.98 5.9,9.07 7.11,15.29 0.87,4.75 1.07,9.79 0.58,15.12 -0.54,5.55 -1.63,10.26 -3.27,14.14 -1.22,2.79 -2.69,5.5 -4.45,8.11 -1.74,2.62 -3.86,4.85 -6.33,6.67 -3.72,2.7 -7.95,4.37 -12.69,5.06 -4.77,0.66 -9.56,0.23 -14.39,-1.31 -1.14,-0.31 -2.2,-0.76 -3.24,-1.35 -1.02,-0.57 -2.04,-1.15 -3.02,-1.72l0.05 -12.22c2.4,1.24 4.4,2.3 5.98,3.15 1.59,0.84 3.79,1.41 6.62,1.71 3.3,0.34 6.35,0.03 9.15,-0.97 2.79,-1 5.06,-2.58 6.83,-4.77 1.76,-2.18 3.14,-4.64 4.14,-7.4zm-10.78 -11.12c2.88,-0.28 5.59,-1.4 8.13,-3.32 1.6,-1.22 2.83,-2.68 3.7,-4.39 0.49,-0.92 0.74,-1.62 0.77,-2.08 0.04,-0.46 -0.03,-1.2 -0.2,-2.19 -0.77,-4.27 -2.41,-7.52 -4.94,-9.77 -2.48,-2.15 -5.52,-3.17 -9.15,-3.04 -3.79,0.13 -6.85,1.43 -9.2,3.91 -2.33,2.46 -3.45,5.55 -3.32,9.28 0.14,3.24 1.24,5.88 3.32,7.93 2.93,2.93 6.56,4.14 10.89,3.67z"/>
  <polygon class="fil2" points="82.72,104.14 91.99,104.14 91.99,84.33 111.11,84.33 111.11,104.14 120.38,104.14 120.38,55.25 111.11,55.25 111.11,75.06 91.99,75.06 91.99,55.25 82.72,55.25 "/>
 </g>
</svg>
