<?xml version="1.0" encoding="UTF-8"?>
<!DOCTYPE svg PUBLIC "-//W3C//DTD SVG 1.1//EN" "http://www.w3.org/Graphics/SVG/1.1/DTD/svg11.dtd">
<!-- Creator: CorelDRAW 2019 (64-Bit) -->
<svg xmlns="http://www.w3.org/2000/svg" xml:space="preserve" width="589px" height="589px" version="1.1" style="shape-rendering:geometricPrecision; text-rendering:geometricPrecision; image-rendering:optimizeQuality; fill-rule:evenodd; clip-rule:evenodd"
viewBox="0 0 87.9 87.9"
 xmlns:xlink="http://www.w3.org/1999/xlink">
 <defs>
  <style type="text/css">
   <![CDATA[
    .fil1 {fill:#FEFEFE}
    .fil0 {fill:#93573D}
   ]]>
  </style>
 </defs>
 <g id="Layer_x0020_1">
  <metadata id="CorelCorpID_0Corel-Layer"/>
  <g id="_2527091585984">
   <rect class="fil0" transform="matrix(5.86819 -5.86818 5.86819 5.86818 -4.85845 43.949)" width="8.32" height="8.32" rx="1.41" ry="1.41"/>
   <path class="fil1" d="M31.44 31.31c0.82,-0.57 6.27,-4.39 12.51,-4.39 3.86,0 7.26,3.36 7.26,7.26 0,6.15 -7.26,12.31 -22.5,25.1l0 6.14 30.48 0 0 -6.13 -20.22 -0.01c14.18,-11.71 19.26,-16.6 19.26,-25.1 0,-7.9 -6.93,-13.4 -14.28,-13.4 -7.53,0 -13.51,4.19 -14.1,4.6 0.55,2.05 1.06,3.92 1.59,5.93z"/>
  </g>
 </g>
</svg>
