<?xml version="1.0" encoding="UTF-8"?>
<!DOCTYPE svg PUBLIC "-//W3C//DTD SVG 1.1//EN" "http://www.w3.org/Graphics/SVG/1.1/DTD/svg11.dtd">
<!-- Creator: CorelDRAW 2021.5 -->
<svg xmlns="http://www.w3.org/2000/svg" xml:space="preserve" width="590px" height="590px" version="1.1" style="shape-rendering:geometricPrecision; text-rendering:geometricPrecision; image-rendering:optimizeQuality; fill-rule:evenodd; clip-rule:evenodd"
viewBox="0 0 52.69 52.69"
 xmlns:xlink="http://www.w3.org/1999/xlink"
 xmlns:xodm="http://www.corel.com/coreldraw/odm/2003">
 <defs>
  <style type="text/css">
   <![CDATA[
    .fil0 {fill:#93573D}
    .fil1 {fill:#FEFEFE;fill-rule:nonzero}
   ]]>
  </style>
 </defs>
 <g id="Layer_x0020_1">
  <metadata id="CorelCorpID_0Corel-Layer"/>
  <rect class="fil0" transform="matrix(2.34728 -2.34727 2.34728 2.34727 -2.91247 26.3473)" width="12.47" height="12.47" rx="2.11" ry="2.11"/>
  <path class="fil1" d="M19.09 19.96c-0.45,-1.67 -0.84,-3.13 -1.16,-4.35 1.31,-0.87 2.69,-1.58 4.14,-2.12 1.46,-0.54 2.99,-0.81 4.6,-0.81 2.42,0 4.49,0.81 6.24,2.44 1.7,1.6 2.55,3.54 2.55,5.82 0,2.47 -0.88,4.78 -2.62,6.93 -0.84,1.03 -1.91,2.13 -3.21,3.31 -1.29,1.17 -2.85,2.52 -4.68,4.03l11.09 0 0 4.46c-3.13,0 -6.25,0 -9.37,0 -3.11,0 -6.23,0 -9.34,0l0 -4.22c1.66,-1.39 3.37,-2.83 5.15,-4.32 1.78,-1.48 3.41,-3.01 4.9,-4.59 2.07,-2.17 3.11,-4.04 3.11,-5.6 0,-1.02 -0.38,-1.91 -1.14,-2.67 -0.76,-0.77 -1.66,-1.15 -2.68,-1.15 -1.46,0 -2.8,0.28 -4.02,0.84 -1.21,0.57 -2.39,1.23 -3.56,2z"/>
 </g>
</svg>
