<?xml version="1.0" encoding="UTF-8"?>
<!DOCTYPE svg PUBLIC "-//W3C//DTD SVG 1.1//EN" "http://www.w3.org/Graphics/SVG/1.1/DTD/svg11.dtd">
<!-- Creator: CorelDRAW 2019 (64-Bit) -->
<svg xmlns="http://www.w3.org/2000/svg" xml:space="preserve" width="520px" height="520px" version="1.1" style="shape-rendering:geometricPrecision; text-rendering:geometricPrecision; image-rendering:optimizeQuality; fill-rule:evenodd; clip-rule:evenodd"
viewBox="0 0 52.22 52.22"
 xmlns:xlink="http://www.w3.org/1999/xlink">
 <defs>
  <style type="text/css">
   <![CDATA[
    .fil1 {fill:#FEFEFE}
    .fil0 {fill:#3E9B7D}
   ]]>
  </style>
 </defs>
 <g id="Layer_x0020_1">
  <metadata id="CorelCorpID_0Corel-Layer"/>
  <g id="_2527260432272">
   <rect class="fil0" width="52.22" height="52.22" rx="8.85" ry="8.85"/>
   <path class="fil1" d="M5.53 17.77c0.58,-0.4 4.43,-3.1 8.84,-3.1 2.73,0 5.13,2.38 5.13,5.13 0,4.35 -5.13,8.7 -15.91,17.74l0 4.34 21.55 0 0 -4.33 -14.29 -0.01c10.02,-8.28 13.61,-11.73 13.61,-17.74 0,-5.58 -4.9,-9.47 -10.09,-9.47 -5.33,0 -9.55,2.96 -9.97,3.25 0.39,1.45 0.75,2.77 1.13,4.19z"/>
   <path class="fil1" d="M29.26 17.77c0.58,-0.4 4.43,-3.1 8.84,-3.1 2.73,0 5.13,2.38 5.13,5.13 0,4.35 -5.13,8.7 -15.9,17.74l0 4.34 21.55 0 0 -4.33 -14.3 -0.01c10.03,-8.28 13.61,-11.73 13.61,-17.74 0,-5.58 -4.9,-9.47 -10.09,-9.47 -5.32,0 -9.55,2.96 -9.96,3.25 0.39,1.45 0.75,2.77 1.12,4.19z"/>
  </g>
 </g>
</svg>
