<?xml version="1.0" encoding="UTF-8"?>
<!DOCTYPE svg PUBLIC "-//W3C//DTD SVG 1.1//EN" "http://www.w3.org/Graphics/SVG/1.1/DTD/svg11.dtd">
<!-- Creator: CorelDRAW 2021.5 -->
<svg xmlns="http://www.w3.org/2000/svg" xml:space="preserve" width="520px" height="520px" version="1.1" style="shape-rendering:geometricPrecision; text-rendering:geometricPrecision; image-rendering:optimizeQuality; fill-rule:evenodd; clip-rule:evenodd"
viewBox="0 0 34.21 34.21"
 xmlns:xlink="http://www.w3.org/1999/xlink"
 xmlns:xodm="http://www.corel.com/coreldraw/odm/2003">
 <defs>
  <style type="text/css">
   <![CDATA[
    .fil0 {fill:#3E9B7D}
    .fil1 {fill:white;fill-rule:nonzero}
   ]]>
  </style>
 </defs>
 <g id="Layer_x0020_1">
  <metadata id="CorelCorpID_0Corel-Layer"/>
  <rect class="fil0" width="34.21" height="34.21" rx="5.8" ry="5.8"/>
  <path class="fil1" d="M4.04 12.64c-0.33,-1.23 -0.62,-2.3 -0.86,-3.2 0.97,-0.64 1.98,-1.16 3.06,-1.56 1.06,-0.4 2.19,-0.6 3.38,-0.6 1.78,0 3.31,0.6 4.6,1.8 1.25,1.18 1.87,2.6 1.87,4.28 0,1.83 -0.64,3.53 -1.93,5.11 -0.62,0.76 -1.4,1.57 -2.36,2.44 -0.95,0.86 -2.1,1.85 -3.45,2.97l8.17 0 0 3.28c-2.3,0 -4.6,0 -6.9,0 -2.29,0 -4.59,0 -6.88,0l0 -3.11c1.22,-1.02 2.48,-2.08 3.8,-3.18 1.3,-1.09 2.51,-2.22 3.6,-3.38 1.53,-1.6 2.29,-2.98 2.29,-4.13 0,-0.75 -0.27,-1.4 -0.84,-1.96 -0.56,-0.57 -1.22,-0.85 -1.97,-0.85 -1.08,0 -2.06,0.21 -2.96,0.62 -0.89,0.42 -1.76,0.91 -2.62,1.47z"/>
  <path class="fil1" d="M19.57 12.64c-0.33,-1.23 -0.62,-2.3 -0.86,-3.2 0.97,-0.64 1.98,-1.16 3.06,-1.56 1.07,-0.4 2.2,-0.6 3.39,-0.6 1.77,0 3.3,0.6 4.59,1.8 1.25,1.18 1.87,2.6 1.87,4.28 0,1.83 -0.64,3.53 -1.92,5.11 -0.62,0.76 -1.41,1.57 -2.36,2.44 -0.96,0.86 -2.11,1.85 -3.46,2.97l8.17 0 0 3.28c-2.3,0 -4.6,0 -6.89,0 -2.3,0 -4.59,0 -6.89,0l0 -3.11c1.23,-1.02 2.49,-2.08 3.8,-3.18 1.31,-1.09 2.51,-2.22 3.61,-3.38 1.52,-1.6 2.29,-2.98 2.29,-4.13 0,-0.75 -0.28,-1.4 -0.84,-1.96 -0.57,-0.57 -1.22,-0.85 -1.97,-0.85 -1.08,0 -2.07,0.21 -2.97,0.62 -0.89,0.42 -1.76,0.91 -2.62,1.47z"/>
 </g>
</svg>
