<?xml version="1.0" encoding="UTF-8"?>
<!DOCTYPE svg PUBLIC "-//W3C//DTD SVG 1.1//EN" "http://www.w3.org/Graphics/SVG/1.1/DTD/svg11.dtd">
<!-- Creator: CorelDRAW 2021.5 -->
<svg xmlns="http://www.w3.org/2000/svg" xml:space="preserve" width="520px" height="520px" version="1.1" style="shape-rendering:geometricPrecision; text-rendering:geometricPrecision; image-rendering:optimizeQuality; fill-rule:evenodd; clip-rule:evenodd"
viewBox="0 0 40.94 40.94"
 xmlns:xlink="http://www.w3.org/1999/xlink"
 xmlns:xodm="http://www.corel.com/coreldraw/odm/2003">
 <defs>
  <style type="text/css">
   <![CDATA[
    .fil0 {fill:#BD8260}
    .fil1 {fill:white;fill-rule:nonzero}
   ]]>
  </style>
 </defs>
 <g id="Layer_x0020_1">
  <metadata id="CorelCorpID_0Corel-Layer"/>
  <rect class="fil0" width="40.94" height="40.94" rx="6.94" ry="6.94"/>
  <path class="fil1" d="M5.33 15.13c-0.39,-1.47 -0.74,-2.75 -1.02,-3.83 1.15,-0.77 2.37,-1.39 3.65,-1.87 1.28,-0.47 2.63,-0.71 4.06,-0.71 2.13,0 3.95,0.71 5.5,2.15 1.49,1.41 2.24,3.11 2.24,5.12 0,2.19 -0.77,4.22 -2.31,6.11 -0.74,0.91 -1.68,1.88 -2.82,2.92 -1.15,1.03 -2.52,2.22 -4.13,3.56l9.77 0 0 3.92c-2.75,0 -5.51,0 -8.25,0 -2.75,0 -5.5,0 -8.24,0l0 -3.72c1.46,-1.22 2.97,-2.49 4.54,-3.8 1.57,-1.31 3.01,-2.66 4.32,-4.05 1.83,-1.91 2.74,-3.56 2.74,-4.94 0,-0.89 -0.33,-1.68 -1,-2.35 -0.68,-0.67 -1.47,-1.01 -2.36,-1.01 -1.29,0 -2.48,0.25 -3.55,0.74 -1.07,0.5 -2.11,1.09 -3.14,1.76z"/>
  <path class="fil1" d="M30.27 12.9l-7.79 0 0 -3.74 15.85 0 -6.86 8.17c1.09,0.17 2.05,0.46 2.87,0.89 1.06,0.55 1.96,1.33 2.7,2.36 0.98,1.4 1.39,3.06 1.21,4.98 -0.16,1.93 -0.85,3.48 -2.07,4.67 -0.94,0.93 -2.04,1.62 -3.28,2.08 -1.14,0.42 -2.43,0.63 -3.85,0.63 -0.53,0 -1.15,-0.04 -1.83,-0.11 -0.69,-0.08 -1.39,-0.2 -2.09,-0.37 -1.28,-0.34 -2.29,-0.79 -3.05,-1.35l-0.18 -0.13 0.02 -4.39 0.67 0.43c0.95,0.62 1.83,1.08 2.64,1.37 0.92,0.31 1.94,0.48 3.04,0.53 1.19,0.05 2.26,-0.12 3.2,-0.5 0.88,-0.39 1.53,-0.94 1.97,-1.65 0.24,-0.38 0.4,-0.84 0.48,-1.4 0.07,-0.54 0.04,-1.05 -0.07,-1.52 -0.06,-0.21 -0.12,-0.38 -0.18,-0.51 -0.45,-1.08 -1.36,-1.83 -2.71,-2.23 -1.23,-0.36 -2.53,-0.37 -3.9,-0.02 -0.36,0.1 -0.65,0.2 -0.88,0.31l-0.59 0.26 -0.02 -3.17 4.7 -5.59z"/>
 </g>
</svg>
