<?xml version="1.0" encoding="UTF-8"?>
<!DOCTYPE svg PUBLIC "-//W3C//DTD SVG 1.1//EN" "http://www.w3.org/Graphics/SVG/1.1/DTD/svg11.dtd">
<!-- Creator: CorelDRAW 2019 (64-Bit) -->
<svg xmlns="http://www.w3.org/2000/svg" xml:space="preserve" width="785px" height="520px" version="1.1" style="shape-rendering:geometricPrecision; text-rendering:geometricPrecision; image-rendering:optimizeQuality; fill-rule:evenodd; clip-rule:evenodd"
viewBox="0 0 92.55 61.33"
 xmlns:xlink="http://www.w3.org/1999/xlink">
 <defs>
  <style type="text/css">
   <![CDATA[
    .fil0 {fill:#BB8162}
    .fil1 {fill:#FEFEFE;fill-rule:nonzero}
   ]]>
  </style>
 </defs>
 <g id="Layer_x0020_1">
  <metadata id="CorelCorpID_0Corel-Layer"/>
  <g id="_2611287602768">
   <path class="fil0" d="M10.39 0l71.77 0c5.72,0 10.39,4.68 10.39,10.39l0 40.55c0,5.71 -4.67,10.39 -10.39,10.39l-71.77 0c-5.71,0 -10.39,-4.67 -10.39,-10.39l0 -40.55c0,-5.72 4.67,-10.39 10.39,-10.39z"/>
   <path class="fil1" d="M4.29 49.29l0 -5.08c6.27,-5.27 10.95,-9.41 14.01,-12.42 3.07,-3 4.61,-5.78 4.61,-8.34 0,-1.59 -0.6,-2.99 -1.82,-4.2 -1.2,-1.22 -2.62,-1.82 -4.2,-1.82 -2.6,0 -4.88,0.54 -6.88,1.64 -1.99,1.1 -3.13,1.76 -3.43,2 -0.23,-0.84 -0.47,-1.65 -0.7,-2.44 -0.23,-0.8 -0.45,-1.63 -0.64,-2.5 0.23,-0.14 1.45,-0.8 3.66,-2 2.2,-1.19 4.87,-1.8 7.99,-1.8 3.05,0 5.78,1.03 8.2,3.09 2.43,2.05 3.63,4.73 3.63,8.02 0,3.52 -1.19,6.64 -3.58,9.38 -2.38,2.73 -6.5,6.53 -12.33,11.38l16.71 0 0 5.09 -25.23 0z"/>
   <path id="1" class="fil1" d="M38.66 27.64l8.31 -9.95 -13.34 0 0 -4.64 23.35 0 -10.95 13c4.32,0.36 7.59,2.05 9.81,5.08 1.49,2.12 2.09,4.66 1.81,7.62 -0.28,2.96 -1.31,5.31 -3.11,7.07 -0.73,0.67 -1.27,1.13 -1.64,1.4 -2.59,1.83 -5.71,2.74 -9.36,2.74 -2.32,0 -4.37,-0.23 -6.13,-0.7 -0.73,-0.2 -1.47,-0.44 -2.2,-0.73 -0.75,-0.28 -1.42,-0.62 -2.03,-1.02 -0.29,-0.07 -0.44,-0.19 -0.44,-0.35 0,-0.4 0,-1.34 0,-2.82 0,-1.48 0,-2.35 0,-2.62 1.49,1 2.96,1.75 4.4,2.27 1.45,0.51 3.15,0.82 5.11,0.92 1.72,0.1 3.42,-0.14 5.1,-0.72 1.68,-0.58 2.96,-1.62 3.86,-3.11 0.96,-1.53 1.21,-3.27 0.74,-5.23 -0.26,-0.89 -0.64,-1.65 -1.14,-2.27 -0.5,-0.61 -1.03,-1.13 -1.59,-1.56 -1,-0.73 -2.21,-1.19 -3.64,-1.37 -1.43,-0.19 -2.79,-0.18 -4.08,0.03 -1.09,0.12 -2.04,0.38 -2.84,0.75l0 -3.79z"/>
   <path id="2" class="fil1" d="M59.18 49.29l12.34 -36.24 5.18 0 12.35 36.24 -5.18 0 -3.24 -9.48 -13.04 0 -3.24 9.48 -5.17 0zm19.81 -14.37l-4.88 -14.24 -4.87 14.24 9.75 0z"/>
  </g>
 </g>
</svg>
