<?xml version="1.0" encoding="UTF-8"?>
<!DOCTYPE svg PUBLIC "-//W3C//DTD SVG 1.1//EN" "http://www.w3.org/Graphics/SVG/1.1/DTD/svg11.dtd">
<!-- Creator: CorelDRAW 2019 (64-Bit) -->
<svg xmlns="http://www.w3.org/2000/svg" xml:space="preserve" width="520px" height="520px" version="1.1" style="shape-rendering:geometricPrecision; text-rendering:geometricPrecision; image-rendering:optimizeQuality; fill-rule:evenodd; clip-rule:evenodd"
viewBox="0 0 69.72 69.72"
 xmlns:xlink="http://www.w3.org/1999/xlink">
 <defs>
  <style type="text/css">
   <![CDATA[
    .fil1 {fill:#FEFEFE}
    .fil0 {fill:#BD8260}
   ]]>
  </style>
 </defs>
 <g id="Layer_x0020_1">
  <metadata id="CorelCorpID_0Corel-Layer"/>
  <g id="_2527051086352">
   <rect class="fil0" width="69.72" height="69.72" rx="11.81" ry="11.81"/>
   <path class="fil1" d="M7.38 23.73c0.77,-0.54 5.91,-4.14 11.8,-4.14 3.65,0 6.85,3.17 6.85,6.85 0,5.8 -6.85,11.62 -21.23,23.69l0 5.79 28.77 0 0 -5.79 -19.09 0c13.39,-11.06 18.18,-15.67 18.18,-23.69 0,-7.45 -6.54,-12.64 -13.48,-12.64 -7.1,0 -12.75,3.95 -13.3,4.34 0.52,1.93 1,3.69 1.5,5.59z"/>
   <path class="fil1" d="M37.95 19.9l15.23 0 -9.54 11.37 0.01 4.3c1.18,-0.5 1.83,-0.65 3.24,-0.84 2.96,-0.46 6.53,-0.19 8.82,1.54 1.3,0.98 2.55,2.24 3.1,4.35 0.54,2.04 0.14,4.44 -0.81,6 -2.05,3.34 -6.27,4.51 -10.24,4.33 -4.44,-0.21 -7.4,-1.34 -10.86,-3.62 -0.06,0.55 -0.02,5.24 -0.02,6.19 0,0.21 0.34,0.32 0.52,0.43 1.41,0.86 3.21,1.53 4.82,1.97 2.19,0.6 4.66,0.85 7.02,0.85 4.41,0 7.77,-1.15 10.68,-3.22 0.67,-0.47 1.32,-1.05 1.86,-1.57 4.16,-4.01 4.87,-11.91 1.45,-16.71 -2.51,-3.53 -6.2,-5.42 -11.13,-5.8l12.46 -14.85 -26.61 0 0 5.28z"/>
  </g>
 </g>
</svg>
