<?xml version="1.0" encoding="UTF-8"?>
<!DOCTYPE svg PUBLIC "-//W3C//DTD SVG 1.1//EN" "http://www.w3.org/Graphics/SVG/1.1/DTD/svg11.dtd">
<!-- Creator: CorelDRAW 2021.5 -->
<svg xmlns="http://www.w3.org/2000/svg" xml:space="preserve" width="520px" height="520px" version="1.1" style="shape-rendering:geometricPrecision; text-rendering:geometricPrecision; image-rendering:optimizeQuality; fill-rule:evenodd; clip-rule:evenodd"
viewBox="0 0 50.98 50.98"
 xmlns:xlink="http://www.w3.org/1999/xlink"
 xmlns:xodm="http://www.corel.com/coreldraw/odm/2003">
 <defs>
  <style type="text/css">
   <![CDATA[
    .fil0 {fill:#E5E248}
    .fil1 {fill:black;fill-rule:nonzero}
   ]]>
  </style>
 </defs>
 <g id="Layer_x0020_1">
  <metadata id="CorelCorpID_0Corel-Layer"/>
  <rect class="fil0" width="50.98" height="50.98" rx="8.64" ry="8.64"/>
  <path class="fil1" d="M6.43 18.84c-0.49,-1.84 -0.92,-3.43 -1.28,-4.77 1.44,-0.96 2.95,-1.73 4.56,-2.33 1.59,-0.59 3.27,-0.89 5.04,-0.89 2.65,0 4.93,0.89 6.85,2.68 1.86,1.76 2.79,3.88 2.79,6.38 0,2.72 -0.96,5.25 -2.87,7.61 -0.92,1.13 -2.09,2.34 -3.52,3.63 -1.42,1.29 -3.13,2.77 -5.14,4.43l12.17 0 0 4.89c-3.43,0 -6.86,0 -10.28,0 -3.42,0 -6.84,0 -10.26,0l0 -4.63c1.83,-1.53 3.71,-3.11 5.66,-4.74 1.95,-1.63 3.74,-3.31 5.38,-5.04 2.28,-2.38 3.41,-4.43 3.41,-6.15 0,-1.11 -0.41,-2.09 -1.25,-2.93 -0.84,-0.83 -1.82,-1.26 -2.94,-1.26 -1.6,0 -3.08,0.32 -4.41,0.93 -1.33,0.62 -2.63,1.35 -3.91,2.19z"/>
  <path class="fil1" d="M39.41 40.47l0 -7.36 -13.07 0 0 -4.42 13.31 -17.28 5.03 0 0 16.97 2.87 0 0 4.73 -2.87 0 0 7.36 -5.27 0zm0 -12.09l0 -9.22 -7.3 9.22 7.3 0z"/>
 </g>
</svg>
