<?xml version="1.0" encoding="UTF-8"?>
<!DOCTYPE svg PUBLIC "-//W3C//DTD SVG 1.1//EN" "http://www.w3.org/Graphics/SVG/1.1/DTD/svg11.dtd">
<!-- Creator: CorelDRAW 2019 (64-Bit) -->
<svg xmlns="http://www.w3.org/2000/svg" xml:space="preserve" width="520px" height="520px" version="1.1" style="shape-rendering:geometricPrecision; text-rendering:geometricPrecision; image-rendering:optimizeQuality; fill-rule:evenodd; clip-rule:evenodd"
viewBox="0 0 104.87 104.87"
 xmlns:xlink="http://www.w3.org/1999/xlink">
 <defs>
  <style type="text/css">
   <![CDATA[
    .fil1 {fill:#2B2A29}
    .fil0 {fill:#E5E248}
   ]]>
  </style>
 </defs>
 <g id="Layer_x0020_1">
  <metadata id="CorelCorpID_0Corel-Layer"/>
  <g id="_2527370161696">
   <rect class="fil0" width="104.87" height="104.87" rx="17.77" ry="17.77"/>
   <path class="fil1" d="M11.78 35.12c1.16,-0.81 8.89,-6.22 17.75,-6.22 5.48,0 10.3,4.76 10.3,10.29 0,8.74 -10.3,17.49 -31.93,35.64l0 8.72 43.27 0 0 -8.71 -28.71 -0.01c20.13,-16.63 27.34,-23.57 27.34,-35.64 0,-11.2 -9.84,-19 -20.27,-19 -10.69,0 -19.18,5.94 -20.01,6.52 0.78,2.92 1.5,5.56 2.26,8.41z"/>
   <path class="fil1" d="M83.24 34.5l0 24.41 -19.29 -0.02 19.29 -24.39zm-28.88 24.39l0 8.38 28.88 0 0 16.28 9.6 0 0 -16.28 6.34 0 0 -8.36 -6.34 0 0 -37.58 -9.58 -0.01 -28.9 37.57z"/>
  </g>
 </g>
</svg>
