<?xml version="1.0" encoding="UTF-8"?>
<!DOCTYPE svg PUBLIC "-//W3C//DTD SVG 1.1//EN" "http://www.w3.org/Graphics/SVG/1.1/DTD/svg11.dtd">
<!-- Creator: CorelDRAW 2019 (64-Bit) -->
<svg xmlns="http://www.w3.org/2000/svg" xml:space="preserve" width="520px" height="520px" version="1.1" style="shape-rendering:geometricPrecision; text-rendering:geometricPrecision; image-rendering:optimizeQuality; fill-rule:evenodd; clip-rule:evenodd"
viewBox="0 0 211.53 211.53"
 xmlns:xlink="http://www.w3.org/1999/xlink">
 <defs>
  <style type="text/css">
   <![CDATA[
    .fil1 {fill:#FEFEFE}
    .fil0 {fill:#E85222}
   ]]>
  </style>
 </defs>
 <g id="Layer_x0020_1">
  <metadata id="CorelCorpID_0Corel-Layer"/>
  <g id="_2527362043488">
   <rect class="fil0" width="211.53" height="211.53" rx="35.83" ry="35.83"/>
   <path class="fil1" d="M139.34 61.57l50.22 0 0 -17.22 -64.48 0.06 -8.27 65.37c3.14,-0.86 6.07,-1.91 9.4,-2.73 9.92,-2.45 22.43,-3.77 32.2,-1.22 11.86,3.09 22.18,12.74 19.67,27.83 -2.18,13.2 -15.36,19.66 -27.6,20.8 -14.36,1.34 -28.5,-3.2 -38.54,-9.27l0 18.49c0.73,0.25 1.88,0.92 2.59,1.29 2.57,1.31 5.21,2.38 7.93,3.36 11.66,4.2 28.21,5.01 40.04,2.28 15.03,-3.48 28.05,-12.3 33.6,-27.17 2.87,-7.68 2.89,-18.54 0.48,-26.49 -2.51,-8.28 -7.48,-14 -12.37,-17.93 -10.05,-8.08 -21.67,-10.86 -35.17,-10.48 -2.26,0.06 -4.67,0.22 -6.9,0.59 -2.23,0.37 -4.31,0.92 -6.47,1.25l3.67 -28.81z"/>
   <path class="fil1" d="M23.71 71.95c2.33,-1.64 17.93,-12.56 35.8,-12.56 11.05,0 20.78,9.61 20.78,20.77 0,17.61 -20.78,35.26 -64.42,71.88l0 17.58 87.28 0 0 -17.57 -57.91 -0.01c40.61,-33.54 55.14,-47.54 55.14,-71.88 0,-22.61 -19.84,-38.35 -40.87,-38.35 -21.57,0 -38.69,12 -40.37,13.17 1.58,5.88 3.03,11.21 4.57,16.97z"/>
  </g>
 </g>
</svg>
