<?xml version="1.0" encoding="UTF-8"?>
<!DOCTYPE svg PUBLIC "-//W3C//DTD SVG 1.1//EN" "http://www.w3.org/Graphics/SVG/1.1/DTD/svg11.dtd">
<!-- Creator: CorelDRAW 2021.5 -->
<svg xmlns="http://www.w3.org/2000/svg" xml:space="preserve" width="520px" height="520px" version="1.1" style="shape-rendering:geometricPrecision; text-rendering:geometricPrecision; image-rendering:optimizeQuality; fill-rule:evenodd; clip-rule:evenodd"
viewBox="0 0 67.53 67.53"
 xmlns:xlink="http://www.w3.org/1999/xlink"
 xmlns:xodm="http://www.corel.com/coreldraw/odm/2003">
 <defs>
  <style type="text/css">
   <![CDATA[
    .fil0 {fill:#E85222}
    .fil1 {fill:white;fill-rule:nonzero}
   ]]>
  </style>
 </defs>
 <g id="Layer_x0020_1">
  <metadata id="CorelCorpID_0Corel-Layer"/>
  <rect class="fil0" width="67.53" height="67.53" rx="11.44" ry="11.44"/>
  <path class="fil1" d="M9.06 24.95c-0.65,-2.43 -1.21,-4.54 -1.68,-6.32 1.9,-1.27 3.9,-2.29 6.03,-3.07 2.11,-0.79 4.34,-1.18 6.68,-1.18 3.51,0 6.53,1.18 9.07,3.54 2.46,2.33 3.7,5.15 3.7,8.46 0,3.6 -1.27,6.95 -3.81,10.08 -1.22,1.49 -2.77,3.09 -4.65,4.81 -1.89,1.7 -4.15,3.66 -6.82,5.86l16.13 0 0 6.48c-4.55,0 -9.09,0 -13.62,0 -4.53,0 -9.06,0 -13.59,0l0 -6.14c2.42,-2.02 4.91,-4.11 7.5,-6.28 2.58,-2.15 4.95,-4.37 7.12,-6.66 3.01,-3.16 4.52,-5.88 4.52,-8.15 0,-1.48 -0.55,-2.77 -1.66,-3.88 -1.11,-1.11 -2.41,-1.67 -3.89,-1.67 -2.13,0 -4.08,0.41 -5.85,1.22 -1.76,0.83 -3.48,1.79 -5.18,2.9z"/>
  <path class="fil1" d="M46.07 21.46l-0.89 7.19c1.11,-0.22 2.18,-0.36 3.22,-0.4 2.11,-0.06 4.05,0.14 5.8,0.62 3.11,0.91 5.55,2.55 7.29,4.92 1.51,2.09 2.24,4.62 2.19,7.58 -0.06,3.88 -1.6,7.03 -4.59,9.43 -1.81,1.44 -3.81,2.41 -6.03,2.9 -2.22,0.51 -4.45,0.71 -6.69,0.6 -2.24,-0.15 -4.26,-0.52 -6.05,-1.14 -1.18,-0.41 -2.37,-0.9 -3.55,-1.51l0 -7.03c1.89,1.15 3.79,2.02 5.72,2.63 1.93,0.61 4.04,0.81 6.31,0.59 1.66,-0.15 3.27,-0.68 4.84,-1.57 1.57,-0.91 2.51,-2.26 2.8,-4.08 0.32,-1.91 -0.05,-3.52 -1.11,-4.87 -1.05,-1.33 -2.49,-2.24 -4.28,-2.71 -1.43,-0.37 -2.98,-0.5 -4.66,-0.36 -1.67,0.13 -3.2,0.37 -4.59,0.73 -0.63,0.15 -1.24,0.32 -1.85,0.51 -0.63,0.18 -1.23,0.35 -1.83,0.52l2.64 -20.89 20.33 0 0 6.34 -15.02 0z"/>
 </g>
</svg>
