<?xml version="1.0" encoding="UTF-8"?>
<!DOCTYPE svg PUBLIC "-//W3C//DTD SVG 1.1//EN" "http://www.w3.org/Graphics/SVG/1.1/DTD/svg11.dtd">
<!-- Creator: CorelDRAW 2021.5 -->
<svg xmlns="http://www.w3.org/2000/svg" xml:space="preserve" width="520px" height="520px" version="1.1" style="shape-rendering:geometricPrecision; text-rendering:geometricPrecision; image-rendering:optimizeQuality; fill-rule:evenodd; clip-rule:evenodd"
viewBox="0 0 99.99 99.99"
 xmlns:xlink="http://www.w3.org/1999/xlink"
 xmlns:xodm="http://www.corel.com/coreldraw/odm/2003">
 <defs>
  <style type="text/css">
   <![CDATA[
    .fil0 {fill:#B0CB1F}
    .fil1 {fill:black;fill-rule:nonzero}
   ]]>
  </style>
 </defs>
 <g id="Layer_x0020_1">
  <metadata id="CorelCorpID_0Corel-Layer"/>
  <rect class="fil0" width="99.99" height="99.99" rx="16.94" ry="16.94"/>
  <path class="fil1" d="M14.22 36.95c-0.97,-3.6 -1.81,-6.72 -2.5,-9.36 2.82,-1.88 5.78,-3.39 8.92,-4.55 3.13,-1.17 6.43,-1.75 9.9,-1.75 5.2,0 9.66,1.75 13.43,5.25 3.65,3.44 5.48,7.61 5.48,12.52 0,5.33 -1.88,10.3 -5.64,14.92 -1.8,2.22 -4.1,4.59 -6.89,7.13 -2.8,2.52 -6.15,5.42 -10.09,8.68l23.88 0 0 9.59c-6.74,0 -13.46,0 -20.17,0 -6.7,0 -13.41,0 -20.12,0l0 -9.08c3.58,-3 7.27,-6.09 11.1,-9.3 3.83,-3.2 7.34,-6.48 10.55,-9.88 4.46,-4.67 6.69,-8.7 6.69,-12.06 0,-2.19 -0.81,-4.1 -2.46,-5.75 -1.64,-1.64 -3.56,-2.47 -5.76,-2.47 -3.15,0 -6.04,0.61 -8.65,1.82 -2.61,1.21 -5.16,2.64 -7.67,4.29z"/>
  <path class="fil1" d="M79.01 31.94l-25.18 0 0 -9.56 40.72 0c-4.22,9.5 -8.45,19.02 -12.64,28.53 -4.21,9.51 -8.41,19 -12.62,28.47l-11.26 -0.04 20.98 -47.4z"/>
 </g>
</svg>
