<?xml version="1.0" encoding="UTF-8"?>
<!DOCTYPE svg PUBLIC "-//W3C//DTD SVG 1.1//EN" "http://www.w3.org/Graphics/SVG/1.1/DTD/svg11.dtd">
<!-- Creator: CorelDRAW 2019 (64-Bit) -->
<svg xmlns="http://www.w3.org/2000/svg" xml:space="preserve" width="520px" height="520px" version="1.1" style="shape-rendering:geometricPrecision; text-rendering:geometricPrecision; image-rendering:optimizeQuality; fill-rule:evenodd; clip-rule:evenodd"
viewBox="0 0 12432.87 12432.87"
 xmlns:xlink="http://www.w3.org/1999/xlink">
 <defs>
  <style type="text/css">
   <![CDATA[
    .fil1 {fill:#2B2A29}
    .fil0 {fill:#B0CB1F}
   ]]>
  </style>
 </defs>
 <g id="Layer_x0020_1">
  <metadata id="CorelCorpID_0Corel-Layer"/>
  <g id="_2527260422736">
   <rect class="fil0" x="-0.13" y="-0.14" width="12432.87" height="12432.87" rx="2106.15" ry="2106.15"/>
   <polygon class="fil1" points="6552.76,3683.43 9979.83,3683.43 7175.47,10024.17 8419.95,10028.41 11683.07,2650.38 6552.76,2650.38 "/>
   <path class="fil1" d="M1441.09 4231.63c137.05,-95.99 1053.9,-737.95 2104.3,-737.95 649.45,0 1221.22,564.79 1221.22,1220.51 0,1035.57 -1221.22,2072.8 -3786.35,4225.22l0 1033.05 5130.29 0 0 -1032.88 -3403.65 -0.17c2386.79,-1971.69 3240.89,-2794.64 3240.89,-4225.25 0,-1328.4 -1166.26,-2253.53 -2402.4,-2253.53 -1267.5,0 -2274.1,704.81 -2372.49,773.7 92.6,345.54 177.85,658.92 268.19,997.3z"/>
  </g>
 </g>
</svg>
