<?xml version="1.0" encoding="UTF-8"?>
<!DOCTYPE svg PUBLIC "-//W3C//DTD SVG 1.1//EN" "http://www.w3.org/Graphics/SVG/1.1/DTD/svg11.dtd">
<!-- Creator: CorelDRAW 2019 (64-Bit) -->
<svg xmlns="http://www.w3.org/2000/svg" xml:space="preserve" width="520px" height="520px" version="1.1" style="shape-rendering:geometricPrecision; text-rendering:geometricPrecision; image-rendering:optimizeQuality; fill-rule:evenodd; clip-rule:evenodd"
viewBox="0 0 52.22 52.22"
 xmlns:xlink="http://www.w3.org/1999/xlink">
 <defs>
  <style type="text/css">
   <![CDATA[
    .fil1 {fill:#FEFEFE}
    .fil0 {fill:#323C8D}
   ]]>
  </style>
 </defs>
 <g id="Layer_x0020_1">
  <metadata id="CorelCorpID_0Corel-Layer"/>
  <g id="_2527397748976">
   <rect class="fil0" width="52.22" height="52.22" rx="8.85" ry="8.85"/>
   <path class="fil1" d="M38.15 26.65c-1.97,0.21 -4.03,-0.46 -5.37,-1.81 -0.44,-0.45 -0.72,-0.77 -1.02,-1.37 -0.81,-1.59 -0.83,-3.66 -0.19,-5.32 0.15,-0.37 0.36,-0.75 0.56,-1.04 0.11,-0.17 0.21,-0.3 0.33,-0.46 0.13,-0.18 0.24,-0.26 0.38,-0.42 1.08,-1.23 2.77,-1.83 4.47,-1.89 3.79,-0.13 6.28,2.43 6.89,5.94 0.22,1.32 0.32,1.47 -0.25,2.58 -0.46,0.89 -1.15,1.63 -1.83,2.16 -1.24,0.95 -2.33,1.45 -3.97,1.63zm6.11 0.5c-0.08,2.89 -1.05,5.7 -2.77,7.78 -1.82,2.21 -4.74,3.09 -7.71,2.76 -1.58,-0.18 -3.31,-0.69 -4.64,-1.55 -0.17,-0.11 -0.37,-0.24 -0.53,-0.33l-0.02 4.43 1.19 0.66c0.38,0.21 0.89,0.43 1.3,0.56 4.07,1.3 8.48,0.87 11.89,-1.65 0.49,-0.35 1.06,-0.88 1.47,-1.31 0.4,-0.43 0.94,-1.08 1.27,-1.56 0.9,-1.31 1.33,-2.11 1.99,-3.64 1.5,-3.51 1.99,-8.94 1.2,-13.02 -0.42,-2.16 -1.07,-3.82 -2.1,-5.39 -0.58,-0.88 -1.37,-1.78 -2.2,-2.45 -0.18,-0.14 -0.33,-0.26 -0.52,-0.4 -0.36,-0.26 -0.75,-0.48 -1.18,-0.72 -1.74,-0.97 -4.18,-1.34 -6.21,-1.27 -2.19,0.06 -4.22,0.73 -5.73,1.73 -2.77,1.84 -5.12,5.17 -4.6,10.23 0.21,2.12 0.92,3.75 2.21,5.27 2.66,3.15 7.11,4 11.17,2.89 0.97,-0.27 1.85,-0.72 2.57,-1.2 0.61,-0.4 1,-0.8 1.49,-1.29 0.15,-0.14 0.31,-0.41 0.46,-0.53z"/>
   <path class="fil1" d="M4.68 17.48c0.58,-0.41 4.43,-3.1 8.84,-3.1 2.73,0 5.13,2.37 5.13,5.12 0,4.35 -5.13,8.71 -15.9,17.75l0 4.34 21.54 0 0 -4.34 -14.29 0c10.02,-8.28 13.61,-11.74 13.61,-17.75 0,-5.58 -4.9,-9.46 -10.09,-9.46 -5.32,0 -9.55,2.96 -9.97,3.25 0.39,1.45 0.75,2.77 1.13,4.19z"/>
  </g>
 </g>
</svg>
