<?xml version="1.0" encoding="UTF-8"?>
<!DOCTYPE svg PUBLIC "-//W3C//DTD SVG 1.1//EN" "http://www.w3.org/Graphics/SVG/1.1/DTD/svg11.dtd">
<!-- Creator: CorelDRAW 2021.5 -->
<svg xmlns="http://www.w3.org/2000/svg" xml:space="preserve" width="520px" height="520px" version="1.1" style="shape-rendering:geometricPrecision; text-rendering:geometricPrecision; image-rendering:optimizeQuality; fill-rule:evenodd; clip-rule:evenodd"
viewBox="0 0 192.57 192.57"
 xmlns:xlink="http://www.w3.org/1999/xlink"
 xmlns:xodm="http://www.corel.com/coreldraw/odm/2003">
 <defs>
  <style type="text/css">
   <![CDATA[
    .fil0 {fill:#323C8D}
    .fil1 {fill:white;fill-rule:nonzero}
   ]]>
  </style>
 </defs>
 <g id="Layer_x0020_1">
  <metadata id="CorelCorpID_0Corel-Layer"/>
  <rect class="fil0" width="192.57" height="192.57" rx="32.62" ry="32.62"/>
  <path class="fil1" d="M23.66 71.15c-1.85,-6.92 -3.47,-12.94 -4.81,-18.01 5.43,-3.63 11.14,-6.54 17.19,-8.78 6.02,-2.23 12.38,-3.37 19.07,-3.37 10.01,0 18.6,3.37 25.86,10.12 7.03,6.64 10.55,14.66 10.55,24.11 0,10.27 -3.63,19.84 -10.86,28.74 -3.47,4.27 -7.9,8.83 -13.28,13.72 -5.37,4.86 -11.83,10.45 -19.43,16.72l45.99 0 0 18.48c-12.97,0 -25.91,0 -38.83,0 -12.92,0 -25.84,0 -38.76,0l0 -17.5c6.9,-5.76 14,-11.73 21.39,-17.91 7.36,-6.15 14.13,-12.48 20.3,-19.02 8.6,-9 12.89,-16.75 12.89,-23.23 0,-4.22 -1.57,-7.9 -4.73,-11.07 -3.17,-3.16 -6.87,-4.76 -11.09,-4.76 -6.08,0 -11.63,1.19 -16.68,3.5 -5.01,2.34 -9.93,5.1 -14.77,8.26z"/>
  <path class="fil1" d="M160.32 115.49c0.95,-2.91 1.67,-5.94 2.19,-9.06 -3.84,3.48 -8.16,5.87 -12.97,7.18 -7.9,2.16 -15.42,2.27 -22.54,0.36 -7.24,-1.8 -13.15,-5.4 -17.73,-10.78 -4.56,-5.38 -7.24,-11.76 -7.98,-19.15 -0.72,-7.79 0.31,-14.82 3.09,-21.1 3.01,-6.79 7.61,-12.06 13.84,-15.87 6.2,-3.79 13,-5.82 20.38,-6.08 6.18,-0.15 12.1,0.75 17.71,2.68 5.63,1.93 10.6,5.25 14.87,9.93 5.51,6.23 9.24,14.21 11.14,23.96 1.37,7.44 1.67,15.34 0.9,23.67 -0.85,8.7 -2.55,16.09 -5.12,22.16 -1.9,4.38 -4.22,8.62 -6.97,12.71 -2.73,4.09 -6.05,7.59 -9.91,10.45 -5.84,4.22 -12.45,6.84 -19.89,7.93 -7.46,1.03 -14.98,0.36 -22.54,-2.06 -1.78,-0.49 -3.45,-1.19 -5.07,-2.11 -1.6,-0.9 -3.19,-1.8 -4.74,-2.7l0.08 -19.15c3.76,1.96 6.9,3.6 9.37,4.94 2.49,1.31 5.94,2.21 10.37,2.68 5.17,0.54 9.96,0.05 14.33,-1.52 4.37,-1.57 7.93,-4.04 10.7,-7.46 2.76,-3.43 4.92,-7.29 6.49,-11.61zm-16.88 -17.42c4.5,-0.44 8.75,-2.19 12.74,-5.2 2.49,-1.9 4.42,-4.19 5.79,-6.87 0.77,-1.44 1.16,-2.55 1.21,-3.27 0.05,-0.72 -0.05,-1.88 -0.31,-3.42 -1.21,-6.69 -3.79,-11.79 -7.75,-15.31 -3.88,-3.37 -8.64,-4.97 -14.33,-4.76 -5.95,0.2 -10.73,2.24 -14.41,6.12 -3.66,3.86 -5.41,8.7 -5.2,14.54 0.21,5.07 1.93,9.21 5.2,12.43 4.58,4.58 10.27,6.49 17.06,5.74z"/>
 </g>
</svg>
