<?xml version="1.0" encoding="UTF-8"?>
<!DOCTYPE svg PUBLIC "-//W3C//DTD SVG 1.1//EN" "http://www.w3.org/Graphics/SVG/1.1/DTD/svg11.dtd">
<!-- Creator: CorelDRAW 2019 (64-Bit) -->
<svg xmlns="http://www.w3.org/2000/svg" xml:space="preserve" width="589px" height="589px" version="1.1" style="shape-rendering:geometricPrecision; text-rendering:geometricPrecision; image-rendering:optimizeQuality; fill-rule:evenodd; clip-rule:evenodd"
viewBox="0 0 131.34 131.34"
 xmlns:xlink="http://www.w3.org/1999/xlink">
 <defs>
  <style type="text/css">
   <![CDATA[
    .fil1 {fill:#FEFEFE}
    .fil0 {fill:#50B056}
   ]]>
  </style>
 </defs>
 <g id="Layer_x0020_1">
  <metadata id="CorelCorpID_0Corel-Layer"/>
  <g id="_2527106114464">
   <rect class="fil0" transform="matrix(5.86819 -5.86818 5.86819 5.86818 -7.25947 65.6677)" width="12.43" height="12.43" rx="2.11" ry="2.11"/>
   <path class="fil1" d="M46.97 41.75l24.11 0 -15.1 18 0.02 6.82c1.86,-0.79 2.89,-1.04 5.13,-1.33 4.68,-0.73 10.33,-0.31 13.96,2.43 2.06,1.55 4.04,3.56 4.92,6.9 0.84,3.22 0.21,7.02 -1.3,9.48 -3.25,5.3 -9.92,7.16 -16.21,6.86 -7.03,-0.32 -11.71,-2.12 -17.19,-5.72 -0.09,0.86 -0.03,8.3 -0.03,9.79 0,0.34 0.54,0.51 0.82,0.68 2.23,1.37 5.08,2.43 7.64,3.13 3.45,0.95 7.36,1.34 11.11,1.34 6.98,0 12.3,-1.82 16.91,-5.09 1.06,-0.76 2.08,-1.67 2.93,-2.49 6.6,-6.34 7.72,-18.87 2.31,-26.46 -3.98,-5.59 -9.83,-8.58 -17.63,-9.18l19.73 -23.52 -42.13 0 0 8.36z"/>
  </g>
 </g>
</svg>
