<?xml version="1.0" encoding="UTF-8"?>
<!DOCTYPE svg PUBLIC "-//W3C//DTD SVG 1.1//EN" "http://www.w3.org/Graphics/SVG/1.1/DTD/svg11.dtd">
<!-- Creator: CorelDRAW 2021.5 -->
<svg xmlns="http://www.w3.org/2000/svg" xml:space="preserve" width="590px" height="590px" version="1.1" style="shape-rendering:geometricPrecision; text-rendering:geometricPrecision; image-rendering:optimizeQuality; fill-rule:evenodd; clip-rule:evenodd"
viewBox="0 0 65.7 65.7"
 xmlns:xlink="http://www.w3.org/1999/xlink"
 xmlns:xodm="http://www.corel.com/coreldraw/odm/2003">
 <defs>
  <style type="text/css">
   <![CDATA[
    .fil0 {fill:#50B056}
    .fil1 {fill:#FEFEFE;fill-rule:nonzero}
   ]]>
  </style>
 </defs>
 <g id="Layer_x0020_1">
  <metadata id="CorelCorpID_0Corel-Layer"/>
  <rect class="fil0" transform="matrix(2.34728 -2.34727 2.34728 2.34727 -3.63153 32.8494)" width="15.54" height="15.54" rx="2.63" ry="2.63"/>
  <path class="fil1" d="M34.35 22.28l-11.03 0 0 -5.29 22.43 0 -9.7 11.55c1.54,0.24 2.89,0.66 4.05,1.27 1.5,0.77 2.77,1.88 3.82,3.33 1.38,1.98 1.97,4.33 1.72,7.05 -0.23,2.72 -1.2,4.92 -2.93,6.6 -1.34,1.32 -2.89,2.3 -4.64,2.95 -1.62,0.59 -3.44,0.88 -5.44,0.88 -0.76,0 -1.63,-0.05 -2.6,-0.15 -0.98,-0.11 -1.96,-0.29 -2.96,-0.53 -1.8,-0.48 -3.24,-1.11 -4.31,-1.9l-0.25 -0.18 0.02 -6.22 0.96 0.61c1.34,0.88 2.59,1.52 3.73,1.93 1.3,0.44 2.74,0.69 4.29,0.75 1.7,0.07 3.21,-0.16 4.54,-0.7 1.24,-0.54 2.16,-1.33 2.78,-2.34 0.34,-0.53 0.57,-1.18 0.69,-1.97 0.09,-0.77 0.05,-1.49 -0.11,-2.15 -0.08,-0.31 -0.17,-0.55 -0.26,-0.73 -0.63,-1.53 -1.91,-2.58 -3.83,-3.15 -1.73,-0.51 -3.58,-0.52 -5.51,-0.03 -0.51,0.14 -0.93,0.28 -1.25,0.44l-0.83 0.36 -0.03 -4.47 6.65 -7.91z"/>
 </g>
</svg>
