<?xml version="1.0" encoding="UTF-8"?>
<!DOCTYPE svg PUBLIC "-//W3C//DTD SVG 1.1//EN" "http://www.w3.org/Graphics/SVG/1.1/DTD/svg11.dtd">
<!-- Creator: CorelDRAW 2019 (64-Bit) -->
<svg xmlns="http://www.w3.org/2000/svg" xml:space="preserve" width="520px" height="520px" version="1.1" style="shape-rendering:geometricPrecision; text-rendering:geometricPrecision; image-rendering:optimizeQuality; fill-rule:evenodd; clip-rule:evenodd"
viewBox="0 0 69.72 69.72"
 xmlns:xlink="http://www.w3.org/1999/xlink">
 <defs>
  <style type="text/css">
   <![CDATA[
    .fil1 {fill:#2B2A29}
    .fil0 {fill:#EF88AA}
   ]]>
  </style>
 </defs>
 <g id="Layer_x0020_1">
  <metadata id="CorelCorpID_0Corel-Layer"/>
  <g id="_2527103217888">
   <rect class="fil0" width="69.72" height="69.72" rx="11.81" ry="11.81"/>
   <path class="fil1" d="M50.5 13.41c10.27,0 15.37,9.6 15.37,21.45 0,11.85 -5.1,21.45 -15.37,21.45 -10.27,0 -15.38,-9.6 -15.38,-21.45 0,-11.85 5.11,-21.45 15.38,-21.45zm0 5.79c6.15,0 9,7.01 9,15.66 0,8.65 -2.85,15.66 -9,15.66 -6.16,0 -9,-7.01 -9,-15.66 0,-8.65 2.84,-15.66 9,-15.66z"/>
   <path class="fil1" d="M5.7 19.48l15.23 0 -9.53 11.37 0 4.3c1.18,-0.49 1.83,-0.65 3.24,-0.84 2.96,-0.46 6.53,-0.19 8.82,1.54 1.3,0.98 2.55,2.25 3.11,4.36 0.53,2.03 0.13,4.43 -0.82,5.99 -2.05,3.34 -6.27,4.52 -10.24,4.33 -4.44,-0.21 -7.39,-1.34 -10.85,-3.62 -0.06,0.55 -0.02,5.24 -0.02,6.19 0,0.21 0.34,0.32 0.51,0.43 1.41,0.87 3.21,1.53 4.83,1.97 2.18,0.6 4.65,0.85 7.01,0.85 4.41,0 7.77,-1.15 10.68,-3.21 0.68,-0.48 1.32,-1.06 1.86,-1.58 4.16,-4 4.87,-11.91 1.46,-16.71 -2.52,-3.53 -6.21,-5.42 -11.14,-5.8l12.46 -14.85 -26.61 0 0 5.28z"/>
  </g>
 </g>
</svg>
