<?xml version="1.0" encoding="UTF-8"?>
<!DOCTYPE svg PUBLIC "-//W3C//DTD SVG 1.1//EN" "http://www.w3.org/Graphics/SVG/1.1/DTD/svg11.dtd">
<!-- Creator: CorelDRAW 2021.5 -->
<svg xmlns="http://www.w3.org/2000/svg" xml:space="preserve" width="520px" height="520px" version="1.1" style="shape-rendering:geometricPrecision; text-rendering:geometricPrecision; image-rendering:optimizeQuality; fill-rule:evenodd; clip-rule:evenodd"
viewBox="0 0 34.21 34.21"
 xmlns:xlink="http://www.w3.org/1999/xlink"
 xmlns:xodm="http://www.corel.com/coreldraw/odm/2003">
 <defs>
  <style type="text/css">
   <![CDATA[
    .fil0 {fill:#EF88AA}
    .fil1 {fill:black;fill-rule:nonzero}
   ]]>
  </style>
 </defs>
 <g id="Layer_x0020_1">
  <metadata id="CorelCorpID_0Corel-Layer"/>
  <rect class="fil0" width="34.21" height="34.21" rx="5.8" ry="5.8"/>
  <path class="fil1" d="M9.7 10.7l-6.51 0 0 -3.12 13.24 0 -5.73 6.82c0.91,0.14 1.71,0.39 2.4,0.75 0.88,0.45 1.63,1.11 2.25,1.97 0.82,1.17 1.16,2.56 1.02,4.16 -0.14,1.61 -0.71,2.91 -1.73,3.9 -0.79,0.78 -1.71,1.36 -2.75,1.74 -0.95,0.35 -2.02,0.52 -3.21,0.52 -0.45,0 -0.96,-0.03 -1.53,-0.09 -0.58,-0.06 -1.16,-0.17 -1.75,-0.31 -1.07,-0.28 -1.91,-0.66 -2.55,-1.12l-0.14 -0.11 0.01 -3.67 0.56 0.36c0.8,0.52 1.53,0.9 2.21,1.14 0.77,0.26 1.61,0.41 2.53,0.44 1,0.05 1.9,-0.09 2.68,-0.41 0.73,-0.32 1.28,-0.78 1.65,-1.38 0.19,-0.31 0.33,-0.7 0.4,-1.17 0.05,-0.45 0.03,-0.88 -0.06,-1.27 -0.05,-0.18 -0.1,-0.32 -0.16,-0.43 -0.37,-0.9 -1.12,-1.52 -2.26,-1.86 -1.02,-0.3 -2.11,-0.31 -3.25,-0.01 -0.3,0.08 -0.55,0.16 -0.74,0.25l-0.49 0.22 -0.02 -2.64 3.93 -4.68z"/>
  <path class="fil1" d="M24.99 7.21c2.26,0 4.05,0.92 5.37,2.74 1.32,1.85 1.99,4.31 1.99,7.37 0,3.09 -0.67,5.54 -1.99,7.37 -1.32,1.83 -3.11,2.74 -5.37,2.74 -2.45,0 -4.29,-0.98 -5.51,-2.95 -1.22,-1.97 -1.83,-4.35 -1.83,-7.16 0,-3.06 0.67,-5.52 1.99,-7.37 1.31,-1.82 3.09,-2.74 5.35,-2.74zm2.75 5.01c-0.68,-1.16 -1.6,-1.74 -2.75,-1.74 -1.15,0 -2.06,0.58 -2.73,1.74 -0.7,1.23 -1.06,2.93 -1.06,5.1 0,2.19 0.36,3.89 1.06,5.11 0.68,1.17 1.59,1.75 2.73,1.75 1.14,0 2.06,-0.58 2.75,-1.75 0.71,-1.23 1.07,-2.94 1.07,-5.11 0,-2.15 -0.36,-3.85 -1.07,-5.1z"/>
 </g>
</svg>
