<?xml version="1.0" encoding="UTF-8"?>
<!DOCTYPE svg PUBLIC "-//W3C//DTD SVG 1.1//EN" "http://www.w3.org/Graphics/SVG/1.1/DTD/svg11.dtd">
<!-- Creator: CorelDRAW 2019 (64-Bit) -->
<svg xmlns="http://www.w3.org/2000/svg" xml:space="preserve" width="520px" height="520px" version="1.1" style="shape-rendering:geometricPrecision; text-rendering:geometricPrecision; image-rendering:optimizeQuality; fill-rule:evenodd; clip-rule:evenodd"
viewBox="0 0 105.03 105.03"
 xmlns:xlink="http://www.w3.org/1999/xlink">
 <defs>
  <style type="text/css">
   <![CDATA[
    .fil2 {fill:#FEFEFE}
    .fil0 {fill:#229038}
    .fil1 {fill:#FEFEFE;fill-rule:nonzero}
   ]]>
  </style>
 </defs>
 <g id="Layer_x0020_1">
  <metadata id="CorelCorpID_0Corel-Layer"/>
  <g id="_2527399434080">
   <rect class="fil0" width="105.03" height="105.03" rx="17.79" ry="17.79"/>
   <polygon class="fil1" points="76.59,83.67 86.19,83.67 86.19,21.36 62.97,34.76 62.97,44.36 76.59,36.51 "/>
   <path class="fil2" d="M16.71 29.31l22.94 0 -14.37 17.13 0.02 6.48c1.77,-0.75 2.75,-0.98 4.88,-1.26 4.46,-0.7 9.83,-0.29 13.29,2.31 1.96,1.48 3.84,3.39 4.68,6.57 0.8,3.06 0.2,6.68 -1.24,9.02 -3.09,5.05 -9.44,6.81 -15.43,6.53 -6.69,-0.31 -11.14,-2.02 -16.35,-5.45 -0.09,0.83 -0.03,7.9 -0.03,9.32 0,0.32 0.51,0.48 0.78,0.65 2.12,1.31 4.83,2.31 7.27,2.98 3.29,0.9 7.01,1.27 10.57,1.27 6.64,0 11.7,-1.73 16.09,-4.84 1.02,-0.72 1.98,-1.59 2.8,-2.37 6.27,-6.04 7.34,-17.95 2.19,-25.18 -3.79,-5.32 -9.35,-8.16 -16.77,-8.74l18.77 -22.37 -40.09 0 0 7.95z"/>
  </g>
 </g>
</svg>
