<?xml version="1.0" encoding="UTF-8"?>
<!DOCTYPE svg PUBLIC "-//W3C//DTD SVG 1.1//EN" "http://www.w3.org/Graphics/SVG/1.1/DTD/svg11.dtd">
<!-- Creator: CorelDRAW 2021.5 -->
<svg xmlns="http://www.w3.org/2000/svg" xml:space="preserve" width="520px" height="520px" version="1.1" style="shape-rendering:geometricPrecision; text-rendering:geometricPrecision; image-rendering:optimizeQuality; fill-rule:evenodd; clip-rule:evenodd"
viewBox="0 0 40.94 40.94"
 xmlns:xlink="http://www.w3.org/1999/xlink"
 xmlns:xodm="http://www.corel.com/coreldraw/odm/2003">
 <defs>
  <style type="text/css">
   <![CDATA[
    .fil0 {fill:#229038}
    .fil1 {fill:white;fill-rule:nonzero}
   ]]>
  </style>
 </defs>
 <g id="Layer_x0020_1">
  <metadata id="CorelCorpID_0Corel-Layer"/>
  <rect class="fil0" width="40.94" height="40.94" rx="6.94" ry="6.94"/>
  <path class="fil1" d="M15.4 12.81l-7.79 0 0 -3.74 15.86 0 -6.87 8.17c1.09,0.17 2.05,0.46 2.87,0.89 1.06,0.55 1.96,1.33 2.7,2.36 0.98,1.4 1.39,3.06 1.21,4.98 -0.15,1.93 -0.84,3.48 -2.06,4.67 -0.95,0.93 -2.05,1.62 -3.29,2.08 -1.14,0.42 -2.43,0.63 -3.84,0.63 -0.54,0 -1.15,-0.04 -1.84,-0.11 -0.69,-0.08 -1.39,-0.21 -2.09,-0.37 -1.28,-0.34 -2.29,-0.79 -3.05,-1.35l-0.17 -0.13 0.01 -4.39 0.67 0.43c0.96,0.62 1.84,1.07 2.65,1.36 0.92,0.32 1.93,0.49 3.03,0.54 1.2,0.04 2.26,-0.12 3.2,-0.5 0.88,-0.39 1.54,-0.94 1.97,-1.65 0.24,-0.38 0.4,-0.84 0.49,-1.4 0.06,-0.54 0.03,-1.05 -0.08,-1.52 -0.06,-0.21 -0.12,-0.38 -0.18,-0.52 -0.45,-1.07 -1.35,-1.82 -2.71,-2.22 -1.23,-0.36 -2.53,-0.37 -3.89,-0.02 -0.37,0.1 -0.66,0.2 -0.89,0.31l-0.59 0.26 -0.01 -3.17 4.69 -5.59z"/>
  <polygon class="fil1" points="33.85,32.41 30.05,32.41 30.05,15.78 25.16,18.6 25.16,14.3 34.21,9.07 34.21,32.41 "/>
 </g>
</svg>
