<?xml version="1.0" encoding="UTF-8"?>
<!DOCTYPE svg PUBLIC "-//W3C//DTD SVG 1.1//EN" "http://www.w3.org/Graphics/SVG/1.1/DTD/svg11.dtd">
<!-- Creator: CorelDRAW 2019 (64-Bit) -->
<svg xmlns="http://www.w3.org/2000/svg" xml:space="preserve" width="520px" height="520px" version="1.1" style="shape-rendering:geometricPrecision; text-rendering:geometricPrecision; image-rendering:optimizeQuality; fill-rule:evenodd; clip-rule:evenodd"
viewBox="0 0 212.18 212.18"
 xmlns:xlink="http://www.w3.org/1999/xlink">
 <defs>
  <style type="text/css">
   <![CDATA[
    .fil1 {fill:#FEFEFE}
    .fil0 {fill:#E51467}
   ]]>
  </style>
 </defs>
 <g id="Layer_x0020_1">
  <metadata id="CorelCorpID_0Corel-Layer"/>
  <g id="_2492617077456">
   <rect class="fil0" width="212.18" height="212.18" rx="35.94" ry="35.94"/>
   <path class="fil1" d="M119.01 71.05c2.34,-1.64 17.98,-12.6 35.91,-12.6 11.08,0 20.84,9.64 20.84,20.83 0,17.68 -20.84,35.38 -64.62,72.11l0 17.63 87.56 0 0 -17.63 -58.09 0c40.73,-33.65 55.31,-47.69 55.31,-72.11 0,-22.67 -19.9,-38.46 -41,-38.46 -21.63,0 -38.81,12.03 -40.49,13.21 1.58,5.89 3.04,11.24 4.58,17.02z"/>
   <path class="fil1" d="M20.18 58.81l46.33 0 -29.01 34.6 0.03 13.1c3.58,-1.52 5.56,-1.99 9.85,-2.56 9.01,-1.41 19.87,-0.59 26.85,4.67 3.96,2.98 7.76,6.84 9.44,13.26 1.63,6.2 0.41,13.5 -2.49,18.24 -6.24,10.18 -19.07,13.75 -31.16,13.18 -13.51,-0.63 -22.5,-4.08 -33.03,-11.01 -0.18,1.67 -0.06,15.95 -0.06,18.83 0,0.64 1.04,0.97 1.57,1.3 4.28,2.65 9.76,4.67 14.68,6.02 6.65,1.83 14.16,2.58 21.36,2.58 13.42,0 23.64,-3.51 32.5,-9.79 2.05,-1.45 4,-3.21 5.64,-4.78 12.67,-12.2 14.84,-36.27 4.44,-50.87 -7.65,-10.74 -18.89,-16.48 -33.88,-17.64l37.92 -45.19 -80.98 0 0 16.06z"/>
  </g>
 </g>
</svg>
