<?xml version="1.0" encoding="UTF-8"?>
<!DOCTYPE svg PUBLIC "-//W3C//DTD SVG 1.1//EN" "http://www.w3.org/Graphics/SVG/1.1/DTD/svg11.dtd">
<!-- Creator: CorelDRAW 2021.5 -->
<svg xmlns="http://www.w3.org/2000/svg" xml:space="preserve" width="520px" height="520px" version="1.1" style="shape-rendering:geometricPrecision; text-rendering:geometricPrecision; image-rendering:optimizeQuality; fill-rule:evenodd; clip-rule:evenodd"
viewBox="0 0 50.98 50.98"
 xmlns:xlink="http://www.w3.org/1999/xlink"
 xmlns:xodm="http://www.corel.com/coreldraw/odm/2003">
 <defs>
  <style type="text/css">
   <![CDATA[
    .fil0 {fill:#E51467}
    .fil1 {fill:white;fill-rule:nonzero}
   ]]>
  </style>
 </defs>
 <g id="Layer_x0020_1">
  <metadata id="CorelCorpID_0Corel-Layer"/>
  <rect class="fil0" width="50.98" height="50.98" rx="8.64" ry="8.64"/>
  <path class="fil1" d="M14.79 15.95l-9.7 0 0 -4.65 19.74 0 -8.54 10.16c1.36,0.21 2.55,0.58 3.57,1.12 1.32,0.67 2.44,1.65 3.36,2.93 1.22,1.74 1.73,3.81 1.51,6.2 -0.2,2.4 -1.05,4.34 -2.57,5.82 -1.18,1.15 -2.55,2.02 -4.09,2.59 -1.42,0.52 -3.02,0.78 -4.79,0.78 -0.67,0 -1.43,-0.05 -2.29,-0.14 -0.86,-0.09 -1.72,-0.25 -2.6,-0.46 -1.59,-0.42 -2.85,-0.98 -3.79,-1.68l-0.22 -0.15 0.02 -5.47 0.84 0.53c1.18,0.77 2.28,1.34 3.29,1.7 1.14,0.39 2.4,0.61 3.77,0.66 1.49,0.06 2.82,-0.14 3.99,-0.62 1.09,-0.48 1.91,-1.16 2.45,-2.06 0.3,-0.46 0.5,-1.04 0.6,-1.73 0.09,-0.68 0.05,-1.31 -0.09,-1.9 -0.07,-0.26 -0.14,-0.47 -0.23,-0.64 -0.55,-1.34 -1.68,-2.27 -3.37,-2.77 -1.52,-0.45 -3.15,-0.46 -4.85,-0.02 -0.45,0.12 -0.82,0.24 -1.1,0.38l-0.73 0.32 -0.02 -3.94 5.84 -6.96z"/>
  <path class="fil1" d="M28.88 18.72c-0.49,-1.83 -0.92,-3.42 -1.28,-4.77 1.44,-0.96 2.95,-1.73 4.55,-2.32 1.6,-0.59 3.28,-0.89 5.05,-0.89 2.65,0 4.93,0.89 6.85,2.68 1.86,1.75 2.79,3.88 2.79,6.38 0,2.72 -0.96,5.25 -2.87,7.61 -0.92,1.13 -2.09,2.34 -3.52,3.63 -1.42,1.29 -3.13,2.77 -5.14,4.43l12.17 0 0 4.89c-3.43,0 -6.86,0 -10.28,0 -3.42,0 -6.84,0 -10.26,0l0 -4.63c1.83,-1.53 3.71,-3.11 5.66,-4.74 1.95,-1.63 3.74,-3.31 5.38,-5.04 2.27,-2.38 3.41,-4.43 3.41,-6.15 0,-1.12 -0.41,-2.09 -1.25,-2.93 -0.84,-0.84 -1.82,-1.26 -2.94,-1.26 -1.61,0 -3.08,0.31 -4.41,0.93 -1.33,0.62 -2.63,1.35 -3.91,2.18z"/>
 </g>
</svg>
