<?xml version="1.0" encoding="UTF-8"?>
<!DOCTYPE svg PUBLIC "-//W3C//DTD SVG 1.1//EN" "http://www.w3.org/Graphics/SVG/1.1/DTD/svg11.dtd">
<!-- Creator: CorelDRAW 2021.5 -->
<svg xmlns="http://www.w3.org/2000/svg" xml:space="preserve" width="520px" height="520px" version="1.1" style="shape-rendering:geometricPrecision; text-rendering:geometricPrecision; image-rendering:optimizeQuality; fill-rule:evenodd; clip-rule:evenodd"
viewBox="0 0 67.53 67.53"
 xmlns:xlink="http://www.w3.org/1999/xlink"
 xmlns:xodm="http://www.corel.com/coreldraw/odm/2003">
 <defs>
  <style type="text/css">
   <![CDATA[
    .fil0 {fill:#6F7C32}
    .fil1 {fill:white;fill-rule:nonzero}
   ]]>
  </style>
 </defs>
 <g id="Layer_x0020_1">
  <metadata id="CorelCorpID_0Corel-Layer"/>
  <rect class="fil0" width="67.53" height="67.53" rx="11.44" ry="11.44"/>
  <path class="fil1" d="M19.76 21.13l-12.85 0 0 -6.16 26.15 0 -11.31 13.46c1.79,0.28 3.37,0.77 4.73,1.48 1.75,0.89 3.23,2.19 4.44,3.88 1.62,2.31 2.3,5.05 2.01,8.22 -0.26,3.18 -1.4,5.74 -3.41,7.7 -1.56,1.53 -3.38,2.68 -5.42,3.44 -1.88,0.68 -4,1.03 -6.34,1.03 -0.89,0 -1.9,-0.07 -3.03,-0.19 -1.14,-0.12 -2.29,-0.33 -3.45,-0.61 -2.1,-0.56 -3.77,-1.3 -5.03,-2.22l-0.29 -0.21 0.03 -7.24 1.11 0.71c1.57,1.02 3.02,1.77 4.36,2.25 1.52,0.51 3.18,0.8 5,0.87 1.97,0.08 3.73,-0.19 5.29,-0.82 1.44,-0.63 2.52,-1.54 3.25,-2.72 0.38,-0.62 0.65,-1.38 0.79,-2.3 0.11,-0.9 0.06,-1.74 -0.13,-2.51 -0.09,-0.36 -0.19,-0.64 -0.29,-0.85 -0.74,-1.78 -2.23,-3.01 -4.47,-3.67 -2.02,-0.6 -4.17,-0.61 -6.43,-0.03 -0.59,0.16 -1.08,0.32 -1.45,0.5l-0.97 0.43 -0.03 -5.22 7.74 -9.22z"/>
  <path class="fil1" d="M50.04 21.13l-12.85 0 0 -6.16 26.15 0 -11.32 13.46c1.8,0.28 3.38,0.77 4.73,1.48 1.75,0.89 3.23,2.19 4.45,3.88 1.61,2.31 2.29,5.05 2,8.22 -0.26,3.18 -1.4,5.74 -3.41,7.7 -1.56,1.53 -3.37,2.68 -5.41,3.44 -1.89,0.68 -4.01,1.03 -6.35,1.03 -0.88,0 -1.89,-0.07 -3.03,-0.19 -1.14,-0.12 -2.28,-0.33 -3.45,-0.61 -2.1,-0.56 -3.77,-1.3 -5.02,-2.22l-0.29 -0.21 0.03 -7.24 1.11 0.71c1.57,1.02 3.02,1.77 4.36,2.25 1.51,0.51 3.18,0.8 4.99,0.87 1.98,0.08 3.74,-0.19 5.29,-0.82 1.45,-0.63 2.53,-1.54 3.25,-2.72 0.39,-0.62 0.66,-1.38 0.79,-2.3 0.11,-0.9 0.07,-1.74 -0.12,-2.51 -0.09,-0.36 -0.19,-0.64 -0.3,-0.85 -0.74,-1.78 -2.23,-3.01 -4.47,-3.67 -2.02,-0.6 -4.16,-0.61 -6.42,-0.03 -0.6,0.16 -1.08,0.32 -1.45,0.5l-0.98 0.43 -0.03 -5.22 7.75 -9.22z"/>
 </g>
</svg>
