<?xml version="1.0" encoding="UTF-8"?>
<!DOCTYPE svg PUBLIC "-//W3C//DTD SVG 1.1//EN" "http://www.w3.org/Graphics/SVG/1.1/DTD/svg11.dtd">
<!-- Creator: CorelDRAW 2019 (64-Bit) -->
<svg xmlns="http://www.w3.org/2000/svg" xml:space="preserve" width="520px" height="520px" version="1.1" style="shape-rendering:geometricPrecision; text-rendering:geometricPrecision; image-rendering:optimizeQuality; fill-rule:evenodd; clip-rule:evenodd"
viewBox="0 0 10539.61 10539.56"
 xmlns:xlink="http://www.w3.org/1999/xlink">
 <defs>
  <style type="text/css">
   <![CDATA[
    .fil1 {fill:#FEFEFE}
    .fil0 {fill:#6F7C32}
   ]]>
  </style>
 </defs>
 <g id="Layer_x0020_1">
  <metadata id="CorelCorpID_0Corel-Layer"/>
  <g id="_2527397752016">
   <rect class="fil0" x="-0.12" y="-0.12" width="10539.61" height="10539.57" rx="1785.43" ry="1785.42"/>
   <path class="fil1" d="M5747.86 3050.84l2301.41 0 -1441.04 1718.46 1.31 650.65c178.03,-75.31 276.39,-98.53 489.63,-126.91 447.37,-69.88 986.58,-29.35 1333.34,231.85 196.81,148.28 385.43,339.87 469.29,658.91 80.9,307.67 20.08,670.39 -123.94,905.6 -309.73,505.93 -947.1,683.12 -1547.78,655.05 -671.25,-31.38 -1117.66,-203.04 -1640.61,-546.95 -8.93,82.96 -2.97,792.43 -2.94,935.35 0,31.9 51.35,48.05 78.16,64.62 212.47,131.35 484.57,231.64 729.1,298.91 329.97,90.78 703.37,127.91 1060.67,127.91 666.65,0 1174.22,-173.98 1614.35,-485.84 102.02,-72.29 199.11,-159.49 280.48,-237.79 629.47,-605.74 737.08,-1801.34 220.45,-2526.54 -380.06,-533.53 -938.43,-818.85 -1683.07,-876.46l1883.64 -2244.83 -4022.45 0 0 798.01z"/>
   <path class="fil1" d="M1104.87 3050.84l2301.41 0 -1441.05 1718.46 1.3 650.65c178.05,-75.31 276.41,-98.53 489.65,-126.91 447.37,-69.88 986.58,-29.35 1333.32,231.85 196.83,148.28 385.45,339.87 469.31,658.91 80.9,307.67 20.08,670.39 -123.94,905.6 -309.73,505.93 -947.1,683.12 -1547.78,655.05 -671.25,-31.38 -1117.66,-203.04 -1640.61,-546.95 -8.93,82.96 -2.99,792.43 -2.94,935.35 0,31.9 51.35,48.05 78.16,64.62 212.47,131.35 484.57,231.64 729.1,298.91 329.97,90.78 703.34,127.91 1060.67,127.91 666.65,0 1174.21,-173.98 1614.35,-485.84 102.02,-72.29 199.11,-159.49 280.48,-237.79 629.47,-605.74 737.08,-1801.34 220.45,-2526.54 -380.06,-533.53 -938.43,-818.85 -1683.07,-876.46l1883.64 -2244.83 -4022.45 0 0 798.01z"/>
  </g>
 </g>
</svg>
