<?xml version="1.0" encoding="UTF-8"?>
<!DOCTYPE svg PUBLIC "-//W3C//DTD SVG 1.1//EN" "http://www.w3.org/Graphics/SVG/1.1/DTD/svg11.dtd">
<!-- Creator: CorelDRAW 2021.5 -->
<svg xmlns="http://www.w3.org/2000/svg" xml:space="preserve" width="520px" height="520px" version="1.1" style="shape-rendering:geometricPrecision; text-rendering:geometricPrecision; image-rendering:optimizeQuality; fill-rule:evenodd; clip-rule:evenodd"
viewBox="0 0 207.68 207.68"
 xmlns:xlink="http://www.w3.org/1999/xlink"
 xmlns:xodm="http://www.corel.com/coreldraw/odm/2003">
 <defs>
  <style type="text/css">
   <![CDATA[
    .fil1 {fill:#FEFEFE}
    .fil0 {fill:#9D231F}
   ]]>
  </style>
 </defs>
 <g id="Layer_x0020_1">
  <metadata id="CorelCorpID_0Corel-Layer"/>
  <g id="_2391658868432">
   <rect class="fil0" width="207.68" height="207.68" rx="35.18" ry="35.18"/>
   <g>
    <path class="fil1" d="M17.14 59.28l45.35 0 -28.39 33.86 0.02 12.82c3.51,-1.48 5.45,-1.94 9.65,-2.5 8.82,-1.38 19.44,-0.58 26.27,4.57 3.88,2.92 7.6,6.69 9.25,12.98 1.59,6.06 0.4,13.21 -2.44,17.85 -6.11,9.97 -18.66,13.46 -30.5,12.9 -13.23,-0.61 -22.02,-4 -32.33,-10.77 -0.17,1.63 -0.06,15.61 -0.06,18.43 0,0.63 1.02,0.94 1.54,1.27 4.19,2.59 9.55,4.57 14.37,5.89 6.5,1.79 13.86,2.52 20.9,2.52 13.14,0 23.14,-3.43 31.81,-9.57 2.01,-1.43 3.92,-3.14 5.53,-4.69 12.4,-11.93 14.52,-35.49 4.34,-49.78 -7.49,-10.52 -18.49,-16.14 -33.16,-17.27l37.11 -44.24 -79.26 0 0 15.73z"/>
    <path class="fil1" d="M127.33 99.95c-8.14,-5.07 -14.6,-12.71 -14.6,-24.97 0,-19.32 12.35,-34.99 37.74,-34.99 25.39,0 37.75,16.03 37.75,34.99 0,14.84 -10.52,22.43 -15.6,25.45 13.73,5.83 21.14,15.77 21.14,30.99 0,16.68 -13.41,37.68 -43.29,37.68 -29.88,0 -43.29,-21 -43.29,-37.68 0,-16.69 9.79,-26.15 20.15,-31.47zm15.31 6.7c-9.59,4.33 -16.28,13.05 -16.28,24.77 0,12.99 10.79,23.52 24.11,23.52 13.32,0 24.11,-10.08 24.11,-23.52 0,-13.45 -10.99,-18.94 -24.58,-22.64 -2.23,-0.61 -4.73,-1.3 -7.36,-2.13zm13.38 -11.22c5.18,-2.99 14.76,-8.73 14.76,-20.45 0,-11.29 -9.09,-20.45 -20.31,-20.45 -11.22,0 -20.31,8.99 -20.31,20.45 0,11.47 8.3,15.94 20.15,19.11 0.44,0.12 5.49,1.26 5.71,1.34z"/>
   </g>
  </g>
 </g>
</svg>
