<?xml version="1.0" encoding="UTF-8"?>
<!DOCTYPE svg PUBLIC "-//W3C//DTD SVG 1.1//EN" "http://www.w3.org/Graphics/SVG/1.1/DTD/svg11.dtd">
<!-- Creator: CorelDRAW 2021.5 -->
<svg xmlns="http://www.w3.org/2000/svg" xml:space="preserve" width="520px" height="520px" version="1.1" style="shape-rendering:geometricPrecision; text-rendering:geometricPrecision; image-rendering:optimizeQuality; fill-rule:evenodd; clip-rule:evenodd"
viewBox="0 0 99.99 99.99"
 xmlns:xlink="http://www.w3.org/1999/xlink"
 xmlns:xodm="http://www.corel.com/coreldraw/odm/2003">
 <defs>
  <style type="text/css">
   <![CDATA[
    .fil0 {fill:#9D231F}
    .fil1 {fill:white;fill-rule:nonzero}
   ]]>
  </style>
 </defs>
 <g id="Layer_x0020_1">
  <metadata id="CorelCorpID_0Corel-Layer"/>
  <rect class="fil0" width="99.99" height="99.99" rx="16.94" ry="16.94"/>
  <path class="fil1" d="M29.11 31.29l-19.02 0 0 -9.13 38.72 0 -16.76 19.94c2.66,0.41 5,1.13 7,2.19 2.6,1.32 4.79,3.25 6.59,5.74 2.39,3.43 3.4,7.49 2.97,12.18 -0.39,4.7 -2.07,8.5 -5.05,11.4 -2.31,2.27 -5,3.96 -8.02,5.09 -2.79,1.01 -5.93,1.52 -9.39,1.52 -1.31,0 -2.81,-0.09 -4.49,-0.27 -1.69,-0.18 -3.38,-0.49 -5.11,-0.91 -3.11,-0.82 -5.58,-1.92 -7.44,-3.28l-0.43 -0.31 0.04 -10.73 1.65 1.05c2.32,1.52 4.47,2.62 6.45,3.33 2.24,0.76 4.72,1.19 7.4,1.3 2.93,0.12 5.53,-0.28 7.83,-1.22 2.14,-0.93 3.74,-2.28 4.81,-4.03 0.58,-0.91 0.98,-2.05 1.18,-3.41 0.16,-1.32 0.09,-2.57 -0.19,-3.71 -0.13,-0.53 -0.28,-0.94 -0.44,-1.26 -1.09,-2.63 -3.3,-4.45 -6.61,-5.44 -3,-0.88 -6.18,-0.89 -9.52,-0.04 -0.88,0.24 -1.6,0.48 -2.15,0.75l-1.44 0.63 -0.04 -7.73 11.46 -13.65z"/>
  <path class="fil1" d="M61.08 48.51c-1.53,-1.09 -2.75,-2.35 -3.63,-3.75 -1.36,-2.11 -2.03,-4.53 -2.03,-7.25 0,-5.01 1.61,-9.03 4.85,-12.06 3.18,-2.94 7.45,-4.42 12.84,-4.42 5.34,0 9.62,1.48 12.8,4.42 3.26,3.06 4.89,7.08 4.89,12.06 0,3.08 -0.94,5.8 -2.82,8.18 -0.88,1.1 -1.94,2.1 -3.17,3.02 2.5,1.24 4.47,2.89 5.87,4.93 1.72,2.5 2.59,5.49 2.59,8.97 0,2.19 -0.49,4.43 -1.47,6.73 -0.97,2.29 -2.48,4.33 -4.53,6.11 -3.67,3.18 -8.4,4.77 -14.16,4.77 -5.77,0 -10.48,-1.59 -14.14,-4.77 -2.06,-1.78 -3.58,-3.82 -4.56,-6.11 -0.97,-2.3 -1.47,-4.54 -1.47,-6.73 0,-3.24 0.81,-6.13 2.4,-8.7 1.37,-2.11 3.3,-3.92 5.74,-5.4zm8.62 4.08c-1.96,0.91 -3.51,2.23 -4.66,3.95 -1.15,1.77 -1.73,3.8 -1.73,6.07 0,2.63 0.97,4.88 2.86,6.73 1.91,1.87 4.23,2.82 6.94,2.82 2.71,0 5.05,-0.93 7,-2.78 1.86,-1.85 2.78,-4.11 2.78,-6.77 0,-2.43 -0.94,-4.41 -2.82,-5.96 -1.59,-1.19 -4.05,-2.27 -7.39,-3.25 -0.68,-0.14 -1.21,-0.29 -1.62,-0.43 -0.22,-0.05 -0.45,-0.1 -0.68,-0.17 -0.21,-0.07 -0.45,-0.13 -0.68,-0.21zm5.72 -6.98c0.55,-0.31 1.15,-0.68 1.79,-1.13 0.66,-0.44 1.27,-0.98 1.84,-1.61 1.45,-1.51 2.16,-3.3 2.16,-5.36 0,-2.24 -0.78,-4.18 -2.34,-5.79 -1.66,-1.59 -3.57,-2.38 -5.76,-2.38 -2.25,0 -4.17,0.79 -5.76,2.38 -1.56,1.56 -2.35,3.5 -2.35,5.79 0,2.12 0.72,3.76 2.16,4.93 1.24,1.05 3.29,1.93 6.11,2.66 0,0 0.31,0.08 0.93,0.24 0.28,0.06 0.7,0.14 1.22,0.27z"/>
 </g>
</svg>
