<?xml version="1.0" encoding="UTF-8"?>
<!DOCTYPE svg PUBLIC "-//W3C//DTD SVG 1.1//EN" "http://www.w3.org/Graphics/SVG/1.1/DTD/svg11.dtd">
<!-- Creator: CorelDRAW 2019 (64-Bit) -->
<svg xmlns="http://www.w3.org/2000/svg" xml:space="preserve" width="591px" height="591px" version="1.1" style="shape-rendering:geometricPrecision; text-rendering:geometricPrecision; image-rendering:optimizeQuality; fill-rule:evenodd; clip-rule:evenodd"
viewBox="0 0 8891.32 8891.32"
 xmlns:xlink="http://www.w3.org/1999/xlink">
 <defs>
  <style type="text/css">
   <![CDATA[
    .fil1 {fill:#2B2A29}
    .fil0 {fill:#FECD27}
   ]]>
  </style>
 </defs>
 <g id="Layer_x0020_1">
  <metadata id="CorelCorpID_0Corel-Layer"/>
  <g id="_2527100858160">
   <rect class="fil0" transform="matrix(5.87875 -5.87876 5.87875 5.87876 -491.434 4445.66)" width="839.8" height="839.8" rx="142.26" ry="142.26"/>
   <path class="fil1" d="M4035.69 2869.46l1774.1 0 0 -608.3 -2277.98 2.12 -292.16 2309.4c110.77,-30.32 214.48,-67.52 332.08,-96.52 350.54,-86.46 792.34,-132.9 1137.7,-42.9 418.79,109.14 783.45,450.02 695.07,983.24 -77.34,466.52 -543.02,694.5 -975.5,734.92 -507.37,47.43 -1006.79,-113.26 -1361.54,-327.4l-0.11 653.06c25.75,8.8 66.42,32.69 91.55,45.54 90.78,46.45 184.05,84.21 280.31,118.88 411.75,148.31 996.79,177.07 1414.55,80.51 531.32,-122.79 991.17,-434.67 1187.37,-959.93 101.36,-271.39 101.92,-655.02 16.74,-936.01 -88.67,-292.44 -264.3,-494.56 -436.9,-633.44 -355,-285.65 -765.63,-383.62 -1242.58,-370.25 -79.78,2.24 -165.21,7.65 -243.72,20.63 -78.97,13.07 -152.42,32.54 -228.62,44.41l129.64 -1017.96z"/>
  </g>
 </g>
</svg>
