<?xml version="1.0" encoding="UTF-8"?>
<!DOCTYPE svg PUBLIC "-//W3C//DTD SVG 1.1//EN" "http://www.w3.org/Graphics/SVG/1.1/DTD/svg11.dtd">
<!-- Creator: CorelDRAW 2021.5 -->
<svg xmlns="http://www.w3.org/2000/svg" xml:space="preserve" width="590px" height="590px" version="1.1" style="shape-rendering:geometricPrecision; text-rendering:geometricPrecision; image-rendering:optimizeQuality; fill-rule:evenodd; clip-rule:evenodd"
viewBox="0 0 252.15 252.15"
 xmlns:xlink="http://www.w3.org/1999/xlink"
 xmlns:xodm="http://www.corel.com/coreldraw/odm/2003">
 <defs>
  <style type="text/css">
   <![CDATA[
    .fil0 {fill:#954592}
    .fil1 {fill:#FEFEFE;fill-rule:nonzero}
   ]]>
  </style>
 </defs>
 <g id="Layer_x0020_1">
  <metadata id="CorelCorpID_0Corel-Layer"/>
  <rect class="fil0" transform="matrix(2.34728 -2.34727 2.34728 2.34727 -13.9374 126.077)" width="59.65" height="59.65" rx="10.1" ry="10.1"/>
  <path class="fil1" d="M102.53 118.84c4.19,-4.01 9.15,-6.77 14.88,-8.35 8.89,-2.38 17.59,-2.52 26.11,-0.45 8.26,2.14 15.04,6.33 20.38,12.54 5.26,6.21 8.35,13.55 9.21,22.01 0.89,9.06 -0.3,17.17 -3.56,24.39 -3.3,7.43 -8.5,13.49 -15.57,18.18 -6.8,4.46 -14.73,6.83 -23.85,7.13 -4.19,0.12 -8.59,-0.24 -13.22,-1.04 -4.67,-0.8 -8.79,-2.2 -12.45,-4.19 -6.98,-3.89 -12.35,-8.85 -16.19,-14.88 -4.13,-6.15 -7.01,-13.52 -8.61,-22.1 -1.58,-8.41 -1.93,-17.53 -1.04,-27.33 0.8,-9.63 2.76,-18.12 5.91,-25.49 2.08,-5.05 4.72,-9.95 7.87,-14.67 3.15,-4.73 7.01,-8.74 11.53,-12.06 6.68,-4.99 14.35,-8.08 22.99,-9.3 8.58,-1.1 17.29,-0.3 26.08,2.44 1.93,0.68 3.8,1.54 5.67,2.55 1.85,1.04 3.72,2.02 5.56,3l-0.09 22.13c-4.34,-2.23 -7.96,-4.07 -10.87,-5.58 -2.88,-1.52 -6.86,-2.56 -11.91,-3.12 -5.8,-0.72 -11.29,-0.12 -16.46,1.72 -6.77,2.44 -12,6.77 -15.63,12.98 -3.62,6.21 -5.85,12.72 -6.74,19.49zm32.74 10.78c-6.27,-2.08 -12.48,-1.81 -18.63,0.8 -6.27,2.56 -10.78,6.51 -13.57,11.91 -0.87,1.76 -1.34,3.03 -1.4,3.87 -0.06,0.86 0.09,2.14 0.44,3.89 0.57,3.47 1.49,6.71 2.77,9.68 1.28,3 3.33,5.65 6.09,7.96 4.54,3.95 10.04,5.8 16.54,5.5 6.69,-0.18 12.18,-2.44 16.49,-6.83 4.34,-4.37 6.39,-10.04 6.15,-17.02 -0.42,-9.99 -5.38,-16.55 -14.88,-19.76z"/>
 </g>
</svg>
