<?xml version="1.0" encoding="UTF-8"?>
<!DOCTYPE svg PUBLIC "-//W3C//DTD SVG 1.1//EN" "http://www.w3.org/Graphics/SVG/1.1/DTD/svg11.dtd">
<!-- Creator: CorelDRAW 2019 (64-Bit) -->
<svg xmlns="http://www.w3.org/2000/svg" xml:space="preserve" width="589px" height="589px" version="1.1" style="shape-rendering:geometricPrecision; text-rendering:geometricPrecision; image-rendering:optimizeQuality; fill-rule:evenodd; clip-rule:evenodd"
viewBox="0 0 66.14 66.14"
 xmlns:xlink="http://www.w3.org/1999/xlink">
 <defs>
  <style type="text/css">
   <![CDATA[
    .fil1 {fill:#FEFEFE}
    .fil0 {fill:#954592}
   ]]>
  </style>
 </defs>
 <g id="Layer_x0020_1">
  <metadata id="CorelCorpID_0Corel-Layer"/>
  <g id="_2527260438832">
   <rect class="fil0" transform="matrix(5.86819 -5.86818 5.86819 5.86818 -3.65596 33.0715)" width="6.26" height="6.26" rx="1.06" ry="1.06"/>
   <path class="fil1" d="M32.13 32.5c2.09,-0.23 4.29,0.48 5.71,1.92 0.48,0.48 0.77,0.83 1.09,1.46 0.86,1.7 0.89,3.9 0.2,5.67 -0.15,0.39 -0.38,0.8 -0.59,1.1 -0.12,0.19 -0.23,0.32 -0.36,0.5 -0.13,0.19 -0.25,0.27 -0.4,0.44 -1.15,1.31 -2.94,1.95 -4.76,2.02 -4.03,0.13 -6.69,-2.6 -7.33,-6.34 -0.24,-1.39 -0.34,-1.56 0.27,-2.74 0.48,-0.95 1.21,-1.74 1.94,-2.3 1.32,-1.01 2.48,-1.54 4.23,-1.73zm-6.51 -0.54c0.09,-3.07 1.12,-6.07 2.95,-8.28 1.94,-2.35 5.05,-3.29 8.21,-2.94 1.68,0.19 3.53,0.74 4.94,1.65 0.18,0.12 0.4,0.26 0.57,0.35l0.01 -4.72 -1.26 -0.7c-0.41,-0.22 -0.95,-0.46 -1.38,-0.6 -4.34,-1.38 -9.03,-0.92 -12.66,1.76 -0.52,0.38 -1.14,0.94 -1.57,1.4 -0.42,0.45 -1,1.15 -1.35,1.66 -0.96,1.39 -1.42,2.25 -2.12,3.88 -1.6,3.74 -2.12,9.51 -1.27,13.86 0.44,2.29 1.13,4.07 2.23,5.73 0.61,0.95 1.45,1.91 2.34,2.61 0.2,0.16 0.35,0.28 0.56,0.43 0.38,0.28 0.8,0.52 1.25,0.77 1.85,1.03 4.45,1.42 6.61,1.35 2.33,-0.07 4.5,-0.78 6.1,-1.85 2.95,-1.95 5.45,-5.5 4.9,-10.89 -0.23,-2.26 -0.98,-3.99 -2.35,-5.61 -2.83,-3.35 -7.57,-4.25 -11.89,-3.07 -1.03,0.29 -1.97,0.76 -2.74,1.27 -0.65,0.43 -1.06,0.86 -1.59,1.38 -0.15,0.15 -0.33,0.44 -0.49,0.56z"/>
  </g>
 </g>
</svg>
