<?xml version="1.0" encoding="UTF-8"?>
<!DOCTYPE svg PUBLIC "-//W3C//DTD SVG 1.1//EN" "http://www.w3.org/Graphics/SVG/1.1/DTD/svg11.dtd">
<!-- Creator: CorelDRAW 2021.5 -->
<svg xmlns="http://www.w3.org/2000/svg" xml:space="preserve" width="590px" height="590px" version="1.1" style="shape-rendering:geometricPrecision; text-rendering:geometricPrecision; image-rendering:optimizeQuality; fill-rule:evenodd; clip-rule:evenodd"
viewBox="0 0 284.76 284.76"
 xmlns:xlink="http://www.w3.org/1999/xlink"
 xmlns:xodm="http://www.corel.com/coreldraw/odm/2003">
 <defs>
  <style type="text/css">
   <![CDATA[
    .fil0 {fill:#8D8D8D}
    .fil1 {fill:#FEFEFE;fill-rule:nonzero}
   ]]>
  </style>
 </defs>
 <g id="Layer_x0020_1">
  <metadata id="CorelCorpID_0Corel-Layer"/>
  <rect class="fil0" transform="matrix(2.34728 -2.34727 2.34728 2.34727 -15.74 142.38)" width="67.36" height="67.36" rx="11.41" ry="11.41"/>
  <path class="fil1" d="M112.19 137.08c-3.86,-2.75 -6.91,-5.91 -9.13,-9.43 -3.42,-5.3 -5.09,-11.37 -5.09,-18.18 0,-12.58 4.05,-22.68 12.17,-30.29 7.99,-7.38 18.72,-11.11 32.24,-11.11 13.42,0 24.16,3.73 32.14,11.11 8.19,7.68 12.28,17.78 12.28,30.29 0,7.72 -2.35,14.56 -7.08,20.53 -2.22,2.75 -4.87,5.27 -7.95,7.58 6.27,3.12 11.2,7.25 14.72,12.38 4.33,6.28 6.51,13.79 6.51,22.51 0,5.5 -1.24,11.14 -3.69,16.91 -2.45,5.74 -6.24,10.87 -11.37,15.33 -9.23,7.98 -21.1,11.98 -35.56,11.98 -14.49,0 -26.3,-4 -35.49,-11.98 -5.17,-4.46 -8.99,-9.59 -11.44,-15.33 -2.45,-5.77 -3.69,-11.41 -3.69,-16.91 0,-8.12 2.01,-15.4 6,-21.84 3.46,-5.3 8.29,-9.83 14.43,-13.55zm21.64 10.23c-4.93,2.28 -8.83,5.6 -11.71,9.93 -2.89,4.43 -4.33,9.53 -4.33,15.23 0,6.61 2.42,12.25 7.18,16.91 4.8,4.69 10.6,7.08 17.41,7.08 6.81,0 12.68,-2.35 17.58,-6.98 4.66,-4.66 6.98,-10.33 6.98,-17.01 0,-6.1 -2.35,-11.07 -7.08,-14.96 -3.99,-2.99 -10.17,-5.7 -18.55,-8.15 -1.71,-0.37 -3.05,-0.74 -4.06,-1.08 -0.57,-0.13 -1.14,-0.26 -1.71,-0.43 -0.54,-0.17 -1.14,-0.34 -1.71,-0.54zm14.35 -17.51c1.38,-0.77 2.89,-1.71 4.5,-2.85 1.64,-1.11 3.19,-2.45 4.63,-4.03 3.62,-3.79 5.4,-8.28 5.4,-13.45 0,-5.64 -1.94,-10.5 -5.87,-14.56 -4.16,-3.99 -8.96,-5.97 -14.46,-5.97 -5.64,0 -10.46,1.98 -14.46,5.97 -3.92,3.93 -5.9,8.79 -5.9,14.56 0,5.3 1.81,9.43 5.43,12.38 3.12,2.62 8.26,4.83 15.33,6.67 0,0 0.78,0.21 2.35,0.61 0.71,0.13 1.75,0.33 3.05,0.67z"/>
 </g>
</svg>
