<?xml version="1.0" encoding="UTF-8"?>
<!DOCTYPE svg PUBLIC "-//W3C//DTD SVG 1.1//EN" "http://www.w3.org/Graphics/SVG/1.1/DTD/svg11.dtd">
<!-- Creator: CorelDRAW 2019 (64-Bit) -->
<svg xmlns="http://www.w3.org/2000/svg" xml:space="preserve" width="589px" height="589px" version="1.1" style="shape-rendering:geometricPrecision; text-rendering:geometricPrecision; image-rendering:optimizeQuality; fill-rule:evenodd; clip-rule:evenodd"
viewBox="0 0 131.09 131.09"
 xmlns:xlink="http://www.w3.org/1999/xlink">
 <defs>
  <style type="text/css">
   <![CDATA[
    .fil0 {fill:#9D9E9E}
    .fil1 {fill:#2B2A29}
   ]]>
  </style>
 </defs>
 <g id="Layer_x0020_1">
  <metadata id="CorelCorpID_0Corel-Layer"/>
  <g id="_2527397737744">
   <rect class="fil0" transform="matrix(5.86819 -5.86818 5.86819 5.86818 -7.24566 65.5434)" width="12.4" height="12.4" rx="2.1" ry="2.1"/>
   <path class="fil1" d="M53.54 63.16c-4.22,-2.63 -7.58,-6.59 -7.58,-12.95 0,-10.03 6.41,-18.16 19.58,-18.16 13.18,0 19.59,8.32 19.59,18.16 0,7.7 -5.46,11.63 -8.09,13.2 7.12,3.02 10.96,8.18 10.96,16.08 0,8.65 -6.95,19.55 -22.46,19.55 -15.5,0 -22.45,-10.9 -22.45,-19.55 0,-8.66 5.08,-13.57 10.45,-16.33zm7.94 3.48c-4.97,2.25 -8.44,6.77 -8.44,12.85 0,6.74 5.6,12.2 12.5,12.2 6.91,0 12.51,-5.23 12.51,-12.2 0,-6.98 -5.7,-9.83 -12.75,-11.75 -1.16,-0.31 -2.45,-0.67 -3.82,-1.1zm6.94 -5.82c2.69,-1.56 7.66,-4.53 7.66,-10.61 0,-5.86 -4.72,-10.61 -10.54,-10.61 -5.81,0 -10.53,4.66 -10.53,10.61 0,5.95 4.3,8.27 10.45,9.91 0.23,0.07 2.85,0.65 2.96,0.7z"/>
  </g>
 </g>
</svg>
