<?xml version="1.0" encoding="UTF-8"?>
<!DOCTYPE svg PUBLIC "-//W3C//DTD SVG 1.1//EN" "http://www.w3.org/Graphics/SVG/1.1/DTD/svg11.dtd">
<!-- Creator: CorelDRAW 2021.5 -->
<svg xmlns="http://www.w3.org/2000/svg" xml:space="preserve" width="590px" height="590px" version="1.1" style="shape-rendering:geometricPrecision; text-rendering:geometricPrecision; image-rendering:optimizeQuality; fill-rule:evenodd; clip-rule:evenodd"
viewBox="0 0 137.98 137.98"
 xmlns:xlink="http://www.w3.org/1999/xlink"
 xmlns:xodm="http://www.corel.com/coreldraw/odm/2003">
 <defs>
  <style type="text/css">
   <![CDATA[
    .fil0 {fill:#26602C}
    .fil1 {fill:#FEFEFE;fill-rule:nonzero}
   ]]>
  </style>
 </defs>
 <g id="Layer_x0020_1">
  <metadata id="CorelCorpID_0Corel-Layer"/>
  <rect class="fil0" transform="matrix(2.34728 -2.34727 2.34728 2.34727 -7.62685 68.9911)" width="32.64" height="32.64" rx="5.53" ry="5.53"/>
  <path class="fil1" d="M82.7 79.93c0.6,-1.84 1.05,-3.75 1.38,-5.72 -2.42,2.19 -5.15,3.7 -8.19,4.53 -4.99,1.37 -9.74,1.43 -14.24,0.23 -4.57,-1.14 -8.31,-3.41 -11.2,-6.81 -2.88,-3.4 -4.57,-7.43 -5.04,-12.09 -0.46,-4.93 0.19,-9.37 1.95,-13.33 1.9,-4.29 4.81,-7.63 8.74,-10.03 3.92,-2.39 8.21,-3.68 12.88,-3.84 3.9,-0.1 7.64,0.47 11.18,1.69 3.56,1.22 6.7,3.32 9.4,6.28 3.47,3.93 5.83,8.97 7.03,15.13 0.87,4.7 1.06,9.69 0.57,14.95 -0.53,5.5 -1.61,10.16 -3.23,14 -1.2,2.76 -2.67,5.45 -4.41,8.03 -1.72,2.59 -3.82,4.8 -6.26,6.6 -3.68,2.67 -7.86,4.32 -12.56,5.01 -4.71,0.65 -9.46,0.22 -14.24,-1.3 -1.12,-0.31 -2.18,-0.75 -3.2,-1.34 -1.01,-0.57 -2.02,-1.13 -2.99,-1.7l0.05 -12.1c2.37,1.24 4.35,2.28 5.91,3.12 1.58,0.83 3.76,1.4 6.55,1.69 3.27,0.35 6.29,0.04 9.06,-0.95 2.76,-1 5,-2.56 6.76,-4.72 1.74,-2.16 3.1,-4.6 4.1,-7.33zm-10.67 -11c2.85,-0.28 5.53,-1.39 8.05,-3.29 1.58,-1.2 2.8,-2.65 3.66,-4.34 0.48,-0.91 0.73,-1.61 0.76,-2.06 0.03,-0.46 -0.03,-1.19 -0.19,-2.16 -0.77,-4.23 -2.39,-7.45 -4.9,-9.68 -2.45,-2.13 -5.46,-3.13 -9.05,-3 -3.76,0.13 -6.78,1.41 -9.1,3.87 -2.31,2.43 -3.42,5.49 -3.29,9.18 0.13,3.2 1.22,5.82 3.29,7.85 2.89,2.89 6.48,4.1 10.77,3.63z"/>
 </g>
</svg>
