<?xml version="1.0" encoding="UTF-8"?>
<!DOCTYPE svg PUBLIC "-//W3C//DTD SVG 1.1//EN" "http://www.w3.org/Graphics/SVG/1.1/DTD/svg11.dtd">
<!-- Creator: CorelDRAW 2019 (64-Bit) -->
<svg xmlns="http://www.w3.org/2000/svg" xml:space="preserve" width="589px" height="589px" version="1.1" style="shape-rendering:geometricPrecision; text-rendering:geometricPrecision; image-rendering:optimizeQuality; fill-rule:evenodd; clip-rule:evenodd"
viewBox="0 0 257.3 257.3"
 xmlns:xlink="http://www.w3.org/1999/xlink">
 <defs>
  <style type="text/css">
   <![CDATA[
    .fil1 {fill:#FEFEFE}
    .fil0 {fill:#26602C}
   ]]>
  </style>
 </defs>
 <g id="Layer_x0020_1">
  <metadata id="CorelCorpID_0Corel-Layer"/>
  <g id="_2527362060784">
   <rect class="fil0" transform="matrix(5.86819 -5.86818 5.86819 5.86818 -14.2217 128.648)" width="24.35" height="24.35" rx="4.12" ry="4.12"/>
   <path class="fil1" d="M132.3 130.89c-8.12,0.88 -16.66,-1.9 -22.21,-7.5 -1.84,-1.86 -2.98,-3.2 -4.23,-5.67 -3.34,-6.59 -3.46,-15.16 -0.77,-22.03 0.59,-1.52 1.48,-3.12 2.28,-4.32 0.48,-0.71 0.9,-1.22 1.39,-1.91 0.54,-0.74 0.98,-1.05 1.58,-1.72 4.46,-5.09 11.44,-7.6 18.52,-7.85 15.66,-0.54 26.01,10.1 28.5,24.63 0.93,5.44 1.34,6.09 -1.03,10.69 -1.89,3.68 -4.73,6.75 -7.57,8.93 -5.12,3.94 -9.66,6.01 -16.46,6.75zm25.33 2.09c-0.34,11.95 -4.34,23.6 -11.46,32.21 -7.55,9.13 -19.66,12.8 -31.93,11.42 -6.57,-0.73 -13.74,-2.85 -19.24,-6.41 -0.71,-0.45 -1.53,-1.01 -2.2,-1.36l-0.05 18.35 4.89 2.74c1.61,0.84 3.69,1.78 5.38,2.32 16.88,5.38 35.12,3.59 49.26,-6.83 2.02,-1.49 4.41,-3.65 6.1,-5.45 1.65,-1.77 3.87,-4.46 5.26,-6.48 3.72,-5.39 5.51,-8.74 8.22,-15.07 6.22,-14.54 8.26,-37.01 4.97,-53.91 -1.74,-8.93 -4.43,-15.84 -8.68,-22.32 -2.4,-3.67 -5.66,-7.39 -9.11,-10.14 -0.77,-0.61 -1.36,-1.07 -2.18,-1.67 -1.48,-1.08 -3.1,-2.01 -4.88,-3 -7.18,-4.02 -17.29,-5.52 -25.69,-5.26 -9.08,0.28 -17.5,3.06 -23.74,7.19 -11.48,7.62 -21.2,21.41 -19.07,42.38 0.89,8.78 3.82,15.52 9.16,21.83 11.01,13.02 29.45,16.53 46.25,11.93 4.02,-1.1 7.66,-2.95 10.65,-4.94 2.53,-1.68 4.15,-3.34 6.2,-5.35 0.59,-0.57 1.28,-1.71 1.89,-2.18z"/>
  </g>
 </g>
</svg>
